<?xml version="1.0" encoding="UTF-8"?>
<svg id="Calque_2" data-name="Calque 2" xmlns="http://www.w3.org/2000/svg" xmlns:xlink="http://www.w3.org/1999/xlink" viewBox="0 0 432.57 348.69">
  <defs>
    <style>
      .cls-1 {
        fill: #5dc65d;
      }

      .cls-2 {
        fill: #de2636;
      }

      .cls-3 {
        fill: url(#Dégradé_sans_nom_47);
      }

      .cls-4 {
        fill: url(#Dégradé_sans_nom_37);
      }

      .cls-5 {
        fill: url(#Dégradé_sans_nom_21);
      }

      .cls-6 {
        fill: url(#Dégradé_sans_nom_52);
      }

      .cls-7 {
        fill: url(#Dégradé_sans_nom_69);
      }

      .cls-8 {
        fill: url(#Dégradé_sans_nom_21-10);
      }

      .cls-9 {
        fill: url(#Dégradé_sans_nom_21-12);
      }

      .cls-10 {
        fill: url(#Dégradé_sans_nom_21-11);
      }

      .cls-11 {
        fill: url(#Dégradé_sans_nom_21-14);
      }

      .cls-12 {
        fill: url(#Dégradé_sans_nom_21-13);
      }

      .cls-13 {
        fill: #801100;
      }

      .cls-14 {
        fill: url(#Dégradé_sans_nom_21-2);
      }

      .cls-15 {
        fill: url(#Dégradé_sans_nom_21-4);
      }

      .cls-16 {
        fill: url(#Dégradé_sans_nom_21-9);
      }

      .cls-17 {
        fill: url(#Dégradé_sans_nom_21-3);
      }

      .cls-18 {
        fill: url(#Dégradé_sans_nom_21-6);
      }

      .cls-19 {
        fill: url(#Dégradé_sans_nom_21-5);
      }

      .cls-20 {
        fill: url(#Dégradé_sans_nom_21-8);
      }

      .cls-21 {
        fill: url(#Dégradé_sans_nom_21-7);
      }

      .cls-22 {
        fill: url(#Dégradé_sans_nom_37-5);
      }

      .cls-23 {
        fill: url(#Dégradé_sans_nom_37-6);
      }

      .cls-24 {
        fill: url(#Dégradé_sans_nom_37-3);
      }

      .cls-25 {
        fill: url(#Dégradé_sans_nom_37-4);
      }

      .cls-26 {
        fill: url(#Dégradé_sans_nom_37-2);
      }
    </style>
    <linearGradient id="Dégradé_sans_nom_21" data-name="Dégradé sans nom 21" x1="192.27" y1="6.84" x2="229.11" y2="133.73" gradientUnits="userSpaceOnUse">
      <stop offset="0" stop-color="#fac000"/>
      <stop offset="1" stop-color="#fc6400"/>
    </linearGradient>
    <linearGradient id="Dégradé_sans_nom_21-2" data-name="Dégradé sans nom 21" x1="190.31" y1="35.93" x2="236.17" y2="144.1" xlink:href="#Dégradé_sans_nom_21"/>
    <linearGradient id="Dégradé_sans_nom_37" data-name="Dégradé sans nom 37" x1="190.31" y1="49.22" x2="239.63" y2="140.94" gradientUnits="userSpaceOnUse">
      <stop offset="0" stop-color="#ff7500"/>
      <stop offset="1" stop-color="#b62203"/>
    </linearGradient>
    <linearGradient id="Dégradé_sans_nom_21-3" data-name="Dégradé sans nom 21" x1="242.85" y1="-5.4" x2="280.18" y2="123.19" xlink:href="#Dégradé_sans_nom_21"/>
    <linearGradient id="Dégradé_sans_nom_21-4" data-name="Dégradé sans nom 21" x1="227.85" y1="16.68" x2="284.53" y2="81.14" xlink:href="#Dégradé_sans_nom_21"/>
    <linearGradient id="Dégradé_sans_nom_69" data-name="Dégradé sans nom 69" x1="211.58" y1="154.89" x2="334.23" y2="73.12" gradientUnits="userSpaceOnUse">
      <stop offset="0" stop-color="#ffc2c9" stop-opacity=".2"/>
      <stop offset="1" stop-color="#ffc2c9" stop-opacity="0"/>
    </linearGradient>
    <linearGradient id="Dégradé_sans_nom_21-5" data-name="Dégradé sans nom 21" x1="355.5" y1="146.37" x2="401.57" y2="332.13" xlink:href="#Dégradé_sans_nom_21"/>
    <linearGradient id="Dégradé_sans_nom_21-6" data-name="Dégradé sans nom 21" x1="208.96" y1="172.96" x2="239.47" y2="313.79" xlink:href="#Dégradé_sans_nom_21"/>
    <linearGradient id="Dégradé_sans_nom_21-7" data-name="Dégradé sans nom 21" x1="3.2" y1="133.89" x2="95.68" y2="316.42" xlink:href="#Dégradé_sans_nom_21"/>
    <linearGradient id="Dégradé_sans_nom_21-8" data-name="Dégradé sans nom 21" x1="27.14" y1="103.16" x2="68.89" y2="211.76" xlink:href="#Dégradé_sans_nom_21"/>
    <linearGradient id="Dégradé_sans_nom_37-2" data-name="Dégradé sans nom 37" x1="68.39" y1="230.5" x2="48.6" y2="344.39" xlink:href="#Dégradé_sans_nom_37"/>
    <linearGradient id="Dégradé_sans_nom_21-9" data-name="Dégradé sans nom 21" x1="144.78" y1="154.06" x2="167.17" y2="340.96" xlink:href="#Dégradé_sans_nom_21"/>
    <linearGradient id="Dégradé_sans_nom_21-10" data-name="Dégradé sans nom 21" x1="140.14" y1="152.07" x2="181.68" y2="226.92" xlink:href="#Dégradé_sans_nom_21"/>
    <linearGradient id="Dégradé_sans_nom_37-3" data-name="Dégradé sans nom 37" x1="152.24" y1="242.09" x2="113.99" y2="323.47" xlink:href="#Dégradé_sans_nom_37"/>
    <linearGradient id="Dégradé_sans_nom_37-4" data-name="Dégradé sans nom 37" x1="224.46" y1="230.29" x2="201.53" y2="331.96" xlink:href="#Dégradé_sans_nom_37"/>
    <linearGradient id="Dégradé_sans_nom_21-11" data-name="Dégradé sans nom 21" x1="259.32" y1="168.53" x2="328.44" y2="315.84" xlink:href="#Dégradé_sans_nom_21"/>
    <linearGradient id="Dégradé_sans_nom_21-12" data-name="Dégradé sans nom 21" x1="214.36" y1="168.31" x2="240.75" y2="210.06" xlink:href="#Dégradé_sans_nom_21"/>
    <linearGradient id="Dégradé_sans_nom_21-13" data-name="Dégradé sans nom 21" x1="275.93" y1="171.74" x2="330.01" y2="210.25" xlink:href="#Dégradé_sans_nom_21"/>
    <linearGradient id="Dégradé_sans_nom_37-5" data-name="Dégradé sans nom 37" x1="256.66" y1="234.36" x2="334.21" y2="333" xlink:href="#Dégradé_sans_nom_37"/>
    <linearGradient id="Dégradé_sans_nom_37-6" data-name="Dégradé sans nom 37" x1="380.81" y1="239.82" x2="351.17" y2="325.37" xlink:href="#Dégradé_sans_nom_37"/>
    <linearGradient id="Dégradé_sans_nom_21-14" data-name="Dégradé sans nom 21" x1="336.5" y1="170.17" x2="372.19" y2="219.65" xlink:href="#Dégradé_sans_nom_21"/>
    <linearGradient id="Dégradé_sans_nom_47" data-name="Dégradé sans nom 47" x1="373.48" y1="29.12" x2="358.71" y2="85.9" gradientUnits="userSpaceOnUse">
      <stop offset="0" stop-color="#377d37"/>
      <stop offset="1" stop-color="#377d37" stop-opacity="0"/>
    </linearGradient>
    <linearGradient id="Dégradé_sans_nom_52" data-name="Dégradé sans nom 52" x1="166.43" y1="157.57" x2="362.26" y2="108.89" gradientUnits="userSpaceOnUse">
      <stop offset="0" stop-color="#b11e2e"/>
      <stop offset="1" stop-color="#de2636"/>
    </linearGradient>
  </defs>
  <g id="line">
    <g>
      <g>
        <g>
          <path class="cls-5" d="M218.23,147.08c-13.09,0-24.79-5.04-32.93-14.2-6.88-7.74-14.47-22.24-11.51-47.34.16-1.37,1.12-2.5,2.43-2.9.33-.1.66-.15.99-.15,1,0,1.97.44,2.64,1.23.04.04,1.51,1.78,3.95,4.12-3.94-7.19-7.23-16.39-7.27-27.1-.07-19.04,10.12-37.6,30.29-55.17.65-.57,1.46-.85,2.26-.85s1.63.29,2.28.86c1.3,1.15,1.54,3.08.58,4.51-.07.11-7.77,11.79-5.04,22.93,1.42,5.79,5.5,10.57,12.13,14.2,33.88,18.55,44.23,36.51,46.95,48.31,2.43,10.54.04,21-7.1,31.07-8.96,12.64-24.53,20.49-40.65,20.49Z"/>
          <path class="cls-13" d="M209.09,8.16s-18.49,27.41,8.29,42.08c26.78,14.66,61.45,42.25,38.7,74.36-8.71,12.29-23.42,19.03-37.84,19.03-23.26,0-45.74-17.55-41.02-57.69,0,0,10.2,12.11,22.21,16.41,0,0-49.63-42.55,9.66-94.19M209.1,1.26c-1.62,0-3.24.57-4.54,1.7-20.97,18.26-31.56,37.7-31.48,57.79.03,6.72,1.26,12.89,3.13,18.37-.33.05-.66.12-.99.22-2.63.79-4.54,3.07-4.86,5.79-3.1,26.38,5.01,41.77,12.36,50.03,8.81,9.9,21.42,15.36,35.51,15.36,17.22,0,33.87-8.41,43.47-21.94,7.73-10.91,10.31-22.3,7.65-33.84-2.88-12.48-13.66-31.39-48.66-50.56-5.82-3.19-9.23-7.1-10.43-11.96-2.38-9.62,4.49-20.13,4.56-20.23,1.94-2.87,1.44-6.72-1.16-9.01-1.3-1.15-2.93-1.72-4.56-1.72h0ZM209.09,15.06h0,0Z"/>
        </g>
        <path class="cls-14" d="M215.64,142.68c-10.95-.85-20.37-5.77-26.5-13.85-6.46-8.51-9.07-20.19-7.69-34.1,4.06,4.29,9.99,9.61,16.78,12.65.41.18.84.29,1.27.32,1.33.1,2.65-.49,3.45-1.64,1.05-1.52.86-3.57-.44-4.87-.16-.17-16.79-17.22-15.06-40.11.95-12.54,2.78-24.6,14.08-36-.79,3.54-1.09,7.41-.44,11.39,1.3,8,10.42,14.75,18.55,20.05,13.59,8.88,36.85,26.76,39.86,46.79,1.3,8.68-1.27,16.76-7.88,24.69-8.42,10.12-22.21,15.75-35.96,14.68Z"/>
        <path class="cls-4" d="M225.59,141.36c-.97.12-1.96.2-2.93.24-9.5.42-18.06-2.78-24.1-9-4.51-4.64-7.61-11-9.17-18.7,3.19,1.88,6.73,3.59,10.43,4.74.98.3,2,.43,3.02.39.23,0,.47-.03.69-.06,2.92-.35,5.47-2.12,6.83-4.72,2-3.8.99-8.5-2.4-11.16-.13-.11-16.92-13.85-17.85-34.21-.35-7.57,1.49-15.31,5.47-23.11,2.97,8.34,9.21,14.89,18.58,19.5,11.11,5.47,37.5,20.15,42.56,38.41,1.96,7.07.62,13.85-4.21,21.34-5.73,8.88-15.8,14.99-26.93,16.35Z"/>
        <g>
          <path class="cls-17" d="M280.09,104.58c-.48,0-.97-.1-1.42-.31-1.31-.59-2.11-1.93-2.02-3.36,1.69-25.89-21.46-42.21-40.07-55.33-1.05-.74-2.09-1.48-3.11-2.2-17.57-12.47-14.65-30.35-10.65-38.07.59-1.15,1.78-1.86,3.06-1.86.07,0,.14,0,.21,0,1.36.08,2.54.96,3.02,2.24,5.66,15.18,15.91,19.09,27.77,23.62,10.27,3.92,21.91,8.36,30.86,21.04,19.67,27.85-4.96,52.97-5.21,53.22-.66.66-1.54,1.01-2.44,1.01Z"/>
          <path class="cls-13" d="M225.87,6.9c11.45,30.72,40.83,19.65,59.05,45.44,18.22,25.8-4.83,48.8-4.83,48.8,1.91-29.33-24.86-46.54-44.63-60.57-19.76-14.03-9.59-33.67-9.59-33.67M225.87,0c-2.56,0-4.93,1.43-6.12,3.72-.34.65-3.3,6.6-3.39,14.67-.09,7.73,2.47,18.82,15.11,27.8,1.02.73,2.07,1.46,3.12,2.21,18.83,13.28,40.18,28.33,38.61,52.29-.19,2.86,1.42,5.54,4.03,6.73.91.41,1.88.62,2.85.62,1.79,0,3.55-.7,4.87-2.01.28-.28,6.84-6.9,10.81-17.11,3.79-9.76,5.96-24.72-5.21-40.55-9.56-13.53-21.72-18.18-32.45-22.27-11.54-4.4-20.66-7.88-25.77-21.6-.95-2.56-3.32-4.31-6.04-4.47-.14,0-.28-.01-.42-.01h0Z"/>
        </g>
        <path class="cls-15" d="M281.85,97.54c-1.8-23.63-21.52-40.43-37.78-54.28l-2.88-2.46c-8.29-7.11-9.49-14.82-8.74-20.57,6.15,11.31,15.9,16.09,25.4,20.75,9.8,4.81,19.06,9.35,25.71,20.88,8.73,15.14,3.58,28-1.71,35.69Z"/>
      </g>
      <path class="cls-2" d="M146.84,123.51c-1.44.09-2.29,1.66-1.59,2.93,2.79,5.09,9.74,16.52,19.1,23.06,21.2,14.82,93.39,35.71,137.37,8.27,43.97-27.44,58.42-51.32,58.42-51.32,0,0,1.62-9.97-8.06-15.21-9.69-5.24-14.61,1.14-21.72-5.35s3.73-19.71-18.62-19.86c0,0-33.85,40.96-67.41,57.72-31.93,15.94-77.05-1.59-97.48-.26Z"/>
      <path class="cls-7" d="M330.24,85.8c-6.09-5.78,1.5-16.69-12.12-19.21-3.44,4.91-13.21,17.94-28.89,31.58-19.9,17.31-40.99,37.32-78.42,40.78-37.42,3.46-8.76,18.5,26.72,12.55,32.96-5.53,75.46-41.3,92.72-65.69Z"/>
      <path class="cls-19" d="M417.47,150.94s-2.66,26.78-13.53,33.6c0,0-4.71-5.84-2.6-11.19,0,0-17.46,32.58-21.14,57.26,0,0,.64-27.89-20.55-41.52-17.82-11.46-27.16-27.8-27.16-27.8,0,0-.75,29.86,10.28,42.54,0,0-.02,0-.06,0-.51,0-4.16-.09-6.27-2.69,0,0,20.16,31.5,21.25,38.57,0,0-3.08-4.71-8.76-6.65,0,0,21.9,18.01,12.17,43.81-9.73,25.8-21.01,64.94-21.01,64.94,0,0,22.31-14.65,24.9-28.11,0,0,2.11,5.84,0,11.03,0,0,14.12-13.13,23.04-39.01,8.92-25.88,7.95-24.26,12.01-28.32,0,0-4.06.48-5.92,2.35,0,0,5.83-19.73,18.37-42.67,12.54-22.95,19.65-43.11,4.98-66.12h0Z"/>
      <path class="cls-18" d="M209.4,174.73s-4.29,6.25-1.44,19.54c2.85,13.29,3.39,21.73,1.44,26.7,0,0-3.9-5.09-3.79-8.87,0,0-2.4,17.54.59,32.46,2.98,14.92-4.89,48.32,5.47,67.27,0,0,4.51-19.04,8.91-24.45,0,0,6.78,3.49,9.37,11.32,0,0,3.67-28.33,4.27-44,.6-15.67,5.14-39.36,6.98-43.03,0,0-4.8,2.27-7.05,5.78,0,0,.81-15.54,3.82-24.18,3.01-8.64.97-15.15.97-15.15,0,0-6.29,9.39-10.66,9.39-.21,0-.41-.02-.61-.06-4.32-.96-5.91-5.41-10.44-5.41-.05,0-.11,0-.16,0-.03,0-.07,0-.1,0-4.59,0-7.58-7.31-7.58-7.31h0Z"/>
      <path class="cls-21" d="M63.06,88.75s-24.47,15.77-26.44,40.07c-1.97,24.29-4.6,29.72-4.6,29.72,0,0-5.17-20.74-17.93-20.77,0,0,3.46,15.35-3.46,34.68-6.92,19.33-3.67,37.5,13.63,58.05,17.31,20.55,40.99,21.41,50.02,35.48,0,0-29.42,19-41.41,19-1.97,0-3.46-.51-4.28-1.7-5.84-8.44,3.3-18.68,3.3-18.68,0,0-30.5,11.56-24.15,64.17,0,0,8.22-10.92,21.86-14.86,13.64-3.94,19.14-4.23,19.14-4.23,0,0,.17,6.58-5.02,9.61,0,0,14.53-5.84,25.58-14.71,5.59-4.49,11.72-5.6,16.4-5.6s7.77,1.06,7.77,1.06c0,0,22.87-20.22,14.79-45.48-8.08-25.26-54.5-28.07-53.57-42.13.93-14.06,17.8-11.87,23.96-16.64,0,0,1.95,7.83-2.98,17.44,0,0,13.26-5.77,13.69-14.86,0,0,2.27,9.57.22,15.73,0,0,18.62-14.25,17.96-37.49-.66-23.24-18.45-45.21-16.15-54.56,0,0-8.1,7.55-7.23,23.98,0,0-33.16-16.77-21.12-57.28h0Z"/>
      <path class="cls-20" d="M14.09,137.76s3.46,15.35-3.46,34.68c-6.6,18.44-3.94,35.83,11.35,55.24-.03-.1-8.88-27.68,6.91-53.28,0,0,9.42,12.21,11.27,11.77.48-.11,18.71-22.15,11.07-45.96,0,0,24.19,20.22,35.44,22.6,0,0,6.92-6.92,4.76-15.58,0,0,13.53,31.15,8.17,55.7,4.29-6.41,8.26-15.36,7.95-26.32-.66-23.24-18.45-45.21-16.15-54.56,0,0-8.1,7.55-7.23,23.98,0,0-33.16-16.77-21.12-57.28,0,0-24.47,15.77-26.44,40.07-1.97,24.29-4.6,29.72-4.6,29.72,0,0-5.17-20.74-17.93-20.77Z"/>
      <path class="cls-26" d="M72.05,232.89c12.7,5.61,27.09,11.98,30.75,23.42,5.49,17.16-6.27,32.16-11.14,37.43-1.59-.27-3.62-.5-5.94-.5-7.49,0-14.4,2.37-20,6.86-3.57,2.87-7.57,5.41-11.28,7.52l-.11-3.98-5.89.31c-.63.03-6.56.44-20.43,4.44-6.19,1.79-11.38,4.82-15.39,7.82-.23-16.93,4.01-27.97,8.78-35,.46,1.8,1.26,3.59,2.47,5.34,1.32,1.9,3.95,4.17,9.01,4.17,13.03,0,39.38-16.6,44.53-19.92l4.81-3.11-3.1-4.82c-5.13-7.98-22.1-16.64-31.12-21.07,0,0,16.14-1.49,25.23,5.76,0,0-14.03-13.25-35.13-18.98,0,0,14.49-3.79,33.95,4.32Z"/>
      <path class="cls-16" d="M189.45,191.4s-.92,2.7-3.32,2.7c-.46,0-.97-.1-1.54-.33-3.57-1.46-13.21-13.54-28.54-15.25-15.33-1.71-12.51-12.49-12.51-12.49,0,0-4.92,3.15-5.22,9.44,0,0-4.41-4.63-2.27-20.83,0,0-12.74,13.89-15.12,36.97,0,0,0,0,0,0-.21,0-3.85.11-9.67,7.67,0,0,1.41-.79,2.68-.79,1.48,0,2.76,1.06,1.43,5.64-2.49,8.53-5.25,11.04-5.25,11.04,0,0,7.78-6.75,14.02-6.75.4,0,.79.03,1.18.09,0,0-.95,24.74-2.99,31.57-.83,2.76-2.53,3.59-4.27,3.59-2.55,0-5.18-1.78-5.18-1.78,0,0,14.46,13.4,6.52,37.01-7.49,22.26,4.36,62.08,4.36,62.08,0,0,10.96-37.96,16.1-43.19,0,0,3.16,1.59,3.66,8.4,0,0,7.12-29.37,3.73-40.48,0,0,36.95-5.13,46.96-31.89,10.01-26.76-4.75-42.44-4.75-42.44ZM170.55,227.69c.81-2.62-2.11-6.47-2.11-6.47-2.29,8.88-19.42,18.48-19.42,18.48,0,0,.82-6.67-.98-17.77-1.79-11.1,3.04-17.76,3.04-17.76,0,0,9.57-2.57,17.95,6.42,8.38,9,1.51,17.1,1.51,17.1Z"/>
      <path class="cls-8" d="M195.28,201.75c-.12-.33-.24-.65-.36-.96-.35-.7-.66-1.43-.94-2.19-2.19-4.7-4.54-7.2-4.54-7.2,0,0-.92,2.7-3.32,2.7-.46,0-.97-.1-1.54-.33-3.57-1.46-13.21-13.54-28.54-15.25-15.33-1.71-12.51-12.49-12.51-12.49,0,0-4.92,3.15-5.22,9.44,0,0-4.41-4.63-2.27-20.83,0,0-5.62,6.14-10.1,17.03-3.45,10.77,13.02,12.33,14.15,19.79,0,0,1.46-8.76-1.3-12.01,0,0,8.94,7.63,15.1,8.76,6.16,1.14,18.98,5.19,25.3,12.98,6.33,7.79,10.38,20.55,10.38,20.55,0,0,7.64-13.33,5.7-20.01Z"/>
      <path class="cls-24" d="M167.7,254.61c-10.61,4.54-21.06,5.4-21.24,5.43-1.67.23-3.15,1.18-4.05,2.6-.91,1.42-1.14,3.16-.65,4.77,1.43,4.69.4,15.1-1.23,24.69-.22-.03-.45-.04-.67-.04-1.51,0-2.99.59-4.1,1.72-3.22,3.28-7.46,14.12-11.11,24.96-2.07-12.3-3.34-27.51.18-37.99,4.87-14.47,2.34-25.68-1.13-33.02,0,0,6.12,1.89,9.2,7.41,3.08,5.52,9.21-3.69,18.14-5.04s20.17-.84,25.2-4.03c0,0-2.44,5.93-8.54,8.54Z"/>
      <path class="cls-25" d="M230.67,233.54c-1.14,7.69-1.99,15.52-2.19,20.94-.32,8.24-1.52,20.22-2.56,29.52-1.38-1.02-2.42-1.57-2.71-1.73l-4.15-2.13-2.94,3.62c-1.39,1.71-2.73,4.3-3.95,7.21-.61-7.79-.23-16.26.12-24.15.41-9.27.77-17.27-.45-23.38-.75-3.76-1.13-7.73-1.29-11.53,0,0,6.95,2.11,12.41,11.38,0,0,1.25-5.48,7.72-9.73Z"/>
      <path class="cls-10" d="M303.71,168.55c-.12,0-.18,0-.18,0l2.43,7.18c-1.47-.14-2.9-.21-4.28-.21-23.52,0-34.65,19.35-34.65,19.35,0,0,1.42-5.66,6.12-9.78,0,0-9.58,3.1-18.01,19.26-5.97,11.44-4,24.95-4,24.95,0,0-2.56-5.06-1.97-13.51,0,0-7.77,20.74-1.69,47.77,6.08,27.03,21.63,32.7,21.63,32.7,0,0-1.92-2.27-1.75-3.57,0,0,10.49,9.78,32.62,9.78.48,0,.96,0,1.45-.01,23.12-.44,32.67-25.78,32.67-25.78,0,0-7.42,5.61-11.47,5.61-.19,0-.37-.01-.54-.04,0,0,11.17-16.08,11.14-26.98,0,0-14.98,19.03-32.56,19.03-2.63,0-5.31-.43-8.02-1.4-20.78-7.52-20.12-37.49-13.48-51.16,4.9-10.09,13.14-16.08,19.95-16.08,2.89,0,5.52,1.08,7.53,3.37,6.77,7.71,2.92,25.42,2.92,25.42,0,0,22.19-15.35,17.97-41.02-3.98-24.22-21.83-24.9-23.83-24.9h0Z"/>
      <path class="cls-9" d="M228.28,187.5c-.21,0-.41-.02-.61-.06-4.32-.96-5.91-5.41-10.44-5.41-.05,0-.11,0-.16,0-.03,0-.07,0-.1,0-4.59,0-7.58-7.31-7.58-7.31,0,0-2.02,2.94-2.36,9.09h.02c-.22,8.34,10.38,3.36,16.44,8.56,6.06,5.19,6.27,8.76,6.27,8.76,0,0,7.41-2.78,9.24-11.64,1.39-6.69-.06-11.37-.06-11.37,0,0-6.29,9.39-10.66,9.39Z"/>
      <path class="cls-12" d="M303.71,168.55c-.12,0-.18,0-.18,0l2.43,7.18c-1.47-.14-2.9-.21-4.28-.21-7.5,0-13.74,1.97-18.76,4.66-8.36,5.33-5.88,19.98-5.88,19.98,0,0,8-14.71,25.31-16.22,17.3-1.51,24.21,26.59,18.63,38.44,4.67-6.99,8.56-16.8,6.57-28.92-3.98-24.22-21.83-24.9-23.83-24.9Z"/>
      <path class="cls-22" d="M320.23,287.71h0c-4.44,4.68-10.69,8.87-18.92,9.02-.45,0-.9.01-1.34.01-19.28,0-28.36-7.94-28.7-8.24-1.08-1.05-2.48-1.59-3.92-1.59-.52,0-1.04.07-1.56.21-.52-.48-1.06-1.02-1.61-1.62-3.54-3.84-8.34-10.98-11.1-23.2-2.33-10.36-2.48-19.79-1.85-27.26,0,0,5.2,16.21,12.45,20.32,0,0-1.62-13.84,7.03-24.88,0,0-2.01,19.46,1.91,29.88,3.55,8.75,9.8,14.96,18.06,17.95,3.2,1.16,6.56,1.75,9.97,1.75,7.34,0,14.17-2.7,19.91-6.19,0,0-3.21,9.25-8.4,12.05,0,0,3.02,2.25,8.07,1.78Z"/>
      <path class="cls-23" d="M388.22,267.52c-.99,2.64-.74,2.11-2.49,7.24-.88,2.58-1.91,5.58-3.12,9.08-3.75,10.88-8.69,19.81-13.09,26.3-1.07-1.36-2.73-2.19-4.51-2.19-.15,0-.3,0-.45.02-2.58.2-4.7,2.1-5.19,4.64-.75,3.87-4.15,8.47-8.35,12.78,4.15-13.56,10.08-32.2,15.48-46.49,4.59-12.17,3.63-24.75-2.78-36.38-.18-.33-.36-.65-.55-.97,0,0,8.08,5.58,11.96,14.82,3.54,8.43,13.35-13.57,20.06-18.65,0,0-5.95,12.55-6.49,17.74s1.55,7.22-.47,12.07Z"/>
      <path class="cls-11" d="M354.4,198.24c3.33,12.41,15.49,11.92,16.39,23.28,0,0,4.22-9.17-2.51-18.9-6.73-9.73-6.24-11.54-11.08-15.19-.01,0-.03-.02-.04-.03-16.19-11.31-24.66-26.12-24.66-26.12,0,0-.19,7.8,1.09,17.11,1.08,6.13,17.49,7.46,20.82,19.85Z"/>
      <path class="cls-1" d="M372.57,33.33c.07-.82.1-1.57.11-2.29-3.56-1.63-6.98-2.48-8.83-2.86-.09.3-.17.61-.25.92-1.99,8.69-6.16,28.05-11.1,30.49-5.25,2.58-8.55-4.42-34.75-.05,0,0,12.74.89,15.25,8.36,2.51,7.46,2.19,13.55,11.87,14.41,9.59.85,18.39,1.82,21.12,15.42,0,0,.82-13.26-1.98-20.91-2.8-7.65-5.95-10.73-5.19-14.99s12.54-13.56,13.75-28.5Z"/>
      <path class="cls-3" d="M352.86,69.2c-1.04,2.94-2.67,9.86-3.51,13.57,7.75,1.01,14.35,3.51,16.64,14.96,0,0,.82-13.26-1.98-20.91-2.8-7.65-5.95-10.73-5.19-14.99s12.54-13.56,13.75-28.5c.07-.82.1-1.57.11-2.29-.99-.45-1.97-.84-2.91-1.18-.13,3.37-1.11,12.65-7.5,21.55-8,11.14-7.95,13.68-9.41,17.79Z"/>
      <path class="cls-6" d="M352.07,91.25c-1.75-.94-3.33-1.51-4.81-1.84-1.02,4.9-3.72,14.67-10.47,25.57-9.65,15.58-51.72,48.32-84.17,51.24-32.45,2.92-76.79-11.89-86.91-18.85-8.59-5.91-17.82-18.42-20.66-22.3-.1.45-.05.93.19,1.38,2.79,5.09,9.74,16.52,19.1,23.06,21.2,14.82,93.39,35.71,137.37,8.27,43.97-27.44,58.42-51.32,58.42-51.32,0,0,1.62-9.97-8.06-15.21Z"/>
      <path class="cls-13" d="M209.4,174.73s2.98,7.31,7.58,7.31c.03,0,.07,0,.1,0,.05,0,.11,0,.16,0,4.53,0,6.12,4.45,10.44,5.41.2.04.4.06.61.06,4.37,0,10.66-9.39,10.66-9.39,0,0,2.03,6.51-.97,15.15s-3.82,24.18-3.82,24.18c2.25-3.52,7.05-5.78,7.05-5.78-1.84,3.68-6.38,27.36-6.98,43.03-.6,15.67-4.27,44-4.27,44-2.6-7.83-9.37-11.32-9.37-11.32-4.4,5.41-8.91,24.45-8.91,24.45-10.37-18.95-2.49-52.35-5.47-67.27-2.98-14.92-.59-32.46-.59-32.46-.11,3.78,3.79,8.87,3.79,8.87,1.95-4.98,1.41-13.41-1.44-26.7s1.44-19.54,1.44-19.54M209.4,167.81c-2.26,0-4.39,1.12-5.69,3.01-.61.89-5.86,9.15-2.5,24.88.8,3.75,1.41,7.08,1.82,9.99-2.23.9-3.91,2.93-4.26,5.46-.1.76-2.52,18.87.66,34.74.92,4.6.58,12.24.22,20.34-.73,16.47-1.56,35.13,5.96,48.89,1.22,2.23,3.55,3.59,6.05,3.59.31,0,.61-.02.92-.06,2.83-.38,5.13-2.47,5.79-5.24,1.12-4.7,2.7-10.11,4.23-14.41.3.57.57,1.2.79,1.86.94,2.84,3.6,4.73,6.54,4.73.22,0,.44-.01.66-.03,3.2-.31,5.77-2.79,6.18-5.98.15-1.17,3.72-28.82,4.32-44.62.59-15.45,5-37.21,6.29-40.28,1.28-2.62.77-5.76-1.27-7.84-1.03-1.06-2.35-1.73-3.74-1.97.53-3.43,1.22-6.83,2.09-9.34,3.65-10.49,1.32-18.59,1.04-19.48-.79-2.53-2.97-4.39-5.59-4.77-.33-.05-.66-.07-.99-.07-2.28,0-4.44,1.13-5.73,3.06-1.48,2.2-3.6,4.63-5.01,5.82-.29-.22-.6-.48-.87-.71-1.98-1.64-4.95-4.1-9.62-4.25-.6-.59-1.48-1.95-1.95-3.06-.96-2.35-3.12-3.96-5.64-4.23-.24-.03-.49-.04-.73-.04h0Z"/>
      <path class="cls-13" d="M63.06,88.75h0M63.06,88.75c-12.04,40.51,21.12,57.28,21.12,57.28-.87-16.43,7.23-23.98,7.23-23.98-2.3,9.35,15.49,31.32,16.15,54.56.66,23.24-17.96,37.49-17.96,37.49,2.06-6.16-.22-15.73-.22-15.73-.43,9.09-13.69,14.86-13.69,14.86,4.93-9.61,2.98-17.44,2.98-17.44-6.17,4.77-23.04,2.58-23.96,16.64s45.49,16.87,53.57,42.13c8.08,25.26-14.79,45.48-14.79,45.48,0,0-3.2-1.06-7.77-1.06s-10.81,1.11-16.4,5.6c-11.05,8.87-25.58,14.71-25.58,14.71,5.19-3.03,5.02-9.61,5.02-9.61,0,0-5.5.29-19.14,4.23-13.64,3.94-21.86,14.86-21.86,14.86-6.35-52.61,24.15-64.17,24.15-64.17,0,0-9.14,10.24-3.3,18.68.82,1.19,2.32,1.7,4.28,1.7,11.99,0,41.41-19,41.41-19-9.03-14.06-32.72-14.93-50.02-35.48s-20.55-38.72-13.63-58.05c6.92-19.33,3.46-34.68,3.46-34.68,12.76.03,17.93,20.77,17.93,20.77,0,0,2.63-5.43,4.6-29.72,1.97-24.29,26.44-40.07,26.44-40.07M63.06,81.85h0c-1.43,0-2.75.43-3.85,1.17-2.19,1.44-27.29,18.48-29.46,45.23-.29,3.58-.59,6.73-.9,9.48-3.66-3.91-8.49-6.85-14.74-6.87,0,0-.01,0-.02,0-2.09,0-4.07.95-5.38,2.58-1.31,1.64-1.81,3.78-1.35,5.83.02.11,2.87,13.83-3.22,30.84-8.09,22.59-3.37,43.18,14.85,64.81,10.07,11.96,22.17,17.9,31.89,22.68,4.76,2.34,9.13,4.48,12.53,6.96-10.65,6.29-23.72,12.88-29.73,13.46-.88-3.74,3.33-8.82,3.38-8.88,2.12-2.37,2.32-5.86.52-8.48-1.31-1.91-3.46-2.98-5.68-2.98-.82,0-1.65.15-2.46.45-.98.37-9.79,3.94-17.6,14.77C-.76,290.38-1.07,313.38.89,329.6c.34,2.79,2.34,5.1,5.06,5.83.59.16,1.19.24,1.79.24,2.13,0,4.19-.99,5.51-2.75.05-.07,7.13-9.17,18.27-12.38,1.95-.56,3.72-1.05,5.32-1.46-.04,1.09.19,2.21.7,3.25,1.19,2.43,3.63,3.86,6.2,3.86.86,0,1.73-.16,2.57-.5.63-.25,15.61-6.33,27.32-15.73,3.37-2.71,7.44-4.08,12.09-4.08,3.1,0,5.37.64,5.64.72.72.25,1.45.37,2.17.37,1.64,0,3.24-.62,4.53-1.76,1.07-.95,26.14-23.54,16.79-52.75-5.39-16.85-23.29-24.77-37.67-31.13-1.09-.48-2.16-.96-3.21-1.43.56.15,1.14.22,1.73.22.93,0,1.86-.19,2.75-.57.56-.24,2.48-1.12,4.87-2.61.49,1.08,1.26,2.05,2.28,2.77,1.2.86,2.6,1.28,4.01,1.28,1.48,0,2.96-.47,4.19-1.42.87-.67,21.42-16.7,20.67-43.16-.4-14.17-6.31-27.37-11.06-37.97-2.25-5.02-5.65-12.61-5.28-14.77.73-2.96-.58-6.03-3.21-7.58-1.08-.63-2.28-.94-3.48-.94-1.71,0-3.41.63-4.72,1.86-.78.73-5.95,5.85-8.31,15.94-7.13-7.36-14.99-20.87-8.79-42.03.23-.69.35-1.42.35-2.18,0-3.81-3.08-6.9-6.89-6.9h0ZM63.06,95.64h0,0ZM61.6,212.68c.29-3.52,2.02-4.76,9.64-6.8-.39,1.31-.94,2.72-1.7,4.2-1.33,2.59-.89,5.74,1.11,7.87.35.37.73.69,1.13.97-2.31-1.06-4.41-2.1-6.17-3.13-2.97-1.73-3.81-2.79-4.02-3.11h0Z"/>
      <path class="cls-13" d="M136.05,154.65c-2.14,16.2,2.27,20.83,2.27,20.83.3-6.29,5.22-9.44,5.22-9.44,0,0-2.82,10.78,12.51,12.49,15.33,1.71,24.97,13.79,28.54,15.25.57.23,1.08.33,1.54.33,2.41,0,3.32-2.7,3.32-2.7,0,0,14.76,15.68,4.75,42.44s-46.96,31.89-46.96,31.89c3.39,11.11-3.73,40.48-3.73,40.48-.5-6.81-3.66-8.4-3.66-8.4-5.14,5.23-16.1,43.19-16.1,43.19,0,0-11.85-39.81-4.36-62.08,7.94-23.61-6.52-37.01-6.52-37.01,0,0,2.62,1.78,5.18,1.78,1.74,0,3.44-.82,4.27-3.59,2.05-6.83,2.99-31.57,2.99-31.57-.39-.06-.78-.09-1.18-.09-5.59,0-12.43,5.43-13.78,6.55.68-.65,2.73-3.12,5.01-10.84,1.35-4.58.05-5.64-1.43-5.64-1.27,0-2.68.79-2.68.79,5.83-7.56,9.46-7.67,9.67-7.67,0,0,0,0,0,0,2.38-23.08,15.12-36.97,15.12-36.97M149.02,239.69s17.14-9.59,19.42-18.48c0,0,2.92,3.85,2.11,6.47,0,0,6.87-8.11-1.51-17.1-5.33-5.72-11.14-6.76-14.67-6.76-2.02,0-3.28.34-3.28.34,0,0-4.83,6.66-3.04,17.76,1.79,11.1.98,17.77.98,17.77M110.35,214.99c-.15.15-.24.2-.24.2,0,0,.08-.07.24-.2M136.05,147.75c-1.89,0-3.75.78-5.08,2.24-.55.6-12.78,14.17-16.35,36.73-2.51,1.49-5.51,4.05-8.83,8.36-2.03,2.64-2.02,6.42.21,8.9.51.57,1.09,1.04,1.72,1.4-1.09,3.01-1.92,4.3-2.17,4.65-2.67,2.38-3.09,6.42-.94,9.29,1.35,1.8,3.42,2.77,5.53,2.77,1.27,0,2.55-.35,3.7-1.08.35-.22.7-.49,1.05-.81.98-.8,2.02-1.55,3.05-2.21-.42,6.69-1.02,13.81-1.72,17.87-1.08-.63-2.28-.94-3.46-.94-2.03,0-4.03.89-5.39,2.6-2.28,2.86-1.92,6.99.8,9.43.76.75,10.92,11.26,4.69,29.77-3.47,10.3-3.77,24.66-.9,42.67,2.07,13.04,5.07,23.15,5.19,23.57.87,2.92,3.56,4.93,6.61,4.93,0,0,.02,0,.03,0,3.06-.01,5.75-2.04,6.6-4.98,3.04-10.52,6.88-22.36,9.99-30.56.79.4,1.66.66,2.59.74.19.02.38.02.57.02,3.15,0,5.94-2.16,6.7-5.27,1.05-4.31,5.41-23.27,4.76-36.66,12.16-3.03,37.07-11.9,45.68-34.92,11.38-30.43-5.47-48.81-6.19-49.58-1.32-1.4-3.14-2.17-5.02-2.17-.49,0-.98.05-1.47.16-.97.21-1.86.62-2.63,1.19-.19-.16-.39-.32-.57-.47-2.62-2.18-6.21-5.16-10.77-7.82-5.6-3.26-11.38-5.25-17.21-5.89-3.05-.34-5.36-1.19-6.17-2.28-.47-.63-.43-1.44-.39-1.72.88-2.74-.11-5.52-2.39-7.3-1.16-.91-2.57-1.34-4-1.34-.45,0-.91.04-1.35.13.08-1.11.21-2.31.38-3.61.39-2.98-1.19-5.88-3.92-7.15-.93-.44-1.93-.65-2.91-.65h0ZM155.64,226.76c-.19-1.82-.44-3.8-.79-5.93-.72-4.46-.06-7.88.67-10.05,2.37.24,5.47,1.29,8.47,4.51.12.13.24.26.35.39-1.25.92-2.18,2.26-2.58,3.83-.48,1.86-2.91,4.55-6.12,7.26h0ZM115.68,238.22h0Z"/>
      <path class="cls-13" d="M303.71,168.55c2,0,19.85.68,23.83,24.9,4.22,25.67-17.97,41.02-17.97,41.02,0,0,3.85-17.71-2.92-25.42-2.02-2.29-4.65-3.37-7.53-3.37-6.81,0-15.05,5.99-19.95,16.08-6.64,13.67-7.3,43.64,13.48,51.16,2.7.98,5.39,1.4,8.02,1.4,17.58,0,32.56-19.03,32.56-19.03.03,10.9-11.14,26.98-11.14,26.98.17.03.35.04.54.04,4.06,0,11.47-5.61,11.47-5.61,0,0-9.55,25.33-32.67,25.78-.49,0-.97.01-1.45.01-22.13,0-32.62-9.78-32.62-9.78-.16,1.3,1.75,3.57,1.75,3.57,0,0-15.54-5.68-21.63-32.7-6.08-27.03,1.69-47.77,1.69-47.77-.59,8.45,1.97,13.51,1.97,13.51,0,0-1.97-13.51,4-24.95,8.43-16.16,18.01-19.26,18.01-19.26-4.71,4.11-6.12,9.78-6.12,9.78,0,0,11.13-19.35,34.65-19.35h0c1.39,0,2.81.07,4.28.21l-2.43-7.18s.06,0,.18,0M303.71,161.65c-.3,0-.46,0-.46,0-2.16.11-4.18,1.23-5.39,3.02-.85,1.25-1.27,2.73-1.21,4.21-9.95,1.03-17.72,4.99-23.43,9.32-.03,0-.05,0-.07,0-.71,0-1.42.11-2.12.34-1.26.41-12.54,4.5-22,22.63-1.49,2.85-2.56,5.8-3.32,8.67-1.34.78-2.41,2-2.99,3.54-.35.93-8.42,23-1.96,51.7,6.83,30.35,25.21,37.38,25.99,37.67.77.28,1.57.42,2.36.42.53,0,1.05-.06,1.56-.18.58.29,1.2.59,1.85.88,7.94,3.6,17.43,5.51,27.46,5.51.52,0,1.05,0,1.58-.02,11.53-.22,21.97-5.6,30.19-15.56,5.94-7.19,8.69-14.38,8.8-14.68,1.08-2.87.14-6.12-2.32-7.95-.53-.4-1.11-.71-1.7-.93,2.04-4.86,3.62-10.18,3.6-14.98,0-2.93-1.87-5.54-4.65-6.5-.74-.25-1.5-.38-2.25-.38-2.07,0-4.09.94-5.42,2.63-.03.03-3.49,4.36-8.8,8.58-4.51,3.57-11.35,7.83-18.34,7.83-1.94,0-3.85-.33-5.67-.99-4.87-1.76-8.45-5.4-10.65-10.82-3.98-9.79-2.6-23.37,1.03-30.84,3.85-7.92,9.96-12.2,13.75-12.2,1.02,0,1.72.31,2.35,1.03,3.03,3.44,2.6,13.62,1.36,19.42-.59,2.76.56,5.62,2.92,7.18,1.16.77,2.5,1.16,3.83,1.16s2.74-.41,3.91-1.22c1.05-.73,25.73-18.17,20.85-47.81-2.5-15.22-10-22.7-15.85-26.29-6.63-4.07-12.99-4.39-14.78-4.39h0Z"/>
      <path class="cls-13" d="M311.73,66.05c22.35.15,11.51,13.37,18.62,19.86,2.98,2.72,5.58,3.18,8.31,3.18,1.38,0,2.79-.12,4.3-.12,2.62,0,5.55.35,9.11,2.28,9.69,5.24,8.06,15.21,8.06,15.21,0,0-14.45,23.89-58.42,51.32-15.6,9.73-34.74,13.38-53.9,13.38-34.86,0-69.79-12.09-83.47-21.66-9.36-6.54-16.31-17.97-19.1-23.06-.69-1.27.15-2.84,1.59-2.93.76-.05,1.55-.07,2.38-.07,14.36,0,38.44,7.07,62.03,7.07,11.54,0,22.97-1.69,33.07-6.74,33.57-16.76,67.41-57.72,67.41-57.72M311.73,59.15c-2.06,0-4,.92-5.31,2.5h0c-.33.4-33.34,40.05-65.18,55.94-8.1,4.05-17.91,6.01-29.99,6.01-12.68,0-25.75-2.17-37.27-4.09-9.6-1.6-17.89-2.98-24.75-2.98-.98,0-1.93.03-2.83.09-3.04.2-5.72,1.91-7.19,4.58-1.47,2.68-1.47,5.87,0,8.55,3.51,6.41,10.93,18.23,21.2,25.4,16.1,11.26,53.21,22.9,87.42,22.9,22.84,0,42.21-4.85,57.55-14.43,44.86-27.99,60.05-52.57,60.67-53.6.46-.75.76-1.59.91-2.46.9-5.5-.54-16.4-11.59-22.38-5.1-2.76-9.3-3.11-12.39-3.11-.91,0-1.77.04-2.53.07-.64.03-1.24.05-1.77.05-1.53,0-2.29-.12-3.66-1.38-.52-.48-.69-2.26-.85-4-.31-3.4-.74-8.05-4.39-11.9-3.66-3.87-9.37-5.7-17.99-5.76-.02,0-.03,0-.05,0h0Z"/>
      <path class="cls-13" d="M363.85,28.18c1.85.38,5.27,1.23,8.83,2.86-.01.72-.05,1.47-.11,2.29-1.21,14.94-12.99,24.24-13.75,28.5-.77,4.26,2.39,7.34,5.19,14.99s1.98,20.91,1.98,20.91c-2.73-13.6-11.53-14.57-21.12-15.42-9.68-.86-9.36-6.94-11.87-14.41-2.51-7.46-15.25-8.36-15.25-8.36,6.53-1.09,11.64-1.47,15.71-1.47,9.57,0,13.4,2.11,16.5,2.11.87,0,1.68-.17,2.54-.59,4.95-2.43,9.11-21.79,11.1-30.49.07-.32.16-.62.25-.92M363.84,21.29c-3,0-5.72,1.96-6.61,4.94-.14.48-.26.92-.36,1.35l-.33,1.45c-.95,4.18-2.25,9.89-3.81,15.09-1.64,5.45-2.88,7.99-3.52,9.07-.48-.09-1.09-.23-1.62-.35-2.89-.66-7.26-1.65-14.14-1.66-5.02,0-10.53.51-16.84,1.57-3.45.58-5.92,3.64-5.75,7.13.17,3.49,2.92,6.31,6.41,6.55,3.69.29,8.63,1.99,9.2,3.68.39,1.14.71,2.32,1.03,3.45,1.61,5.77,4.04,14.49,16.77,15.62,9.82.87,13.3,1.6,14.97,9.91.65,3.24,3.5,5.54,6.76,5.54.16,0,.32,0,.47-.02,3.45-.24,6.2-3,6.41-6.45.09-1.5.82-14.95-2.39-23.7-1.15-3.13-2.33-5.55-3.29-7.5-.65-1.32-1.43-2.92-1.57-3.63.46-.77,1.51-2.18,2.31-3.26,3.94-5.31,10.54-14.19,11.51-26.17.07-.9.12-1.8.13-2.72.05-2.74-1.53-5.25-4.02-6.39-4.24-1.94-8.29-2.93-10.32-3.34-.46-.09-.93-.14-1.38-.14h0Z"/>
      <path class="cls-13" d="M417.47,150.94c14.68,23.01,7.56,43.17-4.98,66.12-12.54,22.95-18.37,42.67-18.37,42.67,1.87-1.87,5.92-2.35,5.92-2.35-4.06,4.06-3.08,2.43-12.01,28.32-8.92,25.89-23.04,39.01-23.04,39.01,2.11-5.19,0-11.03,0-11.03-2.6,13.47-24.9,28.11-24.9,28.11,0,0,11.27-39.15,21.01-64.94,9.73-25.8-12.17-43.81-12.17-43.81,5.68,1.95,8.76,6.65,8.76,6.65-1.09-7.07-21.25-38.57-21.25-38.57,2.11,2.6,5.76,2.69,6.27,2.69.04,0,.06,0,.06,0-11.03-12.68-10.28-42.54-10.28-42.54,0,0,9.33,16.35,27.16,27.8,21.2,13.63,20.55,41.52,20.55,41.52,3.68-24.68,21.14-57.26,21.14-57.26-2.11,5.35,2.6,11.19,2.6,11.19,10.87-6.81,13.53-33.6,13.53-33.6M417.47,144.05c-.53,0-1.07.06-1.6.19-2.86.68-4.97,3.1-5.26,6.03-.53,5.3-2.01,12.52-4.16,18.45-.6-.67-1.35-1.22-2.21-1.62-.94-.43-1.92-.64-2.89-.64-2.47,0-4.84,1.33-6.08,3.64-.49.91-8.31,15.6-14.62,32.86-3.51-7.13-8.92-14.3-17.27-19.66-16.08-10.34-24.82-25.28-24.9-25.43-1.25-2.17-3.56-3.46-5.98-3.46-.56,0-1.13.07-1.7.21-2.99.76-5.12,3.41-5.2,6.5,0,.33-.19,8.11,1.06,17.59.92,7.02,2.37,13.1,4.34,18.21-1.74,2.25-1.96,5.43-.36,7.94,4.81,7.51,9.95,16,13.86,22.93-.62.52-1.16,1.17-1.58,1.91-1.63,2.91-.93,6.57,1.64,8.69.71.6,17.92,15.32,10.1,36.04-9.72,25.76-20.72,63.86-21.18,65.47-.8,2.77.21,5.75,2.54,7.46,1.21.89,2.65,1.34,4.09,1.34,1.32,0,2.63-.38,3.78-1.13,1.62-1.06,11.32-7.6,18.9-16.32.72.24,1.47.37,2.21.37,1.7,0,3.38-.62,4.7-1.85.63-.58,15.48-14.61,24.86-41.81,1.21-3.51,2.24-6.52,3.12-9.1q4.87-14.23,6.79-16.14l.45-.44c2.08-2.08,2.61-5.24,1.33-7.88-.5-1.03-1.23-1.89-2.1-2.54,2.9-7.71,7.66-19.15,14.4-31.48,5.66-10.36,11.69-22.67,13.47-35.38,1.86-13.27-1-25.62-8.73-37.75-1.29-2.02-3.5-3.19-5.81-3.19h0Z"/>
    </g>
  </g>
</svg>