<?xml version="1.0" encoding="UTF-8"?>
<svg xmlns="http://www.w3.org/2000/svg" xmlns:xlink="http://www.w3.org/1999/xlink" viewBox="398.77 416.04 468.62 468.63">
  <defs>
    <style>
      .bg-spicy {
        fill: url(#grad-spicy);
      }
      .bg-sweet {
        fill: url(#grad-sweet);
      }
      .rays {
        fill: #ffffff;
        opacity: 0.12;
      }
    </style>
    <linearGradient id="grad-spicy" x1="403.55" y1="436.43" x2="606.84" y2="687.16" gradientUnits="userSpaceOnUse">
      <stop offset="0" stop-color="#ef4444"/>
      <stop offset="1" stop-color="#f97316"/>
    </linearGradient>
    <linearGradient id="grad-sweet" x1="659.66" y1="620.04" x2="881.59" y2="849.6" gradientUnits="userSpaceOnUse">
      <stop offset="0" stop-color="#ec4899"/>
      <stop offset="1" stop-color="#a855f7"/>
    </linearGradient>
    <clipPath id="bg-clip">
      <polygon points="745.24 426.04 520.54 874.67 408.77 874.67 408.77 426.04 745.24 426.04"/>
      <polygon points="745.24 426.04 520.54 874.67 857.39 874.67 857.39 426.04 745.24 426.04"/>
    </clipPath>
  </defs>
  <!-- Colored triangles -->
  <polygon class="bg-spicy" points="745.24 426.04 520.54 874.67 408.77 874.67 408.77 426.04 745.24 426.04"/>
  <polygon class="bg-sweet" points="745.24 426.04 520.54 874.67 857.39 874.67 857.39 426.04 745.24 426.04"/>
  <!-- Rays clipped to triangles -->
  <g clip-path="url(#bg-clip)">
    <polygon class="rays" points="631.57 1301.24 648.49 805.52 650.4 1301.52 631.57 1301.24 631.57 1301.24"/>
    <polygon class="rays" points="481.79 1279.22 612.59 800.76 500.05 1283.84 481.79 1279.22 481.79 1279.22"/>
    <polygon class="rays" points="341.14 1223.26 578.74 787.86 357.84 1231.96 341.14 1223.26 341.14 1223.26"/>
    <polygon class="rays" points="217.17 1136.37 548.78 767.5 231.42 1148.69 217.17 1136.37 217.17 1136.37"/>
    <polygon class="rays" points="116.59 1023.23 524.33 740.78 127.61 1038.51 116.59 1023.23 116.59 1023.23"/>
    <polygon class="rays" points="44.81 889.95 506.7 709.14 52.01 907.35 44.81 889.95 44.81 889.95"/>
    <polygon class="rays" points="5.71 743.7 496.84 674.29 8.7 762.3 5.71 743.7 5.71 743.7"/>
    <polygon class="rays" points="1.38 592.38 495.28 638.11 0 611.17 1.38 592.38 1.38 592.38"/>
    <polygon class="rays" points="32.07 444.14 502.11 602.54 26.39 462.1 32.07 444.14 32.07 444.14"/>
    <polygon class="rays" points="96.11 306.98 516.96 569.5 86.45 323.14 96.11 306.98 96.11 306.98"/>
    <polygon class="rays" points="190.07 188.28 539.02 540.78 176.93 201.78 190.07 188.28 190.07 188.28"/>
    <polygon class="rays" points="308.86 94.45 567.12 517.92 292.97 104.56 308.86 94.45 308.86 94.45"/>
    <polygon class="rays" points="446.09 30.54 599.73 502.15 428.29 36.71 446.09 30.54 446.09 30.54"/>
    <polygon class="rays" points="594.36 0 635.1 494.33 575.62 1.9 594.36 0 594.36 0"/>
    <polygon class="rays" points="745.68 4.48 671.31 494.88 727 2.01 745.68 4.48 745.68 4.48"/>
    <polygon class="rays" points="891.88 43.73 706.43 503.77 874.28 37.02 891.88 43.73 891.88 43.73"/>
    <polygon class="rays" points="1025.09 115.65 738.54 520.51 1009.51 105.06 1025.09 115.65 1025.09 115.65"/>
    <polygon class="rays" points="1138.13 216.34 765.93 544.21 1125.41 202.45 1138.13 216.34 1138.13 216.34"/>
    <polygon class="rays" points="1224.89 340.39 787.12 573.59 1215.72 323.94 1224.89 340.39 1224.89 340.39"/>
    <polygon class="rays" points="1280.71 481.1 800.96 607.06 1275.58 462.98 1280.71 481.1 1280.71 481.1"/>
    <polygon class="rays" points="1302.58 630.9 806.71 642.82 1301.77 612.08 1302.58 630.9 1302.58 630.9"/>
    <polygon class="rays" points="1289.31 781.7 804.06 678.95 1292.86 763.2 1289.31 781.7 1289.31 781.7"/>
    <polygon class="rays" points="1241.62 925.37 793.14 713.48 1249.34 908.19 1241.62 925.37 1241.62 925.37"/>
    <polygon class="rays" points="1162.08 1054.18 774.56 744.58 1173.56 1039.24 1162.08 1054.18 1162.08 1054.18"/>
    <polygon class="rays" points="1054.98 1161.17 749.31 770.54 1069.6 1149.28 1054.98 1161.17 1054.98 1161.17"/>
    <polygon class="rays" points="926.1 1240.57 718.75 789.98 943.06 1232.38 926.1 1240.57 926.1 1240.57"/>
    <polygon class="rays" points="782.38 1288.12 684.53 801.86 800.77 1284.05 782.38 1288.12 782.38 1288.12"/>
    <polygon class="rays" points="627.35 1181.39 650.9 758.6 674.44 1181.39 627.35 1181.39 627.35 1181.39"/>
    <polygon class="rays" points="400.38 1118.84 605.04 748.13 442.8 1139.27 400.38 1118.84 400.38 1118.84"/>
    <polygon class="rays" points="223.02 964 568.26 718.8 252.38 1000.82 223.02 964 223.02 964"/>
    <polygon class="rays" points="130.41 747.55 547.85 676.42 140.89 793.45 130.41 747.55 130.41 747.55"/>
    <polygon class="rays" points="140.89 512.34 547.85 629.38 130.41 558.25 140.89 512.34 140.89 512.34"/>
    <polygon class="rays" points="252.38 304.98 568.26 587 223.02 341.79 252.38 304.98 252.38 304.98"/>
    <polygon class="rays" points="442.8 166.53 605.04 557.67 400.38 186.96 442.8 166.53 442.8 166.53"/>
    <polygon class="rays" points="674.44 124.4 650.9 547.2 627.35 124.4 674.44 124.4 674.44 124.4"/>
    <polygon class="rays" points="901.41 186.96 696.76 557.67 858.99 166.53 901.41 186.96 901.41 186.96"/>
    <polygon class="rays" points="1078.77 341.79 733.54 587 1049.41 304.98 1078.77 341.79 1078.77 341.79"/>
    <polygon class="rays" points="1171.38 558.25 753.95 629.38 1160.9 512.34 1171.38 558.25 1171.38 558.25"/>
    <polygon class="rays" points="1160.9 793.45 753.95 676.42 1171.38 747.55 1160.9 793.45 1160.9 793.45"/>
    <polygon class="rays" points="1049.41 1000.82 733.54 718.8 1078.77 964 1049.41 1000.82 1049.41 1000.82"/>
    <polygon class="rays" points="858.99 1139.27 696.76 748.13 901.41 1118.84 858.99 1139.27 858.99 1139.27"/>
  </g>
</svg>