<?xml version="1.0" encoding="UTF-8"?>
<svg id="Calque_1" xmlns="http://www.w3.org/2000/svg" xmlns:xlink="http://www.w3.org/1999/xlink" version="1.1" viewBox="0 0 468.6 468.6">
  <!-- Generator: Adobe Illustrator 29.2.1, SVG Export Plug-In . SVG Version: 2.1.0 Build 116)  -->
  <polyline points="34.1 261 34.1 261 34.1 261"/>
  <path d="M168.4,44.1c-.4-.7-.7-1.4-1.1-2-3.8.4-7.1,1.4-8.8,2.1,0,.3.2.6.3.9,2.7,8.3,9,26.6,6,31.1-3.1,4.8-9.4.6-29.1,17.4,0,0,11.1-5.7,17-.7,5.9,5,8.6,10.2,17.2,6.1,8.5-4.1,16.3-7.7,25.4,2.3,0,0-6-11.5-12.2-16.5-6.2-5-10.4-6-11.9-9.9s3.7-17.7-2.8-30.8Z"/>
  <g>
    <path d="M195.3,101.3c-9.3-16.6-43.4-17.3-59.6-7.7,0,0-6.3,4.1-4.5,22.9l64.1-15.3Z"/>
    <path d="M97.9,194.8c-21.7,21-58.7,28.4-73,38.3-1.2.8-1.1,2.5.1,3.3,4.9,2.9,16.5,8.9,27.6,9.7,11.1.8,31.2-2.5,52-10.2-3-12.7-5.3-26.3-6.8-41Z"/>
  </g>
  <path d="M135.7,93.6s11.1-5.7,17-.7,8.6,10.2,17.2,6.1c6.6-3.2,12.7-6.1,19.4-2.5l2.6-.9c-2.3-3.6-5.5-8.1-8.8-10.8-6.2-5-10.4-6-11.9-9.9-1.5-3.9,3.7-17.7-2.8-30.8-.4-.7-.7-1.4-1.1-2-3.8.4-7.1,1.4-8.8,2.1,0,.3.2.6.3.9,2.7,8.3,9,26.6,6,31.1-3.1,4.8-9.4.6-29.1,17.4Z"/>
  <path d="M415.6,240c-8.2-16.9-22.4-29.6-40.2-35.8-5.8-2-11.8-3.3-17.8-3.7-7.7,66.7-33.4,111.3-56.3,138.6-1.1,1.4-2.3,2.7-3.4,4l-37.3,62.5c-2,3.3-.9,7.6,2.4,9.6l3.5,2.1c3.3,2,7.6.9,9.6-2.4l47.8-80.1c1.7.8,3.4,1.5,5.2,2.1.6.2,1.1.4,1.7.6,17.2,5.5,35.6,4.3,52-3.7,16.9-8.2,29.6-22.4,35.8-40.2,6.2-17.7,5.1-36.8-3.1-53.7Z"/>
  <path d="M349.5,138.6c0-1.8-1.3-3.4-3-4l-118.3-40.9-118.3,40.9c-1.7.6-2.9,2.2-3,4-5.1,99.2,27.5,160.4,55.8,194.2,30.8,36.8,64.2,50.6,65.5,51.1,1.3-.5,34.8-14.3,65.6-51.1,28.3-33.8,60.9-94.9,55.8-194.2ZM293.2,286.9c-3.2,5-7.9,8.9-13.9,11.8-6,2.9-13.1,4.2-21.3,4.1-7.9-.2-15-1.6-21.2-4.3-6.2-2.7-11.2-6.6-14.8-11.7-3.7-5.1-5.5-11.2-5.6-18.3l28.1.5c.3,4,1.7,7.1,4,9.3,2.3,2.2,5.4,3.3,9.2,3.3,3.9,0,7-.8,9.3-2.5,2.3-1.8,3.5-4.2,3.5-7.4,0-2.7-.8-4.9-2.6-6.7-1.8-1.8-4-3.3-6.6-4.5s-6.3-2.5-11.1-4.1c-7-2.3-12.6-4.6-17-6.8-4.4-2.2-8.1-5.5-11.2-9.8-3.1-4.3-4.6-9.8-4.5-16.6,0-1.8.2-3.5.4-5.1l-19.3,47.2h-23.7l-33.9-96.6h21.4c2.4,0,4.6,1.5,5.5,3.8l20.6,54.2,31.5-78.9c1.1-2.7,3.7-4.5,6.7-4.5h22.1l-25.5,62.2c1.6-2.1,3.5-4,5.8-5.8,7.4-5.6,17-8.2,28.8-8,11.9.2,21.5,3.3,28.7,9.1,7.2,5.9,11,13.9,11.3,24.1l-28.6-.6c-.1-3.5-1.4-6.3-3.7-8.3-2.3-2.1-5.4-3.1-9.1-3.2-3.2,0-5.8.7-7.8,2.4-2,1.7-3,4.1-3.1,7.3,0,3.5,1.5,6.3,4.8,8.3,3.3,2,8.4,4.2,15.3,6.6,7,2.5,12.6,4.9,16.9,7.1,4.3,2.2,8.1,5.5,11.2,9.6,3.1,4.2,4.6,9.5,4.5,16-.1,6.2-1.8,11.8-5,16.8Z"/>
</svg>