<?xml version="1.0" encoding="UTF-8"?>
<svg xmlns="http://www.w3.org/2000/svg" xmlns:xlink="http://www.w3.org/1999/xlink" viewBox="398.77 416.04 468.62 468.63">
  <defs>
    <style>
      .cls-1 {
        fill: none;
      }

      .cls-2 {
        fill: url(#Dégradé_sans_nom_9);
      }

      .cls-3 {
        fill: #5dc65d;
      }

      .cls-4 {
        fill: #c1e0f7;
      }

      .cls-5 {
        isolation: isolate;
      }

      .cls-6 {
        clip-path: url(#clippath-1);
      }

      .cls-7 {
        fill: #de2636;
      }

      .cls-8 {
        fill: #fff;
      }

      .cls-9 {
        fill: #cfbae1;
      }

      .cls-10 {
        fill: #c59fc9;
      }

      .cls-11 {
        opacity: .6;
      }

      .cls-12 {
        opacity: .3;
      }

      .cls-13 {
        fill: #97f9f9;
      }

      .cls-14 {
        fill: #f1f;
      }

      .cls-15 {
        opacity: .05;
      }

      .cls-15, .cls-16 {
        mix-blend-mode: lighten;
      }

      .cls-17, .cls-18 {
        fill: #804089;
      }

      .cls-16 {
        opacity: .11;
      }

      .cls-19 {
        fill: url(#Dégradé_sans_nom_47);
      }

      .cls-20 {
        fill: url(#Dégradé_sans_nom_11);
      }

      .cls-21 {
        fill: url(#Dégradé_sans_nom_37);
      }

      .cls-22 {
        fill: url(#Dégradé_sans_nom_21);
      }

      .cls-23 {
        fill: url(#Dégradé_sans_nom_52);
      }

      .cls-24 {
        fill: url(#Dégradé_sans_nom_69);
      }

      .cls-18 {
        opacity: .3;
      }

      .cls-25 {
        fill: #a4def9;
      }

      .cls-26 {
        fill: #801100;
      }

      .cls-27 {
        clip-path: url(#clippath);
      }
    </style>
    <linearGradient id="Dégradé_sans_nom_9" data-name="Dégradé sans nom 9" x1="403.55" y1="436.43" x2="606.84" y2="687.16" gradientUnits="userSpaceOnUse">
      <stop offset="0" stop-color="#ef4444"/>
      <stop offset="1" stop-color="#f97316"/>
    </linearGradient>
    <linearGradient id="Dégradé_sans_nom_11" data-name="Dégradé sans nom 11" x1="659.66" y1="620.04" x2="881.59" y2="849.6" gradientUnits="userSpaceOnUse">
      <stop offset="0" stop-color="#ec4899"/>
      <stop offset="1" stop-color="#a855f7"/>
    </linearGradient>
    <clipPath id="clippath">
      <rect class="cls-1" x="408.77" y="426.04" width="448.63" height="448.63"/>
    </clipPath>
    <clipPath id="clippath-1">
      <rect class="cls-1" x="297.7" y="414.09" width="706.32" height="470.88"/>
    </clipPath>
    <linearGradient id="Dégradé_sans_nom_69" data-name="Dégradé sans nom 69" x1="-2671.47" y1="982.18" x2="-2565.3" y2="911.4" gradientTransform="translate(2291.22 -1581.59) rotate(-31.02)" gradientUnits="userSpaceOnUse">
      <stop offset="0" stop-color="#ffc2c9" stop-opacity=".2"/>
      <stop offset="1" stop-color="#ffc2c9" stop-opacity="0"/>
    </linearGradient>
    <linearGradient id="Dégradé_sans_nom_47" data-name="Dégradé sans nom 47" x1="-2531.33" y1="873.31" x2="-2544.11" y2="922.46" gradientTransform="translate(2291.22 -1581.59) rotate(-31.02)" gradientUnits="userSpaceOnUse">
      <stop offset="0" stop-color="#377d37"/>
      <stop offset="1" stop-color="#377d37" stop-opacity="0"/>
    </linearGradient>
    <linearGradient id="Dégradé_sans_nom_52" data-name="Dégradé sans nom 52" x1="-2710.54" y1="984.49" x2="-2541.04" y2="942.36" gradientTransform="translate(2291.22 -1581.59) rotate(-31.02)" gradientUnits="userSpaceOnUse">
      <stop offset="0" stop-color="#b11e2e"/>
      <stop offset="1" stop-color="#de2636"/>
    </linearGradient>
    <linearGradient id="Dégradé_sans_nom_21" data-name="Dégradé sans nom 21" x1="598.77" y1="590.98" x2="620.38" y2="714.08" gradientUnits="userSpaceOnUse">
      <stop offset="0" stop-color="#fac000"/>
      <stop offset="1" stop-color="#fc6400"/>
    </linearGradient>
    <linearGradient id="Dégradé_sans_nom_37" data-name="Dégradé sans nom 37" x1="582.77" y1="634.71" x2="626.57" y2="753.68" gradientUnits="userSpaceOnUse">
      <stop offset="0" stop-color="#ff7500"/>
      <stop offset="1" stop-color="#b62203"/>
    </linearGradient>
  </defs>
  <g class="cls-5">
    <g id="Calque_2" data-name="Calque 2">
      <g id="line">
        <g>
          
          
          <g class="cls-27">
            <g class="cls-6">
              <rect class="cls-1" x="297.7" y="414.09" width="706.32" height="470.88"/>
            </g>
          </g>
          <g>
            <polyline class="cls-14" points="453.95 666.96 453.95 666.96 453.95 666.96"/>
            <path class="cls-14" d="M438.82,659.73h0s0,0,0,0Z"/>
            <g>
              <path class="cls-7" d="M445.76,642.28c-1.03.71-.96,2.26.12,2.89,4.34,2.53,14.6,7.91,24.46,8.59,22.34,1.54,85.21-15.16,105.59-55.13,20.38-39.97,20.45-64.13,20.45-64.13,0,0-3.24-8.12-12.76-7.68-9.52.44-10.33,7.37-18.5,5.72-8.17-1.64-6.02-16.28-22.67-6.43,0,0-6.84,45.48-24.27,72.89-16.58,26.07-57.87,33.19-72.43,43.28Z"/>
              <path class="cls-24" d="M564.99,532.5c-7.1-1.57-6.33-13.05-17.56-8.84-.36,5.18-1.8,19.2-7.35,36.31-7.05,21.71-13.77,45.97-39.99,65.22-26.22,19.26,1.75,17.63,25.41-2.61,21.99-18.8,37.56-64.29,39.48-90.08Z"/>
              <path class="cls-3" d="M572.99,474.7c-.31-.63-.63-1.21-.94-1.75-3.37.38-6.28,1.27-7.83,1.82.07.26.14.53.23.79,2.4,7.34,7.95,23.56,5.36,27.57-2.74,4.26-8.32.53-25.8,15.46,0,0,9.85-5.02,15.04-.6,5.19,4.41,7.67,9.07,15.23,5.39,7.49-3.64,14.45-6.85,22.54,2.02,0,0-5.31-10.2-10.8-14.63-5.49-4.42-9.2-5.3-10.53-8.8s3.26-15.65-2.51-27.27Z"/>
              <path class="cls-19" d="M574.36,510.11c.54,2.65,2.42,8.51,3.45,11.63,6.2-2.71,12.21-3.8,19.02,3.67,0,0-5.31-10.2-10.8-14.63-5.49-4.42-9.2-5.3-10.53-8.8s3.26-15.65-2.51-27.27c-.31-.63-.63-1.21-.94-1.75-.94.11-1.84.25-2.69.42,1.4,2.56,4.82,9.87,4.05,19.33-.97,11.83.2,13.7.95,17.4Z"/>
              <path class="cls-23" d="M583.62,526.82c-1.72.08-3.14.37-4.39.78,1.43,4.09,3.79,12.54,3.64,23.64-.21,15.86-16.82,58.91-39.59,75.55-22.77,16.64-62.27,25.43-72.88,24.78-9.01-.56-21.43-5.72-25.27-7.33.13.38.37.72.76.94,4.34,2.53,14.6,7.91,24.46,8.59,22.34,1.54,85.21-15.16,105.59-55.13,20.38-39.97,20.45-64.13,20.45-64.13,0,0-3.24-8.12-12.76-7.68Z"/>
              <path class="cls-26" d="M551.82,522.73c6.84,0,7.16,8.58,13.3,9.81.86.17,1.64.25,2.36.25,6.08,0,7.62-5.58,16.14-5.97.25-.01.49-.02.73-.02,8.96,0,12.03,7.7,12.03,7.7,0,0-.06,24.16-20.45,64.13-19.53,38.29-78.06,55.22-102.58,55.22-1.07,0-2.08-.03-3.02-.1-9.86-.68-20.12-6.06-24.46-8.59-1.08-.63-1.15-2.17-.12-2.89,14.56-10.1,55.85-17.21,72.43-43.28,17.43-27.4,24.27-72.89,24.27-72.89,4.14-2.45,7.11-3.38,9.37-3.38M551.82,516.76c-3.61,0-7.55,1.34-12.41,4.22-1.54.91-2.59,2.47-2.86,4.25-.07.44-6.87,44.57-23.4,70.57-10.23,16.08-31.75,24.59-49.04,31.43-8.86,3.5-16.51,6.53-21.75,10.16-2.16,1.5-3.39,3.97-3.29,6.6.1,2.64,1.53,5.01,3.81,6.34,5.46,3.19,16.24,8.64,27.05,9.39,1.07.07,2.22.11,3.43.11,26.37,0,87.07-17.66,107.89-58.48,20.79-40.77,21.1-65.78,21.1-66.83,0-.76-.14-1.52-.43-2.23-1.7-4.25-7.31-11.46-17.57-11.46-.33,0-.67,0-1.01.02-6.18.28-9.79,2.66-12.43,4.4-1.9,1.25-2.49,1.57-3.43,1.57-.34,0-.74-.05-1.19-.13-.6-.12-1.52-1.37-2.41-2.59-2.02-2.75-5.39-7.34-12.06-7.34h0Z"/>
              <path class="cls-26" d="M572.05,472.96c.31.54.62,1.11.94,1.75,5.77,11.62,1.18,23.77,2.51,27.27,1.33,3.5,5.04,4.38,10.53,8.8,5.49,4.42,10.8,14.63,10.8,14.63-3.86-4.23-7.46-5.71-10.98-5.71-3.87,0-7.64,1.79-11.56,3.69-1.92.93-3.51,1.33-4.9,1.33-4.09,0-6.45-3.43-10.33-6.72-1.59-1.35-3.61-1.82-5.65-1.82-4.64,0-9.39,2.42-9.39,2.42,17.48-14.92,23.06-11.2,25.8-15.46,2.59-4.01-2.96-20.23-5.36-27.57-.09-.27-.16-.53-.23-.79,1.54-.55,4.46-1.44,7.83-1.82M572.05,466.99c-.22,0-.45.01-.67.04-4.01.45-7.45,1.52-9.15,2.12-2.92,1.03-4.56,4.13-3.79,7.12.11.42.22.79.34,1.15l.4,1.23c3.65,11.11,5.45,18.22,5.37,21.18-.4.15-.93.32-1.39.47-4.2,1.38-11.23,3.69-23.02,13.75-2.3,1.96-2.77,5.34-1.09,7.86,1.14,1.71,3.03,2.65,4.97,2.65.92,0,1.84-.21,2.71-.65.97-.48,4.11-1.77,6.68-1.77.84,0,1.49.14,1.78.4.8.68,1.56,1.4,2.3,2.1,2.85,2.69,6.39,6.04,11.89,6.04,2.38,0,4.84-.63,7.52-1.93,3.13-1.52,6.36-3.09,8.95-3.09,1.35,0,3.49.39,6.57,3.77,1.17,1.28,2.78,1.95,4.41,1.95,1.19,0,2.38-.35,3.41-1.07,2.46-1.72,3.26-4.99,1.88-7.65-.6-1.16-6.06-11.46-12.35-16.52-2.25-1.81-4.21-3.08-5.78-4.1-1.07-.69-2.36-1.53-2.79-1.99,0-.78.15-2.29.26-3.45.56-5.69,1.49-15.23-3.13-24.55-.35-.71-.72-1.39-1.12-2.08-1.07-1.86-3.05-2.98-5.17-2.98h0Z"/>
            </g>
          </g>
          <g>
            <g>
              <path class="cls-9" d="M722.95,779.26c-15.35,0-29.73-5.22-41.59-15.1-13.37-11.14-21.6-26.81-23.18-44.14-1.58-17.33,3.69-34.23,14.83-47.6s26.81-21.6,44.14-23.18c2-.18,4.02-.27,6.01-.27,15.13,0,29.9,5.36,41.59,15.1,13.37,11.14,21.6,26.81,23.18,44.14,1.52,16.72-3.37,33.17-13.78,46.31-.34.43-.69.86-1.04,1.29-11.14,13.37-26.82,21.6-44.14,23.18-2,.18-4.02.27-6.01.27Z"/>
              <path class="cls-17" d="M723.16,651.82c14.53,0,28.47,5.03,39.76,14.44,12.78,10.65,20.65,25.64,22.16,42.21,1.46,16.04-3.21,31.71-13.18,44.29-.33.41-.66.83-1,1.23-10.65,12.78-25.64,20.65-42.21,22.16-1.93.18-3.85.26-5.76.26-14.53,0-28.47-5.03-39.76-14.44-12.78-10.65-20.65-25.64-22.16-42.21-1.51-16.57,3.53-32.74,14.18-45.52,10.65-12.78,25.64-20.65,42.21-22.16,1.93-.18,3.85-.26,5.76-.26M723.16,646.12c-2.08,0-4.19.1-6.27.29-18.09,1.65-34.45,10.24-46.07,24.19-11.63,13.95-17.12,31.6-15.48,49.68,1.65,18.09,10.24,34.45,24.19,46.07,12.2,10.16,27.62,15.76,43.41,15.76,2.08,0,4.19-.1,6.27-.29,18.09-1.65,34.45-10.24,46.07-24.19.37-.44.73-.89,1.09-1.34,10.87-13.72,15.98-30.89,14.39-48.34-1.65-18.09-10.24-34.45-24.19-46.07-12.2-10.16-27.62-15.76-43.41-15.76h0Z"/>
            </g>
            <g>
              <rect class="cls-8" x="777.15" y="742.07" width="16.08" height="101.18" rx="6.23" ry="6.23" transform="translate(-322.97 662.93) rotate(-38.59)"/>
              <path class="cls-18" d="M755.05,751.99l-.1.08c-2.69,2.15-3.13,6.06-.98,8.75l55.35,69.35c2.15,2.69,6.06,3.13,8.75.98l.09-.08c2.69-2.15,3.13-6.06.98-8.75l-55.35-69.35c-.15-.19-.31-.35-.47-.52-2.21-2.22-5.78-2.46-8.29-.47Z"/>
              <path class="cls-25" d="M682,763.4c12.45,10.38,27.67,15.23,42.69,14.84,4.84-.12,9.65-.8,14.34-2,12.6-3.22,24.34-10.31,33.31-21.06,3.23-3.88,5.93-8.03,8.09-12.36,7.6-15.16,8.73-32.51,3.74-48.21-2.98-9.38-8.15-18.16-15.44-25.53-1.45-1.47-2.99-2.89-4.62-4.24-9.41-7.84-20.4-12.53-31.69-14.19h0c-21.37-3.13-43.81,4.6-58.65,22.41-6.34,7.61-10.62,16.24-12.9,25.24-5.61,22.11.84,46.36,18.44,62.73.4.37.81.74,1.22,1.11h0c.36.32.72.64,1.09.95.12.1.24.21.36.31Z"/>
              <path class="cls-10" d="M694.7,769.47c-20.95-18.86-14.78-57.53,12.31-45.59l-4.7-3.16c-7.74-25.31-36.06-11.06-36.01,23.33,0,0,5.33,16.83,28.39,25.41Z"/>
              <path class="cls-10" d="M755.95,743.89c-13.91,10.81-33.82,1.62-33.82,1.62,0,0-9.57,1.97-18.55-1.18,0,0,8.77,16.97,26.06,21.37,11.6-4.26,20.42-11.47,26.32-21.81Z"/>
              <path class="cls-10" d="M739.03,776.24c12.6-3.22,24.34-10.31,33.31-21.06,3.23-3.88,5.93-8.03,8.09-12.36.01-.18.02-.35.02-.49.26-.35.51-.7.74-1.08,3.87-8.71,5.66-18.53,5.97-29.15-.08.48-3.33,19.09-18.95,31.29l-4.61,8.27-23.15,20.84-1.42,3.72Z"/>
              <path class="cls-10" d="M758.88,701.07c.16,8.57-3.51,16.18-14.21,22.03l-3.31,8.63s14.13-1.15,21.64-14.18c0,0-1.34-8.37-4.12-16.49Z"/>
              <path class="cls-10" d="M707.62,683.97s9.51-.31,19.9,9.05c0,0,9.37,3.45,13.31,10.75,3.12-8.25,2.14-16.29-11.87-23.65,0,0-12.86-1.86-21.34,3.85Z"/>
              <path class="cls-10" d="M772.08,709.4c4.3-11.93,4.47-29.61-3.34-40.32-1.45-1.47-2.99-2.89-4.62-4.24-9.41-7.84-20.4-12.53-31.69-14.19h0s20.53,9.52,28.08,34.09c0,0,12.47,13.24,11.57,24.66Z"/>
              <path class="cls-10" d="M682,763.4c12.45,10.38,27.67,15.23,42.69,14.84,2.93-.66,5.83-1.52,8.65-2.58,9.48-3.52,18.22-9.32,24.97-17.04,3.38-3.81,6.21-8.02,8.59-12.52,1.15-2.26,2.23-4.57,3.1-6.97l.34-.89.3-.91c.2-.61.4-1.21.59-1.82.34-1.23.71-2.46.98-3.71.31-1.24.52-2.51.75-3.77.1-.63.18-1.27.27-1.9l.13-.96.08-.96c.26-2.56.29-5.14.17-7.72-.25-5.16-1.28-10.3-3.06-15.19-.88-2.45-2-4.8-3.24-7.08-1.27-2.28-2.71-4.44-4.29-6.5-.4-.51-.82-1.01-1.23-1.5l-.62-.75-.65-.71-1.31-1.43-1.38-1.35-.69-.67-.73-.64-1.45-1.27-1.55-1.22c-.51-.41-1.06-.77-1.59-1.16-2.15-1.5-4.43-2.83-6.8-3.95-2.38-1.12-4.86-2.02-7.4-2.72-2.53-.7-5.12-1.18-7.74-1.44-2.62-.26-5.25-.28-7.87-.1-10.47.71-20.69,5.14-28.34,12.36l-.72.67-.69.7c-.45.48-.93.93-1.35,1.43-.43.5-.87.98-1.3,1.49-.41.53-.84,1.05-1.25,1.59-1.61,2.17-2.99,4.51-4.11,6.97-2.24,4.92-3.41,10.33-3.4,15.73,0,5.4,1.15,10.79,3.37,15.73,2.22,4.93,5.53,9.37,9.58,12.93l.77.67.82.65c.54.44,1.12.83,1.69,1.24,1.17.77,2.36,1.5,3.62,2.11,2.5,1.26,5.18,2.15,7.92,2.72,5.49,1.08,11.25.68,16.54-1.14,5.28-1.83,10.08-5.11,13.68-9.37,1.84-2.2,3.4-4.73,4.47-7.44,1.1-2.71,1.67-5.61,1.8-8.52.12-2.91-.24-5.83-1.05-8.63-.82-2.8-2.14-5.44-3.84-7.82-.43-.59-.85-1.19-1.34-1.72l-.72-.82c-.25-.27-.48-.55-.75-.79l-1.61-1.48c-.57-.48-1.2-.93-1.81-1.38-2.52-1.73-5.43-2.93-8.44-3.48-6.02-1.1-12.43.34-17.47,3.95-1.26.91-2.42,1.94-3.46,3.08-.13.15-.26.28-.39.44l-.38.49-.74.98c-.22.34-.44.7-.66,1.05l-.31.53c-.1.18-.18.37-.28.55-.18.37-.35.75-.52,1.13-.16.38-.29.78-.42,1.17-.14.39-.26.78-.35,1.19-.1.4-.19.81-.27,1.21-.07.41-.11.82-.16,1.22l-.07.61c-.02.2-.01.41-.02.61v1.23c.01.4.05.81.09,1.22l.06.61.1.6c.08.4.15.8.24,1.19l.35,1.16.18.58.23.56c.15.37.3.74.46,1.11.19.36.38.71.57,1.06.1.18.19.35.29.52l.33.5c.22.33.45.66.68.98.25.31.51.61.76.91l.39.45.42.41.85.81c.3.25.61.49.92.72.58.47,1.31.91,2.01,1.31.36.18.73.36,1.09.53.37.17.76.29,1.13.42,1.52.51,3.1.73,4.65.71,1.55-.04,3.05-.36,4.43-.89,2.78-1.04,5.01-3.12,6.22-5.51.34-.67.07-1.49-.6-1.83-.45-.23-.97-.18-1.37.08l-.07.05c-3.57,2.38-7.65,1.99-10.02.16-.14-.13-.3-.22-.43-.35-.13-.14-.27-.26-.4-.38-.25-.28-.48-.5-.72-.85-.12-.16-.25-.31-.36-.47l-.31-.5-.16-.24-.12-.26c-.08-.17-.17-.34-.26-.5-.27-.71-.53-1.4-.64-2.12l-.05-.27-.03-.27c-.01-.18-.03-.36-.05-.53,0-.18,0-.36,0-.53v-.26s.02-.26.02-.26c.02-.18.02-.35.03-.52.03-.17.06-.35.08-.51.01-.17.06-.34.1-.5.04-.17.06-.34.11-.5.13-.32.17-.66.33-.96l.18-.47c.08-.15.16-.29.23-.45.03-.07.07-.15.11-.23l.13-.21c.09-.14.17-.29.25-.44.1-.14.2-.27.3-.42l.14-.21c.05-.07.13-.14.18-.21.5-.6,1.03-1.17,1.64-1.67,1.2-1,2.62-1.75,4.16-2.14,1.54-.4,3.17-.43,4.74-.15,1.56.28,3.06.89,4.37,1.8.31.25.64.47.96.73.32.3.64.59.96.89.17.14.3.31.44.48l.44.49c.31.31.54.67.79,1.02,1,1.41,1.8,2.98,2.29,4.64.48,1.67.69,3.42.61,5.16-.08,1.73-.4,3.47-1.06,5.07-.65,1.61-1.55,3.09-2.68,4.46-2.41,2.84-5.56,5-9.07,6.22-3.51,1.21-7.35,1.48-10.99.76-1.81-.38-3.59-.95-5.24-1.8-.83-.4-1.62-.9-2.4-1.4-.37-.28-.77-.52-1.12-.82l-.55-.44-.55-.48c-2.93-2.58-5.31-5.76-6.91-9.32-1.6-3.55-2.43-7.45-2.44-11.35,0-3.9.85-7.79,2.45-11.34.8-1.77,1.8-3.46,2.96-5.03.29-.39.6-.77.9-1.15l.99-1.15c.33-.39.7-.74,1.04-1.1l.53-.54.56-.52c5.89-5.56,13.74-8.96,21.83-9.51,2.02-.14,4.06-.13,6.07.07,2.02.2,4.01.58,5.96,1.11,1.95.54,3.86,1.22,5.69,2.09,1.83.87,3.58,1.89,5.24,3.05.41.3.84.57,1.23.89l1.2.94,1.17,1.03.59.51.56.54,1.11,1.09,1.05,1.14.52.57.49.6c.33.4.67.79.98,1.19,1.25,1.64,2.39,3.35,3.39,5.14.97,1.81,1.86,3.66,2.55,5.59,2.84,7.71,3.19,16.31,1.29,24.45-1.88,8.15-5.95,15.87-11.54,22.22-5.51,6.3-12.72,11.12-20.67,14.08-7.95,2.98-16.63,4.1-25.13,3.36-8.51-.73-16.86-3.29-24.3-7.52-.3-.17-.59-.34-.88-.51.87.81,1.76,1.6,2.68,2.36Z"/>
              <path class="cls-10" d="M674.88,673.98c15.55-9.73,31.27-10.67,47.11-5.19,0,0-18.64.6-32.39,16.65,0,0-23.84,1.07-31.09,30.75.76-15.9,3.88-30.88,16.37-42.21Z"/>
              <g class="cls-11">
                <path class="cls-8" d="M763.63,670.83c15.83,13.19,23.7,32.38,23.05,51.49,2.68-21.02-5.09-42.91-22.57-57.48-27.22-22.68-67.66-19-90.34,8.22-9.5,11.4-14.37,25.13-14.83,38.89,1.49-11.72,6.23-23.15,14.35-32.9,22.68-27.22,63.12-30.9,90.34-8.22Z"/>
              </g>
              <path class="cls-17" d="M773.76,756.36c-11.28,13.54-27.17,21.88-44.72,23.48-17.56,1.6-34.68-3.74-48.22-15.02-13.54-11.28-21.88-27.17-23.48-44.72-1.6-17.56,3.74-34.69,15.02-48.22,11.28-13.54,27.17-21.88,44.72-23.48,17.56-1.6,34.68,3.74,48.22,15.02,13.54,11.28,21.88,27.17,23.48,44.72,1.55,17-3.4,33.59-13.96,46.92-.35.44-.7.87-1.06,1.31ZM661.02,719.76c1.51,16.57,9.38,31.56,22.16,42.21h0c12.78,10.65,28.95,15.69,45.52,14.18,16.57-1.51,31.56-9.38,42.21-22.16,10.64-12.78,15.69-28.95,14.18-45.52-1.51-16.57-9.38-31.56-22.16-42.21-12.78-10.65-28.95-15.69-45.52-14.18-16.57,1.51-31.56,9.38-42.21,22.16-.34.41-.67.82-1,1.23-9.96,12.58-14.64,28.25-13.18,44.29Z"/>
              <g class="cls-11">
                <path class="cls-8" d="M712.21,718.51l.22.36c0-.05,0-.1,0-.16v-.26s.02-.26.02-.26c.02-.18.02-.35.03-.52.03-.17.06-.35.08-.51.01-.17.06-.34.1-.5.04-.17.06-.34.11-.5.13-.32.17-.66.33-.96l.18-.47c.08-.15.16-.29.23-.45.03-.07.07-.15.11-.23l.13-.21c.09-.14.17-.29.25-.44.1-.14.2-.27.3-.42l.14-.21c.05-.07.13-.14.18-.21.5-.6,1.03-1.17,1.64-1.67,1.2-1,2.62-1.75,4.16-2.14,1.54-.4,3.17-.43,4.74-.15,1.56.28,3.06.89,4.37,1.8.31.25.64.47.96.73.32.3.64.59.96.89.17.14.3.31.44.48l.44.49c.31.31.54.67.79,1.02.46.65.88,1.34,1.25,2.05-.1-.8-.26-1.58-.48-2.35-.49-1.67-1.29-3.23-2.29-4.64-.26-.35-.49-.72-.79-1.02l-.44-.49c-.15-.16-.27-.34-.44-.48-.33-.29-.64-.59-.96-.89-.32-.26-.64-.48-.96-.73-1.31-.91-2.81-1.51-4.37-1.8-1.56-.28-3.2-.25-4.74.15-1.54.39-2.97,1.14-4.16,2.14-.6.5-1.14,1.07-1.64,1.67-.06.07-.14.14-.18.21l-.14.21c-.1.14-.2.28-.3.42-.08.15-.16.3-.25.44l-.13.21c-.04.07-.07.15-.11.23-.07.16-.15.3-.23.45l-.18.47c-.16.3-.2.64-.33.96-.04.17-.07.33-.11.5-.04.16-.08.33-.1.5-.02.17-.05.34-.08.51,0,.17-.01.35-.03.52l-.02.26v.26c.02.18.02.35.01.53.02.17.04.35.05.53l.03.27.05.27c.1.72.36,1.41.64,2.12.09.16.18.33.26.5l.12.26.16.24Z"/>
              </g>
              <g class="cls-11">
                <path class="cls-8" d="M749.31,688.58l-1.17-1.03-1.2-.94c-.39-.32-.82-.59-1.23-.89-1.66-1.16-3.41-2.18-5.24-3.05-1.83-.86-3.74-1.55-5.69-2.09-1.95-.54-3.94-.91-5.96-1.11-2.02-.2-4.05-.22-6.07-.07-8.09.55-15.94,3.96-21.83,9.51l-.56.52-.53.54c-.35.37-.72.71-1.04,1.1l-.99,1.15c-.3.39-.61.76-.9,1.15-1.17,1.57-2.16,3.26-2.96,5.03-1.6,3.54-2.45,7.43-2.45,11.34,0,3.64.73,7.27,2.12,10.62-.39-1.87-.59-3.77-.59-5.68,0-3.9.85-7.79,2.45-11.34.8-1.77,1.8-3.46,2.96-5.03.29-.39.6-.77.9-1.15l.99-1.15c.33-.39.7-.74,1.04-1.1l.53-.54.56-.52c5.89-5.56,13.74-8.96,21.83-9.51,2.02-.14,4.06-.13,6.07.07,2.02.2,4.01.58,5.96,1.11,1.95.54,3.86,1.22,5.69,2.09,1.83.87,3.58,1.89,5.24,3.05.41.3.84.57,1.23.89l1.2.94,1.17,1.03.59.51.56.54,1.11,1.09,1.05,1.14.52.57.49.6c.33.4.67.79.98,1.19,1.25,1.64,2.39,3.35,3.39,5.14.89,1.65,1.7,3.33,2.36,5.07-.36-1.5-.8-2.98-1.34-4.42-.69-1.93-1.58-3.78-2.55-5.59-1-1.79-2.14-3.5-3.39-5.14-.31-.41-.65-.79-.98-1.19l-.49-.6-.52-.57-1.05-1.14-1.11-1.09-.56-.54-.59-.51Z"/>
              </g>
              <g class="cls-11">
                <path class="cls-8" d="M695.38,739.71l-.82-.65-.77-.67c-4.05-3.55-7.36-8-9.58-12.93-.29-.64-.55-1.28-.81-1.93.56,2.36,1.34,4.66,2.33,6.87,2.22,4.93,5.53,9.37,9.58,12.93l.77.67.82.65c.54.44,1.12.83,1.69,1.24,1.17.77,2.36,1.5,3.62,2.11,2.5,1.26,5.18,2.15,7.92,2.72,5.49,1.08,11.25.68,16.54-1.14,5.28-1.83,10.08-5.11,13.68-9.37,1.84-2.2,3.4-4.73,4.47-7.44,1.1-2.71,1.67-5.61,1.8-8.52.12-2.91-.24-5.83-1.05-8.63-.28-.93-.61-1.85-.99-2.75.43,2.12.6,4.28.51,6.44-.13,2.9-.69,5.81-1.8,8.52-1.08,2.71-2.63,5.24-4.47,7.44-3.6,4.26-8.4,7.55-13.68,9.37-5.29,1.83-11.04,2.23-16.54,1.14-2.73-.56-5.42-1.45-7.92-2.72-1.26-.61-2.46-1.35-3.62-2.11-.57-.41-1.15-.79-1.69-1.24Z"/>
              </g>
              <g class="cls-11">
                <path class="cls-8" d="M714.43,721.05c-.14-.13-.3-.22-.43-.35-.13-.14-.27-.26-.4-.38-.25-.28-.48-.5-.72-.85-.12-.16-.25-.31-.36-.47l-.31-.5-.16-.24-.12-.26c-.08-.17-.17-.34-.26-.5-.17-.46-.34-.9-.47-1.36-.02.13-.04.27-.06.41,0,.17-.01.35-.03.52l-.02.26v.26c.02.18.02.35.01.53.02.17.04.35.05.53l.03.27.05.27c.1.72.36,1.41.64,2.12.09.16.18.33.26.5l.12.26.16.24.31.5c.11.16.24.3.36.47.24.35.47.58.72.85.13.12.27.24.4.38.13.12.29.22.43.35,2.37,1.83,6.45,2.22,10.02-.16l.07-.05c.17-.11.36-.19.56-.21.48-.59.88-1.22,1.21-1.87.34-.67.07-1.49-.6-1.83-.45-.23-.97-.18-1.37.08l-.07.05c-3.57,2.38-7.65,1.99-10.02.16Z"/>
              </g>
              <g class="cls-11">
                <path class="cls-8" d="M734.18,700.5c.61.46,1.24.91,1.81,1.38l1.61,1.48c.28.24.51.52.75.79l.72.82c.5.53.92,1.14,1.34,1.72,1.69,2.38,3.02,5.02,3.84,7.82.4,1.39.69,2.79.87,4.22.06-2.72-.3-5.44-1.06-8.05-.82-2.8-2.14-5.44-3.84-7.82-.43-.59-.85-1.19-1.34-1.72l-.72-.82c-.25-.27-.48-.55-.75-.79l-1.61-1.48c-.57-.48-1.2-.93-1.81-1.38-2.52-1.73-5.43-2.93-8.44-3.48-6.02-1.1-12.43.34-17.47,3.95-1.26.91-2.42,1.94-3.46,3.08-.13.15-.26.28-.39.44l-.38.49-.74.98c-.22.34-.44.7-.66,1.05l-.31.53c-.1.18-.18.37-.28.55-.18.37-.35.75-.52,1.13-.16.38-.29.78-.42,1.17-.14.39-.26.78-.35,1.19-.1.4-.19.81-.27,1.21-.07.41-.11.82-.16,1.22l-.07.61c-.02.2-.01.41-.02.61v1.23c.01.4.05.81.09,1.22l.06.61.06.33c0-.06,0-.11,0-.17l.07-.61c.05-.41.09-.82.16-1.22.08-.4.18-.81.27-1.21.08-.4.21-.8.35-1.19.13-.39.26-.78.42-1.17.17-.38.34-.75.52-1.13.09-.18.18-.37.28-.55l.31-.53c.21-.35.43-.71.66-1.05l.74-.98.38-.49c.13-.16.26-.29.39-.44,1.03-1.15,2.2-2.18,3.46-3.08,5.04-3.61,11.45-5.05,17.47-3.95,3.02.54,5.92,1.74,8.44,3.48Z"/>
              </g>
              <g class="cls-11">
                <path class="cls-8" d="M770.72,705.12c1.55,4.25,2.53,8.69,2.92,13.17,0-.61-.03-1.2-.06-1.81-.25-5.16-1.28-10.3-3.06-15.19-.88-2.45-2-4.8-3.24-7.08-1.27-2.28-2.71-4.44-4.29-6.5-.4-.51-.82-1.01-1.23-1.5l-.62-.75-.65-.71-1.31-1.43-1.38-1.35-.69-.67-.73-.64-1.45-1.27-1.55-1.22c-.51-.41-1.06-.77-1.59-1.16-2.15-1.5-4.43-2.83-6.8-3.95-2.38-1.12-4.86-2.02-7.4-2.72-2.53-.7-5.12-1.18-7.74-1.44-2.62-.26-5.25-.28-7.87-.1-10.47.71-20.69,5.14-28.34,12.36l-.72.67-.69.7c-.45.48-.93.93-1.35,1.43-.43.5-.87.98-1.3,1.49-.41.53-.84,1.05-1.25,1.59-1.61,2.17-2.99,4.51-4.11,6.97-2.24,4.92-3.41,10.33-3.4,15.73,0,1.28.06,2.56.19,3.83,0-5.4,1.17-10.81,3.4-15.73,1.12-2.47,2.5-4.81,4.11-6.97.4-.54.83-1.06,1.25-1.59.43-.51.86-.99,1.3-1.49.42-.5.9-.95,1.35-1.43l.69-.7.72-.67c7.65-7.22,17.86-11.65,28.34-12.36,2.62-.18,5.25-.16,7.87.1,2.61.26,5.2.75,7.74,1.44,2.53.7,5.01,1.6,7.4,2.72,2.37,1.13,4.65,2.45,6.8,3.95.53.39,1.08.75,1.59,1.16l1.55,1.22,1.45,1.27.73.64.69.67,1.38,1.35,1.31,1.43.65.71.62.75c.41.5.83.99,1.23,1.5,1.57,2.06,3.02,4.22,4.29,6.5,1.23,2.28,2.36,4.64,3.24,7.08Z"/>
              </g>
              <g class="cls-11">
                <path class="cls-8" d="M694.11,724.92c1.6,3.56,3.97,6.74,6.91,9.32l.55.48.55.44c.35.3.75.55,1.12.82.78.5,1.56,1,2.4,1.4,1.65.84,3.43,1.42,5.24,1.8,3.64.72,7.48.45,10.99-.76,3.51-1.22,6.66-3.37,9.07-6.22,1.13-1.37,2.03-2.84,2.68-4.46.67-1.6.99-3.34,1.06-5.07.05-1.14-.02-2.29-.22-3.41-.1,1.59-.42,3.18-1.04,4.65-.65,1.61-1.55,3.09-2.68,4.46-2.41,2.84-5.56,5-9.07,6.22-3.51,1.21-7.35,1.48-10.99.76-1.81-.38-3.59-.95-5.24-1.8-.83-.4-1.62-.9-2.4-1.4-.37-.28-.77-.52-1.12-.82l-.55-.44-.55-.48c-2.93-2.58-5.31-5.76-6.91-9.32-1.15-2.56-1.9-5.3-2.24-8.1,0,.19,0,.38,0,.57,0,3.9.84,7.8,2.44,11.35Z"/>
              </g>
              <path class="cls-17" d="M759.28,759.48c-6.72,7.68-15.53,13.7-25.49,17.4-2.86,1.07-5.83,1.95-8.82,2.63-.08.02-.17.03-.25.03-15.87.41-31.34-4.96-43.56-15.14h0c-.91-.76-1.83-1.57-2.73-2.41-.49-.46-.55-1.21-.15-1.74.41-.52,1.15-.67,1.72-.32.27.17.56.33.84.49,7.21,4.1,15.43,6.64,23.77,7.35,8.39.73,16.89-.41,24.57-3.28,7.91-2.94,14.87-7.68,20.15-13.72,5.54-6.3,9.43-13.78,11.25-21.66,1.87-8.02,1.43-16.44-1.25-23.72-.6-1.66-1.38-3.38-2.46-5.39-.94-1.67-2.05-3.35-3.29-4.98-.18-.24-.38-.47-.57-.7-.13-.16-.26-.31-.39-.47l-.47-.57-1.52-1.65-1.62-1.58-1.71-1.5-1.19-.93c-.21-.17-.45-.34-.7-.51-.16-.11-.32-.22-.45-.32-1.6-1.12-3.3-2.11-5.05-2.94-1.69-.8-3.54-1.48-5.48-2.01-1.89-.52-3.82-.88-5.74-1.07-1.88-.19-3.85-.21-5.85-.07-7.87.54-15.34,3.79-21.03,9.17l-.53.5-.49.5c-.13.13-.26.27-.39.4-.22.22-.43.43-.62.67l-.97,1.12c-.12.15-.23.3-.35.44-.17.22-.35.44-.52.66-1.11,1.49-2.06,3.1-2.82,4.79-1.53,3.38-2.34,7.11-2.34,10.8,0,3.72.81,7.46,2.32,10.82,1.51,3.35,3.78,6.42,6.58,8.87l.53.46.53.42s.02.02.03.03c.18.15.39.3.62.46.14.1.27.19.41.29.81.53,1.5.95,2.25,1.31,1.44.74,3.1,1.3,4.9,1.68,3.43.68,7,.43,10.31-.71,3.3-1.15,6.24-3.16,8.49-5.82,1.08-1.3,1.89-2.65,2.48-4.13.56-1.35.89-2.91.97-4.62.07-1.6-.12-3.2-.56-4.74-.44-1.48-1.14-2.91-2.09-4.24-.07-.09-.13-.18-.2-.28-.16-.23-.31-.44-.47-.6-.02-.02-.03-.04-.05-.05l-.43-.48c-.06-.06-.11-.12-.16-.19-.05-.05-.11-.13-.13-.15-.02-.02-.04-.03-.06-.05-.32-.29-.63-.58-.95-.87-.14-.11-.27-.21-.41-.31-.16-.12-.32-.24-.47-.36-1.13-.77-2.45-1.31-3.82-1.56-1.42-.26-2.86-.21-4.19.13-1.3.33-2.56.98-3.66,1.88-.47.38-.93.86-1.46,1.49-.04.04-.08.09-.12.13l-.02.02-.12.17s-.03.04-.03.05c-.08.11-.16.23-.24.34-.08.15-.16.3-.25.43l-.1.16s-.02.04-.02.05l-.03.06c-.07.16-.15.31-.23.46l-.15.4s-.04.09-.06.14c-.03.05-.06.18-.1.3-.04.13-.08.29-.14.45-.01.05-.02.1-.03.14-.02.09-.04.18-.06.27,0,0,0,.04-.01.04-.03.11-.05.21-.06.28,0,.02,0,.03,0,.05-.02.16-.05.33-.07.49v.07c0,.15-.02.3-.03.43l-.02.2v.17c.01.18.01.35.01.53.02.16.03.32.04.46l.02.21.04.2s.01.05.01.08c.08.54.27,1.09.53,1.75.09.16.18.34.26.52l.08.18.4.64s.07.09.11.13c.08.1.16.2.25.33.12.18.25.32.41.5.05.06.1.11.16.17l.03.03c.12.1.23.21.34.33.03.03.07.05.11.08.08.06.17.13.25.19,1.83,1.39,5.26,1.91,8.5-.25l.05-.03c.79-.53,1.82-.59,2.68-.16,1.31.66,1.83,2.27,1.17,3.58-1.41,2.77-3.93,5.01-6.91,6.13-1.56.6-3.2.93-4.88.98-1.75.02-3.46-.24-5.11-.79-.11-.04-.21-.08-.32-.11-.29-.1-.59-.2-.89-.34-.42-.19-.83-.39-1.15-.55-.02-.01-.04-.02-.06-.03-.74-.42-1.52-.89-2.15-1.4-.3-.23-.64-.48-.96-.76-.02-.02-.04-.04-.06-.06l-1.28-1.22s-.05-.05-.08-.08l-.39-.45c-.26-.31-.53-.62-.79-.94-.02-.02-.03-.04-.05-.06-.24-.33-.47-.67-.7-1.01l-.33-.5s-.02-.03-.03-.05c-.1-.17-.2-.34-.29-.51l-.03-.05c-.2-.36-.4-.72-.59-1.09-.01-.03-.03-.05-.04-.08-.12-.28-.24-.57-.36-.86l-.34-.84s-.02-.06-.03-.09l-.54-1.77s-.02-.06-.02-.09c-.09-.41-.17-.82-.25-1.26l-.1-.6s0-.06-.01-.08l-.07-.62c-.04-.41-.08-.85-.1-1.29,0-.02,0-.05,0-.07v-1.23s0-.03,0-.05c0-.07,0-.14,0-.21,0-.15,0-.3.02-.45,0-.02,0-.03,0-.05l.11-.96c.04-.31.08-.63.13-.94,0-.01,0-.03,0-.04.08-.41.18-.83.28-1.23.11-.51.26-.98.39-1.33l.05-.15c.12-.35.24-.72.39-1.09,0-.01.01-.03.02-.04.17-.39.35-.78.55-1.18l.08-.16c.07-.15.14-.3.24-.47l.32-.54c.22-.37.45-.74.68-1.1.02-.03.03-.05.05-.08l.76-1,.39-.49c.1-.12.2-.23.3-.34.04-.04.08-.09.14-.15,1.08-1.2,2.31-2.29,3.66-3.27,5.33-3.82,12.06-5.34,18.46-4.17,3.19.57,6.28,1.85,8.95,3.68.01.01.03.02.04.03l.42.31c.48.35.97.72,1.44,1.11.02.01.03.03.05.04l1.59,1.46c.26.23.48.47.66.68.06.07.12.13.2.22l.7.79c.48.52.88,1.07,1.27,1.6l.18.25c1.83,2.56,3.18,5.32,4.03,8.21.86,2.95,1.23,6,1.1,9.05-.14,3.2-.78,6.21-1.89,8.94-1.1,2.77-2.68,5.39-4.69,7.8-3.79,4.47-8.71,7.85-14.25,9.76-5.53,1.91-11.48,2.32-17.22,1.19-2.97-.61-5.74-1.56-8.23-2.82-1.15-.56-2.31-1.24-3.77-2.2-.02-.01-.03-.02-.05-.03-.16-.12-.32-.23-.49-.35-.42-.29-.85-.6-1.25-.93l-.82-.65s-.03-.02-.04-.04l-.77-.67c-4.21-3.7-7.64-8.32-9.91-13.37-2.28-5.07-3.49-10.69-3.49-16.26,0-5.56,1.21-11.18,3.52-16.27,1.15-2.54,2.58-4.97,4.25-7.22.27-.35.54-.7.82-1.05.15-.19.3-.37.45-.56.01-.01.02-.03.03-.04.27-.32.55-.64.83-.95.16-.18.32-.36.47-.54.31-.36.63-.69.94-1.01.15-.16.31-.31.48-.49l.69-.7s.02-.02.04-.04l.72-.67c7.78-7.35,18.4-11.98,29.14-12.71,2.74-.19,5.47-.16,8.09.1,2.68.27,5.36.77,7.95,1.48,2.67.74,5.23,1.68,7.61,2.8,2.41,1.14,4.76,2.51,7.01,4.08.17.13.35.25.52.37.37.26.75.53,1.11.82l1.54,1.22s.03.03.05.04l2.18,1.91s.03.03.05.04l2.08,2.03s.03.03.05.05l1.97,2.14s.03.03.05.05l.62.75c.13.16.26.31.39.47.29.35.58.7.87,1.07,1.66,2.16,3.13,4.4,4.4,6.67,1.42,2.64,2.51,5.02,3.31,7.26,1.83,5,2.88,10.24,3.14,15.58.13,2.85.08,5.44-.17,7.9l-.08.96s0,.04,0,.05l-.13.97c-.03.22-.06.44-.09.66-.06.43-.11.85-.19,1.3l-.11.64c-.19,1.05-.38,2.13-.65,3.2-.21,1-.49,1.98-.76,2.93-.08.28-.16.55-.24.87-.12.4-.25.8-.39,1.2-.07.21-.14.43-.21.65l-.3.91s-.01.03-.02.05l-.33.87c-.97,2.7-2.2,5.22-3.17,7.14-1.96,3.71-4.19,7.15-6.65,10.25-.69.87-1.39,1.71-2.11,2.52ZM769.39,736.93c.07-.22.14-.44.22-.66.13-.38.25-.76.36-1.11.08-.28.16-.56.24-.85.27-.96.52-1.86.72-2.79,0-.02,0-.03.01-.05.25-.99.43-1.99.62-3.04l.11-.62c.06-.4.12-.8.17-1.2.03-.23.06-.45.09-.66l.12-.93.08-.95c.24-2.34.29-4.81.16-7.53-.24-5.07-1.25-10.05-2.98-14.81-.76-2.12-1.79-4.38-3.15-6.89-1.2-2.14-2.6-4.28-4.18-6.34-.26-.34-.54-.67-.81-1-.13-.16-.27-.32-.4-.48l-.6-.73-1.92-2.09-2.03-1.97-2.13-1.86-1.53-1.2c-.31-.25-.64-.48-.99-.73-.19-.13-.37-.26-.53-.38-2.11-1.47-4.33-2.76-6.61-3.84-2.24-1.05-4.66-1.94-7.19-2.64-2.45-.67-4.98-1.14-7.52-1.4-2.48-.24-5.05-.27-7.65-.09-10.15.69-20.18,5.06-27.54,12.01l-.7.66-.65.66c-.16.17-.33.34-.49.51-.29.3-.57.58-.82.88-.16.19-.33.38-.49.56-.26.29-.52.59-.77.89-.15.19-.3.38-.44.56-.26.33-.52.65-.77.98-1.56,2.1-2.89,4.37-3.97,6.74-2.16,4.75-3.29,10-3.29,15.19,0,5.2,1.13,10.46,3.26,15.2,2.12,4.72,5.32,9.03,9.25,12.48l.74.65.81.65c.34.28.72.55,1.11.82.16.12.33.23.49.35,1.35.89,2.41,1.51,3.47,2.02,2.3,1.16,4.85,2.04,7.58,2.6,5.28,1.04,10.76.66,15.86-1.1,5.02-1.74,9.68-4.93,13.11-8.98,1.8-2.16,3.28-4.61,4.27-7.1,1-2.46,1.58-5.18,1.7-8.08.12-2.77-.22-5.53-1-8.21-.76-2.6-1.99-5.1-3.64-7.42l-.18-.25c-.36-.49-.69-.95-1.09-1.38l-.71-.8c-.07-.08-.14-.16-.21-.24-.15-.17-.29-.33-.43-.44-.01-.01-.02-.02-.04-.03l-1.58-1.46c-.4-.34-.84-.66-1.3-1l-.41-.3c-2.36-1.62-5.1-2.75-7.92-3.25-5.71-1.04-11.72.32-16.48,3.73-1.2.87-2.3,1.84-3.24,2.88-.06.07-.13.14-.19.21-.06.06-.11.12-.16.18l-1.09,1.41c-.21.32-.41.64-.6.96l-.3.5c-.06.1-.1.2-.15.31l-.09.19c-.17.35-.33.71-.49,1.07-.12.29-.22.6-.33.93l-.06.16c-.1.29-.23.66-.3,1.02,0,.01,0,.03,0,.04-.09.38-.18.76-.26,1.14-.04.27-.08.54-.11.81l-.11.92c0,.09,0,.18,0,.28,0,.08,0,.16,0,.25v1.17c0,.37.05.76.08,1.11l.06.56.09.54c.07.37.14.74.22,1.11l.32,1.09.17.53.32.78c.11.26.21.52.32.77.17.33.35.66.54,1l.04.07c.07.13.14.25.21.38l.31.47c.21.31.42.62.63.92.23.29.47.57.71.84l.35.4,1.19,1.14c.27.23.56.44.87.68.51.41,1.2.82,1.81,1.17.28.14.65.32,1.01.48.21.09.44.17.68.26.12.04.24.08.33.12,1.34.45,2.76.67,4.2.65,1.37-.04,2.72-.31,4.01-.81,2.39-.9,4.4-2.68,5.52-4.87.02-.03,0-.07-.02-.08-.03-.01-.05,0-.09.02l-.05.03c-4.3,2.87-9,2.07-11.54.11-.02-.02-.04-.03-.06-.05-.04-.04-.09-.07-.13-.1-.11-.08-.22-.17-.33-.26-.02-.02-.04-.04-.06-.06-.08-.09-.17-.16-.25-.24l-.09-.08s-.06-.06-.09-.1c-.06-.06-.11-.13-.17-.19-.2-.21-.42-.46-.64-.78-.05-.07-.1-.13-.15-.19-.07-.09-.14-.17-.2-.26-.02-.03-.04-.05-.05-.08l-.45-.72c-.03-.05-.07-.11-.09-.17l-.12-.25c-.07-.14-.13-.28-.21-.41-.03-.06-.06-.11-.08-.17-.26-.66-.57-1.48-.7-2.36l-.05-.23s-.02-.09-.02-.13l-.03-.31c-.01-.17-.03-.33-.05-.49,0-.06,0-.12,0-.18,0-.14,0-.28,0-.43,0-.02,0-.03,0-.05v-.26s0-.09,0-.14l.02-.28c.01-.1.01-.2.02-.29v-.17c.01-.05.02-.11.03-.16.03-.14.05-.29.07-.43.02-.25.08-.47.13-.66.01-.06.03-.12.04-.18.02-.12.05-.23.08-.35.01-.06.03-.11.05-.16.04-.09.06-.18.08-.27.06-.2.13-.45.25-.72l.16-.41c.02-.05.04-.1.07-.15l.04-.08c.05-.09.1-.18.15-.29l.02-.05c.04-.08.08-.17.12-.25.01-.03.03-.05.04-.08l.14-.23c.07-.11.13-.23.2-.35.03-.06.07-.12.11-.17.09-.12.18-.24.26-.36l.14-.21c.08-.13.18-.23.24-.29l.03-.03c.64-.76,1.21-1.35,1.8-1.83,1.38-1.15,3-1.98,4.67-2.4,1.68-.43,3.51-.49,5.29-.17,1.75.32,3.44,1.01,4.88,2.01.03.02.06.04.08.06.14.11.28.22.43.33.18.13.35.26.53.41.02.02.05.04.07.06.31.29.61.57.92.85.2.17.35.34.46.48.03.04.06.08.1.12l.41.46c.3.3.52.62.72.9.06.08.11.16.18.26,1.13,1.58,1.96,3.28,2.48,5.04.52,1.81.74,3.69.66,5.57-.09,2.02-.48,3.88-1.16,5.5-.69,1.71-1.64,3.28-2.89,4.81-2.56,3.02-5.89,5.31-9.63,6.61-3.75,1.29-7.78,1.57-11.68.8-2.04-.42-3.91-1.07-5.54-1.9-.9-.43-1.76-.97-2.54-1.48-.02-.01-.04-.03-.07-.05-.12-.09-.25-.18-.38-.27-.26-.18-.53-.37-.8-.59l-.53-.42s-.03-.03-.05-.04l-.55-.48c-3.07-2.7-5.58-6.08-7.23-9.76-1.66-3.69-2.54-7.8-2.55-11.89,0-4.05.89-8.16,2.57-11.88.84-1.86,1.89-3.63,3.11-5.27.18-.25.38-.49.57-.73.12-.15.24-.29.35-.44.01-.02.03-.04.05-.06l.98-1.13c.25-.3.51-.56.75-.81.12-.12.23-.23.36-.37l.53-.54s.03-.03.04-.04l.55-.51c6.13-5.78,14.17-9.29,22.63-9.87,2.15-.15,4.26-.13,6.29.08,2.07.21,4.14.59,6.18,1.15,2.09.57,4.07,1.3,5.9,2.17,1.88.89,3.71,1.95,5.45,3.17.14.1.28.2.42.3.28.2.57.4.84.62l1.2.94s.04.03.06.05l1.75,1.54s.04.03.05.05l1.67,1.63s.03.03.05.05l1.57,1.71s.03.04.05.06l.49.6c.12.15.24.29.36.44.22.26.43.52.64.79,1.32,1.73,2.49,3.51,3.5,5.31,1.15,2.15,1.99,3.98,2.63,5.76,2.85,7.74,3.32,16.69,1.34,25.2-1.91,8.29-6,16.17-11.82,22.78-5.56,6.36-12.89,11.35-21.2,14.44-8.04,3.01-16.93,4.2-25.7,3.44-5.16-.44-10.27-1.55-15.16-3.28,10.48,6.7,22.75,10.16,35.29,9.86,2.83-.64,5.64-1.48,8.36-2.5,9.56-3.55,18.01-9.32,24.45-16.68,3.17-3.57,6-7.7,8.4-12.25.93-1.83,2.11-4.26,3.04-6.84l.33-.87.29-.88ZM713.97,708.54s0,0,0,0h0Z"/>
              <g class="cls-12">
                <path class="cls-17" d="M683.49,758.62c4.8,4,10.01,7.18,15.46,9.55,8.83,1.46,17.07,1.02,24.55-.93,10.94-2.84,20.25-8.92,27.47-17.02,4.75-5.35,8.59-11.58,11.37-18.35-23.43,47.79-111.21,27.06-98.9-36.64l-1.96,2.35c-3.89,20.97,2.81,43.3,19.33,58.67.4.37.81.74,1.22,1.11h0c.36.32.72.64,1.09.95.12.1.24.21.36.31Z"/>
              </g>
              <g class="cls-12">
                <path class="cls-17" d="M700.95,769c8.11,3.21,16.7,4.68,25.23,4.46,4.84-.12,9.65-.8,14.34-2,12.6-3.22,24.34-10.31,33.31-21.06,3.23-3.88,5.93-8.03,8.09-12.36,1.18-2.35,2.2-4.75,3.07-7.19,3.22-11.94,2.9-24.55-.82-36.24-1.07.13-1.68.2-1.68.2,0,0,7.22,19.77-12.16,43.43,0,0-7.4,11.07-11.79,3.75-2.36,2.86-4.89,5.62-7.58,8.23-7.86,7.61-17.09,13.84-27.47,17.02-7.01,2.15-14.55,2.91-22.54,1.76Z"/>
              </g>
            </g>
          </g>
          <g>
            <path class="cls-8" d="M629.57,791.75c-.27-.11-26.24-10.79-52.28-42.05-23.77-28.54-51.15-80-47.47-163.54l99.74-34.5v240.1Z"/>
            <path class="cls-4" d="M629.57,547.43v248.69s112.26-45.08,103.6-212.86l-103.6-35.83Z"/>
            <path class="cls-26" d="M629.57,800.5c-1.18-.48-30.79-12.7-58.11-45.33-25.08-29.97-54.02-84.15-49.48-172.11.08-1.63,1.15-3.04,2.68-3.57l104.91-36.29v8.45s-99.74,34.5-99.74,34.5c-3.68,83.54,23.7,135,47.47,163.54,26.03,31.26,52,41.94,52.28,42.05v8.75Z"/>
            <path class="cls-17" d="M629.57,800.5v-8.75s0,4.37,0,4.37v-4.37c.27-.11,26.24-10.79,52.28-42.05,23.77-28.54,51.15-80,47.47-163.54l-99.74-34.5v-8.45s104.91,36.29,104.91,36.29c1.54.53,2.6,1.94,2.68,3.57,4.54,87.96-24.4,142.15-49.48,172.11-27.31,32.64-56.94,44.86-58.12,45.33Z"/>
            <path class="cls-13" d="M637.27,724.75c-5.53-2.39-9.91-5.85-13.16-10.4-3.25-4.54-4.9-9.96-4.96-16.27l24.93.49c.29,3.57,1.47,6.31,3.54,8.22,2.06,1.91,4.79,2.9,8.17,2.97,3.47.07,6.22-.68,8.26-2.24,2.04-1.56,3.09-3.75,3.14-6.58.05-2.37-.72-4.35-2.28-5.94-1.57-1.58-3.51-2.9-5.81-3.95-2.31-1.05-5.6-2.25-9.87-3.62-6.17-2.04-11.2-4.05-15.09-6.05-3.89-1.99-7.22-4.89-9.97-8.69-2.76-3.8-4.08-8.71-3.96-14.74.17-8.95,3.55-15.9,10.13-20.84,6.58-4.94,15.08-7.31,25.49-7.11,10.59.21,19.08,2.91,25.47,8.1,6.39,5.19,9.72,12.32,10,21.36l-25.34-.49c-.12-3.11-1.22-5.58-3.28-7.4-2.07-1.82-4.75-2.76-8.03-2.83-2.83-.06-5.13.66-6.89,2.13-1.77,1.47-2.67,3.63-2.73,6.46-.06,3.11,1.35,5.56,4.24,7.34,2.89,1.79,7.42,3.75,13.59,5.88,6.17,2.22,11.17,4.33,15.02,6.32,3.84,1.99,7.14,4.85,9.9,8.55,2.76,3.71,4.09,8.44,3.97,14.19-.11,5.48-1.6,10.43-4.47,14.85-2.87,4.42-6.99,7.9-12.33,10.45-5.35,2.55-11.63,3.75-18.84,3.61-7.03-.14-13.31-1.4-18.84-3.79Z"/>
            <path class="cls-17" d="M654.61,630c.4,0,.8,0,1.21.01,10.59.21,19.08,2.91,25.47,8.1,6.39,5.19,9.72,12.32,10,21.36l-25.34-.49c-.12-3.11-1.22-5.58-3.28-7.4-2.07-1.82-4.75-2.76-8.03-2.83-.1,0-.2,0-.31,0-2.69,0-4.89.71-6.59,2.13-1.77,1.47-2.67,3.63-2.73,6.46-.06,3.11,1.35,5.56,4.24,7.34,2.89,1.79,7.42,3.75,13.59,5.88,6.17,2.22,11.17,4.33,15.02,6.32,3.84,1.99,7.14,4.85,9.9,8.55,2.76,3.71,4.09,8.44,3.97,14.19-.11,5.48-1.6,10.43-4.47,14.85-2.87,4.42-6.99,7.9-12.33,10.45-5.07,2.42-10.99,3.62-17.74,3.62-.37,0-.74,0-1.11-.01-7.03-.14-13.31-1.4-18.84-3.79-5.53-2.39-9.91-5.85-13.16-10.4-3.25-4.54-4.9-9.96-4.96-16.27l24.93.49c.29,3.57,1.47,6.31,3.54,8.22,2.06,1.91,4.79,2.9,8.17,2.97.15,0,.29,0,.44,0,3.26,0,5.88-.75,7.83-2.24,2.04-1.56,3.09-3.75,3.14-6.58.05-2.37-.72-4.35-2.28-5.94-1.57-1.58-3.51-2.9-5.81-3.95s-5.6-2.25-9.87-3.62c-6.17-2.04-11.2-4.05-15.09-6.05-3.89-1.99-7.22-4.89-9.97-8.69-2.76-3.8-4.08-8.71-3.96-14.74.17-8.95,3.55-15.9,10.13-20.84,6.33-4.75,14.42-7.12,24.28-7.12M654.61,622.01c-11.58,0-21.36,2.93-29.08,8.72-8.5,6.38-13.1,15.74-13.32,27.07-.15,7.78,1.69,14.37,5.48,19.59,3.48,4.8,7.78,8.54,12.79,11.11,1.24.64,2.57,1.27,4,1.9l-15.18-.3c-.05,0-.1,0-.16,0-2.1,0-4.12.83-5.62,2.31-1.53,1.52-2.39,3.59-2.37,5.75.08,7.95,2.25,14.97,6.45,20.84,4.08,5.71,9.63,10.11,16.48,13.08,6.45,2.79,13.8,4.29,21.85,4.45.43,0,.85.01,1.27.01,7.92,0,15.05-1.48,21.17-4.4,6.67-3.18,11.92-7.65,15.59-13.31,3.68-5.67,5.62-12.08,5.76-19.05.15-7.54-1.72-13.97-5.55-19.11-3.48-4.67-7.73-8.33-12.63-10.87-1.68-.87-3.52-1.74-5.55-2.63l15.14.29c.05,0,.1,0,.16,0,2.13,0,4.18-.85,5.68-2.37,1.54-1.56,2.37-3.68,2.3-5.86-.35-11.43-4.71-20.62-12.94-27.31-7.77-6.32-17.99-9.65-30.35-9.89-.46,0-.91-.01-1.37-.01h0ZM653.05,656.92c.24-.09.66-.17,1.28-.17h.15c2,.04,2.69.64,2.91.84.19.17.53.46.58,1.72.01.3.04.6.09.9-2.26-.98-3.69-1.74-4.58-2.3-.25-.15-.39-.27-.47-.34,0-.02,0-.04,0-.06,0-.27.03-.45.05-.58h0ZM656.22,701.78c-.09,0-.18,0-.28,0-2.03-.04-2.68-.64-2.9-.84-.68-.63-.92-1.99-1.01-3.02-.03-.4-.09-.78-.18-1.16,1.58.57,2.89,1.1,3.93,1.57,1.39.63,2.54,1.4,3.41,2.27,0,.04,0,.11,0,.2,0,.2-.02.34-.04.41-.51.36-1.6.58-2.95.58h0Z"/>
            <path class="cls-22" d="M552.31,609.65h18.99c2.16,0,4.09,1.34,4.86,3.35l18.24,48.06,27.92-69.98c.97-2.42,3.31-4.01,5.92-4.01h19.57l-44.36,108.19h-21.05l-30.09-85.61Z"/>
            <path class="cls-26" d="M647.81,587.06l-44.36,108.19h-21.05l-30.09-85.61h18.99c2.16,0,4.09,1.34,4.86,3.35l18.24,48.06,27.92-69.98c.97-2.42,3.31-4.01,5.92-4.01h19.57M647.81,579.07h-19.57c-5.91,0-11.15,3.55-13.34,9.04l-20.32,50.92-10.96-28.87c-1.93-5.09-6.89-8.51-12.33-8.51h-18.99c-2.59,0-5.02,1.26-6.52,3.37s-1.88,4.82-1.02,7.27l30.09,85.61c1.12,3.2,4.15,5.34,7.54,5.34h21.05c3.24,0,6.16-1.96,7.39-4.96l44.36-108.19c1.01-2.46.73-5.27-.76-7.48-1.48-2.21-3.97-3.54-6.63-3.54h0Z"/>
            <path class="cls-21" d="M608.84,648.23s-.75,17.1-7.99,28.15c-7.24,11.04-14.66.7-9.78-2.59,4.88-3.29.57-9.21.57-9.21,0,0-1.32,5.54-7.8,4.28-6.48-1.27-10.53-26.27-10.53-26.27-1.88,4.32-4.52,13.97-2.31,20.26h0l11.39,32.41h21.05l9.51-23.21s0,0,0,0c5.44-13.27-4.13-23.82-4.13-23.82Z"/>
            <path class="cls-25" d="M674.95,724.93c5.35-2.54,9.46-6.03,12.33-10.45,2.87-4.42,4.36-9.37,4.47-14.85.11-5.75-1.21-10.48-3.97-14.19-.47-.63-.96-1.23-1.46-1.81-10.29,4.7-10.36-2.89-25.18-3.36-9.69-.31-14.81,2.84-17.3,5.27,1.69.63,3.49,1.26,5.4,1.89,4.27,1.36,7.56,2.57,9.87,3.62,2.31,1.05,4.25,2.37,5.81,3.95,1.57,1.58,2.33,3.56,2.28,5.94-.05,2.83-1.1,5.03-3.14,6.58-2.04,1.56-4.8,2.31-8.26,2.24-3.38-.06-6.1-1.05-8.17-2.97-2.07-1.91-3.25-4.66-3.54-8.22l-24.93-.49c.06,6.31,1.71,11.73,4.96,16.27,3.25,4.54,7.63,8.01,13.16,10.4,5.52,2.39,11.8,3.65,18.84,3.79,7.21.14,13.49-1.06,18.84-3.61Z"/>
          </g>
        </g>
      </g>
    </g>
  </g>
</svg>