<svg version="1.1" xmlns="http://www.w3.org/2000/svg" style="display: block;" viewBox="0 0 2048 2048" width="1024" height="1024" preserveAspectRatio="none">
<defs>
	<linearGradient id="Gradient1" gradientUnits="userSpaceOnUse" x1="1014.25" y1="1016.76" x2="1121" y2="1040.88">
		<stop class="stop0" offset="0" stop-opacity="1" stop-color="rgb(121,63,94)"/>
		<stop class="stop1" offset="1" stop-opacity="1" stop-color="rgb(105,75,117)"/>
	</linearGradient>
</defs>
<path transform="translate(0,0)" fill="rgb(185,200,211)" d="M 1031.35 847.776 C 1042.38 848.193 1080.17 862.78 1092.4 866.845 C 1121.35 876.473 1151.49 887.471 1180.12 898.275 C 1182.25 915.93 1181.24 958.003 1179.46 976.481 C 1174.16 1028.54 1154.26 1078.04 1122.07 1119.29 C 1097.65 1150.1 1066.05 1174.45 1030.02 1190.2 C 1005.53 1186.74 959.662 1141.92 943.274 1121.63 C 898.301 1065.96 877.707 968.166 886.271 898.262 C 898.064 892.312 908.69 889.572 920.372 884.706 C 954.465 870.506 988.792 860.527 1023.66 849.152 L 1031.35 847.776 z"/>
<path transform="translate(0,0)" fill="rgb(254,254,254)" d="M 1023.66 849.152 L 1031.35 847.776 C 1031.24 851.182 1031.22 860.606 1030.29 863.346 L 1028.29 864.805 C 1030.77 868.084 1030.19 892.764 1029.84 897.929 C 1029.39 898.394 1028.35 899.546 1027.87 899.858 C 1040.42 899.768 1052.94 898.297 1062.33 907.582 C 1063.1 908.35 1063.86 909.129 1064.6 909.919 C 1062.92 925.632 1058.62 942.855 1048.6 955.505 C 1045.98 955.581 1045.25 955.625 1043.01 958.46 C 1036.37 967.187 1026.34 976.743 1021.97 986.856 C 1013.54 1006.34 1013.01 1028.42 1008.33 1048.89 C 1007.38 1053.06 1007.37 1058.9 1004.23 1061.41 C 1004.32 1061.81 1004.4 1062.22 1004.49 1062.62 C 1004.6 1081.21 1015.92 1086.8 1029.93 1094.91 C 1029.92 1121.02 1030.27 1148.09 1029.78 1174.12 L 1028.68 1174.35 C 1030.53 1178.24 1029.79 1185.29 1030.02 1190.2 C 1005.53 1186.74 959.662 1141.92 943.274 1121.63 C 898.301 1065.96 877.707 968.166 886.271 898.262 C 898.064 892.312 908.69 889.572 920.372 884.706 C 954.465 870.506 988.792 860.527 1023.66 849.152 z"/>
<path transform="translate(0,0)" fill="rgb(129,40,35)" d="M 1027.87 899.858 C 1040.42 899.768 1052.94 898.297 1062.33 907.582 C 1063.1 908.35 1063.86 909.129 1064.6 909.919 C 1062.92 925.632 1058.62 942.855 1048.6 955.505 C 1045.98 955.581 1045.25 955.625 1043.01 958.46 C 1036.37 967.187 1026.34 976.743 1021.97 986.856 C 1013.54 1006.34 1013.01 1028.42 1008.33 1048.89 C 1007.38 1053.06 1007.37 1058.9 1004.23 1061.41 C 994.259 1063.58 981.746 1064.28 971.982 1061.02 C 963.66 1058.25 960.038 1053.56 956.18 1046.03 C 948.577 1031.19 916.198 948.729 921.386 935.45 C 922.608 932.323 925.528 929.892 928.514 928.53 C 936.481 924.896 953.209 924.401 961.399 927.554 C 975.587 933.016 981.471 949.908 987.214 962.754 C 993.084 945.587 1000.61 918.492 1012.79 905.61 C 1017.96 900.139 1020.87 899.855 1027.87 899.858 z"/>
<path transform="translate(0,0)" fill="rgb(247,160,85)" d="M 1023.03 914.1 C 1032.31 913.919 1041.92 914.097 1051.23 914.151 C 1037.34 946.668 1034.52 956.618 1014.38 986.459 C 1012.53 1001.02 1009.38 1035.34 998.975 1046.58 C 994.472 1051.45 978.152 1048.1 970.796 1047.15 C 964.482 1031.28 953.624 1004.8 949.495 988.443 C 943.831 973.936 938.612 957.308 933.267 942.371 C 943.217 941.329 949.642 940.978 959.644 940.965 C 968.462 953.935 980.811 990.887 985.895 1006.86 C 998.334 983.516 1010.16 942.081 1023.03 914.1 z"/>
<path transform="translate(0,0)" fill="rgb(213,74,48)" d="M 1012.82 987.416 L 1014.38 986.459 C 1012.53 1001.02 1009.38 1035.34 998.975 1046.58 C 994.472 1051.45 978.152 1048.1 970.796 1047.15 C 964.482 1031.28 953.624 1004.8 949.495 988.443 L 951.953 989.018 C 959.805 989.64 963.803 989.179 971.46 988.317 C 976.266 999.281 977.472 1002.83 985.906 1011.45 L 999.545 990.709 C 1003.94 989.694 1008.43 988.513 1012.82 987.416 z"/>
<path transform="translate(0,0)" fill="rgb(251,139,107)" d="M 1012.82 987.416 L 1014.38 986.459 C 1012.53 1001.02 1009.38 1035.34 998.975 1046.58 C 994.472 1051.45 978.152 1048.1 970.796 1047.15 C 964.482 1031.28 953.624 1004.8 949.495 988.443 L 951.953 989.018 C 957.367 1000.2 967.252 1030.44 972.586 1043.98 L 994.514 1043.96 C 1003.26 1026.51 1007.52 1005.82 1012.82 987.416 z"/>
<path transform="translate(0,0)" fill="rgb(129,40,35)" d="M 1023.66 849.152 L 1031.35 847.776 C 1031.24 851.182 1031.22 860.606 1030.29 863.346 L 1028.29 864.805 L 1027.09 864.838 C 1003.69 870.672 974.457 882.197 951.025 890.265 C 938.022 894.742 911.814 904.082 899.861 909.653 C 898.911 995.448 908.272 1064.02 971.81 1129.45 C 984.796 1142.82 1012.23 1166.49 1028.68 1174.35 C 1030.53 1178.24 1029.79 1185.29 1030.02 1190.2 C 1005.53 1186.74 959.662 1141.92 943.274 1121.63 C 898.301 1065.96 877.707 968.166 886.271 898.262 C 898.064 892.312 908.69 889.572 920.372 884.706 C 954.465 870.506 988.792 860.527 1023.66 849.152 z"/>
<path transform="translate(0,0)" fill="rgb(132,66,72)" d="M 1023.66 849.152 L 1031.35 847.776 C 1031.24 851.182 1031.22 860.606 1030.29 863.346 L 1028.29 864.805 L 1027.09 864.838 C 1025.78 859.429 1024.71 854.639 1023.66 849.152 z"/>
<path transform="translate(0,0)" fill="url(#Gradient1)" d="M 1004.23 1061.41 C 1007.37 1058.9 1007.38 1053.06 1008.33 1048.89 C 1013.01 1028.42 1013.54 1006.34 1021.97 986.856 C 1026.34 976.743 1036.37 967.187 1043.01 958.46 C 1045.25 955.625 1045.98 955.581 1048.6 955.505 L 1049.68 957.728 C 1054.63 958.852 1060.57 957.203 1065.94 957.214 C 1089.2 957.263 1104.46 959.87 1117.78 980.395 C 1114.17 994.282 1112.05 1002.06 1103.43 1013.75 C 1109.84 1022.92 1117.86 1032.39 1118.99 1043.6 C 1124.5 1098.36 1069.61 1107.91 1029.93 1094.91 C 1015.92 1086.8 1004.6 1081.21 1004.49 1062.62 C 1004.4 1062.22 1004.32 1061.81 1004.23 1061.41 z"/>
<path transform="translate(0,0)" fill="rgb(185,200,211)" d="M 1065.09 1061.78 C 1068.77 1060.81 1070.47 1060.82 1073.2 1058.14 C 1077.1 1043.7 1030.22 1032.58 1025.82 1011.71 C 1019.05 979.563 1052.27 968.274 1078.11 973.554 C 1088.2 975.614 1094.75 978.397 1103.96 983.176 C 1100.82 990.585 1096.47 998.574 1092.75 1005.8 C 1085.92 1001.65 1060.18 986.738 1058.16 1001.99 C 1062.57 1013.11 1084.9 1020.61 1094.93 1028.8 C 1131 1057.88 1077.06 1101.1 1039.23 1081.43 C 1029.78 1078.43 1025.7 1076.97 1019.84 1069.24 C 1023.47 1061.89 1027.21 1054.6 1031.08 1047.37 C 1042.64 1054.42 1052.23 1057.8 1065.09 1061.78 z"/>
<path transform="translate(0,0)" fill="rgb(136,165,186)" d="M 1058.61 1064.47 C 1062.46 1064.99 1073.54 1065.25 1076.36 1063.34 C 1097.81 1048.82 1051.57 1032.59 1049.22 1028.72 C 1056.11 1022.47 1084.66 1028.3 1093.16 1028.73 L 1094.93 1028.8 C 1131 1057.88 1077.06 1101.1 1039.23 1081.43 C 1029.78 1078.43 1025.7 1076.97 1019.84 1069.24 C 1023.47 1061.89 1027.21 1054.6 1031.08 1047.37 C 1042.64 1054.42 1052.23 1057.8 1065.09 1061.78 L 1066.01 1062.54 C 1063.19 1063.92 1061.67 1063.98 1058.61 1064.47 z"/>
<path transform="translate(0,0)" fill="rgb(196,197,213)" d="M 1031.08 1047.37 C 1042.64 1054.42 1052.23 1057.8 1065.09 1061.78 L 1066.01 1062.54 C 1063.19 1063.92 1061.67 1063.98 1058.61 1064.47 L 1057.28 1064.11 C 1046.54 1061.15 1038.06 1053.39 1031.48 1056.48 C 1028.88 1061.24 1030.44 1066.5 1031.37 1071.86 C 1034.25 1074.8 1037.66 1077.72 1039.23 1081.43 C 1029.78 1078.43 1025.7 1076.97 1019.84 1069.24 C 1023.47 1061.89 1027.21 1054.6 1031.08 1047.37 z"/>
<path transform="translate(0,0)" fill="rgb(64,89,127)" d="M 1031.35 847.776 C 1042.38 848.193 1080.17 862.78 1092.4 866.845 C 1121.35 876.473 1151.49 887.471 1180.12 898.275 C 1182.25 915.93 1181.24 958.003 1179.46 976.481 C 1174.16 1028.54 1154.26 1078.04 1122.07 1119.29 C 1097.65 1150.1 1066.05 1174.45 1030.02 1190.2 C 1029.79 1185.29 1030.53 1178.24 1028.68 1174.35 L 1029.78 1174.12 C 1050.85 1165.39 1080.41 1141.25 1096.16 1124.71 C 1157.63 1060.16 1167.64 994.359 1165.73 909.774 C 1158.39 906.145 1144.19 901.405 1135.95 898.393 C 1113.26 890.083 1090.41 882.222 1067.4 874.816 C 1055.29 870.939 1042.07 867.666 1030.29 863.346 C 1031.22 860.606 1031.24 851.182 1031.35 847.776 z"/>
<path transform="translate(0,0)" fill="rgb(1,0,2)" fill-opacity="0.0156863" d="M 916.707 1083.86 L 917.679 1085.3 C 916.813 1088.83 915.759 1088.96 912.885 1092.07 C 911.724 1091.04 912.256 1091.76 911.828 1089.6 C 913.044 1086.45 914.102 1085.96 916.707 1083.86 z"/>
</svg>