<svg version="1.1" xmlns="http://www.w3.org/2000/svg" style="display: block;" viewBox="200 650 1700 600" width="1024" height="361" preserveAspectRatio="xMidYMid meet">
<defs>
	<linearGradient id="Gradient1" gradientUnits="userSpaceOnUse" x1="807.094" y1="1162.26" x2="822.898" y2="915.345">
		<stop class="stop0" offset="0" stop-opacity="1" stop-color="rgb(232,90,64)"/>
		<stop class="stop1" offset="1" stop-opacity="1" stop-color="rgb(252,198,79)"/>
	</linearGradient>
	<linearGradient id="Gradient2" gradientUnits="userSpaceOnUse" x1="466.811" y1="1146.92" x2="460.02" y2="1144.69">
		<stop class="stop0" offset="0" stop-opacity="1" stop-color="rgb(255,138,98)"/>
		<stop class="stop1" offset="1" stop-opacity="1" stop-color="rgb(221,108,63)"/>
	</linearGradient>
	<linearGradient id="Gradient3" gradientUnits="userSpaceOnUse" x1="669.246" y1="831.18" x2="691.389" y2="848.696">
		<stop class="stop0" offset="0" stop-opacity="1" stop-color="rgb(248,222,223)"/>
		<stop class="stop1" offset="1" stop-opacity="1" stop-color="rgb(252,255,255)"/>
	</linearGradient>
	<linearGradient id="Gradient4" gradientUnits="userSpaceOnUse" x1="1108.46" y1="1140.59" x2="1074.52" y2="1088.9">
		<stop class="stop0" offset="0" stop-opacity="1" stop-color="rgb(104,49,64)"/>
		<stop class="stop1" offset="1" stop-opacity="1" stop-color="rgb(131,68,105)"/>
	</linearGradient>
	<linearGradient id="Gradient5" gradientUnits="userSpaceOnUse" x1="1012.78" y1="1019.37" x2="1120.79" y2="1037.93">
		<stop class="stop0" offset="0" stop-opacity="1" stop-color="rgb(128,64,100)"/>
		<stop class="stop1" offset="1" stop-opacity="1" stop-color="rgb(116,75,126)"/>
	</linearGradient>
</defs>
<path transform="translate(0,0)" fill="rgb(120,67,118)" d="M 1361.61 867.498 C 1345.66 853.408 1338.09 825.898 1336.13 805.466 C 1329.76 738.687 1377.02 682.489 1444.28 678.733 C 1473.73 677.02 1502.65 687.096 1524.66 706.738 C 1547.68 727.256 1561.35 756.269 1562.52 787.085 C 1564.06 820.229 1556.33 848.518 1533.81 873.751 C 1500.88 910.669 1442.44 923.044 1398.34 899.093 C 1392.29 908.656 1349.61 963.442 1348.36 968.125 C 1349.12 968.233 1366.41 966.303 1368.25 966.048 C 1375.1 969.848 1378.19 972.257 1384.42 977.097 C 1388.55 963.32 1393.82 950.213 1407.27 942.678 C 1415.46 938.076 1425.2 937.098 1434.14 939.978 C 1444.54 943.271 1449.21 948.708 1455.91 956.44 C 1472.35 944.863 1485.66 939.659 1505.97 938.755 C 1530.47 937.665 1545.6 940.764 1563.63 957.869 C 1589.22 934.754 1639.6 930.567 1667.45 951.418 C 1683.89 938.294 1695.1 939.594 1715.5 938.928 C 1748.22 937.858 1803.36 937.185 1797.85 985.061 C 1795.57 1004.43 1779.95 1015.93 1761.15 1016.15 C 1761.15 1031.01 1760.9 1047.01 1761.39 1061.72 C 1762.5 1095.2 1774.98 1142.82 1724.56 1142.67 C 1695.88 1142.59 1686.46 1123.55 1686.68 1097.38 C 1686.78 1084.3 1693.86 1024.42 1689.17 1015.63 C 1681.72 1016.24 1674.9 1017.07 1668.72 1011.93 C 1667.5 1010.91 1666.31 1009.84 1665.16 1008.74 C 1660.7 1009.79 1655.5 1011.16 1651.06 1011.95 C 1666.26 1031.65 1663.03 1043.62 1654.93 1065.34 C 1691.76 1077.47 1686.66 1123.43 1653.1 1136.94 C 1637.81 1143.09 1632.14 1142.42 1616.22 1142.84 C 1587.56 1143.58 1583.74 1139.99 1562.27 1123.39 C 1550.33 1137.81 1534.83 1141.54 1516.95 1143.19 C 1497.4 1144.98 1473.75 1143.18 1458.26 1129.85 C 1444.1 1117.66 1445.89 1104.13 1443.95 1088.01 C 1434.95 1118.74 1427.23 1148.83 1384.34 1139.72 C 1373.54 1137.42 1367.47 1127.81 1361.3 1119.51 C 1357.57 1125.28 1354.77 1129.8 1349.31 1134.04 C 1328.98 1149.8 1297.75 1142.36 1287.69 1118.3 C 1285.43 1112.89 1284.64 1107.91 1283.66 1102.28 C 1277.21 1112.9 1272.2 1122.95 1261.82 1130.16 C 1222.52 1157.41 1158.79 1143.58 1147.49 1093.41 C 1146.88 1090.67 1146.36 1087.92 1145.94 1085.14 C 1120.91 1124.65 1093.7 1156.01 1053.03 1179.96 C 1045.67 1184.29 1036.82 1189.02 1028.52 1191.01 C 1030.77 1182.85 1029.94 1180.26 1025.44 1173.19 L 1030.76 1175.05 C 1032.14 1153.52 1030.97 1118.4 1030.99 1095.66 C 1028.8 1093.17 1013.28 1085.1 1009.74 1080.17 C 1004.9 1073.44 1004.64 1068.96 1005.41 1061.19 C 1003.95 1061.42 1002.48 1061.62 1001.02 1061.83 C 995.021 1062.7 989.411 1062.75 983.373 1062.35 C 976.21 1061.88 966.344 1060.56 961.604 1054.53 C 952.88 1043.45 917.811 950.065 921.262 936.744 C 922.077 933.596 924.57 930.866 927.36 929.286 C 934.707 925.124 952.274 924.956 960.348 927.549 C 976.359 932.691 979.777 949.933 986.784 962.967 L 987.39 964.078 C 994.676 943.712 1001.98 912.337 1018.89 900.425 L 1032.14 899.718 C 1032.42 889.661 1030.05 876.171 1029.82 864.579 L 1030.34 863.884 L 1032.25 862.868 C 1030.6 859.616 1028.37 855.035 1028.98 851.526 C 1032.35 848.235 1033.57 849.073 1039.11 849.032 C 1065.4 854.871 1102.21 870.072 1128.3 878.9 C 1139.68 882.75 1172.08 893.945 1181.27 898.805 L 1182.02 948.378 C 1213 930.628 1238.94 934.249 1266.13 956.365 C 1276.91 945.346 1283.83 941.115 1299.78 940.927 C 1301.16 940.914 1302.55 940.928 1303.93 940.967 C 1322.97 918.812 1342.42 890.96 1361.61 867.498 z M 1319.7 946.339 L 1328.04 953.612 C 1336.22 944.969 1341.65 936.142 1348.73 926.753 C 1358.97 913.187 1369.24 899.881 1379.18 886.073 C 1378.53 883.67 1374.95 881.525 1372.59 879.622 C 1352.62 902.206 1338.14 922.954 1319.7 946.339 z"/>
<path transform="translate(0,0)" fill="url(#Gradient5)" d="M 1030.34 863.884 C 1040.6 864.423 1153.83 903.993 1165.99 909.678 C 1166.36 922.325 1167.23 950.245 1163.69 961.789 C 1160.71 971.49 1154.1 977.44 1151.98 990.775 C 1149.88 1004.01 1153.25 1017.68 1150.62 1029.21 C 1152.77 1031.97 1151.11 1030.7 1152.37 1034.29 C 1157.75 1049.67 1144.84 1071.45 1145.94 1085.14 C 1120.91 1124.65 1093.7 1156.01 1053.03 1179.96 C 1045.67 1184.29 1036.82 1189.02 1028.52 1191.01 C 1030.77 1182.85 1029.94 1180.26 1025.44 1173.19 L 1030.76 1175.05 C 1032.14 1153.52 1030.97 1118.4 1030.99 1095.66 C 1028.8 1093.17 1013.28 1085.1 1009.74 1080.17 C 1004.9 1073.44 1004.64 1068.96 1005.41 1061.19 C 1003.95 1061.42 1002.48 1061.62 1001.02 1061.83 C 995.021 1062.7 989.411 1062.75 983.373 1062.35 C 976.21 1061.88 966.344 1060.56 961.604 1054.53 C 952.88 1043.45 917.811 950.065 921.262 936.744 C 922.077 933.596 924.57 930.866 927.36 929.286 C 934.707 925.124 952.274 924.956 960.348 927.549 C 976.359 932.691 979.777 949.933 986.784 962.967 L 987.39 964.078 C 994.676 943.712 1001.98 912.337 1018.89 900.425 L 1032.14 899.718 C 1032.42 889.661 1030.05 876.171 1029.82 864.579 L 1030.34 863.884 z"/>
<path transform="translate(0,0)" fill="rgb(186,202,214)" d="M 1030.34 863.884 C 1040.6 864.423 1153.83 903.993 1165.99 909.678 C 1166.36 922.325 1167.23 950.245 1163.69 961.789 C 1160.71 971.49 1154.1 977.44 1151.98 990.775 C 1149.88 1004.01 1153.25 1017.68 1150.62 1029.21 C 1152.77 1031.97 1151.11 1030.7 1152.37 1034.29 C 1157.75 1049.67 1144.84 1071.45 1145.94 1085.14 C 1120.91 1124.65 1093.7 1156.01 1053.03 1179.96 C 1045.67 1184.29 1036.82 1189.02 1028.52 1191.01 C 1030.77 1182.85 1029.94 1180.26 1025.44 1173.19 L 1030.76 1175.05 C 1032.14 1153.52 1030.97 1118.4 1030.99 1095.66 C 1053.12 1102.07 1083.52 1103.69 1102.43 1088.28 C 1112.38 1080.23 1118.62 1068.48 1119.73 1055.73 C 1121.24 1038.35 1113.78 1026.61 1103.46 1013.94 C 1111.94 1002.14 1114.41 994.512 1117.72 980.503 C 1105.99 955.676 1072.45 954.795 1049.01 958.535 L 1053.29 947.727 C 1059.77 934.235 1063.18 925.348 1064.62 910.491 C 1055.33 898.666 1046.17 900.176 1032.14 899.718 C 1032.42 889.661 1030.05 876.171 1029.82 864.579 L 1030.34 863.884 z"/>
<path transform="translate(0,0)" fill="url(#Gradient4)" d="M 1150.62 1029.21 C 1152.77 1031.97 1151.11 1030.7 1152.37 1034.29 C 1157.75 1049.67 1144.84 1071.45 1145.94 1085.14 C 1120.91 1124.65 1093.7 1156.01 1053.03 1179.96 C 1045.67 1184.29 1036.82 1189.02 1028.52 1191.01 C 1030.77 1182.85 1029.94 1180.26 1025.44 1173.19 L 1030.76 1175.05 C 1083.27 1143.93 1127.74 1101.36 1146.67 1041.79 C 1148.01 1037.6 1149.3 1033.4 1150.62 1029.21 z"/>
<path transform="translate(0,0)" fill="rgb(139,42,36)" d="M 1032.14 899.718 C 1046.17 900.176 1055.33 898.666 1064.62 910.491 C 1063.18 925.348 1059.77 934.235 1053.29 947.727 C 1045.26 953.923 1051.88 954 1044.9 957.756 C 1043.3 956.586 1043.89 957.389 1043.35 955.183 C 1041.94 957.133 1037.65 964.573 1036.82 965.362 C 1017.21 983.929 1014.67 1007.1 1011.93 1032.42 C 1011.97 1032.02 1005.26 1061.57 1005.41 1061.19 C 1003.95 1061.42 1002.48 1061.62 1001.02 1061.83 C 995.021 1062.7 989.411 1062.75 983.373 1062.35 C 976.21 1061.88 966.344 1060.56 961.604 1054.53 C 952.88 1043.45 917.811 950.065 921.262 936.744 C 922.077 933.596 924.57 930.866 927.36 929.286 C 934.707 925.124 952.274 924.956 960.348 927.549 C 976.359 932.691 979.777 949.933 986.784 962.967 L 987.39 964.078 C 994.676 943.712 1001.98 912.337 1018.89 900.425 L 1032.14 899.718 z"/>
<path transform="translate(0,0)" fill="rgb(245,161,73)" d="M 1022.77 914.06 C 1032.17 913.981 1041.58 913.978 1050.99 914.052 C 1045.76 929.373 1037.37 949.091 1029.61 963.337 C 1025.59 970.73 1018.67 978.992 1014.07 987.222 L 1013.84 988.297 C 1009.91 1008.03 1011.57 1021.55 1001.77 1042.4 C 1001.23 1044.96 1001.05 1044.96 999.673 1047.23 C 993.831 1050.51 978.372 1047.69 971.135 1046.77 C 965.923 1035.53 953.226 1001.32 949.446 988.953 C 943.9 973.453 938.54 957.887 933.367 942.258 C 938.134 941.908 958.696 939.819 960.395 942.089 C 969.713 954.548 980.235 991.932 985.91 1006.44 C 998.567 984.141 1009 941.335 1022.77 914.06 z"/>
<path transform="translate(0,0)" fill="rgb(220,74,50)" d="M 1012.34 987.61 L 1014.07 987.222 L 1013.84 988.297 C 1009.91 1008.03 1011.57 1021.55 1001.77 1042.4 C 1001.23 1044.96 1001.05 1044.96 999.673 1047.23 C 993.831 1050.51 978.372 1047.69 971.135 1046.77 C 965.923 1035.53 953.226 1001.32 949.446 988.953 L 952.087 987.836 C 960.587 990.947 963.517 989.628 972.309 987.852 C 975.252 998.169 978.151 1003.54 986.134 1010.75 C 997.764 997.056 993.466 990.207 1012.34 987.61 z"/>
<path transform="translate(0,0)" fill="rgb(245,130,89)" d="M 949.446 988.953 L 952.087 987.836 C 955.508 994.241 957.69 1003.64 960.194 1010.86 C 964.074 1022.04 968.764 1032.9 972.65 1043.99 L 993.881 1043.66 C 996.238 1039.1 997.655 1036.02 999.559 1031.26 C 1000.95 1034.36 1000.42 1035.56 999.879 1038.92 L 1001.77 1042.4 C 1001.23 1044.96 1001.05 1044.96 999.673 1047.23 C 993.831 1050.51 978.372 1047.69 971.135 1046.77 C 965.923 1035.53 953.226 1001.32 949.446 988.953 z"/>
<path transform="translate(0,0)" fill="rgb(248,143,94)" d="M 1012.34 987.61 L 1014.07 987.222 L 1013.84 988.297 C 1009.91 1008.03 1011.57 1021.55 1001.77 1042.4 L 999.879 1038.92 C 1000.42 1035.56 1000.95 1034.36 999.559 1031.26 C 1002.02 1022.12 1009.39 1008.99 1010.13 997.883 C 1010.31 995.033 1011.26 991.506 1012.02 988.722 L 1012.34 987.61 z"/>
<path transform="translate(0,0)" fill="rgb(136,168,191)" d="M 1044.75 1030.43 L 1045.77 1029.97 C 1065.82 1020.69 1086.83 1030.52 1094.13 1027.71 C 1109.47 1038.5 1109.72 1054.18 1099.38 1069.34 C 1088.97 1084.61 1054.91 1092.34 1039.87 1081.55 C 1030.44 1078.68 1026.61 1077 1019.48 1070.01 C 1023.38 1062.25 1026.97 1055.24 1031.26 1047.7 C 1038.04 1051.67 1073.57 1072.04 1074.62 1054.09 C 1070.73 1045.35 1051.48 1036.84 1042.54 1031.64 L 1044.75 1030.43 z"/>
<path transform="translate(0,0)" fill="rgb(186,202,214)" d="M 1042.54 1031.64 L 1044.75 1030.43 C 1047.11 1031.04 1050.32 1032.08 1053.19 1032.24 C 1062.57 1032.75 1092.73 1054.43 1076.88 1063.42 C 1065.19 1070.04 1043.2 1060.12 1031.47 1053.38 C 1030.82 1059.57 1029.91 1066.2 1029.98 1072.38 C 1033.92 1075.11 1038.43 1077.35 1039.87 1081.55 C 1030.44 1078.68 1026.61 1077 1019.48 1070.01 C 1023.38 1062.25 1026.97 1055.24 1031.26 1047.7 C 1038.04 1051.67 1073.57 1072.04 1074.62 1054.09 C 1070.73 1045.35 1051.48 1036.84 1042.54 1031.64 z"/>
<path transform="translate(0,0)" fill="rgb(186,202,214)" d="M 1042.54 1031.64 C 998.481 1003.66 1040.28 948.169 1104.11 983.182 C 1100.19 992.172 1097.39 997.501 1092.45 1006.03 C 1085.5 1000.94 1060.85 987.054 1057.35 1001.63 C 1060.07 1011.5 1084.78 1020.79 1094.13 1027.71 C 1086.83 1030.52 1065.82 1020.69 1045.77 1029.97 L 1044.75 1030.43 L 1042.54 1031.64 z"/>
<path transform="translate(0,0)" fill="rgb(186,202,214)" d="M 1355.2 766.25 C 1370.79 708.376 1435.12 680.532 1489.56 703.207 C 1502.91 708.623 1519.48 719.127 1526.67 731.945 C 1542.97 750.627 1551.3 774.959 1549.86 799.713 C 1549.71 801.796 1549.1 808.145 1548.47 809.846 C 1543.33 811.413 1543.02 813.553 1539.41 818.309 C 1525.52 836.588 1513.12 846.975 1492.07 855.551 C 1488.32 857.478 1484.01 858.864 1480.02 860.304 C 1453.68 872.757 1424.81 868.146 1398.4 859.041 C 1396.68 857.57 1394.58 855.303 1392.93 853.647 C 1381.72 850.588 1370.69 843.236 1362.95 841.683 C 1352.68 824.269 1348.03 804.286 1351.46 784.202 C 1352.53 776.75 1353.03 773.42 1355.2 766.25 z"/>
<path transform="translate(0,0)" fill="rgb(189,142,173)" d="M 1489.56 703.207 C 1502.91 708.623 1519.48 719.127 1526.67 731.945 C 1542.97 750.627 1551.3 774.959 1549.86 799.713 C 1549.71 801.796 1549.1 808.145 1548.47 809.846 C 1543.33 811.413 1543.02 813.553 1539.41 818.309 C 1525.52 836.588 1513.12 846.975 1492.07 855.551 C 1488.32 857.478 1484.01 858.864 1480.02 860.304 C 1465.66 859.732 1452.04 859.286 1438.75 853.294 C 1426.25 847.779 1416.61 837.304 1412.15 824.387 C 1404.82 803.395 1412.29 775.066 1435.52 768.586 C 1441.93 766.81 1448.79 767.765 1454.48 771.223 C 1457.72 773.233 1461.53 776.741 1462.34 780.616 L 1461.3 781.685 C 1457.07 782.052 1446.22 778.585 1441.06 777.343 C 1412.23 787.995 1422.03 823.958 1442.42 832.287 C 1507.33 858.799 1539.81 772.679 1504.79 727.424 C 1501.23 722.826 1490.78 707.421 1489.56 703.207 z"/>
<path transform="translate(0,0)" fill="rgb(192,121,150)" d="M 1526.67 731.945 C 1542.97 750.627 1551.3 774.959 1549.86 799.713 C 1549.71 801.796 1549.1 808.145 1548.47 809.846 C 1543.33 811.413 1543.02 813.553 1539.41 818.309 C 1525.52 836.588 1513.12 846.975 1492.07 855.551 C 1491.96 854.954 1491.85 854.356 1491.74 853.758 C 1500.51 844.367 1509.76 834.504 1516.92 823.865 C 1530.55 803.619 1532.65 778.316 1530.58 754.631 C 1529.91 747.078 1528.24 739.448 1526.67 731.945 z"/>
<path transform="translate(0,0)" fill="rgb(189,142,173)" d="M 1425.94 724.103 C 1434.89 725.486 1444.6 725.353 1453.3 728.314 C 1477.18 736.439 1494.33 757.643 1491.64 784.071 C 1489.48 805.38 1459.52 836.048 1441.39 810.971 C 1438.62 807.147 1437.39 799.16 1436.42 794.254 L 1437.14 795.493 C 1449.84 816.923 1474.05 807.666 1476.05 786.718 C 1476.83 777.702 1473.98 768.749 1468.13 761.841 C 1451.22 741.99 1422.44 743.693 1403.87 760.52 C 1390.68 772.54 1382.76 789.278 1381.85 807.099 C 1381.05 824.868 1383.94 838.446 1392.93 853.647 C 1381.72 850.588 1370.69 843.236 1362.95 841.683 C 1352.68 824.269 1348.03 804.286 1351.46 784.202 C 1352.53 776.75 1353.03 773.42 1355.2 766.25 L 1359.23 767.842 C 1362.42 767.995 1364.63 767.886 1367.65 768.977 C 1364.93 782.456 1365.94 795.527 1366.46 809.215 C 1375.91 769.096 1386.1 741.444 1425.94 724.103 z"/>
<path transform="translate(0,0)" fill="rgb(204,178,199)" d="M 1355.2 766.25 L 1359.23 767.842 L 1358.7 769.061 C 1356.49 774.325 1354.57 784.456 1352.69 786.546 L 1351.46 784.202 C 1352.53 776.75 1353.03 773.42 1355.2 766.25 z"/>
<path transform="translate(0,0)" fill="rgb(253,252,254)" d="M 1367.65 768.977 C 1371.99 756.733 1375.82 747.402 1383.94 737.093 C 1410.56 703.327 1450.62 694.415 1485.27 722.905 C 1465.56 718.387 1444.83 714.58 1425.94 724.103 C 1386.1 741.444 1375.91 769.096 1366.46 809.215 C 1365.94 795.527 1364.93 782.456 1367.65 768.977 z"/>
<path transform="translate(0,0)" fill="rgb(204,178,199)" d="M 1179 1035.7 C 1158.1 1015.38 1162.59 982.259 1184.19 963.953 C 1195.03 954.643 1209.23 950.22 1223.44 951.729 C 1250.04 954.342 1267.98 972.597 1264.48 1000.11 C 1260.81 1007.15 1259.01 1010.34 1251.08 1012.69 C 1246.09 1013.81 1236.11 1014.72 1232.28 1011.38 C 1229.43 1008.89 1217.8 985.927 1211.6 994.619 C 1199.17 1012.05 1243.94 1028.48 1255.01 1037.07 L 1256.38 1038.12 C 1267.89 1049.04 1271.57 1061.87 1272.19 1077.24 C 1275.04 1148.03 1160.22 1149.02 1160.48 1079.93 C 1160.51 1072.13 1162.31 1067.79 1168.91 1063.66 C 1201.8 1042.66 1203.05 1089.65 1219.34 1091.86 C 1225.28 1089.18 1228.49 1080.61 1226.47 1074.83 C 1222.73 1064.15 1206.77 1054.83 1197.78 1049.13 C 1189.81 1044.96 1185.36 1041.86 1179 1035.7 z"/>
<path transform="translate(0,0)" fill="rgb(151,161,191)" d="M 1256.38 1038.12 C 1267.89 1049.04 1271.57 1061.87 1272.19 1077.24 C 1275.04 1148.03 1160.22 1149.02 1160.48 1079.93 C 1160.51 1072.13 1162.31 1067.79 1168.91 1063.66 C 1172.23 1081.8 1172.73 1098.12 1194 1104.68 C 1222.44 1113.44 1257.96 1097.65 1258.33 1064.86 C 1258.42 1056.2 1253 1046.91 1256.38 1038.12 z"/>
<path transform="translate(0,0)" fill="rgb(189,142,173)" d="M 1179 1035.7 C 1190.34 1025.4 1198.86 1036.32 1197.78 1049.13 C 1189.81 1044.96 1185.36 1041.86 1179 1035.7 z"/>
<path transform="translate(0,0)" fill="rgb(151,161,191)" d="M 1240.92 996.811 C 1250.29 998.986 1254.97 999.715 1264.48 1000.11 C 1260.81 1007.15 1259.01 1010.34 1251.08 1012.69 C 1248.39 1001.33 1251.02 1004.41 1240.92 996.811 z"/>
<path transform="translate(0,0)" fill="rgb(253,252,254)" d="M 1198.31 964.812 C 1202.03 964.477 1204.24 963.838 1205.91 967.537 C 1202.24 975.618 1193.27 975.842 1185.8 993.731 C 1184.49 995.119 1185.29 994.543 1182.83 994.801 L 1180.55 992.641 C 1176.66 981.616 1189.81 969.878 1198.31 964.812 z"/>
<path transform="translate(0,0)" fill="rgb(228,180,198)" d="M 1288.04 1053.82 C 1283.38 1036.48 1270.76 980.721 1278.76 963.064 C 1283.88 951.745 1314.5 947.688 1319.85 967.921 C 1324.48 981.691 1325.73 1028.35 1331.68 1036 C 1332.45 1020.12 1342.04 972.844 1368.03 981.898 C 1376 984.673 1380.35 994.69 1383.52 1001.98 C 1386.09 1011.7 1390.34 1030.57 1393.34 1039.11 C 1396.4 1061.18 1392.39 1074.24 1377.83 1091.14 L 1379.16 1095.25 C 1377.47 1099.48 1378.87 1098.2 1375.65 1100.03 L 1369.24 1100 C 1366.3 1092.47 1364.71 1080.02 1363.47 1071.74 L 1362.28 1071.5 C 1354.44 1088.04 1356.07 1119.77 1333.48 1128.1 C 1310.9 1136.43 1299.9 1113.56 1296.92 1095.64 C 1296.12 1093.57 1295.05 1088.78 1294.45 1086.42 C 1292.87 1079.88 1291.69 1072.84 1290.46 1066.19 L 1288.04 1053.82 z"/>
<path transform="translate(0,0)" fill="rgb(228,180,198)" d="M 1288.04 1053.82 C 1283.38 1036.48 1270.76 980.721 1278.76 963.064 C 1283.88 951.745 1314.5 947.688 1319.85 967.921 C 1324.48 981.691 1325.73 1028.35 1331.68 1036 C 1331.1 1042.46 1327.42 1044.37 1321.54 1043.05 C 1315.43 1038.19 1314.42 1029.37 1313.3 1021.95 C 1306.34 1028.71 1299.61 1037.97 1294.43 1046.15 C 1291.35 1049.23 1290.46 1050.21 1288.04 1053.82 z"/>
<path transform="translate(0,0)" fill="rgb(136,168,191)" d="M 1319.85 967.921 C 1324.48 981.691 1325.73 1028.35 1331.68 1036 C 1331.1 1042.46 1327.42 1044.37 1321.54 1043.05 C 1315.43 1038.19 1314.42 1029.37 1313.3 1021.95 C 1312.98 1017.64 1318.41 970.983 1319.85 967.921 z"/>
<path transform="translate(0,0)" fill="rgb(253,252,254)" d="M 1293.28 963.425 C 1296.56 964.076 1298.04 964.513 1300.51 966.753 C 1300.33 971.006 1295.05 974.937 1293.77 979.527 C 1291.95 986.032 1291.99 993.076 1291.83 999.789 C 1277.27 994.259 1283.88 971.908 1293.28 963.425 z"/>
<path transform="translate(0,0)" fill="rgb(186,202,214)" d="M 1331.68 1036 C 1332.45 1020.12 1342.04 972.844 1368.03 981.898 C 1376 984.673 1380.35 994.69 1383.52 1001.98 C 1378.42 1003.99 1376.96 1004.95 1371.74 1002.84 C 1370.39 1001.67 1370.61 1002.19 1368.04 1002.02 C 1363.28 1004.54 1361.66 1005.19 1356.52 1006.83 L 1355.48 1006.2 C 1358.05 1002.95 1358.63 1002.17 1359.9 998.258 C 1351.69 1005.44 1349.94 1014.11 1347.03 1024.33 C 1349.18 1026.38 1350.55 1027.34 1351.67 1030.1 C 1343.66 1052.29 1334.44 1079.47 1307.44 1082.82 C 1302.39 1083.45 1299.04 1084 1294.45 1086.42 C 1292.87 1079.88 1291.69 1072.84 1290.46 1066.19 L 1288.04 1053.82 C 1290.46 1050.21 1291.35 1049.23 1294.43 1046.15 C 1299.61 1037.97 1306.34 1028.71 1313.3 1021.95 C 1314.42 1029.37 1315.43 1038.19 1321.54 1043.05 C 1327.42 1044.37 1331.1 1042.46 1331.68 1036 z"/>
<path transform="translate(0,0)" fill="rgb(253,252,254)" d="M 1347.03 1024.33 C 1328.35 1016.97 1355.6 981.571 1363.88 990.78 C 1363.52 995.072 1363.17 994.176 1359.9 998.258 C 1351.69 1005.44 1349.94 1014.11 1347.03 1024.33 z"/>
<path transform="translate(0,0)" fill="rgb(253,252,254)" d="M 1288.04 1053.82 C 1290.46 1050.21 1291.35 1049.23 1294.43 1046.15 C 1294.41 1051.1 1295.06 1061.94 1292.55 1065.65 L 1290.46 1066.19 L 1288.04 1053.82 z"/>
<path transform="translate(0,0)" fill="rgb(189,142,173)" d="M 1296.92 1095.64 C 1302.95 1098.69 1311.84 1109.57 1318.26 1109.39 C 1340 1108.79 1343.65 1072.24 1357.81 1061.23 C 1360.27 1059.32 1361.56 1059.95 1363.97 1060.39 C 1367.29 1063.19 1367.31 1063.7 1369.2 1067.76 C 1365.65 1069.49 1365.36 1068.95 1363.47 1071.74 L 1362.28 1071.5 C 1354.44 1088.04 1356.07 1119.77 1333.48 1128.1 C 1310.9 1136.43 1299.9 1113.56 1296.92 1095.64 z"/>
<path transform="translate(0,0)" fill="rgb(192,121,150)" d="M 1363.47 1071.74 C 1365.36 1068.95 1365.65 1069.49 1369.2 1067.76 C 1371.35 1074.29 1374.51 1085.74 1377.83 1091.14 L 1379.16 1095.25 C 1377.47 1099.48 1378.87 1098.2 1375.65 1100.03 L 1369.24 1100 C 1366.3 1092.47 1364.71 1080.02 1363.47 1071.74 z"/>
<path transform="translate(0,0)" fill="rgb(204,178,199)" d="M 1359.9 998.258 C 1358.63 1002.17 1358.05 1002.95 1355.48 1006.2 L 1356.52 1006.83 C 1361.66 1005.19 1363.28 1004.54 1368.04 1002.02 C 1370.61 1002.19 1370.39 1001.67 1371.74 1002.84 C 1365.64 1005.57 1364.45 1006.53 1359.3 1010.49 C 1356.84 1017.17 1354.09 1023.61 1351.67 1030.1 C 1350.55 1027.34 1349.18 1026.38 1347.03 1024.33 C 1349.94 1014.11 1351.69 1005.44 1359.9 998.258 z"/>
<path transform="translate(0,0)" fill="rgb(204,178,199)" d="M 1566.86 1093.1 C 1564.2 1079.71 1562.1 1048.9 1562.91 1035.48 C 1563.98 1018.04 1564.37 976.881 1577.17 965.525 C 1593.03 951.46 1643.24 945.669 1658.59 963.825 C 1662.64 968.617 1664.81 977.6 1663.56 983.639 C 1658.53 1007.87 1627.05 993.881 1612.72 1003.05 C 1610.8 1004.43 1610.11 1007.81 1610.08 1010.4 C 1609.96 1023.64 1630.91 1013.14 1640.63 1023.1 C 1646.6 1029.22 1646.67 1033.44 1647.21 1041.96 C 1643.99 1056.38 1636.81 1059.21 1622.5 1060.16 C 1604.77 1059.67 1603.84 1084.04 1621.92 1081.7 C 1641.29 1079.19 1664.48 1071.24 1666.13 1100.12 C 1668.02 1132.97 1603.87 1135.92 1584.71 1124.87 C 1572.13 1117.82 1568.12 1106.63 1566.86 1093.1 z"/>
<path transform="translate(0,0)" fill="rgb(189,142,173)" d="M 1647.21 1041.96 C 1643.99 1056.38 1636.81 1059.21 1622.5 1060.16 C 1604.77 1059.67 1603.84 1084.04 1621.92 1081.7 C 1641.29 1079.19 1664.48 1071.24 1666.13 1100.12 C 1668.02 1132.97 1603.87 1135.92 1584.71 1124.87 C 1586.08 1120.46 1585.69 1109.54 1584.16 1105.03 C 1581.27 1058.28 1610.9 1050.95 1647.21 1041.96 z"/>
<path transform="translate(0,0)" fill="rgb(253,252,254)" d="M 1642.41 1083 C 1645.41 1082.77 1647.87 1083.59 1649.44 1086.15 C 1648.88 1092.02 1640.79 1096.48 1636.11 1098.83 C 1631.65 1098.63 1631.82 1098.78 1627.95 1096.68 C 1626.3 1093.94 1626.59 1095.4 1627.24 1092.13 C 1632.28 1085.77 1634.71 1085.61 1642.41 1083 z"/>
<path transform="translate(0,0)" fill="rgb(151,161,191)" d="M 1566.86 1093.1 C 1573.59 1096.02 1578.63 1100.34 1584.16 1105.03 C 1585.69 1109.54 1586.08 1120.46 1584.71 1124.87 C 1572.13 1117.82 1568.12 1106.63 1566.86 1093.1 z"/>
<path transform="translate(0,0)" fill="rgb(253,252,254)" d="M 1602.91 962.951 C 1607.35 963.36 1610.41 963.071 1612.3 967.416 C 1610.53 974.832 1599.98 977.168 1593.72 978.577 C 1585.26 987.014 1585.19 993.706 1582.47 1005.39 L 1579.95 1006.62 C 1571.78 1004.14 1576.08 986.467 1578.88 980.84 C 1584.44 969.632 1591.96 966.873 1602.91 962.951 z"/>
<path transform="translate(0,0)" fill="rgb(228,180,198)" d="M 1670.32 992.73 C 1658.28 949.734 1703.5 953.067 1730.14 953.098 C 1758.13 953.687 1797.12 952.888 1781.09 994.814 C 1770.12 1002.79 1769.41 1004.46 1756.12 1001 C 1753 1001.83 1749.65 1001.98 1748.61 1004.84 C 1745.48 1013.46 1747.34 1026.22 1746.84 1035.96 C 1746.65 1052.46 1747.59 1064.93 1749.17 1081.42 C 1750.23 1092.01 1751.6 1108.69 1748.56 1118.91 C 1743.75 1124.22 1741.87 1126.06 1735.79 1129.8 C 1727.89 1130.36 1722.35 1129.85 1714.61 1128.73 C 1692.93 1113.56 1700.45 1092.05 1703.92 1069.64 C 1704.56 1061.77 1704.95 1053.88 1705.08 1045.98 C 1705.08 1031.31 1704.96 1016.63 1704.71 1001.95 C 1692.3 1002.99 1676.97 1005.79 1670.32 992.73 z"/>
<path transform="translate(0,0)" fill="rgb(228,180,198)" d="M 1705.08 1045.98 C 1716.96 1053.6 1730.4 1081.34 1749.17 1081.42 C 1750.23 1092.01 1751.6 1108.69 1748.56 1118.91 C 1743.75 1124.22 1741.87 1126.06 1735.79 1129.8 C 1727.89 1130.36 1722.35 1129.85 1714.61 1128.73 C 1692.93 1113.56 1700.45 1092.05 1703.92 1069.64 C 1704.56 1061.77 1704.95 1053.88 1705.08 1045.98 z"/>
<path transform="translate(0,0)" fill="rgb(189,142,173)" d="M 1703.92 1069.64 C 1706.05 1073.2 1708.24 1079.8 1709.47 1083.83 C 1716.81 1107.82 1725.07 1111.7 1748.56 1118.91 C 1743.75 1124.22 1741.87 1126.06 1735.79 1129.8 C 1727.89 1130.36 1722.35 1129.85 1714.61 1128.73 C 1692.93 1113.56 1700.45 1092.05 1703.92 1069.64 z"/>
<path transform="translate(0,0)" fill="rgb(186,202,214)" d="M 1670.32 992.73 C 1672.49 986.621 1674.14 987.643 1679.95 987.642 C 1693.1 987.642 1707.3 988.84 1716.81 999.14 C 1725.45 1008.67 1732.3 1032.61 1746.84 1035.96 C 1746.65 1052.46 1747.59 1064.93 1749.17 1081.42 C 1730.4 1081.34 1716.96 1053.6 1705.08 1045.98 C 1705.08 1031.31 1704.96 1016.63 1704.71 1001.95 C 1692.3 1002.99 1676.97 1005.79 1670.32 992.73 z"/>
<path transform="translate(0,0)" fill="rgb(186,202,214)" d="M 1730.14 953.098 C 1758.13 953.687 1797.12 952.888 1781.09 994.814 C 1770.12 1002.79 1769.41 1004.46 1756.12 1001 C 1753.14 992.725 1729.49 968.641 1727.61 963.063 L 1729.21 962.447 C 1731.56 958.88 1730.59 957.564 1730.14 953.098 z"/>
<path transform="translate(0,0)" fill="rgb(189,142,173)" d="M 1729.21 962.447 C 1746.25 963.996 1752.12 974.943 1765.17 984.49 C 1770.43 988.332 1775.48 991.513 1781.09 994.814 C 1770.12 1002.79 1769.41 1004.46 1756.12 1001 C 1753.14 992.725 1729.49 968.641 1727.61 963.063 L 1729.21 962.447 z"/>
<path transform="translate(0,0)" fill="rgb(253,252,254)" d="M 1697.63 962.321 C 1701.5 962.873 1702.49 962.761 1704.56 965.208 L 1703.93 967.233 C 1698.74 971.675 1689.85 974.878 1683.33 977.656 C 1680.78 977.94 1678.93 977.558 1677.15 975.75 C 1677.53 966.558 1690.13 962.987 1697.63 962.321 z"/>
<path transform="translate(0,0)" fill="rgb(228,180,198)" d="M 1455.03 1051.27 C 1460.18 1028.48 1477.25 1006.96 1501.13 1002.77 C 1500.91 1008.73 1500.8 1013.13 1501.07 1019.13 C 1510.17 1018.76 1516.82 1018.4 1525.96 1019.25 C 1528.78 1021.37 1531.85 1023.53 1534.44 1025.89 C 1539.54 1031.3 1539.56 1034.69 1539.64 1042.43 C 1539.68 1046.57 1538.26 1050.25 1535.27 1053.4 C 1526.31 1062.8 1501.17 1053.67 1499.59 1067.65 C 1499.15 1071.45 1500.84 1077.21 1502.78 1080.52 C 1509.67 1085.62 1523.65 1081.34 1531.69 1079.84 C 1539.34 1078.43 1543.97 1077.69 1550.96 1081.72 C 1570.57 1117.12 1542.21 1126.59 1512.79 1130 C 1489.43 1131.23 1464.08 1130.96 1458.78 1102 L 1457.93 1095.13 C 1456.03 1087.12 1455.18 1060.16 1455.03 1051.27 z"/>
<path transform="translate(0,0)" fill="rgb(186,202,214)" d="M 1455.03 1051.27 C 1460.18 1028.48 1477.25 1006.96 1501.13 1002.77 C 1500.91 1008.73 1500.8 1013.13 1501.07 1019.13 C 1510.17 1018.76 1516.82 1018.4 1525.96 1019.25 C 1528.78 1021.37 1531.85 1023.53 1534.44 1025.89 C 1522.49 1038.67 1502.06 1033.58 1485.34 1048.3 C 1472.34 1059.74 1466.56 1090.04 1457.93 1095.13 C 1456.03 1087.12 1455.18 1060.16 1455.03 1051.27 z"/>
<path transform="translate(0,0)" fill="rgb(136,168,191)" d="M 1531.69 1079.84 C 1539.34 1078.43 1543.97 1077.69 1550.96 1081.72 C 1570.57 1117.12 1542.21 1126.59 1512.79 1130 C 1511.48 1123.4 1510.28 1119.33 1511.2 1112.65 L 1514.55 1111.79 C 1517.1 1105.79 1518.46 1102.6 1520.22 1096.28 C 1519.71 1095.24 1519.18 1094.03 1518.69 1092.97 C 1520.9 1087.74 1531.39 1085.99 1536.86 1083.87 C 1536.76 1083.46 1537.04 1081.45 1537.09 1080.93 C 1535.08 1080.15 1533.83 1080.14 1531.69 1079.84 z"/>
<path transform="translate(0,0)" fill="rgb(186,202,214)" d="M 1531.69 1079.84 C 1539.34 1078.43 1543.97 1077.69 1550.96 1081.72 C 1543.34 1100.54 1535.38 1108.71 1514.55 1111.79 C 1517.1 1105.79 1518.46 1102.6 1520.22 1096.28 C 1519.71 1095.24 1519.18 1094.03 1518.69 1092.97 C 1520.9 1087.74 1531.39 1085.99 1536.86 1083.87 C 1536.76 1083.46 1537.04 1081.45 1537.09 1080.93 C 1535.08 1080.15 1533.83 1080.14 1531.69 1079.84 z"/>
<path transform="translate(0,0)" fill="rgb(253,252,254)" d="M 1536.86 1083.87 C 1539.94 1086.61 1539.24 1085 1539.61 1088.58 C 1536.25 1095.02 1526.72 1096.06 1520.22 1096.28 C 1519.71 1095.24 1519.18 1094.03 1518.69 1092.97 C 1520.9 1087.74 1531.39 1085.99 1536.86 1083.87 z"/>
<path transform="translate(0,0)" fill="rgb(189,142,173)" d="M 1458.78 1102 L 1462.15 1098 C 1466.38 1099.18 1474.79 1109.31 1481.33 1110.62 C 1491.37 1112.62 1500.97 1113.28 1511.2 1112.65 C 1510.28 1119.33 1511.48 1123.4 1512.79 1130 C 1489.43 1131.23 1464.08 1130.96 1458.78 1102 z"/>
<path transform="translate(0,0)" fill="rgb(186,202,214)" d="M 1415.08 954.044 C 1449.12 947.131 1450.06 972.783 1446.91 997.932 C 1444.8 1014.75 1440.39 1030.18 1436.65 1046.67 C 1431.14 1070.1 1429.62 1096.76 1417.57 1117.85 C 1411.9 1127.78 1399.31 1128.28 1389.46 1127.96 C 1376.76 1120.99 1374.14 1116.79 1369.92 1102.39 C 1369.69 1101.59 1369.46 1100.8 1369.24 1100 L 1375.65 1100.03 C 1378.87 1098.2 1377.47 1099.48 1379.16 1095.25 L 1377.83 1091.14 C 1392.39 1074.24 1396.4 1061.18 1393.34 1039.11 C 1397.02 1018.79 1397.37 994.211 1402.03 973.737 C 1404.11 964.585 1407.12 958.801 1415.08 954.044 z"/>
<path transform="translate(0,0)" fill="rgb(189,142,173)" d="M 1415.08 954.044 C 1449.12 947.131 1450.06 972.783 1446.91 997.932 C 1444.8 1014.75 1440.39 1030.18 1436.65 1046.67 C 1431.14 1070.1 1429.62 1096.76 1417.57 1117.85 C 1411.9 1127.78 1399.31 1128.28 1389.46 1127.96 C 1376.76 1120.99 1374.14 1116.79 1369.92 1102.39 C 1369.69 1101.59 1369.46 1100.8 1369.24 1100 L 1375.65 1100.03 C 1378.87 1098.2 1377.47 1099.48 1379.16 1095.25 C 1401.76 1121.95 1419.47 1073.68 1422.94 1057.06 C 1429.27 1026.73 1431.92 981.497 1415.08 954.044 z"/>
<path transform="translate(0,0)" fill="rgb(186,202,214)" d="M 1457.43 995.679 C 1458.29 990.606 1459.21 983.824 1461.02 979.089 C 1473.39 946.786 1519.21 949.147 1545.54 958.885 C 1549.6 961.671 1551.71 963.89 1552.72 968.905 C 1560.56 1007.94 1525.48 999.169 1501.13 1002.77 C 1477.25 1006.96 1460.18 1028.48 1455.03 1051.27 C 1454.63 1032.71 1455.43 1014.14 1457.43 995.679 z"/>
<path transform="translate(0,0)" fill="rgb(189,142,173)" d="M 1545.54 958.885 C 1549.6 961.671 1551.71 963.89 1552.72 968.905 C 1560.56 1007.94 1525.48 999.169 1501.13 1002.77 C 1477.25 1006.96 1460.18 1028.48 1455.03 1051.27 C 1454.63 1032.71 1455.43 1014.14 1457.43 995.679 C 1459.34 1000.89 1459.08 1000.4 1464.7 1000.78 C 1469.52 1001.07 1471.81 1002.25 1474.07 997.822 C 1479.74 995.294 1484.46 986.897 1494.66 984.118 C 1508.73 980.29 1528.77 983.019 1540.01 973.466 C 1544.73 969.457 1545.4 964.679 1545.54 958.885 z"/>
<path transform="translate(0,0)" fill="rgb(253,252,254)" d="M 1464.7 1000.78 C 1467.69 986.13 1474.71 969.185 1491.12 965.005 C 1493.93 964.29 1496.38 964.508 1498.84 966.133 C 1500.75 972.398 1483.17 978.177 1479.65 985.127 C 1477.4 989.569 1475.86 993.168 1474.07 997.822 C 1471.81 1002.25 1469.52 1001.07 1464.7 1000.78 z"/>
<path transform="translate(0,0)" fill="rgb(136,168,191)" d="M 1492.07 855.551 C 1513.12 846.975 1525.52 836.588 1539.41 818.309 C 1543.02 813.553 1543.33 811.413 1548.47 809.846 C 1544.76 825.347 1541.78 837.653 1532.77 851.031 C 1511.56 882.513 1474.55 899.617 1437.01 894.577 C 1428.83 893.025 1420.15 891.559 1412.82 887.518 C 1394.29 884.2 1371.72 857.314 1362.95 841.683 C 1370.69 843.236 1381.72 850.588 1392.93 853.647 C 1394.58 855.303 1396.68 857.57 1398.4 859.041 C 1424.81 868.146 1453.68 872.757 1480.02 860.304 C 1484.01 858.864 1488.32 857.478 1492.07 855.551 z"/>
<path transform="translate(0,0)" fill="rgb(189,142,173)" d="M 1362.95 841.683 C 1370.69 843.236 1381.72 850.588 1392.93 853.647 C 1394.58 855.303 1396.68 857.57 1398.4 859.041 L 1401.3 864.591 C 1411.72 875.126 1426.7 890.591 1442.95 892.077 C 1444.77 892.243 1444.26 892.294 1445.55 891.045 C 1443.85 889.415 1444.62 889.883 1442.23 889.344 C 1444.96 889.391 1473.34 890.315 1473.39 890.333 C 1465.91 895.365 1446.46 894.213 1437.53 893.085 L 1437.01 894.577 C 1428.83 893.025 1420.15 891.559 1412.82 887.518 C 1394.29 884.2 1371.72 857.314 1362.95 841.683 z"/>
<path transform="translate(0,0)" fill="rgb(192,121,150)" d="M 1362.95 841.683 C 1370.69 843.236 1381.72 850.588 1392.93 853.647 C 1394.58 855.303 1396.68 857.57 1398.4 859.041 L 1401.3 864.591 L 1400.69 865.783 L 1393.03 856.083 C 1383.29 869.556 1402.68 880.89 1412.54 886.155 L 1412.82 887.518 C 1394.29 884.2 1371.72 857.314 1362.95 841.683 z"/>
<path transform="translate(0,0)" fill="rgb(204,178,199)" d="M 1379.18 886.073 C 1382.48 888.448 1383.2 888.172 1384.68 891.328 C 1379.33 900.703 1342.14 951.19 1333.77 959.043 C 1330.77 958.325 1329.52 956.357 1328.04 953.612 C 1336.22 944.969 1341.65 936.142 1348.73 926.753 C 1358.97 913.187 1369.24 899.881 1379.18 886.073 z"/>
<path transform="translate(0,0)" fill="rgb(139,42,36)" d="M 687.262 796.361 C 707.613 776.003 724.859 753.641 755.996 753.806 C 763.384 753.845 768.96 757.084 775.251 756.402 C 783.067 748.51 773.013 708.229 800.001 707.637 C 814.333 707.322 824.249 722.901 823.607 735.65 C 822.699 753.663 809.85 763.764 804.695 779.578 C 803.637 782.979 810.534 794.09 811.082 799.114 C 815.773 842.16 795.096 873.418 764.077 901.864 C 770.325 930.895 771.595 942.939 804.155 949.096 C 814.125 960.848 815.392 974.4 822.227 988.232 C 826.149 969.305 832.701 939.178 851.396 927.817 C 853.493 926.542 857.847 927.042 860.445 927.241 C 866.594 916.033 856.153 878.336 853.05 864.029 C 866.265 876.624 872.522 884.327 884.785 897.359 C 930.702 880.67 979.363 860.738 1026.96 848.074 C 1030.62 847.101 1035.5 847.781 1039.11 849.032 C 1033.57 849.073 1032.35 848.235 1028.98 851.526 C 1028.37 855.035 1030.6 859.616 1032.25 862.868 L 1030.34 863.884 L 1029.82 864.579 C 1022.28 863.513 913.783 903.992 900.482 909.316 C 901.057 919.808 903.216 934.683 902.707 944.547 C 897.6 1043.64 944.537 1120.18 1025.44 1173.19 C 1029.94 1180.26 1030.77 1182.85 1028.52 1191.01 C 981.89 1172.71 931.369 1117.17 911.478 1071.8 C 902.609 1051.57 896.343 1027.76 891.063 1006.27 C 883.71 1018.23 869.409 1038.31 867.113 1051.59 C 865.795 1059.21 868.073 1066.88 864.766 1076.69 C 860.514 1089.65 853.475 1098.39 847.806 1110.94 C 836.592 1135.8 827.603 1173.64 800.035 1185.17 C 794.729 1186.4 791.62 1189.09 787.468 1192.53 C 772.021 1205.31 754.579 1214.28 736.468 1222.49 C 743.172 1198.68 756.683 1172.92 764.423 1148.91 C 772.511 1123.82 778.293 1096.88 784.785 1071.05 C 780.401 1061.97 769.861 1045.38 764.356 1036.13 C 768.125 1052.42 767.836 1073.2 773.894 1084.56 C 771.277 1097.86 767.303 1105.76 759.586 1116.73 C 743.877 1139.55 715.464 1151.9 688.232 1145.13 C 678.021 1140.12 668.703 1140.35 658.941 1138.21 C 645.315 1135.21 628.255 1106.59 622.719 1096.97 C 621.214 1111.6 621.573 1133.14 620.855 1148.9 C 614.218 1146.34 605.263 1143.33 599.609 1139.4 C 597.693 1155.48 595.255 1171.65 593.373 1188 C 549.653 1138.72 557.739 1120.75 558.186 1055.74 C 540.103 1074.59 526.515 1081.91 501.323 1090.71 C 502.529 1122.58 502.302 1133.61 491.28 1163.53 C 487.562 1160.6 483.727 1157.23 480.085 1154.15 C 474.161 1167.4 458.204 1221.38 457.1 1235.14 C 434.572 1180.39 431.913 1181.81 430.902 1122.02 C 424.051 1132.74 414.428 1141.41 403.053 1147.11 C 398.641 1149.33 391.629 1152.74 387.085 1151.22 C 385.814 1149.03 385.973 1148.91 384.263 1147.14 C 381.675 1148.2 372.925 1154.38 370.355 1156.18 C 353.729 1167.81 344.352 1171.23 324.417 1172.26 C 323.895 1167.87 324.165 1166.14 321.357 1163.5 C 306.386 1161.09 287.399 1197.57 282.063 1208.23 C 275.207 1188.69 269.332 1175.74 268.556 1154.68 C 266.897 1109.69 283.891 1078.82 323.904 1058.74 C 305.751 1048.52 301.079 1044.45 289.48 1026.79 C 272.914 1001.56 264.434 981.097 271.925 950.353 C 274.145 941.241 279.689 931.45 281.508 921.478 C 283.676 909.595 281.777 900.529 273.951 891.045 C 271.375 887.923 269.509 887.065 267.123 883.51 L 268.344 882.397 C 281.231 878.724 298.932 880.231 311.685 885.021 C 311.785 874.821 311.513 866.684 315.232 856.97 C 328.456 822.433 364.116 808.299 394.754 793.809 C 379.543 823.305 366.221 842.984 384.573 875.554 C 396.072 860.115 404.632 855.203 422.643 849.165 C 417.856 876.077 426.03 890.226 436.807 914.01 C 438.967 918.78 441.95 928.585 443.909 934.111 C 458.2 907.803 462.05 911.367 481.285 892.301 L 482.25 891.331 C 477.507 885.592 462.065 863.135 471.553 857.35 C 500.866 839.478 537.836 866.551 569.003 863.515 L 577.278 863.251 C 604.248 861.762 630.036 851.693 650.879 834.513 C 659.937 825.627 681.02 805.689 687.262 796.361 z M 711.499 1057.78 C 707.413 1041.81 709.166 1027.26 706.587 1011.77 C 697.285 1018.87 690.751 1028.99 688.113 1040.39 C 687.367 1058.21 688.121 1067.13 704.807 1076.97 C 722.076 1077.26 729.919 1071.35 740.951 1058.32 C 750.999 1046.46 757.708 1036.79 763.088 1022.19 C 761.132 1018.87 758.832 1014.5 756.407 1011.68 C 746.626 1030.67 730.864 1048.33 711.499 1057.78 z M 634.346 984.421 C 639.972 973.117 642.932 966.598 652.174 957.695 C 655.5 954.491 663.647 949.74 663.289 947.695 C 661.045 947.303 661.249 947.189 659.03 947.322 C 650.58 948.694 641.878 950.421 633.349 950.342 C 633.098 956.9 631.384 981.985 632.533 985.922 C 632.92 985.611 634.05 984.743 634.346 984.421 z M 486.209 894.837 C 484.798 927.664 487.027 918.417 502.513 942.753 C 515.289 942.817 526.392 942.209 538.695 947.931 C 544.945 950.838 551.638 964 556.012 960.081 L 556.751 957.76 C 559.111 950.415 560.362 946.101 561.872 938.569 C 534.05 930.921 506.494 915.429 486.209 894.837 z M 346.816 1081.25 C 350.044 1079.23 351.766 1078.66 353.234 1075.18 C 352.354 1068.64 346.909 1066.6 341.141 1064.43 C 337.96 1069.45 334.343 1073.79 335.024 1079.7 C 338.638 1084.14 341.329 1082.33 346.816 1081.25 z"/>
<path transform="translate(0,0)" fill="rgb(220,74,50)" d="M 723.124 782.953 C 732.801 785.165 738.067 786.511 746.889 790.89 C 748.299 815.267 747.991 816.555 772.658 817.968 C 785.613 815.62 790.505 830.609 793.129 840.481 C 787.334 866.434 759.804 892.775 738.306 906.639 C 671.198 949.918 574.371 948.491 510.397 899.963 C 500.713 892.617 493.255 876.794 481.609 871.08 C 480.808 870.687 481.231 868.577 481.292 867.548 C 484.786 863.14 489.27 863.569 494.592 864.604 C 582.58 883.822 630.309 885.913 692.335 812.833 C 699.639 804.227 714.446 791.21 723.124 782.953 z"/>
<path transform="translate(0,0)" fill="rgb(168,44,42)" d="M 772.658 817.968 C 785.613 815.62 790.505 830.609 793.129 840.481 C 787.334 866.434 759.804 892.775 738.306 906.639 C 671.198 949.918 574.371 948.491 510.397 899.963 C 500.713 892.617 493.255 876.794 481.609 871.08 C 480.808 870.687 481.231 868.577 481.292 867.548 C 484.786 863.14 489.27 863.569 494.592 864.604 C 491.985 864.729 490.569 864.529 488.281 865.707 C 488.018 867.47 487.876 869.168 489.542 870.475 C 555.324 922.026 650.495 932.019 721.359 883.978 C 741.382 870.404 767.998 842.256 772.658 817.968 z"/>
<path transform="translate(0,0)" fill="url(#Gradient3)" d="M 722.028 797.562 C 725.857 798.345 724.233 797.527 727.145 799.994 C 729.805 807.88 717.916 818.785 712.97 824.566 C 689.606 851.873 669.244 865.966 636.304 879.054 L 633.031 879.845 L 631.852 878.87 C 633.674 874.027 655.52 863.472 662.263 857.719 C 684.307 838.914 700.558 817.443 722.028 797.562 z"/>
<path transform="translate(0,0)" fill="rgb(245,161,73)" d="M 294.493 893.814 C 326.633 909.475 311.271 915.153 319.518 923.924 L 320.419 923.85 C 329.038 914.549 325.603 881.48 328.089 868.853 C 332.696 845.463 347.386 835.266 365.316 822.924 C 355.869 862.707 365.874 880.677 395.857 905.767 C 395.819 889.74 397.32 884.238 406.31 871.092 C 409.172 901.561 430.374 916.244 429.654 948.223 C 429.3 963.951 426.924 974.213 415.548 986.092 C 409.804 994.395 405.251 1001.59 400.046 1010.16 C 401.512 1003.03 402.873 995.888 404.127 988.725 C 396.9 994.958 390.801 998.941 382.405 1003.61 C 386.388 992.46 387.737 988.073 390.335 976.599 C 385.773 978.723 381.099 980.872 376.414 982.729 C 367.622 986.213 354.621 987.342 349.992 996.753 C 350.198 1008.1 379.631 1020.43 389.051 1024.67 L 389.831 1026.51 C 393.349 1027.78 396.981 1028.98 400.334 1030.6 L 398.777 1037.74 C 397.425 1043.68 399.985 1050.24 398.734 1053.65 C 394.146 1049.46 376.185 1034.39 370.683 1034.58 C 374.055 1038.9 375.917 1041.67 378.803 1046.23 L 378.464 1046.71 C 374.896 1043.94 370.814 1040.93 367.393 1038.06 C 368.134 1043.7 368.901 1049.12 369.313 1054.81 C 379.72 1064.4 380.326 1065.06 385.277 1078.23 L 384.512 1079.23 C 380.051 1074.18 376.417 1070.71 370.16 1068.21 L 369.028 1067.02 L 369.546 1065.87 L 374.164 1065.75 C 367.48 1054.26 316.536 1045.65 310.625 1028.13 L 313.461 1026.55 L 313.709 1024.12 C 311.921 1019.44 309.062 1016.62 305.844 1012.74 C 284.418 1005.51 280.305 971.593 286.474 952.988 C 294.824 927.808 298.321 920.949 294.493 893.814 z"/>
<path transform="translate(0,0)" fill="rgb(220,74,50)" d="M 294.493 893.814 C 326.633 909.475 311.271 915.153 319.518 923.924 L 320.419 923.85 C 329.038 914.549 325.603 881.48 328.089 868.853 C 332.696 845.463 347.386 835.266 365.316 822.924 C 355.869 862.707 365.874 880.677 395.857 905.767 C 395.819 889.74 397.32 884.238 406.31 871.092 C 409.172 901.561 430.374 916.244 429.654 948.223 C 429.3 963.951 426.924 974.213 415.548 986.092 C 421.41 954.067 417.528 943.707 406.554 914.14 C 405.764 937.485 398.879 942.06 376.235 945.434 C 372.101 919.85 368.204 913.728 348.208 897.359 C 350.708 907.774 354.797 921.506 350.022 931.605 C 345.483 941.208 336.567 958.992 326.792 963.658 C 318.934 963.227 317.746 953.311 315.899 946.802 C 305.777 971.878 299.579 985.985 305.844 1012.74 C 284.418 1005.51 280.305 971.593 286.474 952.988 C 294.824 927.808 298.321 920.949 294.493 893.814 z"/>
<path transform="translate(0,0)" fill="rgb(245,161,73)" d="M 470.878 918.229 C 470.56 932.586 469.088 940.513 476.588 952.811 C 478.557 948.136 480.247 943.613 482.013 938.871 C 493.781 954.595 501.393 962.562 521.453 959.531 C 537.315 957.135 544.169 975.414 552.542 982.826 C 555.507 979.669 553.865 980.258 557.194 979.668 C 570.573 988.874 559.102 1025.68 552.66 1037.71 C 538.708 1063.77 513.332 1070.73 487.08 1078.88 C 487.873 1088 488.973 1133.3 481.587 1137.48 C 479.056 1134.74 479.842 1135.61 478.936 1131.48 L 477.589 1126 L 476.234 1125.18 C 471.032 1138.8 465.475 1152.16 460.165 1165.74 C 458.464 1170.1 454.981 1185.72 453.098 1187.73 L 452.513 1187.13 C 447.554 1162.43 445.203 1137.28 445.499 1112.09 C 445.586 1103.74 448.685 1088.1 447.739 1080.98 C 446.682 1073.03 440.343 1056.4 437.552 1048.04 C 441.1 1050.6 444.925 1052.85 448.656 1055.15 C 451.535 1038.55 453.516 1013.61 455.351 996.155 C 447.979 999.762 442.731 1002.06 436.201 1006.98 C 437.934 998.39 441.464 990.862 442.365 982.4 L 441.288 981.148 L 436.254 981.493 L 436.52 979.851 C 440.309 976.065 444.308 974.28 449.017 971.702 C 453.6 945.683 454.654 939.646 470.878 918.229 z"/>
<path transform="translate(0,0)" fill="rgb(220,74,50)" d="M 447.972 1062.84 C 453.65 1060.59 459.135 1061.13 462.345 1055.53 C 462.471 1048.12 462.686 1044.9 465.209 1037.92 L 465.573 1036.93 C 477.669 1088.7 490.207 1048.34 506.119 1046.15 C 506.621 1048.01 507.028 1049.76 507.456 1051.65 L 509.53 1052.76 C 519.656 1052.88 527.189 1049.91 536.773 1046.83 C 521.698 1066.14 503.651 1066.96 483.315 1075.36 L 482.249 1075.81 C 482.149 1092.27 477.879 1117.4 478.936 1131.48 L 477.589 1126 L 476.234 1125.18 C 471.032 1138.8 465.475 1152.16 460.165 1165.74 C 458.464 1170.1 454.981 1185.72 453.098 1187.73 L 452.513 1187.13 C 456.476 1176.59 450.822 1172.99 454.105 1162.63 C 450.402 1136.4 449.835 1111.06 453.454 1084.91 C 453.699 1083.14 448.807 1066.66 447.972 1062.84 z"/>
<path transform="translate(0,0)" fill="url(#Gradient2)" d="M 454.105 1162.63 C 454.158 1162.55 454.198 1162.45 454.266 1162.37 C 458.8 1157.31 465.28 1130.95 473.533 1119.02 L 474.985 1118.77 C 476.912 1121.92 476.32 1120.89 476.234 1125.18 C 471.032 1138.8 465.475 1152.16 460.165 1165.74 C 458.464 1170.1 454.981 1185.72 453.098 1187.73 L 452.513 1187.13 C 456.476 1176.59 450.822 1172.99 454.105 1162.63 z"/>
<path transform="translate(0,0)" fill="rgb(139,42,36)" d="M 492.627 989.839 C 504.662 989.511 513.782 993.006 521.96 1002.73 C 524.452 1005.7 525.289 1010.2 524.542 1013.72 C 524.335 1019.23 520.346 1016.47 519.585 1017.56 C 514.809 1024.39 510.878 1029.18 504.195 1033.79 L 489.639 1041.23 C 489.93 1036.18 494.376 1008.65 493.66 1007.27 L 489.096 1011.47 L 488.292 1010.59 C 487.837 1004.05 489.866 995.782 492.627 989.839 z"/>
<path transform="translate(0,0)" fill="url(#Gradient1)" d="M 877.888 912.873 C 899.466 944.407 888.449 982.375 868.506 1011.81 L 868.475 1011.33 C 860.93 1023.37 848.231 1056.11 844.123 1070.21 C 845.766 1071.01 846.838 1071.42 848.554 1072.05 C 849.399 1075.31 848.907 1075.71 847.593 1079.04 C 843.271 1090.01 837.11 1100.17 832.164 1110.85 C 823.315 1129.97 818.284 1152.6 801.684 1166.78 C 801.774 1162.58 802.307 1154.3 801.278 1150.6 L 800.801 1150.73 C 792.659 1167 779.26 1178.73 765.593 1189.98 C 776.683 1159.76 785.769 1131.46 792.626 1099.98 C 794.692 1090.5 799.254 1080.3 801.729 1070.56 C 799.163 1064.83 795.098 1057.65 792.075 1051.97 C 787.805 1044.86 784.055 1039.49 779.211 1032.73 C 783.554 1035.3 787.945 1037.79 792.381 1040.2 C 782.291 1019 764.435 997.547 754.341 975.912 L 765.623 986.449 C 755.437 962.094 753.299 953.345 754.181 926.582 C 771.172 952.627 769.894 952.13 796.143 965.284 C 805.692 983.494 812.501 1007.75 823.537 1029.58 C 828.166 1014.09 845.888 958.27 852.709 946.324 C 854.593 950.923 856.599 955.638 858.343 960.277 C 872.393 945.446 876.143 933.125 877.888 912.873 z"/>
<path transform="translate(0,0)" fill="rgb(220,74,50)" d="M 839.009 1025.56 L 839.152 1027.05 C 840.345 1038.56 844.505 1038.83 843.972 1047.75 C 843.617 1053.69 836.459 1076.9 836.791 1080.53 L 840.498 1077.35 C 840.445 1082.43 833.056 1089.65 831.137 1094.82 C 824.161 1113.63 817.598 1131.86 809.095 1150.09 C 808.453 1146.12 806.916 1132.78 804.974 1130.45 C 801.192 1133.04 800.974 1142.42 797.221 1148.03 L 797.968 1148.48 L 800.801 1150.73 C 792.659 1167 779.26 1178.73 765.593 1189.98 C 776.683 1159.76 785.769 1131.46 792.626 1099.98 C 794.692 1090.5 799.254 1080.3 801.729 1070.56 C 799.163 1064.83 795.098 1057.65 792.075 1051.97 L 798.032 1048.8 C 800.954 1043.5 803.567 1040.15 804.891 1034.44 L 806.046 1033.3 C 808.264 1035.78 809.093 1038.27 810.447 1041.31 L 811.577 1041.23 L 812.574 1035.81 C 818.398 1034.45 823.687 1044.04 831.143 1040.97 C 833.716 1036.53 830.902 1033.28 832.801 1030.33 C 833.099 1033.34 833.096 1037.75 834.825 1039.89 C 837.581 1037.85 837.563 1035.58 838.148 1031.73 C 838.453 1029.68 838.74 1027.62 839.009 1025.56 z"/>
<path transform="translate(0,0)" fill="rgb(245,130,89)" d="M 792.075 1051.97 L 798.032 1048.8 C 801.666 1056.73 805.217 1061.82 807.885 1070.32 C 801.92 1088.26 787.931 1130.1 786.936 1147.72 C 789.73 1146.97 790.413 1146.13 792.556 1144.3 C 795.976 1145.56 794.362 1144.74 797.221 1148.03 L 797.968 1148.48 L 800.801 1150.73 C 792.659 1167 779.26 1178.73 765.593 1189.98 C 776.683 1159.76 785.769 1131.46 792.626 1099.98 C 794.692 1090.5 799.254 1080.3 801.729 1070.56 C 799.163 1064.83 795.098 1057.65 792.075 1051.97 z"/>
<path transform="translate(0,0)" fill="rgb(223,103,62)" d="M 786.936 1147.72 C 789.73 1146.97 790.413 1146.13 792.556 1144.3 C 795.976 1145.56 794.362 1144.74 797.221 1148.03 L 797.968 1148.48 C 793.598 1153.07 789.447 1159.77 785.839 1165.15 C 786.717 1159.26 786.757 1153.66 786.936 1147.72 z"/>
<path transform="translate(0,0)" fill="rgb(220,74,50)" d="M 389.051 1024.67 C 401.701 1028.26 407.358 1031.37 417.249 1040.85 C 445.518 1067.94 432.08 1112.17 399.998 1130.24 C 378.534 1123.72 360.774 1148.62 339.402 1156.52 C 342.024 1151.81 344.164 1148.81 345.055 1143.5 L 344.259 1141.58 C 335.218 1142.25 315.335 1149.03 306.314 1152.14 C 299.262 1154.57 290.413 1165.37 285.573 1171.23 C 280.265 1148.55 283.815 1119.94 296.134 1100.16 C 302.272 1090.18 310.751 1081.85 320.836 1075.89 C 317.851 1082.75 309.704 1099.46 312.436 1106.63 C 318.759 1109.92 328.407 1101.32 334.607 1099.28 C 337.909 1098.2 343.574 1100.61 347.114 1098.4 C 360.118 1091.69 369.049 1084.83 382.649 1078.73 C 379.596 1076.33 372.263 1070.94 370.16 1068.21 C 376.417 1070.71 380.051 1074.18 384.512 1079.23 L 385.277 1078.23 C 380.326 1065.06 379.72 1064.4 369.313 1054.81 C 368.901 1049.12 368.134 1043.7 367.393 1038.06 C 370.814 1040.93 374.896 1043.94 378.464 1046.71 L 378.803 1046.23 C 375.917 1041.67 374.055 1038.9 370.683 1034.58 C 376.185 1034.39 394.146 1049.46 398.734 1053.65 C 399.985 1050.24 397.425 1043.68 398.777 1037.74 L 400.334 1030.6 C 396.981 1028.98 393.349 1027.78 389.831 1026.51 L 389.051 1024.67 z"/>
<path transform="translate(0,0)" fill="rgb(245,130,89)" d="M 389.051 1024.67 C 401.701 1028.26 407.358 1031.37 417.249 1040.85 C 445.518 1067.94 432.08 1112.17 399.998 1130.24 C 378.534 1123.72 360.774 1148.62 339.402 1156.52 C 342.024 1151.81 344.164 1148.81 345.055 1143.5 L 344.259 1141.58 C 335.218 1142.25 315.335 1149.03 306.314 1152.14 C 299.262 1154.57 290.413 1165.37 285.573 1171.23 C 280.265 1148.55 283.815 1119.94 296.134 1100.16 C 302.272 1090.18 310.751 1081.85 320.836 1075.89 C 317.851 1082.75 309.704 1099.46 312.436 1106.63 C 318.759 1109.92 328.407 1101.32 334.607 1099.28 C 337.909 1098.2 343.574 1100.61 347.114 1098.4 C 360.118 1091.69 369.049 1084.83 382.649 1078.73 C 379.596 1076.33 372.263 1070.94 370.16 1068.21 C 376.417 1070.71 380.051 1074.18 384.512 1079.23 L 385.277 1078.23 L 385.88 1080.39 C 385.043 1082.12 347.42 1104.19 343.342 1105.18 C 330.905 1108.18 320.308 1109.69 307.358 1115.27 C 306.667 1109.15 306.299 1102.16 305.836 1095.96 C 290.295 1116.09 287.334 1131.54 287.944 1157.15 C 307.418 1143.14 330.868 1140.42 354.819 1129.72 L 348.75 1144.87 C 365.023 1137.44 375.329 1122.39 394.752 1121.87 C 403.061 1122.08 409.269 1115.59 414.268 1109.24 C 437.672 1079.51 428.029 1055.93 400.601 1035.79 C 400.336 1041.13 401.692 1051.61 400.362 1055.33 L 398.734 1053.65 C 399.985 1050.24 397.425 1043.68 398.777 1037.74 L 400.334 1030.6 C 396.981 1028.98 393.349 1027.78 389.831 1026.51 L 389.051 1024.67 z"/>
<path transform="translate(0,0)" fill="rgb(245,161,73)" d="M 576.513 1011.59 C 576.194 994.311 575.674 979.508 573.436 962.35 C 572.881 958.095 573.3 951.023 576.357 947.545 L 578.41 948.262 C 581.736 952.202 582.653 956.987 584.193 962.033 C 586.842 962.042 599.244 961.277 601.63 962.842 C 604.659 964.829 599.554 964.93 604.54 967.142 C 610.246 963.28 614.001 952.807 619.692 952.171 C 624.964 958.407 618.136 971.739 617.139 979.049 C 615.774 989.062 614.375 999.082 612.752 1009.06 C 615.875 1006.43 616.509 1005.93 620.061 1003.98 L 621.105 1005.02 C 618.836 1016.05 617.166 1027.84 615.448 1039.02 C 611.801 1067.19 610.44 1098.76 606.574 1125.75 L 605.212 1126.56 L 604.423 1126.01 C 601.801 1121.81 598.296 1114.91 594.669 1112.28 C 589.762 1113.89 583.99 1139.69 581.742 1145.78 L 581.4 1146.11 L 580.245 1145.55 C 567.769 1109.85 573.368 1096.62 573.227 1060.3 C 573.192 1051.19 570.449 1036.05 570.03 1026.11 C 569.628 1016.57 570.012 1008.73 570.46 999.24 L 576.513 1011.59 z"/>
<path transform="translate(0,0)" fill="rgb(220,74,50)" d="M 581.596 1031.41 C 586.472 1039.69 591.689 1049.82 596.333 1058.32 C 600.089 1051.62 602.868 1043.16 607.553 1037.12 L 608.182 1040.18 C 610.612 1040.14 613.023 1039.5 615.448 1039.02 C 611.801 1067.19 610.44 1098.76 606.574 1125.75 L 605.212 1126.56 L 604.423 1126.01 C 601.801 1121.81 598.296 1114.91 594.669 1112.28 C 589.762 1113.89 583.99 1139.69 581.742 1145.78 C 581.525 1141.76 583.002 1136.61 580.643 1133.35 L 581.073 1130.93 C 576.12 1111.49 577.447 1051.55 581.596 1031.41 z"/>
<path transform="translate(0,0)" fill="rgb(248,143,94)" d="M 608.182 1040.18 C 610.612 1040.14 613.023 1039.5 615.448 1039.02 C 611.801 1067.19 610.44 1098.76 606.574 1125.75 L 605.212 1126.56 L 604.423 1126.01 C 602.16 1118.17 607.505 1106.47 604.848 1095.67 C 605.121 1086.02 606.145 1048.44 608.182 1040.18 z"/>
<path transform="translate(0,0)" fill="rgb(245,130,89)" d="M 602.499 1113.71 C 603.415 1107.71 604.198 1101.7 604.848 1095.67 C 607.505 1106.47 602.16 1118.17 604.423 1126.01 C 601.801 1121.81 598.296 1114.91 594.669 1112.28 C 589.762 1113.89 583.99 1139.69 581.742 1145.78 C 581.525 1141.76 583.002 1136.61 580.643 1133.35 L 581.073 1130.93 C 582.357 1128.98 584.529 1119.62 585.785 1116.2 C 588.413 1109.03 589.122 1107.53 593.035 1101.14 C 596.129 1105.35 599.208 1109.66 602.499 1113.71 z"/>
<path transform="translate(0,0)" fill="rgb(245,161,73)" d="M 659.771 982.467 C 675.788 960.477 691.121 960.093 713.826 950.815 C 714.975 950.346 714.156 940 714.045 938.337 C 729.453 947.006 742.362 953.886 747.359 972.439 C 754.144 997.633 734.742 1015.9 721.832 1033.67 C 721.596 1025.84 723.567 988.84 709.269 992.743 C 699.731 995.347 687.149 1009.58 682.074 1018.48 C 672.708 1035.08 670.334 1054.73 675.478 1073.08 C 675.804 1074.28 675.936 1074.61 676.425 1076.07 L 676.188 1078.65 C 664.92 1066.46 666.53 1054.87 666.402 1039.22 C 664.547 1043.44 660.916 1056.24 660.011 1057.11 C 652.977 1054.33 648.201 1038.92 642.735 1034.88 C 641.416 1037.98 640.695 1040.3 638.481 1042.86 C 636.18 1042.19 635.128 1041.77 632.915 1040.82 C 628.553 1036.83 629.932 1038.89 628.245 1032.76 C 629.544 1025.08 631.122 1016.74 634.471 1009.69 C 637.29 1007.28 639.145 1007.73 642.806 1007.82 C 648.854 987.079 653.074 975.312 671.211 962.038 C 665.493 970.143 663.494 972.982 659.771 982.467 z"/>
<path transform="translate(0,0)" fill="rgb(168,44,42)" d="M 634.471 1009.69 C 637.29 1007.28 639.145 1007.73 642.806 1007.82 L 637.326 1026.21 L 634.471 1009.69 z"/>
<path transform="translate(0,0)" fill="rgb(220,74,50)" d="M 628.245 1032.76 C 629.932 1038.89 628.553 1036.83 632.915 1040.82 C 635.128 1041.77 636.18 1042.19 638.481 1042.86 C 640.695 1040.3 641.416 1037.98 642.735 1034.88 C 648.201 1038.92 652.977 1054.33 660.011 1057.11 C 660.916 1056.24 664.547 1043.44 666.402 1039.22 C 666.53 1054.87 664.92 1066.46 676.188 1078.65 L 676.425 1076.07 L 678.703 1073.15 C 685.595 1074.72 691.183 1094.26 711.608 1091.33 C 734.143 1088.1 742.203 1080.72 756.033 1063.78 C 753.256 1080.3 749.438 1085.99 740.322 1100.23 L 757.289 1094.75 C 742.279 1112 734.737 1129.8 708.173 1131.91 C 695.698 1132.9 674.922 1127.64 665.599 1119.41 C 662.613 1119.1 662.176 1119.97 658.857 1121.29 C 633.598 1107.89 626.651 1058.45 628.245 1032.76 z"/>
<path transform="translate(0,0)" fill="rgb(245,130,89)" d="M 628.245 1032.76 C 629.932 1038.89 628.553 1036.83 632.915 1040.82 C 634.679 1065.11 637.901 1098.05 659.082 1114.07 C 660.506 1112.89 660.205 1113.08 661.307 1111.55 C 664.552 1111.5 666.46 1113.41 669.244 1115.34 C 674.232 1117.17 681.753 1121 686.672 1123.55 C 699.795 1130.36 730.38 1123.99 736.836 1109.93 L 736.345 1108.7 L 731.079 1107.98 L 730.181 1106.47 C 730.754 1102.37 735.665 1093.39 737.798 1088.93 C 714.756 1098.76 692.312 1103.25 676.188 1078.65 L 676.425 1076.07 L 678.703 1073.15 C 685.595 1074.72 691.183 1094.26 711.608 1091.33 C 734.143 1088.1 742.203 1080.72 756.033 1063.78 C 753.256 1080.3 749.438 1085.99 740.322 1100.23 L 757.289 1094.75 C 742.279 1112 734.737 1129.8 708.173 1131.91 C 695.698 1132.9 674.922 1127.64 665.599 1119.41 C 662.613 1119.1 662.176 1119.97 658.857 1121.29 C 633.598 1107.89 626.651 1058.45 628.245 1032.76 z"/>
<path transform="translate(0,0)" fill="rgb(145,168,104)" d="M 734.863 771.487 C 746.351 769.314 756.384 767.978 767.88 771.027 C 772.148 772.16 777.073 774.193 781.265 774.046 C 785.575 774.391 783.833 774.833 787.86 771.43 L 788.034 776.813 L 789.733 776.81 C 789.751 785.517 796.502 793.656 798.614 803.044 C 800.563 811.713 800.234 817.573 799.673 826.324 C 790.551 810.054 790.193 807.765 772.226 804.27 C 768.45 804.409 766.763 804.696 763.078 803.647 C 753.926 792.285 774.089 785.612 734.863 771.487 z"/>
<path transform="translate(0,0)" fill="rgb(70,100,62)" d="M 788.034 776.813 L 789.733 776.81 C 789.751 785.517 796.502 793.656 798.614 803.044 C 800.563 811.713 800.234 817.573 799.673 826.324 C 790.551 810.054 790.193 807.765 772.226 804.27 C 775.351 794.315 780.642 784.262 788.034 776.813 z"/>
<path transform="translate(0,0)" fill="rgb(102,134,75)" d="M 798.929 724.386 C 802.853 724.115 803.728 723.772 807.26 725.61 C 816.642 736.52 796.767 767.322 789.733 776.81 L 788.034 776.813 L 787.86 771.43 C 783.833 774.833 785.575 774.391 781.265 774.046 C 794.844 755.366 793.289 732.666 798.929 724.386 z"/>
<path transform="translate(0,0)" fill="rgb(177,180,116)" d="M 781.265 774.046 C 794.844 755.366 793.289 732.666 798.929 724.386 C 801.776 727.336 803.538 728.188 803.398 732.77 C 803.022 745.156 793.704 760.431 787.86 771.43 C 783.833 774.833 785.575 774.391 781.265 774.046 z"/>
<path transform="translate(0,0)" fill="rgb(220,74,50)" d="M 602.065 668.347 C 662.09 712.516 628.693 743.105 645.66 760.243 C 655.698 762.416 660.59 743.78 662.844 736.64 C 673.75 750.27 684.361 779.347 687.262 796.361 C 681.02 805.689 659.937 825.627 650.879 834.513 C 630.036 851.693 604.248 861.762 577.278 863.251 L 569.003 863.515 C 530.142 830.143 533.078 797.093 556.622 754.632 C 558.946 763.873 560.99 769.972 564.236 778.982 C 567.621 769.636 572.564 757.606 577.673 749.188 C 596.473 718.211 608.057 706.119 602.065 668.347 z"/>
<path transform="translate(0,0)" fill="rgb(245,161,73)" d="M 617.07 755.668 C 622.213 797.057 640.169 798.55 650.879 834.513 C 630.036 851.693 604.248 861.762 577.278 863.251 C 571.433 836.645 570.164 829.45 583.155 804.467 C 587.394 809.272 591.014 813.084 595.555 817.608 C 605.393 787.824 598.013 783.824 617.07 755.668 z"/>
</svg>