<?xml version="1.0" encoding="UTF-8"?>
<svg id="Calque_2" data-name="Calque 2" xmlns="http://www.w3.org/2000/svg" xmlns:xlink="http://www.w3.org/1999/xlink" viewBox="0 0 1064.29 350.22">
  <defs>
    <style>
      .cls-1 {
        fill: #5dc65d;
      }

      .cls-2 {
        opacity: .6;
      }

      .cls-2, .cls-3 {
        fill: #fff;
      }

      .cls-4 {
        fill: #c1e0f7;
      }

      .cls-5 {
        fill: #de2636;
      }

      .cls-6 {
        fill: #cfbae1;
      }

      .cls-7 {
        fill: #c59fc9;
      }

      .cls-8 {
        opacity: .6;
      }

      .cls-9 {
        opacity: .3;
      }

      .cls-10 {
        fill: #97f9f9;
      }

      .cls-11 {
        fill: #804089;
      }

      .cls-12 {
        fill: url(#Dégradé_sans_nom_47);
      }

      .cls-13 {
        fill: url(#Dégradé_sans_nom_37);
      }

      .cls-14 {
        fill: url(#Dégradé_sans_nom_21);
      }

      .cls-15 {
        fill: url(#Dégradé_sans_nom_52);
      }

      .cls-16 {
        fill: url(#Dégradé_sans_nom_69);
      }

      .cls-17 {
        fill: url(#Dégradé_sans_nom_21-10);
      }

      .cls-18 {
        fill: url(#Dégradé_sans_nom_21-12);
      }

      .cls-19 {
        fill: url(#Dégradé_sans_nom_21-11);
      }

      .cls-20 {
        fill: url(#Dégradé_sans_nom_21-14);
      }

      .cls-21 {
        fill: url(#Dégradé_sans_nom_21-13);
      }

      .cls-22 {
        fill: url(#Dégradé_sans_nom_21-16);
      }

      .cls-23 {
        fill: url(#Dégradé_sans_nom_21-15);
      }

      .cls-24 {
        fill: #a4def9;
      }

      .cls-25 {
        fill: #801100;
      }

      .cls-26 {
        fill: url(#Dégradé_sans_nom_21-2);
      }

      .cls-27 {
        fill: url(#Dégradé_sans_nom_21-4);
      }

      .cls-28 {
        fill: url(#Dégradé_sans_nom_21-9);
      }

      .cls-29 {
        fill: url(#Dégradé_sans_nom_21-3);
      }

      .cls-30 {
        fill: url(#Dégradé_sans_nom_21-6);
      }

      .cls-31 {
        fill: url(#Dégradé_sans_nom_21-5);
      }

      .cls-32 {
        fill: url(#Dégradé_sans_nom_21-8);
      }

      .cls-33 {
        fill: url(#Dégradé_sans_nom_21-7);
      }

      .cls-34 {
        fill: url(#Dégradé_sans_nom_37-7);
      }

      .cls-35 {
        fill: url(#Dégradé_sans_nom_37-5);
      }

      .cls-36 {
        fill: url(#Dégradé_sans_nom_37-6);
      }

      .cls-37 {
        fill: url(#Dégradé_sans_nom_37-3);
      }

      .cls-38 {
        fill: url(#Dégradé_sans_nom_37-4);
      }

      .cls-39 {
        fill: url(#Dégradé_sans_nom_37-2);
      }
    </style>
    <linearGradient id="Dégradé_sans_nom_21" data-name="Dégradé sans nom 21" x1="193.26" y1="11.79" x2="228.3" y2="132.5" gradientUnits="userSpaceOnUse">
      <stop offset="0" stop-color="#fac000"/>
      <stop offset="1" stop-color="#fc6400"/>
    </linearGradient>
    <linearGradient id="Dégradé_sans_nom_21-2" data-name="Dégradé sans nom 21" x1="190.31" y1="37.46" x2="236.17" y2="145.62" xlink:href="#Dégradé_sans_nom_21"/>
    <linearGradient id="Dégradé_sans_nom_37" data-name="Dégradé sans nom 37" x1="190.31" y1="50.74" x2="239.63" y2="142.46" gradientUnits="userSpaceOnUse">
      <stop offset="0" stop-color="#ff7500"/>
      <stop offset="1" stop-color="#b62203"/>
    </linearGradient>
    <linearGradient id="Dégradé_sans_nom_21-3" data-name="Dégradé sans nom 21" x1="243.87" y1="-.35" x2="278.91" y2="120.36" xlink:href="#Dégradé_sans_nom_21"/>
    <linearGradient id="Dégradé_sans_nom_21-4" data-name="Dégradé sans nom 21" x1="227.85" y1="18.2" x2="284.53" y2="82.67" xlink:href="#Dégradé_sans_nom_21"/>
    <linearGradient id="Dégradé_sans_nom_69" data-name="Dégradé sans nom 69" x1="211.58" y1="156.42" x2="334.23" y2="74.65" gradientUnits="userSpaceOnUse">
      <stop offset="0" stop-color="#ffc2c9" stop-opacity=".2"/>
      <stop offset="1" stop-color="#ffc2c9" stop-opacity="0"/>
    </linearGradient>
    <linearGradient id="Dégradé_sans_nom_21-5" data-name="Dégradé sans nom 21" x1="355.5" y1="147.89" x2="401.57" y2="333.66" xlink:href="#Dégradé_sans_nom_21"/>
    <linearGradient id="Dégradé_sans_nom_21-6" data-name="Dégradé sans nom 21" x1="208.96" y1="174.48" x2="239.47" y2="315.31" xlink:href="#Dégradé_sans_nom_21"/>
    <linearGradient id="Dégradé_sans_nom_21-7" data-name="Dégradé sans nom 21" x1="3.2" y1="135.42" x2="95.68" y2="317.94" xlink:href="#Dégradé_sans_nom_21"/>
    <linearGradient id="Dégradé_sans_nom_21-8" data-name="Dégradé sans nom 21" x1="27.14" y1="104.69" x2="68.89" y2="213.28" xlink:href="#Dégradé_sans_nom_21"/>
    <linearGradient id="Dégradé_sans_nom_37-2" data-name="Dégradé sans nom 37" x1="68.39" y1="232.02" x2="48.6" y2="345.92" xlink:href="#Dégradé_sans_nom_37"/>
    <linearGradient id="Dégradé_sans_nom_21-9" data-name="Dégradé sans nom 21" x1="144.78" y1="155.58" x2="167.17" y2="342.49" xlink:href="#Dégradé_sans_nom_21"/>
    <linearGradient id="Dégradé_sans_nom_21-10" data-name="Dégradé sans nom 21" x1="140.14" y1="153.6" x2="181.68" y2="228.45" xlink:href="#Dégradé_sans_nom_21"/>
    <linearGradient id="Dégradé_sans_nom_37-3" data-name="Dégradé sans nom 37" x1="152.24" y1="243.61" x2="113.99" y2="324.99" xlink:href="#Dégradé_sans_nom_37"/>
    <linearGradient id="Dégradé_sans_nom_37-4" data-name="Dégradé sans nom 37" x1="224.46" y1="231.81" x2="201.53" y2="333.49" xlink:href="#Dégradé_sans_nom_37"/>
    <linearGradient id="Dégradé_sans_nom_21-11" data-name="Dégradé sans nom 21" x1="259.32" y1="170.05" x2="328.44" y2="317.37" xlink:href="#Dégradé_sans_nom_21"/>
    <linearGradient id="Dégradé_sans_nom_21-12" data-name="Dégradé sans nom 21" x1="214.36" y1="169.83" x2="240.75" y2="211.58" xlink:href="#Dégradé_sans_nom_21"/>
    <linearGradient id="Dégradé_sans_nom_21-13" data-name="Dégradé sans nom 21" x1="275.93" y1="173.27" x2="330.01" y2="211.77" xlink:href="#Dégradé_sans_nom_21"/>
    <linearGradient id="Dégradé_sans_nom_37-5" data-name="Dégradé sans nom 37" x1="256.66" y1="235.88" x2="334.21" y2="334.52" xlink:href="#Dégradé_sans_nom_37"/>
    <linearGradient id="Dégradé_sans_nom_37-6" data-name="Dégradé sans nom 37" x1="380.81" y1="241.34" x2="351.17" y2="326.89" xlink:href="#Dégradé_sans_nom_37"/>
    <linearGradient id="Dégradé_sans_nom_21-14" data-name="Dégradé sans nom 21" x1="336.5" y1="171.69" x2="372.19" y2="221.17" xlink:href="#Dégradé_sans_nom_21"/>
    <linearGradient id="Dégradé_sans_nom_21-15" data-name="Dégradé sans nom 21" x1="399.4" y1="157.07" x2="414.11" y2="236.57" xlink:href="#Dégradé_sans_nom_21"/>
    <linearGradient id="Dégradé_sans_nom_47" data-name="Dégradé sans nom 47" x1="373.48" y1="30.64" x2="358.71" y2="87.42" gradientUnits="userSpaceOnUse">
      <stop offset="0" stop-color="#377d37"/>
      <stop offset="1" stop-color="#377d37" stop-opacity="0"/>
    </linearGradient>
    <linearGradient id="Dégradé_sans_nom_52" data-name="Dégradé sans nom 52" x1="166.43" y1="159.09" x2="362.26" y2="110.42" gradientUnits="userSpaceOnUse">
      <stop offset="0" stop-color="#b11e2e"/>
      <stop offset="1" stop-color="#de2636"/>
    </linearGradient>
    <linearGradient id="Dégradé_sans_nom_21-16" data-name="Dégradé sans nom 21" x1="495.94" y1="156.66" x2="514.59" y2="262.93" xlink:href="#Dégradé_sans_nom_21"/>
    <linearGradient id="Dégradé_sans_nom_37-7" data-name="Dégradé sans nom 37" x1="482.13" y1="194.42" x2="519.93" y2="297.12" xlink:href="#Dégradé_sans_nom_37"/>
  </defs>
  <g id="line">
    <g>
      <g>
        <g>
          <path class="cls-14" d="M209.09,9.69s-18.49,27.41,8.29,42.08c26.78,14.66,61.45,42.25,38.7,74.36-22.76,32.11-86.51,26.37-78.86-38.66,0,0,10.2,12.11,22.21,16.41,0,0-49.63-42.55,9.66-94.19Z"/>
          <path class="cls-25" d="M209.09,9.69s-18.49,27.41,8.29,42.08c26.78,14.66,61.45,42.25,38.7,74.36-8.71,12.29-23.42,19.03-37.84,19.03-23.26,0-45.74-17.55-41.02-57.69,0,0,10.2,12.11,22.21,16.41,0,0-49.63-42.55,9.66-94.19M209.1,2.78c-1.62,0-3.24.57-4.54,1.7-20.97,18.26-31.56,37.7-31.48,57.79.03,6.72,1.26,12.89,3.13,18.37-.33.05-.66.12-.99.22-2.63.79-4.54,3.07-4.86,5.79-3.1,26.38,5.01,41.77,12.36,50.03,8.81,9.9,21.42,15.36,35.51,15.36,17.22,0,33.87-8.41,43.47-21.94,7.73-10.91,10.31-22.3,7.65-33.84-2.88-12.48-13.66-31.39-48.66-50.56-5.82-3.19-9.23-7.1-10.43-11.96-2.38-9.62,4.49-20.13,4.56-20.23,1.94-2.87,1.44-6.72-1.16-9.01-1.3-1.15-2.93-1.72-4.56-1.72h0ZM209.09,16.58h0,0Z"/>
        </g>
        <path class="cls-26" d="M215.64,144.2c-10.95-.85-20.37-5.77-26.5-13.85-6.46-8.51-9.07-20.19-7.69-34.1,4.06,4.29,9.99,9.61,16.78,12.65.41.18.84.29,1.27.32,1.33.1,2.65-.49,3.45-1.64,1.05-1.52.86-3.57-.44-4.87-.16-.17-16.79-17.22-15.06-40.11.95-12.54,2.78-24.6,14.08-36-.79,3.54-1.09,7.41-.44,11.39,1.3,8,10.42,14.75,18.55,20.05,13.59,8.88,36.85,26.76,39.86,46.79,1.3,8.68-1.27,16.76-7.88,24.69-8.42,10.12-22.21,15.75-35.96,14.68Z"/>
        <path class="cls-13" d="M225.59,142.88c-.97.12-1.96.2-2.93.24-9.5.42-18.06-2.78-24.1-9-4.51-4.64-7.61-11-9.17-18.7,3.19,1.88,6.73,3.59,10.43,4.74.98.3,2,.43,3.02.39.23,0,.47-.03.69-.06,2.92-.35,5.47-2.12,6.83-4.72,2-3.8.99-8.5-2.4-11.16-.13-.11-16.92-13.85-17.85-34.21-.35-7.57,1.49-15.31,5.47-23.11,2.97,8.34,9.21,14.89,18.58,19.5,11.11,5.47,37.5,20.15,42.56,38.41,1.96,7.07.62,13.85-4.21,21.34-5.73,8.88-15.8,14.99-26.93,16.35Z"/>
        <g>
          <path class="cls-29" d="M225.87,8.42s-10.18,19.65,9.59,33.67c19.76,14.03,46.54,31.24,44.63,60.57,0,0,23.05-23,4.83-48.8-18.22-25.8-47.6-14.73-59.05-45.44Z"/>
          <path class="cls-25" d="M225.87,8.42c11.45,30.72,40.83,19.65,59.05,45.44,18.22,25.8-4.83,48.8-4.83,48.8,1.91-29.33-24.86-46.54-44.63-60.57-19.76-14.03-9.59-33.67-9.59-33.67M225.87,1.52c-2.56,0-4.93,1.43-6.12,3.72-.34.65-3.3,6.6-3.39,14.67-.09,7.73,2.47,18.82,15.11,27.8,1.02.73,2.07,1.46,3.12,2.21,18.83,13.28,40.18,28.33,38.61,52.29-.19,2.86,1.42,5.54,4.03,6.73.91.41,1.88.62,2.85.62,1.79,0,3.55-.7,4.87-2.01.28-.28,6.84-6.9,10.81-17.11,3.79-9.76,5.96-24.72-5.21-40.55-9.56-13.53-21.72-18.18-32.45-22.27-11.54-4.4-20.66-7.88-25.77-21.6-.95-2.56-3.32-4.31-6.04-4.47-.14,0-.28-.01-.42-.01h0Z"/>
        </g>
        <path class="cls-27" d="M281.85,99.07c-1.8-23.63-21.52-40.43-37.78-54.28l-2.88-2.46c-8.29-7.11-9.49-14.82-8.74-20.57,6.15,11.31,15.9,16.09,25.4,20.75,9.8,4.81,19.06,9.35,25.71,20.88,8.73,15.14,3.58,28-1.71,35.69Z"/>
      </g>
      <path class="cls-5" d="M146.84,125.03c-1.44.09-2.29,1.66-1.59,2.93,2.79,5.09,9.74,16.52,19.1,23.06,21.2,14.82,93.39,35.71,137.37,8.27,43.97-27.44,58.42-51.32,58.42-51.32,0,0,1.62-9.97-8.06-15.21s-14.61,1.14-21.72-5.35,3.73-19.71-18.62-19.86c0,0-33.85,40.96-67.41,57.72-31.93,15.94-77.05-1.59-97.48-.26Z"/>
      <path class="cls-16" d="M330.24,87.32c-6.09-5.78,1.5-16.69-12.12-19.21-3.44,4.91-13.21,17.94-28.89,31.58-19.9,17.31-40.99,37.32-78.42,40.78-37.42,3.46-8.76,18.5,26.72,12.55,32.96-5.53,75.46-41.3,92.72-65.69Z"/>
      <path class="cls-31" d="M417.47,152.47s-2.66,26.78-13.53,33.6c0,0-4.71-5.84-2.6-11.19,0,0-17.46,32.58-21.14,57.26,0,0,.64-27.89-20.55-41.52-17.82-11.46-27.16-27.8-27.16-27.8,0,0-.75,29.86,10.28,42.54,0,0-.02,0-.06,0-.51,0-4.16-.09-6.27-2.69,0,0,20.16,31.5,21.25,38.57,0,0-3.08-4.71-8.76-6.65,0,0,21.9,18.01,12.17,43.81-9.73,25.8-21.01,64.94-21.01,64.94,0,0,22.31-14.65,24.9-28.11,0,0,2.11,5.84,0,11.03,0,0,14.12-13.13,23.04-39.01,8.92-25.88,7.95-24.26,12.01-28.32,0,0-4.06.48-5.92,2.35,0,0,5.83-19.73,18.37-42.67,12.54-22.95,19.65-43.11,4.98-66.12h0Z"/>
      <path class="cls-30" d="M209.4,176.25s-4.29,6.25-1.44,19.54c2.85,13.29,3.39,21.73,1.44,26.7,0,0-3.9-5.09-3.79-8.87,0,0-2.4,17.54.59,32.46,2.98,14.92-4.89,48.32,5.47,67.27,0,0,4.51-19.04,8.91-24.45,0,0,6.78,3.49,9.37,11.32,0,0,3.67-28.33,4.27-44,.6-15.67,5.14-39.36,6.98-43.03,0,0-4.8,2.27-7.05,5.78,0,0,.81-15.54,3.82-24.18s.97-15.15.97-15.15c0,0-6.29,9.39-10.66,9.39-.21,0-.41-.02-.61-.06-4.32-.96-5.91-5.41-10.44-5.41-.05,0-.11,0-.16,0-.03,0-.07,0-.1,0-4.59,0-7.58-7.31-7.58-7.31h0Z"/>
      <path class="cls-33" d="M63.06,90.27s-24.47,15.77-26.44,40.07c-1.97,24.29-4.6,29.72-4.6,29.72,0,0-5.17-20.74-17.93-20.77,0,0,3.46,15.35-3.46,34.68-6.92,19.33-3.67,37.5,13.63,58.05,17.31,20.55,40.99,21.41,50.02,35.48,0,0-29.42,19-41.41,19-1.97,0-3.46-.51-4.28-1.7-5.84-8.44,3.3-18.68,3.3-18.68,0,0-30.5,11.56-24.15,64.17,0,0,8.22-10.92,21.86-14.86,13.64-3.94,19.14-4.23,19.14-4.23,0,0,.17,6.58-5.02,9.61,0,0,14.53-5.84,25.58-14.71,5.59-4.49,11.72-5.6,16.4-5.6s7.77,1.06,7.77,1.06c0,0,22.87-20.22,14.79-45.48-8.08-25.26-54.5-28.07-53.57-42.13.93-14.06,17.8-11.87,23.96-16.64,0,0,1.95,7.83-2.98,17.44,0,0,13.26-5.77,13.69-14.86,0,0,2.27,9.57.22,15.73,0,0,18.62-14.25,17.96-37.49-.66-23.24-18.45-45.21-16.15-54.56,0,0-8.1,7.55-7.23,23.98,0,0-33.16-16.77-21.12-57.28h0Z"/>
      <path class="cls-32" d="M14.09,139.29s3.46,15.35-3.46,34.68c-6.6,18.44-3.94,35.83,11.35,55.24-.03-.1-8.88-27.68,6.91-53.28,0,0,9.42,12.21,11.27,11.77.48-.11,18.71-22.15,11.07-45.96,0,0,24.19,20.22,35.44,22.6,0,0,6.92-6.92,4.76-15.58,0,0,13.53,31.15,8.17,55.7,4.29-6.41,8.26-15.36,7.95-26.32-.66-23.24-18.45-45.21-16.15-54.56,0,0-8.1,7.55-7.23,23.98,0,0-33.16-16.77-21.12-57.28,0,0-24.47,15.77-26.44,40.07-1.97,24.29-4.6,29.72-4.6,29.72,0,0-5.17-20.74-17.93-20.77Z"/>
      <path class="cls-39" d="M72.05,234.42c12.7,5.61,27.09,11.98,30.75,23.42,5.49,17.16-6.27,32.16-11.14,37.43-1.59-.27-3.62-.5-5.94-.5-7.49,0-14.4,2.37-20,6.86-3.57,2.87-7.57,5.41-11.28,7.52l-.11-3.98-5.89.31c-.63.03-6.56.44-20.43,4.44-6.19,1.79-11.38,4.82-15.39,7.82-.23-16.93,4.01-27.97,8.78-35,.46,1.8,1.26,3.59,2.47,5.34,1.32,1.9,3.95,4.17,9.01,4.17,13.03,0,39.38-16.6,44.53-19.92l4.81-3.11-3.1-4.82c-5.13-7.98-22.1-16.64-31.12-21.07,0,0,16.14-1.49,25.23,5.76,0,0-14.03-13.25-35.13-18.98,0,0,14.49-3.79,33.95,4.32Z"/>
      <path class="cls-28" d="M189.45,192.92s-.92,2.7-3.32,2.7c-.46,0-.97-.1-1.54-.33-3.57-1.46-13.21-13.54-28.54-15.25-15.33-1.71-12.51-12.49-12.51-12.49,0,0-4.92,3.15-5.22,9.44,0,0-4.41-4.63-2.27-20.83,0,0-12.74,13.89-15.12,36.97,0,0,0,0,0,0-.21,0-3.85.11-9.67,7.67,0,0,1.41-.79,2.68-.79,1.48,0,2.76,1.06,1.43,5.64-2.49,8.53-5.25,11.04-5.25,11.04,0,0,7.78-6.75,14.02-6.75.4,0,.79.03,1.18.09,0,0-.95,24.74-2.99,31.57-.83,2.76-2.53,3.59-4.27,3.59-2.55,0-5.18-1.78-5.18-1.78,0,0,14.46,13.4,6.52,37.01-7.49,22.26,4.36,62.08,4.36,62.08,0,0,10.96-37.96,16.1-43.19,0,0,3.16,1.59,3.66,8.4,0,0,7.12-29.37,3.73-40.48,0,0,36.95-5.13,46.96-31.89,10.01-26.76-4.75-42.44-4.75-42.44ZM170.55,229.21c.81-2.62-2.11-6.47-2.11-6.47-2.29,8.88-19.42,18.48-19.42,18.48,0,0,.82-6.67-.98-17.77-1.79-11.1,3.04-17.76,3.04-17.76,0,0,9.57-2.57,17.95,6.42,8.38,9,1.51,17.1,1.51,17.1Z"/>
      <path class="cls-17" d="M195.28,203.27c-.12-.33-.24-.65-.36-.96-.35-.7-.66-1.43-.94-2.19-2.19-4.7-4.54-7.2-4.54-7.2,0,0-.92,2.7-3.32,2.7-.46,0-.97-.1-1.54-.33-3.57-1.46-13.21-13.54-28.54-15.25-15.33-1.71-12.51-12.49-12.51-12.49,0,0-4.92,3.15-5.22,9.44,0,0-4.41-4.63-2.27-20.83,0,0-5.62,6.14-10.1,17.03-3.45,10.77,13.02,12.33,14.15,19.79,0,0,1.46-8.76-1.3-12.01,0,0,8.94,7.63,15.1,8.76,6.16,1.14,18.98,5.19,25.3,12.98,6.33,7.79,10.38,20.55,10.38,20.55,0,0,7.64-13.33,5.7-20.01Z"/>
      <path class="cls-37" d="M167.7,256.13c-10.61,4.54-21.06,5.4-21.24,5.43-1.67.23-3.15,1.18-4.05,2.6-.91,1.42-1.14,3.16-.65,4.77,1.43,4.69.4,15.1-1.23,24.69-.22-.03-.45-.04-.67-.04-1.51,0-2.99.59-4.1,1.72-3.22,3.28-7.46,14.12-11.11,24.96-2.07-12.3-3.34-27.51.18-37.99,4.87-14.47,2.34-25.68-1.13-33.02,0,0,6.12,1.89,9.2,7.41,3.08,5.52,9.21-3.69,18.14-5.04s20.17-.84,25.2-4.03c0,0-2.44,5.93-8.54,8.54Z"/>
      <path class="cls-38" d="M230.67,235.06c-1.14,7.69-1.99,15.52-2.19,20.94-.32,8.24-1.52,20.22-2.56,29.52-1.38-1.02-2.42-1.57-2.71-1.73l-4.15-2.13-2.94,3.62c-1.39,1.71-2.73,4.3-3.95,7.21-.61-7.79-.23-16.26.12-24.15.41-9.27.77-17.27-.45-23.38-.75-3.76-1.13-7.73-1.29-11.53,0,0,6.95,2.11,12.41,11.38,0,0,1.25-5.48,7.72-9.73Z"/>
      <path class="cls-19" d="M303.71,170.07c-.12,0-.18,0-.18,0l2.43,7.18c-1.47-.14-2.9-.21-4.28-.21-23.52,0-34.65,19.35-34.65,19.35,0,0,1.42-5.66,6.12-9.78,0,0-9.58,3.1-18.01,19.26-5.97,11.44-4,24.95-4,24.95,0,0-2.56-5.06-1.97-13.51,0,0-7.77,20.74-1.69,47.77,6.08,27.03,21.63,32.7,21.63,32.7,0,0-1.92-2.27-1.75-3.57,0,0,10.49,9.78,32.62,9.78.48,0,.96,0,1.45-.01,23.12-.44,32.67-25.78,32.67-25.78,0,0-7.42,5.61-11.47,5.61-.19,0-.37-.01-.54-.04,0,0,11.17-16.08,11.14-26.98,0,0-14.98,19.03-32.56,19.03-2.63,0-5.31-.43-8.02-1.4-20.78-7.52-20.12-37.49-13.48-51.16,4.9-10.09,13.14-16.08,19.95-16.08,2.89,0,5.52,1.08,7.53,3.37,6.77,7.71,2.92,25.42,2.92,25.42,0,0,22.19-15.35,17.97-41.02-3.98-24.22-21.83-24.9-23.83-24.9h0Z"/>
      <path class="cls-18" d="M228.28,189.03c-.21,0-.41-.02-.61-.06-4.32-.96-5.91-5.41-10.44-5.41-.05,0-.11,0-.16,0-.03,0-.07,0-.1,0-4.59,0-7.58-7.31-7.58-7.31,0,0-2.02,2.94-2.36,9.09h.02c-.22,8.34,10.38,3.36,16.44,8.56,6.06,5.19,6.27,8.76,6.27,8.76,0,0,7.41-2.78,9.24-11.64,1.39-6.69-.06-11.37-.06-11.37,0,0-6.29,9.39-10.66,9.39Z"/>
      <path class="cls-21" d="M303.71,170.07c-.12,0-.18,0-.18,0l2.43,7.18c-1.47-.14-2.9-.21-4.28-.21-7.5,0-13.74,1.97-18.76,4.66-8.36,5.33-5.88,19.98-5.88,19.98,0,0,8-14.71,25.31-16.22,17.3-1.51,24.21,26.59,18.63,38.44,4.67-6.99,8.56-16.8,6.57-28.92-3.98-24.22-21.83-24.9-23.83-24.9Z"/>
      <path class="cls-35" d="M320.23,289.23h0c-4.44,4.68-10.69,8.87-18.92,9.02-.45,0-.9.01-1.34.01-19.28,0-28.36-7.94-28.7-8.24-1.08-1.05-2.48-1.59-3.92-1.59-.52,0-1.04.07-1.56.21-.52-.48-1.06-1.02-1.61-1.62-3.54-3.84-8.34-10.98-11.1-23.2-2.33-10.36-2.48-19.79-1.85-27.26,0,0,5.2,16.21,12.45,20.32,0,0-1.62-13.84,7.03-24.88,0,0-2.01,19.46,1.91,29.88,3.55,8.75,9.8,14.96,18.06,17.95,3.2,1.16,6.56,1.75,9.97,1.75,7.34,0,14.17-2.7,19.91-6.19,0,0-3.21,9.25-8.4,12.05,0,0,3.02,2.25,8.07,1.78Z"/>
      <path class="cls-36" d="M388.22,269.04c-.99,2.64-.74,2.11-2.49,7.24-.88,2.58-1.91,5.58-3.12,9.08-3.75,10.88-8.69,19.81-13.09,26.3-1.07-1.36-2.73-2.19-4.51-2.19-.15,0-.3,0-.45.02-2.58.2-4.7,2.1-5.19,4.64-.75,3.87-4.15,8.47-8.35,12.78,4.15-13.56,10.08-32.2,15.48-46.49,4.59-12.17,3.63-24.75-2.78-36.38-.18-.33-.36-.65-.55-.97,0,0,8.08,5.58,11.96,14.82,3.54,8.43,13.35-13.57,20.06-18.65,0,0-5.95,12.55-6.49,17.74s1.55,7.22-.47,12.07Z"/>
      <path class="cls-20" d="M354.4,199.76c3.33,12.41,15.49,11.92,16.39,23.28,0,0,4.22-9.17-2.51-18.9-6.73-9.73-6.24-11.54-11.08-15.19-.01,0-.03-.02-.04-.03-16.19-11.31-24.66-26.12-24.66-26.12,0,0-.19,7.8,1.09,17.11,1.08,6.13,17.49,7.46,20.82,19.85Z"/>
      <path class="cls-23" d="M417.47,152.47s-2.66,26.78-13.53,33.6c0,0-4.71-5.84-2.6-11.19,0,0-3.53,6.6-7.75,16.09-2.71,6.33-.99,6.72-.91,15.38.08,8.68-4.22,16.06-4.22,16.06,0,0,21.64,2.21,30.79-17.37.09-.21.18-.41.27-.62.14-.32.28-.65.42-.98,7.18-17.03,8.89-33.14-2.48-50.97Z"/>
      <path class="cls-1" d="M372.57,34.85c.07-.82.1-1.57.11-2.29-3.56-1.63-6.98-2.48-8.83-2.86-.09.3-.17.61-.25.92-1.99,8.69-6.16,28.05-11.1,30.49-5.25,2.58-8.55-4.42-34.75-.05,0,0,12.74.89,15.25,8.36,2.51,7.46,2.19,13.55,11.87,14.41,9.59.85,18.39,1.82,21.12,15.42,0,0,.82-13.26-1.98-20.91s-5.95-10.73-5.19-14.99,12.54-13.56,13.75-28.5Z"/>
      <path class="cls-12" d="M352.86,70.72c-1.04,2.94-2.67,9.86-3.51,13.57,7.75,1.01,14.35,3.51,16.64,14.96,0,0,.82-13.26-1.98-20.91s-5.95-10.73-5.19-14.99,12.54-13.56,13.75-28.5c.07-.82.1-1.57.11-2.29-.99-.45-1.97-.84-2.91-1.18-.13,3.37-1.11,12.65-7.5,21.55-8,11.14-7.95,13.68-9.41,17.79Z"/>
      <path class="cls-15" d="M352.07,92.77c-1.75-.94-3.33-1.51-4.81-1.84-1.02,4.9-3.72,14.67-10.47,25.57-9.65,15.58-51.72,48.32-84.17,51.24-32.45,2.92-76.79-11.89-86.91-18.85-8.59-5.91-17.82-18.42-20.66-22.3-.1.45-.05.93.19,1.38,2.79,5.09,9.74,16.52,19.1,23.06,21.2,14.82,93.39,35.71,137.37,8.27s58.42-51.32,58.42-51.32c0,0,1.62-9.97-8.06-15.21Z"/>
      <path class="cls-3" d="M522.53,329.98c-.24-.1-22.65-9.32-45.13-36.3-20.52-24.64-44.15-69.06-40.97-141.17l86.1-29.78v207.26Z"/>
      <g>
        <g>
          <path class="cls-6" d="M763.03,148.77c-17.27,8.56-36.84,10.13-55.33,4.4-19.09-5.92-34.73-18.91-44.05-36.6-9.32-17.68-11.19-37.93-5.27-57.03,5.92-19.09,18.91-34.73,36.6-44.05,17.68-9.31,37.93-11.19,57.03-5.27,19.09,5.92,34.73,18.91,44.05,36.6,9.32,17.68,11.19,37.93,5.27,57.02-5.92,19.09-18.91,34.73-36.6,44.05-.56.3-1.13.59-1.7.87Z"/>
          <path class="cls-11" d="M729.77,6.85c7.44,0,14.93,1.12,22.24,3.39,19.09,5.92,34.73,18.91,44.05,36.6,9.32,17.68,11.19,37.93,5.27,57.02-5.92,19.09-18.91,34.73-36.6,44.05-.56.3-1.13.59-1.7.87-10.44,5.17-21.72,7.79-33.08,7.79-7.45,0-14.93-1.12-22.24-3.39-19.09-5.92-34.73-18.91-44.05-36.6-9.32-17.68-11.19-37.93-5.27-57.03,5.92-19.09,18.91-34.73,36.6-44.05,10.91-5.75,22.8-8.66,34.79-8.66M729.77,0v6.85V0h0c-13.11,0-26.24,3.27-37.98,9.45-19.3,10.17-33.49,27.24-39.94,48.08-6.46,20.84-4.41,42.94,5.75,62.24,10.17,19.3,27.24,33.49,48.08,39.94,7.92,2.45,16.08,3.7,24.27,3.7,12.58,0,24.73-2.86,36.12-8.51.62-.31,1.23-.62,1.85-.94,19.3-10.17,33.49-27.24,39.95-48.08,6.46-20.84,4.41-42.94-5.75-62.24-10.17-19.3-27.24-33.49-48.08-39.94-7.91-2.45-16.08-3.7-24.26-3.7h0Z"/>
        </g>
        <g>
          <rect class="cls-6" x="796.94" y="113.59" width="19.32" height="121.54" rx="7.48" ry="7.48" transform="translate(72.56 551.43) rotate(-39.39)"/>
          <path class="cls-11" d="M774.46,124.31c2.16,0,4.31.93,5.79,2.73l67.63,82.37c2.62,3.19,2.16,7.91-1.03,10.53l-3.37,2.76c-1.39,1.14-3.07,1.7-4.74,1.7-2.16,0-4.31-.93-5.79-2.73l-67.63-82.37c-2.62-3.19-2.16-7.91,1.03-10.53l3.37-2.76c1.39-1.14,3.07-1.7,4.74-1.7M774.46,117.46h0c-3.3,0-6.53,1.16-9.09,3.25l-3.37,2.76c-2.96,2.43-4.79,5.86-5.17,9.67-.37,3.81.76,7.53,3.19,10.49l67.63,82.37c2.73,3.33,6.77,5.24,11.08,5.24,3.3,0,6.53-1.16,9.09-3.25l3.37-2.76c6.11-5.01,6.99-14.06,1.98-20.17l-67.63-82.37c-2.73-3.33-6.77-5.24-11.08-5.24h0Z"/>
        </g>
        <g>
          <rect class="cls-3" x="796.94" y="113.59" width="19.32" height="121.54" rx="7.48" ry="7.48" transform="translate(72.56 551.43) rotate(-39.39)"/>
          <g class="cls-9">
            <path class="cls-11" d="M776.99,129.71l67.63,82.37c2.62,3.19,2.16,7.91-1.03,10.53l-.51.42c-.72.59-1.52,1.03-2.36,1.31,1.51-2.61,1.33-6-.7-8.47l-35.29-36.97c-1.46-1.78-1.65-1.82-3.78-.95-1.97.8-2.63-1.57-4.65-1l-30.97-37.65c-2.03-2.47-2.61-5.53-1.11-8.14.1-.19.22-.37.34-.55,0-.01.02-.02.03-.03.05-.07.1-.14.15-.21.12-.17.26-.33.4-.48.06-.06.11-.13.18-.19.04-.05.09-.1.14-.14.08-.08.17-.16.25-.24.09-.08.17-.15.26-.23l.51-.42c3.19-2.62,7.91-2.16,10.53,1.03Z"/>
          </g>
          <path class="cls-24" d="M798.02,45.79c9.07,17.23,10.98,36.32,6.76,53.87-1.35,5.65-3.35,11.14-5.94,16.35-6.94,14-18.2,26.02-33.08,33.86-5.37,2.83-10.92,4.96-16.54,6.42-19.71,5.14-40.38,2.13-57.57-7.67-10.27-5.85-19.3-14.12-26.13-24.52-1.36-2.08-2.64-4.24-3.83-6.49-6.86-13.02-9.62-27.1-8.74-40.77h0c1.66-25.89,16.36-50.33,40.99-63.3,10.52-5.54,21.74-8.41,32.88-8.84,27.37-1.06,54.26,12.59,69.09,37.36.34.56.67,1.14,1,1.72h0c.29.51.57,1.01.84,1.52.09.16.18.33.27.5Z"/>
          <path class="cls-7" d="M801.98,62.24c-16.92-29.33-63.89-31.75-56.64,3.06l-2.53-6.31c-27.8-15.43-3.97-45.14,36.42-36.47,0,0,18.44,10.48,22.75,39.71Z"/>
          <path class="cls-7" d="M756.61,127.8c16.17-13.64,10.36-39.33,10.36-39.33,0,0,4.71-10.75,3.25-22.09,0,0,17.74,14.55,18.59,35.96-7.9,12.56-18.58,21.12-32.2,25.47Z"/>
          <path class="cls-7" d="M798.84,116.01c-6.94,14-18.2,26.02-33.08,33.86-5.37,2.83-10.92,4.96-16.54,6.42-.22-.03-.41-.07-.58-.09-.47.22-.96.42-1.45.6-11.2,2.37-23.19,2.02-35.74-.27.58.03,23.26.86,41.5-14.44l10.87-3.34,30.28-21.99,4.73-.74Z"/>
          <path class="cls-7" d="M705.56,120.53c10.03,2.34,19.89-.08,29.44-11.18l10.97-1.74s-4.88,16.32-22.07,21.88c0,0-9.5-3.67-18.34-8.96Z"/>
          <path class="cls-7" d="M698.29,56.03s-2.75,11.09,5.65,25.64c0,0,1.71,11.87,9.3,18.33-10.48,1.6-19.68-1.56-24.82-19.87,0,0,1.04-15.57,9.86-24.11Z"/>
          <path class="cls-7" d="M712.05,138.12c-15.09,2.07-35.9-2.15-46.53-14.02-1.36-2.08-2.64-4.24-3.83-6.49-6.86-13.02-9.62-27.1-8.74-40.77h0s6.05,26.5,33.02,41.51c0,0,12.44,17.96,26.08,19.76Z"/>
          <path class="cls-7" d="M798.02,45.79c9.07,17.23,10.98,36.32,6.76,53.87-1.51,3.28-3.24,6.46-5.19,9.52-6.51,10.25-15.51,19.07-26.26,25.07-5.32,3.01-10.98,5.29-16.86,6.96-2.95.78-5.93,1.48-8.97,1.9l-1.13.17-1.15.13c-.76.08-1.52.17-2.29.24-1.53.09-3.06.22-4.6.22-1.54.06-3.07-.02-4.62-.06-.77-.04-1.53-.11-2.3-.16l-1.15-.09-1.15-.14c-3.07-.34-6.11-.95-9.11-1.74-6-1.58-11.79-4.08-17.08-7.39-2.65-1.64-5.14-3.55-7.51-5.57-2.36-2.06-4.54-4.3-6.56-6.66-.5-.59-.98-1.22-1.46-1.82l-.73-.92-.67-.95-1.35-1.9-1.24-1.96-.62-.98-.57-1.01-1.13-2.02-1.05-2.12c-.35-.7-.64-1.44-.96-2.16-1.22-2.9-2.21-5.91-2.94-8.98-.72-3.08-1.16-6.22-1.35-9.37-.18-3.15-.1-6.31.24-9.45.35-3.14.99-6.24,1.85-9.27,3.45-12.13,11.21-23.02,21.61-30.2l.97-.68.99-.64c.67-.41,1.33-.86,2.02-1.23.69-.38,1.37-.77,2.07-1.15.73-.35,1.45-.73,2.18-1.07,2.95-1.35,6.05-2.38,9.22-3.08,6.34-1.39,12.98-1.42,19.33-.06,6.34,1.35,12.39,4.06,17.63,7.9,5.24,3.84,9.63,8.84,12.79,14.49l.59,1.07.56,1.12c.39.74.69,1.52,1.03,2.29.61,1.56,1.17,3.15,1.58,4.78.86,3.25,1.23,6.63,1.21,9.98-.1,6.73-2.01,13.39-5.48,19.14-3.47,5.75-8.53,10.56-14.43,13.73-3.05,1.61-6.41,2.81-9.86,3.39-3.46.62-7.01.56-10.45-.02-3.45-.58-6.79-1.74-9.88-3.39-3.08-1.66-5.86-3.88-8.22-6.46-.58-.65-1.19-1.29-1.69-2.01l-.78-1.05c-.25-.36-.53-.7-.74-1.08l-1.34-2.26c-.42-.79-.79-1.64-1.17-2.47-1.41-3.4-2.09-7.11-1.97-10.79.22-7.35,3.51-14.52,9.01-19.54,1.38-1.25,2.88-2.36,4.49-3.29.21-.12.39-.24.61-.35l.67-.33,1.34-.63c.46-.18.93-.35,1.4-.51l.71-.24c.24-.07.48-.12.72-.19.48-.12.97-.23,1.46-.33.49-.09.98-.14,1.48-.2.49-.06.99-.11,1.48-.11.49-.01.99-.02,1.49-.02.49.02.99.07,1.48.12l.74.07c.24.03.48.09.73.13l1.45.3c.47.12.94.27,1.41.42l.7.23.68.27c.45.19.9.38,1.34.58l1.28.7.63.36.6.41c.4.27.8.54,1.19.82.37.31.74.62,1.1.94.18.16.36.31.54.48l.5.51c.34.35.66.69.98,1.04.3.37.59.75.88,1.12l.43.57.37.6.74,1.2c.22.41.42.84.62,1.26.41.8.74,1.77,1.03,2.69.12.47.24.94.34,1.41.1.48.15.96.21,1.43.22,1.91.09,3.83-.33,5.64-.44,1.81-1.18,3.49-2.16,4.98-1.92,3.01-4.92,5.11-8.02,5.93-.87.23-1.77-.29-2-1.16-.15-.59.03-1.19.44-1.59l.07-.07c3.69-3.6,4.25-8.49,2.7-11.73-.11-.2-.19-.41-.3-.6-.13-.19-.23-.38-.35-.57-.27-.36-.47-.69-.82-1.06-.16-.18-.31-.37-.46-.54l-.51-.49-.25-.25-.28-.21c-.18-.14-.36-.28-.53-.43-.76-.5-1.51-.98-2.33-1.28l-.3-.13-.31-.1c-.21-.06-.41-.13-.61-.19-.22-.04-.42-.08-.63-.14l-.31-.07-.32-.04c-.21-.02-.42-.06-.62-.1-.21,0-.42-.02-.62-.04-.21-.03-.41-.02-.62-.01-.21,0-.41,0-.62,0-.4.07-.81.03-1.21.14l-.6.09c-.19.06-.38.11-.58.15-.1.02-.2.04-.29.07l-.28.1c-.19.07-.39.13-.58.18-.18.09-.37.17-.56.25l-.29.12c-.09.04-.2.11-.3.16-.83.44-1.63.92-2.37,1.51-1.47,1.16-2.72,2.64-3.55,4.36-.85,1.71-1.3,3.62-1.36,5.53-.06,1.91.28,3.82,1.02,5.58.22.43.4.87.62,1.31.27.45.54.9.8,1.35.12.24.3.43.45.64l.46.63c.28.44.66.8,1,1.19,1.41,1.53,3.05,2.86,4.88,3.85,1.85.98,3.85,1.66,5.91,2.01,2.05.34,4.17.4,6.22.02,2.06-.36,4.01-1.05,5.91-2.03,3.94-2.12,7.26-5.28,9.57-9.1,2.3-3.82,3.57-8.26,3.64-12.72.01-2.22-.22-4.45-.8-6.6-.26-1.08-.65-2.13-1.05-3.17-.23-.51-.42-1.04-.69-1.53l-.37-.76-.43-.77c-2.3-4.09-5.44-7.68-9.22-10.45-3.78-2.77-8.15-4.72-12.73-5.7-4.59-.98-9.37-.95-13.93.04-2.28.5-4.51,1.25-6.65,2.23-.53.24-1.05.52-1.58.77l-1.6.88c-.54.29-1.04.64-1.56.95l-.77.49-.75.52c-8,5.53-13.97,13.9-16.64,23.27-.67,2.34-1.17,4.73-1.43,7.15-.27,2.42-.33,4.86-.18,7.28.14,2.43.47,4.84,1.03,7.21.56,2.36,1.32,4.68,2.27,6.92.25.56.46,1.13.74,1.67l.81,1.64.92,1.63.46.82.5.79,1,1.58,1.08,1.52.54.76.58.72c.39.48.76.98,1.16,1.45,1.61,1.88,3.34,3.64,5.19,5.27,1.88,1.59,3.83,3.1,5.93,4.4,8.35,5.26,18.36,7.83,28.41,7.64,10.04-.17,20.13-3.02,28.99-7.99,8.78-4.9,16.25-12.17,21.71-20.77,5.49-8.6,8.97-18.51,10.24-28.69,1.27-10.18.35-20.63-2.75-30.43-.12-.39-.25-.78-.38-1.16.73,1.22,1.44,2.47,2.11,3.74Z"/>
          <path class="cls-7" d="M694.75,15.07c-15.32,15.83-20.36,34.06-17.89,54.05,0,0,5.37-21.75,27.67-33.89,0,0,7.21-27.74,43.91-28.83-18.87-3.08-37.25-3.16-53.69,8.67Z"/>
          <g class="cls-8">
            <path class="cls-3" d="M668.85,118.55c11.53,21.89,32.11,35.94,54.72,39.96-25.36-2.1-49.15-16.71-61.88-40.89-19.83-37.65-5.39-84.24,32.26-104.08,15.78-8.31,33.11-10.6,49.4-7.7-14.14-1.18-28.76,1.53-42.24,8.63-37.65,19.83-52.09,66.43-32.26,104.08Z"/>
          </g>
          <path class="cls-11" d="M765,152.76c-18.3,9.07-39.03,10.73-58.62,4.66-20.22-6.27-36.8-20.04-46.67-38.77-9.87-18.73-11.85-40.19-5.58-60.41,6.27-20.22,20.04-36.8,38.77-46.67,18.73-9.87,40.19-11.85,60.41-5.58,20.22,6.27,36.8,20.04,46.67,38.77,9.87,18.73,11.85,40.19,5.58,60.41-6.27,20.22-20.04,36.8-38.77,46.67-.6.31-1.2.62-1.8.92ZM696.68,14.64c-.57.28-1.13.57-1.7.87-17.68,9.32-30.68,24.96-36.6,44.05-5.92,19.09-4.04,39.34,5.27,57.02,9.32,17.68,24.96,30.68,44.05,36.6,19.09,5.92,39.35,4.04,57.02-5.27,17.68-9.32,30.68-24.96,36.6-44.05,5.92-19.09,4.04-39.34-5.27-57.02h0c-9.32-17.68-24.96-30.68-44.05-36.6-18.48-5.73-38.05-4.16-55.33,4.4Z"/>
          <g class="cls-8">
            <path class="cls-3" d="M737.72,70.06l.37.35c-.06-.01-.12-.03-.18-.05l-.31-.07-.32-.04c-.21-.02-.42-.06-.62-.1-.21,0-.42-.02-.62-.04-.21-.03-.41-.02-.62-.01-.21,0-.41,0-.62,0-.4.07-.81.03-1.21.14l-.6.09c-.19.06-.38.11-.58.15-.1.02-.2.04-.29.07l-.28.1c-.19.07-.39.13-.58.18-.18.09-.37.17-.56.25l-.29.12c-.09.04-.2.11-.3.16-.83.44-1.63.92-2.37,1.51-1.47,1.16-2.72,2.64-3.55,4.36-.85,1.71-1.3,3.62-1.36,5.53-.06,1.91.28,3.82,1.02,5.58.22.43.4.87.62,1.31.27.45.54.9.8,1.35.12.24.3.43.45.64l.46.63c.28.44.66.8,1,1.19.65.71,1.35,1.37,2.1,1.98-.91-.31-1.79-.7-2.64-1.15-1.84-1-3.48-2.32-4.88-3.85-.35-.39-.72-.75-1-1.19l-.46-.63c-.15-.21-.33-.4-.45-.64-.26-.46-.53-.9-.8-1.35-.23-.44-.4-.88-.62-1.31-.74-1.77-1.08-3.68-1.02-5.58.06-1.91.51-3.82,1.36-5.53.84-1.71,2.09-3.2,3.55-4.36.73-.59,1.54-1.07,2.37-1.51.1-.05.2-.13.3-.16l.29-.12c.19-.08.38-.16.56-.25.19-.06.39-.11.58-.18l.28-.1c.1-.03.2-.05.29-.07.2-.04.39-.1.58-.15l.6-.09c.4-.11.8-.07,1.21-.14.21,0,.41,0,.62,0,.2,0,.41-.02.62.01.2.02.42.03.62.04.21.03.41.07.62.1l.32.04.31.07c.21.06.41.1.63.14.2.07.41.13.61.19l.31.1.3.13c.82.3,1.57.78,2.33,1.28.17.15.34.29.53.43l.28.21.25.25Z"/>
          </g>
          <g class="cls-8">
            <path class="cls-3" d="M693.28,106.16l-.92-1.63-.81-1.64c-.28-.54-.49-1.11-.74-1.67-.95-2.24-1.71-4.56-2.27-6.92-.56-2.37-.89-4.78-1.03-7.21-.14-2.43-.08-4.86.18-7.28.27-2.42.76-4.81,1.43-7.15,2.67-9.37,8.64-17.74,16.64-23.27l.75-.52.77-.49c.52-.31,1.02-.66,1.56-.95l1.6-.88c.53-.26,1.05-.53,1.58-.77,2.13-.98,4.36-1.72,6.65-2.23,4.56-1,9.35-1.02,13.93-.04,4.27.92,8.36,2.68,11.95,5.15-2.1-.92-4.29-1.64-6.53-2.12-4.59-.98-9.37-.95-13.93.04-2.28.5-4.51,1.25-6.65,2.23-.53.24-1.05.52-1.58.77l-1.6.88c-.54.29-1.04.64-1.56.95l-.77.49-.75.52c-8,5.53-13.97,13.9-16.64,23.27-.67,2.34-1.17,4.73-1.43,7.15-.27,2.42-.33,4.86-.18,7.28.14,2.43.47,4.84,1.03,7.21.56,2.36,1.32,4.68,2.27,6.92.25.56.46,1.13.74,1.67l.81,1.64.92,1.63.46.82.5.79,1,1.58,1.08,1.52.54.76.58.72c.39.48.76.98,1.16,1.45,1.61,1.88,3.34,3.64,5.19,5.27,1.71,1.45,3.49,2.83,5.37,4.04-1.67-.8-3.3-1.69-4.86-2.67-2.1-1.3-4.05-2.8-5.93-4.4-1.85-1.63-3.58-3.39-5.19-5.27-.4-.47-.77-.97-1.16-1.45l-.58-.72-.54-.76-1.08-1.52-1-1.58-.5-.79-.46-.82Z"/>
          </g>
          <g class="cls-8">
            <path class="cls-3" d="M766.85,55.6l-.56-1.12-.59-1.07c-3.16-5.65-7.55-10.65-12.79-14.49-.67-.5-1.36-.97-2.07-1.43,2.63,1.25,5.14,2.74,7.49,4.46,5.24,3.84,9.63,8.84,12.79,14.49l.59,1.07.56,1.12c.39.74.69,1.52,1.03,2.29.61,1.56,1.17,3.15,1.58,4.78.86,3.25,1.23,6.63,1.21,9.98-.1,6.73-2.01,13.39-5.48,19.14-3.47,5.75-8.53,10.56-14.43,13.73-3.05,1.61-6.41,2.81-9.86,3.39-3.46.62-7.01.56-10.45-.02-3.45-.58-6.79-1.74-9.88-3.39-1.03-.56-2.03-1.17-2.98-1.85,2.38,1.03,4.88,1.77,7.44,2.21,3.44.58,7,.64,10.45.02,3.45-.59,6.81-1.78,9.86-3.39,5.9-3.17,10.97-7.98,14.43-13.73,3.47-5.76,5.38-12.42,5.48-19.14.02-3.35-.35-6.73-1.21-9.98-.41-1.63-.97-3.22-1.58-4.78-.34-.77-.65-1.55-1.03-2.29Z"/>
          </g>
          <g class="cls-8">
            <path class="cls-3" d="M740.16,73.31c-.11-.2-.19-.41-.3-.6-.13-.19-.23-.38-.35-.57-.27-.36-.47-.69-.82-1.06-.16-.18-.31-.37-.46-.54l-.51-.49-.25-.25-.28-.21c-.18-.14-.36-.28-.53-.43-.49-.32-.97-.63-1.48-.89.16.02.33.02.5.03.21.03.41.07.62.1l.32.04.31.07c.21.06.41.1.63.14.2.07.41.13.61.19l.31.1.3.13c.82.3,1.57.78,2.33,1.28.17.15.34.29.53.43l.28.21.25.25.51.49c.16.17.3.36.46.54.35.37.56.7.82,1.06.11.19.22.38.35.57.11.19.19.4.3.6,1.55,3.24.99,8.13-2.7,11.73l-.07.07c-.18.17-.31.37-.39.6-.81.41-1.66.73-2.5.96-.87.23-1.77-.29-2-1.16-.15-.59.03-1.19.44-1.59l.07-.07c3.69-3.6,4.25-8.49,2.7-11.73Z"/>
          </g>
          <g class="cls-8">
            <path class="cls-3" d="M711.07,91.37c.38.83.76,1.68,1.17,2.47l1.34,2.26c.21.38.49.73.74,1.08l.78,1.05c.5.72,1.1,1.36,1.69,2.01,2.37,2.58,5.14,4.8,8.22,6.46,1.53.82,3.11,1.51,4.74,2.07-3.21-.61-6.31-1.72-9.19-3.26-3.08-1.66-5.86-3.88-8.22-6.46-.58-.65-1.19-1.29-1.69-2.01l-.78-1.05c-.25-.36-.53-.7-.74-1.08l-1.34-2.26c-.42-.79-.79-1.64-1.17-2.47-1.41-3.4-2.09-7.11-1.97-10.79.22-7.35,3.51-14.52,9.01-19.54,1.38-1.25,2.88-2.36,4.49-3.29.21-.12.39-.24.61-.35l.67-.33,1.34-.63c.46-.18.93-.35,1.4-.51l.71-.24c.24-.07.48-.12.72-.19.48-.12.97-.23,1.46-.33.49-.09.98-.14,1.48-.2.49-.06.99-.11,1.48-.11.49-.01.99-.02,1.49-.02.49.02.99.07,1.48.12l.74.07c.24.03.48.09.73.13l1.45.3c.47.12.94.27,1.41.42l.7.23.37.15c-.07-.02-.13-.03-.2-.04l-.74-.07c-.49-.04-.98-.09-1.48-.12-.49,0-.99,0-1.49.02-.5,0-.99.05-1.48.11-.49.06-.99.11-1.48.2-.49.1-.97.21-1.46.33-.24.06-.48.11-.72.19l-.71.24c-.47.16-.94.33-1.4.51l-1.34.63-.67.33c-.22.11-.4.23-.61.35-1.61.93-3.11,2.04-4.49,3.29-5.5,5.02-8.8,12.19-9.01,19.54-.12,3.68.56,7.39,1.97,10.79Z"/>
          </g>
          <g class="cls-8">
            <path class="cls-3" d="M707.36,135.46c4.6,2.89,9.58,5.15,14.74,6.73-.71-.16-1.41-.34-2.11-.52-6-1.58-11.79-4.08-17.08-7.39-2.65-1.64-5.14-3.55-7.51-5.57-2.36-2.06-4.54-4.3-6.56-6.66-.5-.59-.98-1.22-1.46-1.82l-.73-.92-.67-.95-1.35-1.9-1.24-1.96-.62-.98-.57-1.01-1.13-2.02-1.05-2.12c-.35-.7-.64-1.44-.96-2.16-1.22-2.9-2.21-5.91-2.94-8.98-.72-3.08-1.16-6.22-1.35-9.37-.18-3.15-.1-6.31.24-9.45.35-3.14.99-6.24,1.85-9.27,3.45-12.13,11.21-23.02,21.61-30.2l.97-.68.99-.64c.67-.41,1.33-.86,2.02-1.23.69-.38,1.37-.77,2.07-1.15.73-.35,1.45-.73,2.18-1.07,2.95-1.35,6.05-2.38,9.22-3.08,6.34-1.39,12.98-1.42,19.33-.06,1.5.32,2.99.71,4.45,1.19-6.35-1.36-12.99-1.33-19.33.06-3.18.7-6.27,1.73-9.22,3.08-.73.34-1.45.71-2.18,1.07-.7.38-1.38.77-2.07,1.15-.69.37-1.34.82-2.02,1.23l-.99.64-.97.68c-10.4,7.18-18.15,18.07-21.61,30.2-.87,3.03-1.5,6.13-1.85,9.27-.34,3.13-.43,6.3-.24,9.45.19,3.15.62,6.29,1.35,9.37.73,3.07,1.72,6.08,2.94,8.98.32.72.61,1.46.96,2.16l1.05,2.12,1.13,2.02.57,1.01.62.98,1.24,1.96,1.35,1.9.67.95.73.92c.48.6.96,1.23,1.46,1.82,2.02,2.36,4.21,4.6,6.56,6.66,2.38,2.02,4.86,3.93,7.51,5.57Z"/>
          </g>
          <g class="cls-8">
            <path class="cls-3" d="M749.79,50.4c3.78,2.77,6.93,6.35,9.22,10.45l.43.77.37.76c.26.49.45,1.02.69,1.53.4,1.04.78,2.09,1.05,3.17.58,2.15.81,4.38.8,6.6-.06,4.46-1.34,8.9-3.64,12.72-2.31,3.82-5.63,6.98-9.57,9.1-1.89.99-3.85,1.67-5.91,2.03-2.05.39-4.17.33-6.22-.02-1.35-.23-2.68-.6-3.95-1.11,1.89.28,3.84.3,5.73-.06,2.06-.36,4.01-1.05,5.91-2.03,3.94-2.12,7.26-5.28,9.57-9.1,2.3-3.82,3.57-8.26,3.64-12.72.01-2.22-.22-4.45-.8-6.6-.26-1.08-.65-2.13-1.05-3.17-.23-.51-.42-1.04-.69-1.53l-.37-.76-.43-.77c-2.3-4.09-5.44-7.68-9.22-10.45-2.72-2-5.76-3.56-8.95-4.66.22.05.45.09.67.14,4.59.99,8.96,2.94,12.73,5.7Z"/>
          </g>
          <path class="cls-11" d="M770.6,137.46c-4.26,2.11-8.85,3.87-13.71,5.25-2.49.66-5.77,1.47-9.18,1.94l-1.11.17s-.04,0-.06,0l-1.15.13c-.28.03-.55.06-.82.09-.5.06-1,.11-1.5.15-.39.02-.74.05-1.08.07-1.18.08-2.4.16-3.63.16-1.32.05-2.64,0-3.92-.04l-.77-.02c-.54-.03-1.06-.07-1.57-.11-.26-.02-.53-.04-.79-.06l-1.17-.09s-.04,0-.07,0l-1.15-.14c-2.95-.32-6-.91-9.32-1.78-6.2-1.64-12.09-4.19-17.51-7.58-2.43-1.51-4.95-3.37-7.7-5.71-2.35-2.05-4.61-4.35-6.74-6.84-.36-.43-.7-.86-1.04-1.29-.15-.19-.3-.38-.45-.57l-.73-.92s-.03-.04-.05-.07l-2.03-2.85s-.03-.05-.05-.07l-1.86-2.95s-.03-.04-.04-.07l-1.7-3.04s-.03-.05-.04-.07l-1.05-2.12c-.25-.5-.47-1.01-.68-1.51-.1-.24-.2-.47-.3-.7-1.28-3.03-2.29-6.14-3.04-9.26-.72-3.07-1.19-6.31-1.39-9.64-.19-3.23-.1-6.49.25-9.71.35-3.15.99-6.35,1.91-9.53,3.54-12.43,11.64-23.75,22.22-31.05l.97-.67s.03-.02.05-.03l.99-.64c.26-.16.48-.3.7-.44.45-.29.92-.58,1.42-.85.24-.13.49-.28.75-.42.44-.25.88-.49,1.32-.73.02,0,.04-.02.05-.03.26-.13.52-.25.77-.38.48-.24.95-.47,1.44-.7,3.06-1.4,6.27-2.47,9.54-3.19,6.55-1.44,13.46-1.46,19.99-.06,6.54,1.4,12.85,4.22,18.23,8.16,5.37,3.93,9.94,9.12,13.23,14.99l.59,1.07s.02.04.03.06l.56,1.12c.29.56.54,1.14.78,1.7.09.22.19.44.28.66,0,.02.02.04.03.06.76,1.95,1.27,3.48,1.64,4.97.86,3.24,1.28,6.73,1.26,10.37-.1,7.03-2.08,13.92-5.7,19.94-3.63,6.03-8.83,10.97-15.03,14.3-3.33,1.76-6.81,2.96-10.34,3.56-3.48.62-7.18.62-10.97-.02-3.62-.61-7.1-1.81-10.36-3.55-3.18-1.72-6.08-4-8.64-6.79l-.25-.28c-.53-.59-1.08-1.19-1.57-1.89l-.76-1.02c-.08-.11-.14-.2-.21-.29-.2-.27-.43-.59-.63-.95l-1.32-2.23s-.03-.04-.04-.07c-.34-.65-.65-1.32-.94-1.97l-.26-.57s-.02-.04-.03-.06c-1.49-3.59-2.21-7.55-2.09-11.44.23-7.81,3.7-15.34,9.52-20.65,1.48-1.35,3.08-2.52,4.76-3.49.09-.05.15-.09.22-.13.15-.09.31-.18.48-.27l.68-.33,1.36-.64s.07-.03.1-.04c.48-.19.97-.36,1.46-.53l.71-.24c.23-.07.42-.12.62-.17l.21-.05c.51-.13,1.01-.24,1.52-.35.02,0,.03,0,.05,0,.47-.08.93-.14,1.38-.19l.19-.02c.44-.06,1.03-.12,1.65-.12.51-.01,1.02-.02,1.52-.02.02,0,.03,0,.05,0,.38.02.76.05,1.14.08l1.16.11s.04,0,.06,0c.18.02.35.06.53.09.08.02.17.03.25.05.02,0,.04,0,.05.01l1.45.3s.05.01.08.02c.51.13,1.02.29,1.49.44l.71.23s.06.02.1.04l.68.27c.49.21.95.4,1.41.61.03.02.07.03.1.05l1.94,1.07s.07.04.1.06l.91.61c.31.21.62.42.92.64.03.02.06.04.08.06.39.32.76.64,1.14.97l.05.05c.18.15.35.3.53.47.02.01.03.03.05.05l.5.51c.35.36.69.72,1.02,1.08.02.02.04.05.06.07.31.38.61.77.91,1.16l.43.57s.05.07.08.11l1.12,1.81s.04.06.05.09c.24.45.46.91.65,1.32.44.87.79,1.9,1.11,2.87,0,.03.02.05.02.08.11.41.25.94.36,1.49.09.39.13.77.18,1.13.02.14.03.27.05.41.24,2.08.12,4.15-.35,6.21-.48,1.97-1.27,3.81-2.37,5.49-2.06,3.22-5.32,5.63-8.93,6.59-1.71.45-3.46-.57-3.91-2.27-.29-1.12.04-2.31.86-3.11l.05-.05c3.35-3.27,3.6-7.42,2.42-9.92-.06-.11-.11-.23-.17-.34-.02-.05-.04-.1-.07-.14-.11-.16-.2-.32-.3-.49l-.03-.04c-.06-.08-.11-.15-.16-.23-.17-.24-.3-.42-.48-.61-.13-.14-.23-.26-.33-.38-.04-.05-.09-.11-.13-.16l-.65-.63-.19-.14c-.19-.14-.37-.29-.55-.44-.71-.46-1.31-.83-1.92-1.06-.03-.01-.06-.02-.09-.04l-.22-.1-.24-.08c-.16-.05-.34-.1-.53-.17-.21-.04-.41-.09-.62-.14l-.2-.05-.23-.03c-.16-.02-.33-.05-.51-.08h-.08c-.2-.02-.4-.03-.6-.05-.02,0-.04,0-.06,0-.08,0-.21,0-.34,0,0,0-.04,0-.05,0-.11,0-.22,0-.33,0-.06,0-.12,0-.18,0-.21.03-.41.04-.57.05-.15,0-.3.02-.37.04-.06.02-.12.03-.18.04l-.5.08c-.2.06-.39.11-.6.15l-.08.02s-.05,0-.07.01l-.21.08c-.18.07-.37.13-.57.18-.15.07-.3.13-.46.2-.01,0-.05.02-.07.03l-.23.09h-.02c-.06.05-.12.09-.18.12-.88.46-1.55.89-2.12,1.34-1.34,1.05-2.42,2.37-3.13,3.82-.73,1.48-1.15,3.16-1.2,4.89-.05,1.67.25,3.36.88,4.88.11.21.21.43.31.65.08.18.17.37.26.56.27.44.53.88.79,1.33.02.03.03.05.04.08.02.03.09.12.14.19.06.08.12.16.18.24l.46.62s.03.05.05.07c.14.22.36.45.58.7.09.1.19.2.28.3,1.33,1.45,2.84,2.64,4.46,3.52,1.69.9,3.52,1.52,5.42,1.85,2.03.34,3.94.35,5.67.02,1.89-.33,3.67-.95,5.47-1.89,3.68-1.98,6.78-4.93,8.96-8.52,2.17-3.6,3.35-7.73,3.41-11.93.01-2.21-.24-4.29-.75-6.17-.24-.97-.56-1.88-.98-2.97-.08-.18-.16-.37-.24-.55-.13-.3-.25-.59-.38-.84,0-.02-.02-.03-.02-.05l-.36-.72-.41-.74c-2.19-3.9-5.23-7.34-8.78-9.95-3.57-2.62-7.77-4.5-12.14-5.44-4.33-.92-8.92-.91-13.27.04-2.17.48-4.3,1.19-6.33,2.12-.3.14-.6.29-.9.44-.2.1-.4.2-.61.3l-1.56.86c-.33.17-.62.36-.94.57-.19.12-.37.24-.56.35l-.72.45-.72.5c-7.74,5.35-13.43,13.31-16.03,22.42-.67,2.32-1.13,4.64-1.38,6.9-.25,2.3-.31,4.66-.18,7.02.14,2.41.48,4.75.99,6.94.54,2.26,1.27,4.51,2.19,6.67.08.18.17.39.26.61.14.34.28.66.43.95l.8,1.63,1.33,2.38,1.45,2.3,1.56,2.2.55.69c.15.19.3.38.45.57.22.28.44.57.68.85,1.6,1.87,3.3,3.59,5.03,5.11,2.09,1.77,3.92,3.13,5.72,4.24,7.88,4.97,17.66,7.59,27.55,7.4,9.71-.17,19.47-2.86,28.26-7.79,8.41-4.69,15.73-11.69,21.16-20.24,5.3-8.31,8.76-18,10-28.04,1.25-9.97.32-20.27-2.69-29.77-.12-.37-.24-.75-.37-1.11-.27-.76.09-1.59.8-1.94.73-.34,1.59-.08,2.01.61.76,1.27,1.48,2.55,2.15,3.81h0c8.9,16.9,11.35,36.42,6.9,54.96-.02.1-.06.2-.1.29-1.54,3.34-3.32,6.61-5.29,9.7-6.84,10.77-16.11,19.62-26.82,25.59-1.13.64-2.3,1.26-3.49,1.85ZM746.17,141.73l1.1-.17c3.27-.45,6.42-1.23,8.8-1.87,5.94-1.69,11.5-3.98,16.49-6.81,10.27-5.72,19.15-14.21,25.72-24.55,1.87-2.94,3.56-6.03,5.02-9.2,3.49-14.66,2.49-29.94-2.76-43.93.8,6.16.83,12.45.06,18.62-1.3,10.5-4.92,20.64-10.47,29.33-5.71,8.99-13.41,16.35-22.27,21.29-9.23,5.18-19.51,8.02-29.73,8.19-10.49.2-20.88-2.59-29.27-7.88-1.93-1.19-3.87-2.63-6.11-4.53-1.86-1.64-3.66-3.46-5.36-5.44-.27-.31-.52-.63-.77-.95-.14-.18-.28-.36-.42-.53l-.58-.73s-.04-.05-.05-.07l-1.62-2.28s-.03-.05-.05-.07l-1.5-2.37s-.03-.05-.04-.07l-1.37-2.44s-.03-.05-.04-.08l-.81-1.64c-.19-.37-.36-.76-.52-1.14-.08-.19-.16-.38-.25-.57-1-2.36-1.79-4.77-2.36-7.2-.56-2.37-.92-4.88-1.07-7.48-.15-2.53-.08-5.07.19-7.54.27-2.44.77-4.93,1.49-7.41,2.8-9.8,8.92-18.37,17.25-24.12l.74-.52s.04-.03.06-.04l.77-.49c.19-.12.36-.22.53-.33.36-.23.73-.46,1.14-.68l1.57-.87s.05-.03.08-.04c.2-.1.41-.2.61-.3.33-.16.66-.33,1-.49,2.23-1.02,4.57-1.81,6.97-2.33,4.79-1.05,9.83-1.06,14.6-.05,4.79,1.03,9.4,3.09,13.33,5.97,3.91,2.87,7.25,6.65,9.66,10.94l.43.77s.02.04.04.07l.36.73c.2.37.35.73.5,1.08.07.17.14.34.22.51.01.03.03.06.04.09.41,1.05.82,2.19,1.11,3.36.57,2.11.86,4.48.85,6.98-.07,4.77-1.4,9.44-3.86,13.52-2.46,4.07-5.98,7.41-10.17,9.67-2.11,1.1-4.19,1.81-6.38,2.2-2.07.39-4.35.39-6.75-.02-2.24-.38-4.38-1.11-6.38-2.17-1.94-1.05-3.72-2.46-5.3-4.18-.1-.11-.18-.19-.26-.28-.28-.31-.6-.65-.88-1.08l-.44-.6c-.04-.06-.08-.11-.12-.15-.13-.16-.3-.38-.44-.66-.25-.44-.51-.86-.77-1.3-.02-.03-.04-.06-.05-.09-.12-.24-.24-.48-.35-.72-.09-.2-.18-.39-.28-.58-.02-.04-.04-.07-.05-.11-.81-1.94-1.2-4.1-1.14-6.23.07-2.17.59-4.31,1.52-6.17.91-1.86,2.29-3.55,3.99-4.89.72-.57,1.55-1.1,2.6-1.66l.04-.03c.09-.05.23-.14.4-.21l.28-.11c.16-.07.33-.14.49-.22.07-.03.15-.06.23-.08.15-.04.31-.09.46-.14l.3-.11s.07-.02.1-.03c.11-.03.22-.06.33-.08h.06c.14-.04.26-.08.38-.11l.11-.03c.06-.02.13-.03.19-.04l.52-.08c.34-.08.65-.1.91-.12.11,0,.23-.01.34-.03.07-.01.14-.02.21-.02.15,0,.29,0,.43,0,.07,0,.14,0,.22,0,.23,0,.5-.02.81.02.17.01.35.02.52.03.06,0,.13,0,.19.02l.2.03c.11.02.23.04.35.05l.34.04c.05,0,.11.02.16.03l.31.07s.04,0,.05.01c.16.04.33.08.5.11.07.01.14.03.21.05.18.06.37.12.56.18l.35.11c.05.02.1.04.15.06l.26.11c1,.38,1.89.95,2.6,1.42.06.04.13.09.18.14.13.12.28.23.42.35l.27.2c.06.05.12.1.17.15l.73.71s.05.05.08.08c.09.1.17.2.26.3.06.07.12.15.19.22.32.34.55.66.75.94.06.08.12.16.18.25.03.04.06.09.09.14l.07.12c.07.12.14.24.22.36.02.03.04.06.06.09.09.14.16.3.23.45.03.06.05.12.09.18.02.03.03.06.04.08,1.67,3.47,1.43,9.19-3.02,13.52l-.05.05s-.05.06-.04.1c0,.03.05.06.09.04,2.86-.76,5.45-2.68,7.11-5.26.91-1.4,1.57-2.91,1.96-4.51.38-1.69.48-3.41.29-5.09-.02-.11-.04-.26-.05-.41-.04-.31-.08-.6-.13-.87-.1-.47-.22-.94-.32-1.31-.26-.8-.57-1.71-.93-2.42-.2-.42-.38-.81-.58-1.19l-1.04-1.68-.39-.51c-.26-.34-.53-.69-.82-1.04-.3-.33-.61-.65-.92-.97l-.47-.49c-.13-.12-.26-.23-.39-.35l-.07-.06c-.35-.3-.69-.6-1.04-.88-.27-.19-.55-.38-.82-.57l-.84-.57-.58-.33-1.2-.65c-.41-.19-.83-.36-1.25-.54l-.61-.24-.65-.21c-.41-.13-.85-.27-1.28-.38l-1.38-.28c-.1-.02-.19-.04-.29-.05-.11-.02-.22-.04-.33-.06l-1.11-.1c-.32-.03-.65-.06-.97-.07-.46,0-.94,0-1.4.02-.02,0-.03,0-.05,0-.44,0-.91.05-1.27.1l-.21.03c-.41.05-.8.1-1.17.16-.46.1-.92.2-1.38.31l-.24.06c-.13.03-.27.06-.4.1l-.66.22c-.43.14-.86.3-1.28.46l-1.93.92c-.08.04-.16.09-.25.14-.1.06-.19.11-.29.17-1.46.84-2.88,1.88-4.2,3.08-5.2,4.74-8.29,11.46-8.5,18.43-.11,3.44.53,6.94,1.84,10.12l.26.56c.29.63.56,1.22.85,1.78l1.32,2.22s.02.03.03.05c.1.18.25.39.42.61.08.1.15.21.23.31l.76,1.03c.4.57.86,1.08,1.35,1.62l.25.27c2.31,2.52,4.94,4.58,7.8,6.13,2.95,1.58,6.11,2.67,9.39,3.22,3.44.58,6.78.58,9.92.02,3.17-.54,6.42-1.66,9.41-3.24,5.62-3.02,10.53-7.69,13.83-13.15,3.34-5.55,5.16-11.9,5.25-18.36.02-3.35-.37-6.57-1.16-9.56-.34-1.37-.81-2.78-1.51-4.58-.1-.22-.19-.44-.29-.66-.23-.53-.44-1.04-.69-1.51l-.56-1.11-.57-1.04c-3.07-5.48-7.34-10.32-12.35-13.99-5.03-3.69-10.92-6.33-17.04-7.63-6.1-1.3-12.55-1.28-18.67.06-3.05.67-6.05,1.67-8.91,2.98-.45.21-.9.43-1.35.66-.26.13-.51.26-.77.38-.42.23-.83.46-1.24.69-.26.15-.52.29-.79.44-.42.23-.82.48-1.24.75-.24.15-.48.3-.72.45l-.94.6-.95.66c-10,6.9-17.65,17.6-21,29.35-.86,3.01-1.47,6.04-1.8,9.01-.33,3.04-.41,6.13-.23,9.18.19,3.15.63,6.21,1.31,9.1.7,2.95,1.66,5.89,2.86,8.73.1.22.2.47.31.72.2.47.39.92.61,1.35l1.03,2.09,1.66,2.96,1.81,2.87,1.97,2.78.7.88c.15.19.31.39.46.58.32.4.64.81.97,1.2,2.02,2.37,4.18,4.55,6.4,6.49,2.61,2.22,5,4,7.31,5.42,5.16,3.23,10.76,5.66,16.66,7.21,3.17.83,6.07,1.39,8.88,1.7l1.14.14,1.12.09c.26.02.53.04.8.06.48.04.97.08,1.45.1l.75.02c1.29.04,2.51.08,3.73.04.02,0,.04,0,.06,0,1.14,0,2.27-.07,3.46-.15.35-.02.7-.05,1.05-.07.44-.04.91-.09,1.39-.14.28-.03.55-.06.83-.09l1.1-.12ZM725.57,69.64s0,0,0,0h0Z"/>
          <g class="cls-9">
            <path class="cls-11" d="M792.03,46.35c3.5,6.64,5.93,13.55,7.35,20.55-.5,10.74-3.07,20.31-7.23,28.61-6.07,12.14-15.54,21.56-26.87,28.01-7.47,4.25-15.75,7.2-24.4,8.77,62.01-15.57,59.6-123.89-18.31-125.36l3.25-1.71c25.61.68,50.17,14.13,64.1,37.38.34.56.67,1.14,1,1.72h0c.29.51.57,1.01.84,1.52.09.16.18.33.27.5Z"/>
          </g>
          <g class="cls-9">
            <path class="cls-11" d="M799.87,69.46c1.74,10.33,1.32,20.79-1.08,30.75-1.35,5.65-3.35,11.14-5.94,16.35-6.94,14-18.2,26.02-33.08,33.86-5.37,2.83-10.92,4.96-16.54,6.42-3.06.8-6.14,1.4-9.22,1.81-14.83.8-29.56-2.74-42.37-10.03.42-1.23.66-1.92.66-1.92,0,0,21.42,13.43,54.06-3.42,0,0,14.86-5.93,7.36-12.91,3.95-2.06,7.83-4.34,11.57-6.85,10.91-7.33,20.53-16.61,26.87-28.01,4.28-7.7,7.06-16.36,7.71-26.04Z"/>
          </g>
        </g>
      </g>
      <g>
        <path class="cls-6" d="M1037.91,211.81c-2.17,0-2.36,1.27-2.36,2.72v76.71c0,10.14-9.05,15.2-17.9,15.2s-17.74-5.06-17.74-15.2v-76.71c0-1.45-.18-2.72-2.36-2.72h-4.7c-9.94,0-14.84-8.14-14.84-16.29s4.89-16.46,14.84-16.46h49.75c9.96,0,14.84,8.32,14.84,16.46s-4.88,16.29-14.84,16.29h-4.7Z"/>
        <path class="cls-11" d="M1042.61,179.06c9.96,0,14.83,8.32,14.83,16.46s-4.88,16.29-14.83,16.29h-4.7c-2.17,0-2.36,1.27-2.36,2.72v76.71c0,10.14-9.05,15.2-17.9,15.2s-17.74-5.06-17.74-15.2v-76.71c0-1.45-.18-2.72-2.36-2.72h-4.7c-9.94,0-14.84-8.14-14.84-16.29s4.89-16.46,14.84-16.46h49.75M1042.61,172.22h-49.75c-6.66,0-12.52,2.76-16.5,7.76-3.34,4.2-5.18,9.72-5.18,15.55,0,11.49,7.45,23.13,21.68,23.13h.21v72.58c0,6.82,2.93,12.8,8.24,16.85,4.4,3.35,10.2,5.2,16.34,5.2s11.95-1.84,16.38-5.17c5.39-4.05,8.36-10.04,8.36-16.87v-72.58h.21c6.65,0,12.51-2.71,16.48-7.63,3.35-4.16,5.2-9.66,5.2-15.5s-1.84-11.35-5.17-15.54c-3.98-5.01-9.84-7.76-16.51-7.76h0Z"/>
      </g>
      <path class="cls-2" d="M999.86,188.77c1.79,4.43-6.53,6.42-11.79,8.12-5.26,1.7-8.11-2.69-4.12-5.48s14.33-6.55,15.91-2.64Z"/>
      <path class="cls-4" d="M1042.61,179.06h-33.25c1.11,4.25,4.89,10.05,13.46,13.75,9.23,3.98,12.15,13.56,19.29,19h.49c9.96,0,14.84-8.14,14.84-16.29s-4.88-16.46-14.84-16.46Z"/>
      <path class="cls-4" d="M1035.56,241.93c-4.46-1.37-9.62-3.52-13.21-6.77-7.65-6.93-14.01-23.11-23.24-28.21-6.36-3.51-14.15-2.56-18.37-1.62,2.41,3.81,6.44,6.48,12.13,6.48h4.7c2.18,0,2.36,1.27,2.36,2.72v34.67c4.28,2.97,9.18,6.98,12.44,11.56,4.28,6.02,15.36,10.34,23.2,12.75v-31.59Z"/>
      <path class="cls-7" d="M1034.24,297.37c-22.98-3.79-31.45-22.38-34.32-31.91v25.78c0,10.14,8.87,15.2,17.74,15.2,6.83,0,13.77-3.03,16.58-9.07Z"/>
      <g>
        <path class="cls-6" d="M921.23,306.43c-13.64,0-18.56-9.28-18.56-22.01v-83.31c0-12.73,4.92-22.01,18.56-22.01h35.28c9.29,0,14.74,6.18,14.74,16.37,0,7.46-4.55,16-14.74,16h-10.72c-4.37,0-7.29,2.91-7.29,7.83s2.92,7.82,7.29,7.82h10c8.74,0,13.09,7.09,13.09,15.64,0,7.82-4.35,15.64-13.09,15.64h-10c-4.37,0-7.29,2.92-7.29,7.83s2.92,7.82,7.29,7.82h10.72c9.29,0,14.74,6.18,14.74,16.37,0,7.46-4.55,16-14.74,16h-35.28Z"/>
        <path class="cls-11" d="M956.51,179.1c9.29,0,14.74,6.18,14.74,16.37,0,7.46-4.55,16-14.74,16h-10.72c-4.37,0-7.29,2.91-7.29,7.83s2.92,7.82,7.29,7.82h10c8.74,0,13.09,7.09,13.09,15.64,0,7.82-4.35,15.64-13.09,15.64h-10c-4.37,0-7.29,2.92-7.29,7.83s2.92,7.82,7.29,7.82h10.72c9.29,0,14.74,6.18,14.74,16.37,0,7.46-4.55,16-14.74,16h-35.28c-13.64,0-18.56-9.28-18.56-22.01v-83.31c0-12.73,4.92-22.01,18.56-22.01h35.28M956.51,172.26h-35.28c-7.64,0-25.4,2.81-25.4,28.85v83.31c0,26.04,17.77,28.85,25.4,28.85h35.28c6.73,0,12.61-2.78,16.57-7.82,3.23-4.11,5.01-9.45,5.01-15.03,0-14.1-8.47-23.22-21.58-23.22h-10.72c-.14,0-.25-.01-.33-.02-.05-.17-.11-.48-.11-.95s.06-.79.11-.96c.08-.01.18-.02.33-.02h10c11.55,0,19.94-9.46,19.94-22.49s-8.2-22.49-19.94-22.49h-10c-.14,0-.25-.01-.33-.02-.05-.17-.11-.48-.11-.95s.06-.79.11-.96c.08-.01.18-.02.33-.02h10.72c6.73,0,12.61-2.78,16.57-7.82,3.23-4.11,5.01-9.45,5.01-15.03,0-14.1-8.47-23.22-21.58-23.22h0Z"/>
      </g>
      <path class="cls-7" d="M921.23,306.43h35.28c10.19,0,14.74-8.55,14.74-16,0-10.19-5.45-16.37-14.74-16.37h-10.72c-4.37,0-7.29-2.91-7.29-7.82s2.92-7.83,7.29-7.83h10c8.74,0,13.09-7.82,13.09-15.64,0-.33-.02-.65-.03-.97-8.11,3.5-23.55,3.63-36.89,6.78-16.52,3.89-16.03,30.82-13.93,39.62,1.46,6.12-.14,13.76-1.24,17.85,1.37.25,2.85.39,4.45.39Z"/>
      <path class="cls-4" d="M902.67,276.38v8.04c0,12.73,4.92,22.01,18.56,22.01h12.71c-6.51-15.97-24.52-26.55-31.27-30.05Z"/>
      <path class="cls-4" d="M956.51,179.1h-2.41c-10.59,5.18-19.63,15.64-29.87,22.53-9.94,6.68-17.79,8.23-21.55,8.56v19.37c6.82-.02,15.99-.73,24.77-3.56,4.92-1.59,8.43-3.47,11.13-5.5-.04-.38-.07-.78-.07-1.19,0-4.92,2.92-7.83,7.29-7.83h.91c1.65-2.31,3.31-4.57,5.66-6.62,4.54-3.96,12.77-6,18.73-7,.1-.8.16-1.6.16-2.38,0-10.19-5.45-16.37-14.74-16.37Z"/>
      <path class="cls-2" d="M953.48,278.83c2.71,3.29-7.1,13.78-12.73,9.26s9.52-13.15,12.73-9.26Z"/>
      <path class="cls-2" d="M911.17,218.05c4.99-.19,2.45-9.74,9.29-15.59,6.85-5.87,14.99-9.52,13.8-13.36-1.19-3.85-17.49,1.36-20.91,7.13-4.09,6.9-8.95,22.09-2.19,21.82Z"/>
      <g>
        <path class="cls-6" d="M844.02,306.43c-13.64,0-18.56-9.28-18.56-22.01v-83.31c0-12.73,4.92-22.01,18.56-22.01h35.28c9.29,0,14.74,6.18,14.74,16.37,0,7.46-4.55,16-14.74,16h-10.72c-4.37,0-7.29,2.91-7.29,7.83s2.92,7.82,7.29,7.82h10c8.74,0,13.09,7.09,13.09,15.64,0,7.82-4.35,15.64-13.09,15.64h-10c-4.37,0-7.29,2.92-7.29,7.83s2.92,7.82,7.29,7.82h10.72c9.29,0,14.74,6.18,14.74,16.37,0,7.46-4.55,16-14.74,16h-35.28Z"/>
        <path class="cls-11" d="M879.3,179.1c9.29,0,14.74,6.18,14.74,16.37,0,7.46-4.55,16-14.74,16h-10.72c-4.37,0-7.29,2.91-7.29,7.83s2.92,7.82,7.29,7.82h10c8.74,0,13.09,7.09,13.09,15.64,0,7.82-4.35,15.64-13.09,15.64h-10c-4.37,0-7.29,2.92-7.29,7.83s2.92,7.82,7.29,7.82h10.72c9.29,0,14.74,6.18,14.74,16.37,0,7.46-4.55,16-14.74,16h-35.28c-13.64,0-18.56-9.28-18.56-22.01v-83.31c0-12.73,4.92-22.01,18.56-22.01h35.28M879.3,172.26h-35.28c-7.64,0-25.4,2.81-25.4,28.85v83.31c0,26.04,17.77,28.85,25.4,28.85h35.28c6.73,0,12.61-2.78,16.57-7.82,3.23-4.11,5.01-9.45,5.01-15.03,0-14.1-8.47-23.22-21.58-23.22h-10.72c-.14,0-.25-.01-.33-.02-.05-.17-.11-.48-.11-.95s.06-.79.11-.96c.08-.01.18-.02.33-.02h10c11.55,0,19.94-9.46,19.94-22.49s-8.2-22.49-19.94-22.49h-10c-.14,0-.25-.01-.33-.02-.05-.17-.11-.48-.11-.95s.06-.79.11-.96c.08-.01.18-.02.33-.02h10.72c6.73,0,12.61-2.78,16.57-7.82,3.23-4.11,5.01-9.45,5.01-15.03,0-14.1-8.47-23.22-21.58-23.22h0Z"/>
      </g>
      <path class="cls-4" d="M885.61,180.73c.05-.13.09-.26.14-.39-1.87-.81-4.03-1.24-6.46-1.24h-35.28c-13.64,0-18.56,9.28-18.56,22.01v12.71c2.67,1.12,6.43,1.92,8.61-1.03,3.65-4.94-1.93-22.62,13.21-24.52,15.14-1.9,35.65-1.06,38.34-7.55Z"/>
      <path class="cls-2" d="M854.27,187.13c2.41,3.28-6.22,6.71-10.42,9.99s-5.05,14.51-10.06,14.54c-5.02.03.43-13.04,3.97-18.04,2.88-4.07,12.94-11.36,16.51-6.5Z"/>
      <path class="cls-7" d="M850.98,290.62c-16.24-.69-22.85-8.38-25.52-14.09v7.89c0,12.73,4.92,22.01,18.56,22.01h35.28c1.26,0,2.44-.13,3.53-.38-4.37-5.67-14.06-14.69-31.85-15.44Z"/>
      <path class="cls-4" d="M894.03,290.43c0-10.19-5.45-16.37-14.74-16.37h-2.74c-2.86,2.98-7.08,6.77-13.18,10.97-8.8,6.05-9.28,15.2-8.33,21.41h24.25c10.19,0,14.74-8.55,14.74-16Z"/>
      <path class="cls-2" d="M875.39,279.43c.44,2.36-4.23,7.11-9.14,7.46-4.91.35-7.38-1.97-5.22-3.7s13.27-9.65,14.36-3.77Z"/>
      <path class="cls-4" d="M853.24,243.99c17.06-15.61,38.13,6.07,38.31-3.4-.69-7.54-5-13.46-12.98-13.46h-10c-4.37,0-7.29-2.91-7.29-7.82s2.92-7.83,7.29-7.83h10.72c-8.41-.29-11.62-1.76-23.16-1-13.49.89-24.27,15-30.68,25.99v47.95c0,.35.02.68.03,1.02,7.78-7.54,13.5-28.42,27.76-41.46Z"/>
      <path class="cls-4" d="M522.53,119.07v214.67s96.91-38.91,89.43-183.74l-89.43-30.93Z"/>
      <path class="cls-25" d="M522.52,337.53c-1.02-.41-26.58-10.96-50.16-39.13-21.65-25.87-46.63-72.64-42.71-148.57.07-1.4.99-2.62,2.32-3.08l90.56-31.32v7.3s-86.1,29.78-86.1,29.78c-3.18,72.11,20.46,116.53,40.97,141.17,22.47,26.99,44.89,36.21,45.13,36.3v7.56Z"/>
      <path class="cls-11" d="M522.52,337.53v-7.56s0,3.77,0,3.77v-3.77c.24-.1,22.65-9.32,45.13-36.3,20.52-24.64,44.15-69.06,40.97-141.17l-86.1-29.78v-7.3s90.56,31.32,90.56,31.32c1.33.46,2.24,1.68,2.32,3.08,3.92,75.93-21.06,122.7-42.71,148.57-23.58,28.17-49.15,38.72-50.17,39.13Z"/>
      <path class="cls-10" d="M529.17,272.14c-4.77-2.06-8.56-5.05-11.36-8.97-2.8-3.92-4.23-8.6-4.28-14.04l21.52.42c.25,3.08,1.27,5.45,3.06,7.1,1.78,1.65,4.13,2.5,7.05,2.56,2.99.06,5.37-.58,7.13-1.93,1.76-1.34,2.66-3.24,2.71-5.68.04-2.05-.62-3.76-1.97-5.13-1.35-1.37-3.03-2.5-5.02-3.41s-4.83-1.95-8.52-3.12c-5.33-1.76-9.67-3.5-13.03-5.22-3.36-1.72-6.23-4.22-8.61-7.5-2.38-3.28-3.52-7.52-3.42-12.72.15-7.73,3.07-13.72,8.75-17.99,5.68-4.27,13.02-6.31,22-6.14,9.14.18,16.47,2.51,21.98,6.99,5.51,4.48,8.39,10.63,8.63,18.44l-21.87-.42c-.11-2.68-1.05-4.81-2.83-6.39-1.79-1.57-4.1-2.38-6.93-2.44-2.44-.05-4.43.57-5.95,1.84-1.52,1.27-2.31,3.13-2.36,5.57-.05,2.68,1.17,4.8,3.66,6.34,2.49,1.55,6.4,3.24,11.73,5.08,5.33,1.92,9.65,3.73,12.97,5.45,3.32,1.72,6.17,4.18,8.55,7.38,2.38,3.2,3.53,7.28,3.43,12.25-.09,4.73-1.38,9.01-3.86,12.82-2.48,3.82-6.03,6.82-10.64,9.02-4.62,2.2-10.04,3.23-16.27,3.12-6.07-.12-11.49-1.21-16.26-3.27Z"/>
      <path class="cls-11" d="M544.14,190.35c.35,0,.69,0,1.05.01,9.14.18,16.47,2.51,21.98,6.99,5.51,4.48,8.39,10.63,8.63,18.44l-21.87-.42c-.11-2.68-1.05-4.81-2.83-6.39-1.79-1.57-4.1-2.38-6.93-2.44-.09,0-.18,0-.26,0-2.32,0-4.22.61-5.69,1.84-1.52,1.27-2.31,3.13-2.36,5.57-.05,2.68,1.17,4.8,3.66,6.34,2.49,1.55,6.4,3.24,11.73,5.08,5.33,1.92,9.65,3.73,12.97,5.45,3.32,1.72,6.17,4.18,8.55,7.38,2.38,3.2,3.53,7.28,3.43,12.25-.09,4.73-1.38,9.01-3.86,12.82-2.48,3.82-6.03,6.82-10.64,9.02-4.38,2.09-9.48,3.12-15.31,3.12-.32,0-.64,0-.96,0-6.07-.12-11.49-1.21-16.26-3.27-4.77-2.06-8.56-5.05-11.36-8.97-2.8-3.92-4.23-8.6-4.28-14.04l21.52.42c.25,3.08,1.27,5.45,3.06,7.1,1.78,1.65,4.13,2.5,7.05,2.56.13,0,.25,0,.38,0,2.82,0,5.07-.65,6.76-1.93,1.76-1.34,2.66-3.24,2.71-5.68.04-2.05-.62-3.76-1.97-5.13-1.35-1.37-3.03-2.5-5.02-3.41-1.99-.91-4.83-1.95-8.52-3.12-5.33-1.76-9.67-3.5-13.03-5.22-3.36-1.72-6.23-4.22-8.61-7.5-2.38-3.28-3.52-7.52-3.42-12.72.15-7.73,3.07-13.72,8.75-17.99,5.46-4.1,12.45-6.15,20.96-6.15M544.14,183.45c-10,0-18.44,2.53-25.1,7.53-7.33,5.51-11.31,13.59-11.5,23.37-.13,6.71,1.46,12.4,4.74,16.91,3,4.14,6.72,7.37,11.04,9.59,1.07.55,2.22,1.1,3.45,1.64l-13.11-.26s-.09,0-.13,0c-1.81,0-3.56.72-4.85,2-1.32,1.31-2.06,3.1-2.04,4.97.06,6.87,1.94,12.92,5.57,17.99,3.52,4.93,8.31,8.73,14.23,11.29,5.56,2.41,11.91,3.7,18.86,3.84.37,0,.73.01,1.09.01,6.84,0,12.99-1.28,18.27-3.79,5.76-2.74,10.29-6.61,13.46-11.49,3.18-4.89,4.85-10.43,4.97-16.44.13-6.51-1.49-12.06-4.79-16.5-3-4.03-6.67-7.19-10.9-9.39-1.45-.75-3.04-1.51-4.79-2.27l13.07.25s.09,0,.13,0c1.84,0,3.61-.74,4.9-2.05,1.33-1.34,2.05-3.17,1.99-5.06-.31-9.86-4.06-17.8-11.17-23.58-6.71-5.46-15.53-8.33-26.2-8.54-.4,0-.79-.01-1.18-.01h0ZM542.79,213.59c.21-.08.57-.15,1.11-.15h.13c1.73.04,2.32.56,2.52.73.16.14.45.4.5,1.48.01.26.04.52.07.77-1.95-.84-3.18-1.5-3.96-1.98-.21-.13-.34-.23-.41-.3,0-.02,0-.03,0-.05,0-.23.02-.39.04-.5h0ZM545.53,252.31h-.24c-1.75-.04-2.31-.56-2.5-.73-.59-.54-.8-1.72-.87-2.61-.03-.34-.08-.68-.16-1,1.36.49,2.49.95,3.39,1.35,1.2.55,2.19,1.2,2.95,1.95,0,.04,0,.09,0,.17,0,.17-.02.28-.03.35-.48.33-1.41.5-2.55.5h0Z"/>
      <path class="cls-22" d="M455.83,172.78h16.39c1.86,0,3.53,1.15,4.2,2.9l15.74,41.48,24.1-60.41c.83-2.09,2.86-3.46,5.11-3.46h16.89l-38.29,93.39h-18.17l-25.98-73.9Z"/>
      <path class="cls-25" d="M538.27,153.29l-38.29,93.39h-18.17l-25.98-73.9h16.39c1.86,0,3.53,1.15,4.2,2.9l15.74,41.48,24.1-60.41c.83-2.09,2.86-3.46,5.11-3.46h16.89M538.27,146.39h-16.89c-5.1,0-9.62,3.06-11.52,7.8l-17.54,43.96-9.46-24.92c-1.67-4.39-5.94-7.34-10.64-7.34h-16.39c-2.24,0-4.33,1.08-5.63,2.91-1.29,1.82-1.62,4.16-.88,6.27l25.98,73.9c.97,2.76,3.58,4.61,6.51,4.61h18.17c2.8,0,5.32-1.69,6.38-4.28l38.29-93.39c.87-2.13.63-4.55-.65-6.46s-3.43-3.05-5.73-3.05h0Z"/>
      <path class="cls-34" d="M504.63,206.08s-.65,14.76-6.9,24.3c-6.25,9.53-12.65.61-8.44-2.23,4.21-2.84.5-7.95.5-7.95,0,0-1.14,4.79-6.73,3.69s-9.09-22.67-9.09-22.67c-1.62,3.73-3.9,12.06-1.99,17.49h0l9.84,27.98h18.17l8.21-20.03s0,0,0,0c4.7-11.46-3.56-20.56-3.56-20.56Z"/>
      <path class="cls-24" d="M561.69,272.3c4.61-2.2,8.16-5.2,10.64-9.02,2.48-3.81,3.76-8.09,3.86-12.82.1-4.97-1.05-9.05-3.43-12.25-.41-.54-.83-1.06-1.26-1.56-8.89,4.06-8.94-2.49-21.74-2.9-8.37-.27-12.79,2.45-14.93,4.55,1.46.54,3.01,1.09,4.66,1.63,3.68,1.18,6.52,2.22,8.52,3.12,1.99.91,3.67,2.04,5.02,3.41,1.35,1.37,2.01,3.08,1.97,5.13-.05,2.44-.95,4.34-2.71,5.68-1.76,1.35-4.14,1.99-7.13,1.93-2.92-.06-5.27-.91-7.05-2.56-1.78-1.65-2.8-4.02-3.06-7.1l-21.52-.42c.05,5.44,1.48,10.13,4.28,14.04,2.8,3.92,6.59,6.91,11.36,8.97,4.77,2.07,10.19,3.15,16.26,3.27,6.22.12,11.65-.92,16.27-3.12Z"/>
      <g>
        <path class="cls-6" d="M799.64,293.1c-1.72,9.19-7.05,13.34-16.66,13.34-7.72,0-15.28-1.62-17.34-13.34l-10.14-39.38-9.79,39.38c-2.06,11.72-9.6,13.34-17.34,13.34-9.62,0-14.95-4.15-16.65-13.34l-19.41-97.56c-2.4-12.44,4.12-16.77,15.11-16.77,8.75,0,14.08,2.89,15.78,13.16l7.73,47.06,10.65-31.03c2.29-6.84,6.35-10.1,13.9-10.1,6.36,0,11.27,2.2,13.74,10.1l9.79,31.03,7.9-47.06c1.54-9.37,6.35-13.16,15.11-13.16,10.99,0,18.89,5.23,16.65,16.77l-19.06,97.56Z"/>
        <path class="cls-11" d="M802.04,178.77c10.99,0,18.89,5.23,16.65,16.77l-19.06,97.56c-1.72,9.19-7.05,13.34-16.66,13.34-7.72,0-15.28-1.62-17.34-13.34l-10.14-39.38-9.79,39.38c-2.06,11.72-9.6,13.34-17.34,13.34-9.62,0-14.95-4.15-16.65-13.34l-19.41-97.56c-2.4-12.44,4.12-16.77,15.11-16.77,8.75,0,14.08,2.89,15.78,13.16l7.73,47.06,10.65-31.03c2.29-6.84,6.35-10.1,13.9-10.1,6.36,0,11.27,2.2,13.74,10.1l9.79,31.03,7.9-47.06c1.54-9.37,6.35-13.16,15.11-13.16M802.04,171.88c-12.31,0-19.88,6.55-21.92,18.94l-3.15,18.75-1.16-3.67c-3.1-9.9-9.94-14.92-20.32-14.92s-17.14,4.97-20.43,14.78l-1.76,5.12-3.29-20.05c-2.12-12.75-9.5-18.94-22.59-18.94-8.51,0-14.76,2.34-18.57,6.96-3.65,4.42-4.76,10.48-3.31,18.01l19.4,97.55c1.62,8.65,7,18.93,23.42,18.93,5.12,0,20.65,0,24.08-18.79l3.16-12.7,3.28,12.73c3.44,18.76,18.96,18.76,24.08,18.76,13,0,21.11-6.55,23.44-18.94l19.05-97.53c1.66-8.56-1.07-14.08-3.64-17.2-4.2-5.09-11.04-7.78-19.78-7.78h0Z"/>
      </g>
      <path class="cls-2" d="M709.98,187.05c3.19,1.09,2.04,2.22,0,10.72s-1.04,11.98,0,16.85-4.96,7.11-8.37-.62-1.05-14.71.65-19.98,4.87-7.95,7.72-6.97Z"/>
      <path class="cls-7" d="M726.03,295.18c-9.44.74-16.63-13.8-17.66-18.96h0s3.36,16.87,3.36,16.87c1.71,9.19,7.03,13.34,16.65,13.34,7.73,0,15.28-1.62,17.34-13.34l9.79-39.38c-4.23,4.54-14.8,40.32-29.47,41.47Z"/>
      <path class="cls-7" d="M802.04,178.77c-2.92,0-5.4.43-7.46,1.34,9.1-3.62,12.57,23.14,11.44,43.6-1.14,20.52-15.84,60.67-28.39,59.54-10.87-.97-6.32,9.72-7.06,5.59l-4.93,4.25c2.06,11.72,9.62,13.34,17.34,13.34,9.62,0,14.95-4.15,16.66-13.34l19.06-97.56c2.24-11.54-5.66-16.77-16.65-16.77Z"/>
      <g>
        <path class="cls-6" d="M615.35,279.81c0-8.82,4.86-15.65,14.03-15.65s12.23,8.45,17.46,8.45c3.96,0,7.19-1.98,7.19-6.29,0-3.42-3.6-7.02-6.12-8.82l-16.19-12.59c-9.89-7.56-15.12-18.89-15.12-30.59,0-20.87,17.1-35.26,37.43-35.26,15.1,0,31.13,5.4,31.13,22.84,0,6.3-4.51,11.88-11.16,11.88-5.58,0-9.36-3.78-14.03-3.78-3.96,0-5.93,2.88-5.93,6.29,0,1.98,1.44,4.86,3.41,6.3l20.51,15.11c9.54,7.02,13.49,17.45,13.49,28.07,0,24.29-17.45,40.66-41.19,40.66-16.01,0-34.91-9.17-34.91-26.62Z"/>
        <path class="cls-11" d="M654.04,179.06c15.1,0,31.13,5.4,31.13,22.84,0,6.3-4.51,11.88-11.16,11.88-5.58,0-9.36-3.78-14.03-3.78-3.96,0-5.93,2.88-5.93,6.29,0,1.98,1.44,4.86,3.41,6.3l20.51,15.11c9.54,7.02,13.49,17.45,13.49,28.07,0,24.29-17.45,40.66-41.19,40.66-16.01,0-34.91-9.17-34.91-26.62,0-8.82,4.86-15.65,14.03-15.65s12.23,8.45,17.46,8.45c3.96,0,7.19-1.98,7.19-6.29,0-3.42-3.6-7.02-6.12-8.82l-16.19-12.59c-9.89-7.56-15.12-18.89-15.12-30.59,0-20.87,17.1-35.26,37.43-35.26M654.04,172.17c-11.76,0-22.77,4.12-30.98,11.6-8.6,7.84-13.34,18.69-13.34,30.55,0,14.25,6.49,27.39,17.8,36.05l14.56,11.32c-3.04-2.22-7.13-4.43-12.69-4.43-12.32,0-20.93,9.27-20.93,22.55,0,20.98,21.25,33.52,41.8,33.52,13.39,0,25.57-4.68,34.31-13.17,8.89-8.64,13.78-20.85,13.78-34.38s-5.79-25.89-16.3-33.62l-19.9-14.66c.48.19.99.4,1.51.63,2.69,1.14,6.03,2.57,10.35,2.57,10.13,0,18.06-8.25,18.06-18.78,0-18.34-14.57-29.74-38.02-29.74h0ZM645.28,264.24c-.15-.12-.29-.24-.42-.35-.31-.25-.63-.52-.97-.79h.01c.5.37.96.76,1.38,1.14h0Z"/>
      </g>
      <path class="cls-2" d="M643.68,188.2c2.28,3.48-6.2,7.54-9.17,12.1-3.35,5.13-6.63,10.43-8.83,7.43s2.42-11.84,7.37-15.9,8.74-6.49,10.63-3.63Z"/>
      <path class="cls-7" d="M668.49,203.83c-1.98,2.64-2.67,5.35-2.76,7.68,2.51,1.06,5.1,2.28,8.28,2.28,6.65,0,11.16-5.58,11.16-11.88,0-1.22-.09-2.38-.24-3.49-4.71,4.13-11.76-.82-16.44,5.41Z"/>
      <path class="cls-7" d="M631.73,244.91l15.64,12.16c-.02-1.2-.38-2.78-1.33-4.9-3.65-8.11-1.22-10.79-9.17-16.24-4.24-2.91-8.56-.35-11.66,2.67,1.88,2.3,4.05,4.42,6.52,6.31Z"/>
      <path class="cls-4" d="M691.45,265.78c0-10.19-3.66-20.21-12.39-27.2-2.51,5.1.96,11.98.09,27.56-.95,16.96-20.47,30.98-39.94,27.25-19.31-3.7-19.15-26.3-15.25-28.27-5.65,2.16-8.62,7.82-8.62,14.69,0,17.45,18.9,26.62,34.91,26.62,23.75,0,41.19-16.37,41.19-40.66Z"/>
      <path class="cls-4" d="M782.84,263.27c-3.79,7.14-13.89,11.98-21.03,14.97l3.82,14.85c2.06,11.72,9.62,13.34,17.34,13.34,9.62,0,14.95-4.15,16.66-13.34l8.6-44.05c-10.33.27-20.51,5.02-25.4,14.22Z"/>
      <path class="cls-4" d="M715.84,236.1c-3.4,4.91-8.74,10.34-12.65,14.06l1.53,7.69,3,15.08c3.28-1.62,7.73-3.1,13.25-3.28,12.77-.42,22.18-14.34,25.34-28.96,2.85-13.17,12.23-25.33,24.74-27.02l-1.8-5.71c-2.48-7.9-7.38-10.1-13.74-10.1-7.55,0-11.61,3.26-13.9,10.1l-10.65,31.03-2.34-14.24s-6.87,2.81-12.77,11.34Z"/>
      <path class="cls-2" d="M757.96,205.62c2.54,2.44-6.16,6.97-8.46,13.84s-2.9,10.58-5.6,8.59-2.13-10.18,2.41-16.1,8.94-8.93,11.65-6.33Z"/>
      <path class="cls-25" d="M209.4,176.25s2.98,7.31,7.58,7.31c.03,0,.07,0,.1,0,.05,0,.11,0,.16,0,4.53,0,6.12,4.45,10.44,5.41.2.04.4.06.61.06,4.37,0,10.66-9.39,10.66-9.39,0,0,2.03,6.51-.97,15.15s-3.82,24.18-3.82,24.18c2.25-3.52,7.05-5.78,7.05-5.78-1.84,3.68-6.38,27.36-6.98,43.03-.6,15.67-4.27,44-4.27,44-2.6-7.83-9.37-11.32-9.37-11.32-4.4,5.41-8.91,24.45-8.91,24.45-10.37-18.95-2.49-52.35-5.47-67.27-2.98-14.92-.59-32.46-.59-32.46-.11,3.78,3.79,8.87,3.79,8.87,1.95-4.98,1.41-13.41-1.44-26.7s1.44-19.54,1.44-19.54M209.4,169.33c-2.26,0-4.39,1.12-5.69,3.01-.61.89-5.86,9.15-2.5,24.88.8,3.75,1.41,7.08,1.82,9.99-2.23.9-3.91,2.93-4.26,5.46-.1.76-2.52,18.87.66,34.74.92,4.6.58,12.24.22,20.34-.73,16.47-1.56,35.13,5.96,48.89,1.22,2.23,3.55,3.59,6.05,3.59.31,0,.61-.02.92-.06,2.83-.38,5.13-2.47,5.79-5.24,1.12-4.7,2.7-10.11,4.23-14.41.3.57.57,1.19.79,1.86.94,2.84,3.6,4.73,6.54,4.73.22,0,.44-.01.66-.03,3.2-.31,5.77-2.79,6.18-5.98.15-1.17,3.72-28.82,4.32-44.62.59-15.45,5-37.21,6.29-40.28,1.28-2.62.77-5.76-1.27-7.84-1.03-1.06-2.35-1.73-3.74-1.97.53-3.43,1.22-6.83,2.09-9.34,3.65-10.49,1.32-18.59,1.04-19.48-.79-2.53-2.97-4.39-5.59-4.77-.33-.05-.66-.07-.99-.07-2.28,0-4.44,1.13-5.73,3.06-1.48,2.2-3.6,4.63-5.01,5.82-.29-.22-.6-.48-.87-.71-1.98-1.64-4.95-4.1-9.62-4.25-.6-.59-1.48-1.95-1.95-3.06-.96-2.35-3.12-3.96-5.64-4.23-.24-.03-.49-.04-.73-.04h0Z"/>
      <path class="cls-25" d="M63.06,90.27h0M63.06,90.27c-12.04,40.51,21.12,57.28,21.12,57.28-.87-16.43,7.23-23.98,7.23-23.98-2.3,9.35,15.49,31.32,16.15,54.56.66,23.24-17.96,37.49-17.96,37.49,2.06-6.16-.22-15.73-.22-15.73-.43,9.09-13.69,14.86-13.69,14.86,4.93-9.61,2.98-17.44,2.98-17.44-6.17,4.77-23.04,2.58-23.96,16.64s45.49,16.87,53.57,42.13c8.08,25.26-14.79,45.48-14.79,45.48,0,0-3.2-1.06-7.77-1.06s-10.81,1.11-16.4,5.6c-11.05,8.87-25.58,14.71-25.58,14.71,5.19-3.03,5.02-9.61,5.02-9.61,0,0-5.5.29-19.14,4.23-13.64,3.94-21.86,14.86-21.86,14.86-6.35-52.61,24.15-64.17,24.15-64.17,0,0-9.14,10.24-3.3,18.68.82,1.19,2.32,1.7,4.28,1.7,11.99,0,41.41-19,41.41-19-9.03-14.06-32.72-14.93-50.02-35.48s-20.55-38.72-13.63-58.05c6.92-19.33,3.46-34.68,3.46-34.68,12.76.03,17.93,20.77,17.93,20.77,0,0,2.63-5.43,4.6-29.72,1.97-24.29,26.44-40.07,26.44-40.07M63.06,83.37h0c-1.43,0-2.75.43-3.85,1.17-2.19,1.44-27.29,18.48-29.46,45.23-.29,3.58-.59,6.73-.9,9.48-3.66-3.91-8.49-6.85-14.74-6.87h-.02c-2.09,0-4.07.95-5.38,2.58-1.31,1.64-1.81,3.78-1.35,5.83.02.11,2.87,13.83-3.22,30.84-8.09,22.59-3.37,43.18,14.85,64.81,10.07,11.96,22.17,17.9,31.89,22.68,4.76,2.34,9.13,4.48,12.53,6.96-10.65,6.29-23.72,12.88-29.73,13.46-.88-3.74,3.33-8.82,3.38-8.88,2.12-2.37,2.32-5.86.52-8.48-1.31-1.91-3.46-2.98-5.68-2.98-.82,0-1.65.15-2.46.45-.98.37-9.79,3.94-17.6,14.77C-.76,291.9-1.07,314.9.89,331.12c.34,2.79,2.34,5.1,5.06,5.83.59.16,1.19.24,1.79.24,2.13,0,4.19-.99,5.51-2.75.05-.07,7.13-9.17,18.27-12.38,1.95-.56,3.72-1.05,5.32-1.46-.04,1.09.19,2.21.7,3.25,1.19,2.43,3.63,3.86,6.2,3.86.86,0,1.73-.16,2.57-.5.63-.25,15.61-6.33,27.32-15.73,3.37-2.71,7.44-4.08,12.09-4.08,3.1,0,5.37.64,5.64.72.72.25,1.45.37,2.17.37,1.64,0,3.24-.62,4.53-1.76,1.07-.95,26.14-23.54,16.79-52.75-5.39-16.85-23.29-24.77-37.67-31.13-1.09-.48-2.16-.96-3.21-1.43.56.15,1.14.22,1.73.22.93,0,1.86-.19,2.75-.57.56-.24,2.48-1.12,4.87-2.61.49,1.08,1.26,2.05,2.28,2.77,1.2.86,2.6,1.28,4.01,1.28,1.48,0,2.96-.47,4.19-1.42.87-.67,21.42-16.7,20.67-43.16-.4-14.17-6.31-27.37-11.06-37.97-2.25-5.02-5.65-12.61-5.28-14.77.73-2.96-.58-6.03-3.21-7.58-1.08-.64-2.28-.94-3.48-.94-1.71,0-3.41.63-4.72,1.86-.78.73-5.95,5.85-8.31,15.94-7.13-7.36-14.99-20.87-8.79-42.03.23-.69.35-1.42.35-2.18,0-3.81-3.08-6.9-6.89-6.9h0ZM63.06,97.17h0,0ZM61.6,214.2c.29-3.52,2.02-4.76,9.64-6.8-.39,1.31-.94,2.72-1.7,4.2-1.33,2.59-.89,5.74,1.11,7.87.35.37.73.69,1.13.97-2.31-1.06-4.41-2.1-6.17-3.13-2.97-1.73-3.81-2.79-4.02-3.11h0Z"/>
      <path class="cls-25" d="M136.05,156.17c-2.14,16.2,2.27,20.83,2.27,20.83.3-6.29,5.22-9.44,5.22-9.44,0,0-2.82,10.78,12.51,12.49,15.33,1.71,24.97,13.79,28.54,15.25.57.23,1.08.33,1.54.33,2.41,0,3.32-2.7,3.32-2.7,0,0,14.76,15.68,4.75,42.44s-46.96,31.89-46.96,31.89c3.39,11.11-3.73,40.48-3.73,40.48-.5-6.81-3.66-8.4-3.66-8.4-5.14,5.23-16.1,43.19-16.1,43.19,0,0-11.85-39.81-4.36-62.08,7.94-23.61-6.52-37.01-6.52-37.01,0,0,2.62,1.78,5.18,1.78,1.74,0,3.44-.82,4.27-3.59,2.05-6.83,2.99-31.57,2.99-31.57-.39-.06-.78-.09-1.18-.09-5.59,0-12.43,5.43-13.78,6.55.68-.65,2.73-3.12,5.01-10.84,1.35-4.58.05-5.64-1.43-5.64-1.27,0-2.68.79-2.68.79,5.83-7.56,9.46-7.67,9.67-7.67,0,0,0,0,0,0,2.38-23.08,15.12-36.97,15.12-36.97M149.02,241.22s17.14-9.59,19.42-18.48c0,0,2.92,3.85,2.11,6.47,0,0,6.87-8.11-1.51-17.1-5.33-5.72-11.14-6.76-14.67-6.76-2.02,0-3.28.34-3.28.34,0,0-4.83,6.66-3.04,17.76,1.79,11.1.98,17.77.98,17.77M110.35,216.51c-.15.15-.24.2-.24.2,0,0,.08-.07.24-.2M136.05,149.27c-1.89,0-3.75.78-5.08,2.24-.55.6-12.78,14.17-16.35,36.73-2.51,1.49-5.51,4.05-8.83,8.36-2.03,2.64-2.02,6.42.21,8.9.51.57,1.09,1.04,1.72,1.4-1.09,3.01-1.92,4.3-2.17,4.65-2.67,2.38-3.09,6.42-.94,9.29,1.35,1.8,3.42,2.77,5.52,2.77,1.27,0,2.55-.35,3.7-1.08.35-.22.7-.49,1.05-.81.98-.8,2.02-1.55,3.05-2.21-.42,6.69-1.02,13.81-1.72,17.87-1.08-.63-2.28-.94-3.46-.94-2.03,0-4.03.89-5.39,2.6-2.28,2.86-1.92,6.99.8,9.43.76.75,10.93,11.25,4.69,29.77-3.47,10.3-3.77,24.66-.9,42.67,2.07,13.04,5.07,23.15,5.19,23.57.87,2.92,3.56,4.93,6.61,4.93,0,0,.02,0,.03,0,3.06-.01,5.75-2.04,6.6-4.98,3.04-10.52,6.88-22.36,9.99-30.56.79.4,1.66.66,2.59.74.19.02.38.02.57.02,3.15,0,5.94-2.16,6.7-5.27,1.05-4.31,5.41-23.27,4.76-36.66,12.16-3.03,37.07-11.9,45.68-34.92,11.38-30.43-5.47-48.81-6.19-49.58-1.32-1.4-3.14-2.17-5.02-2.17-.49,0-.98.05-1.47.16-.97.21-1.86.62-2.63,1.19-.19-.16-.39-.32-.57-.47-2.62-2.18-6.21-5.16-10.77-7.82-5.6-3.26-11.39-5.25-17.21-5.89-3.05-.34-5.36-1.19-6.17-2.28-.47-.63-.43-1.44-.39-1.72.88-2.74-.11-5.52-2.39-7.3-1.16-.91-2.57-1.34-4-1.34-.45,0-.91.04-1.35.13.08-1.11.21-2.31.38-3.61.39-2.98-1.19-5.88-3.92-7.15-.93-.44-1.93-.65-2.91-.65h0ZM155.64,228.28c-.19-1.82-.44-3.8-.79-5.93-.72-4.46-.06-7.88.67-10.05,2.37.24,5.47,1.29,8.47,4.51.12.13.24.26.35.39-1.25.92-2.18,2.26-2.58,3.83-.48,1.86-2.91,4.55-6.12,7.26h0ZM115.68,239.74s0,0,0,0h0Z"/>
      <path class="cls-25" d="M303.71,170.07c2,0,19.85.68,23.83,24.9,4.22,25.67-17.97,41.02-17.97,41.02,0,0,3.85-17.71-2.92-25.42-2.02-2.29-4.65-3.37-7.53-3.37-6.82,0-15.05,5.99-19.95,16.08-6.64,13.67-7.3,43.64,13.48,51.16,2.7.98,5.39,1.4,8.02,1.4,17.58,0,32.56-19.03,32.56-19.03.03,10.9-11.14,26.98-11.14,26.98.17.03.35.04.54.04,4.06,0,11.47-5.61,11.47-5.61,0,0-9.55,25.33-32.67,25.78-.49,0-.97.01-1.45.01-22.13,0-32.62-9.78-32.62-9.78-.16,1.3,1.75,3.57,1.75,3.57,0,0-15.54-5.68-21.63-32.7-6.08-27.03,1.69-47.77,1.69-47.77-.59,8.45,1.97,13.51,1.97,13.51,0,0-1.97-13.51,4-24.95,8.43-16.16,18.01-19.26,18.01-19.26-4.71,4.11-6.12,9.78-6.12,9.78,0,0,11.13-19.35,34.65-19.35h0c1.39,0,2.81.07,4.28.21l-2.43-7.18s.06,0,.18,0M303.71,163.17c-.3,0-.46,0-.46,0-2.16.11-4.18,1.23-5.39,3.01-.85,1.25-1.27,2.73-1.21,4.21-9.95,1.03-17.72,4.99-23.43,9.32-.03,0-.05,0-.08,0-.71,0-1.42.11-2.12.34-1.26.41-12.54,4.5-22,22.63-1.49,2.85-2.56,5.8-3.32,8.67-1.34.78-2.41,2-2.99,3.54-.35.93-8.42,23-1.96,51.7,6.83,30.35,25.21,37.38,25.99,37.67.77.28,1.57.42,2.36.42.53,0,1.05-.06,1.56-.18.58.29,1.2.59,1.85.88,7.94,3.6,17.43,5.51,27.46,5.51.52,0,1.05,0,1.58-.02,11.53-.22,21.97-5.6,30.19-15.56,5.94-7.19,8.69-14.38,8.8-14.68,1.08-2.87.14-6.12-2.32-7.95-.53-.4-1.11-.71-1.7-.93,2.04-4.86,3.62-10.18,3.6-14.98,0-2.93-1.87-5.54-4.65-6.5-.74-.25-1.5-.38-2.25-.38-2.07,0-4.09.94-5.42,2.63-.03.03-3.49,4.36-8.8,8.58-4.51,3.57-11.35,7.83-18.34,7.83-1.94,0-3.85-.33-5.67-.99-4.87-1.76-8.45-5.4-10.65-10.82-3.98-9.79-2.6-23.37,1.03-30.84,3.85-7.92,9.96-12.2,13.75-12.2,1.02,0,1.72.31,2.35,1.03,3.03,3.44,2.6,13.62,1.36,19.42-.59,2.76.56,5.62,2.92,7.18,1.16.77,2.5,1.16,3.83,1.16s2.74-.41,3.91-1.22c1.05-.73,25.73-18.17,20.85-47.81-2.5-15.22-10-22.7-15.85-26.29-6.63-4.07-12.99-4.39-14.78-4.39h0Z"/>
      <path class="cls-25" d="M311.73,67.57c22.35.15,11.51,13.37,18.62,19.86,2.98,2.72,5.58,3.18,8.31,3.18,1.38,0,2.79-.12,4.3-.12,2.62,0,5.55.35,9.11,2.28,9.69,5.24,8.06,15.21,8.06,15.21,0,0-14.45,23.89-58.42,51.32-15.6,9.73-34.74,13.38-53.9,13.38-34.86,0-69.79-12.09-83.47-21.66-9.36-6.54-16.31-17.97-19.1-23.06-.69-1.27.15-2.84,1.59-2.93.76-.05,1.55-.07,2.38-.07,14.36,0,38.44,7.07,62.03,7.07,11.54,0,22.97-1.69,33.07-6.74,33.57-16.76,67.41-57.72,67.41-57.72M311.73,60.67c-2.06,0-4,.92-5.31,2.5h0c-.33.4-33.34,40.05-65.18,55.94-8.1,4.05-17.91,6.01-29.99,6.01-12.68,0-25.75-2.17-37.27-4.09-9.6-1.6-17.89-2.98-24.75-2.98-.98,0-1.93.03-2.83.09-3.04.2-5.72,1.91-7.19,4.58-1.47,2.68-1.47,5.87,0,8.55,3.51,6.41,10.93,18.23,21.2,25.4,16.1,11.26,53.21,22.9,87.42,22.9,22.84,0,42.21-4.85,57.55-14.43,44.86-27.99,60.05-52.57,60.67-53.6.46-.75.76-1.59.91-2.46.9-5.5-.54-16.4-11.59-22.38-5.1-2.76-9.3-3.11-12.39-3.11-.91,0-1.77.04-2.53.07-.64.03-1.24.05-1.77.05-1.53,0-2.29-.12-3.66-1.38-.52-.48-.69-2.27-.85-4-.31-3.4-.74-8.05-4.39-11.9-3.66-3.87-9.37-5.7-17.99-5.76-.02,0-.03,0-.05,0h0Z"/>
      <path class="cls-25" d="M363.85,29.7c1.85.38,5.27,1.23,8.83,2.86-.01.72-.05,1.47-.11,2.29-1.21,14.94-12.99,24.24-13.75,28.5-.77,4.26,2.39,7.34,5.19,14.99s1.98,20.91,1.98,20.91c-2.73-13.6-11.53-14.57-21.12-15.42-9.68-.86-9.36-6.94-11.87-14.41-2.51-7.46-15.25-8.36-15.25-8.36,6.53-1.09,11.64-1.47,15.71-1.47,9.57,0,13.4,2.11,16.5,2.11.87,0,1.68-.17,2.54-.59,4.95-2.43,9.11-21.79,11.1-30.49.07-.32.16-.62.25-.92M363.84,22.81c-3,0-5.72,1.96-6.61,4.94-.14.48-.26.92-.36,1.35l-.33,1.45c-.95,4.18-2.25,9.89-3.81,15.09-1.64,5.45-2.88,7.99-3.52,9.07-.48-.09-1.09-.23-1.62-.35-2.89-.66-7.26-1.65-14.14-1.66-5.02,0-10.53.51-16.84,1.57-3.45.58-5.92,3.64-5.75,7.13.17,3.49,2.92,6.31,6.41,6.55,3.69.29,8.63,1.99,9.2,3.68.39,1.14.71,2.32,1.03,3.45,1.61,5.77,4.04,14.49,16.77,15.62,9.82.87,13.3,1.6,14.97,9.91.65,3.24,3.5,5.54,6.76,5.54.16,0,.32,0,.47-.02,3.45-.24,6.2-3,6.41-6.45.09-1.5.82-14.95-2.39-23.7-1.15-3.13-2.33-5.55-3.29-7.5-.65-1.32-1.43-2.92-1.57-3.63.46-.77,1.51-2.18,2.31-3.26,3.94-5.31,10.54-14.19,11.51-26.17.07-.9.12-1.8.13-2.72.05-2.74-1.53-5.25-4.02-6.39-4.24-1.94-8.29-2.93-10.32-3.34-.46-.09-.93-.14-1.38-.14h0Z"/>
      <path class="cls-25" d="M417.47,152.47c14.68,23.01,7.56,43.17-4.98,66.12-12.54,22.95-18.37,42.67-18.37,42.67,1.87-1.87,5.92-2.35,5.92-2.35-4.06,4.06-3.08,2.43-12.01,28.32-8.92,25.89-23.04,39.01-23.04,39.01,2.11-5.19,0-11.03,0-11.03-2.6,13.47-24.9,28.11-24.9,28.11,0,0,11.27-39.15,21.01-64.94,9.73-25.8-12.17-43.81-12.17-43.81,5.68,1.95,8.76,6.65,8.76,6.65-1.09-7.07-21.25-38.57-21.25-38.57,2.11,2.6,5.76,2.69,6.27,2.69.04,0,.06,0,.06,0-11.03-12.68-10.28-42.54-10.28-42.54,0,0,9.33,16.35,27.16,27.8,21.2,13.63,20.55,41.52,20.55,41.52,3.68-24.68,21.14-57.26,21.14-57.26-2.11,5.35,2.6,11.19,2.6,11.19,10.87-6.81,13.53-33.6,13.53-33.6M417.47,145.57c-.53,0-1.07.06-1.6.19-2.86.68-4.97,3.1-5.26,6.03-.53,5.3-2.01,12.52-4.16,18.45-.6-.67-1.35-1.22-2.21-1.62-.94-.43-1.92-.64-2.89-.64-2.47,0-4.84,1.33-6.08,3.64-.49.91-8.31,15.6-14.62,32.86-3.51-7.13-8.92-14.3-17.27-19.66-16.08-10.34-24.82-25.28-24.9-25.43-1.25-2.17-3.56-3.46-5.98-3.46-.56,0-1.13.07-1.7.21-2.99.76-5.12,3.41-5.2,6.5,0,.33-.19,8.11,1.06,17.59.92,7.02,2.37,13.1,4.34,18.21-1.74,2.25-1.96,5.43-.36,7.94,4.81,7.51,9.95,16,13.86,22.93-.62.52-1.16,1.17-1.58,1.91-1.63,2.91-.93,6.57,1.64,8.69.71.6,17.92,15.32,10.1,36.04-9.72,25.76-20.72,63.86-21.18,65.47-.8,2.77.21,5.75,2.54,7.46,1.21.89,2.65,1.34,4.09,1.34,1.32,0,2.63-.38,3.78-1.13,1.62-1.06,11.32-7.6,18.9-16.32.72.24,1.47.37,2.21.37,1.7,0,3.38-.62,4.7-1.85.63-.58,15.48-14.61,24.86-41.81,1.21-3.51,2.24-6.52,3.12-9.1q4.87-14.23,6.79-16.14l.45-.44c2.08-2.08,2.61-5.24,1.33-7.88-.5-1.03-1.23-1.89-2.1-2.54,2.9-7.71,7.66-19.15,14.4-31.48,5.66-10.36,11.69-22.67,13.47-35.38,1.86-13.27-1-25.62-8.73-37.75-1.29-2.02-3.5-3.19-5.81-3.19h0Z"/>
    </g>
  </g>
</svg>