<?xml version="1.0" encoding="UTF-8"?>
<svg id="Calque_2" data-name="Calque 2" xmlns="http://www.w3.org/2000/svg" viewBox="0 0 455.84 313.33">
  <defs>
    <style>
      .cls-1, .cls-2 {
        fill: #fff;
      }

      .cls-1, .cls-3 {
        opacity: .6;
      }

      .cls-4 {
        fill: #c1e0f7;
      }

      .cls-5 {
        fill: #cfbae1;
      }

      .cls-6 {
        fill: #c59fc9;
      }

      .cls-7 {
        opacity: .3;
      }

      .cls-8 {
        fill: #804089;
      }

      .cls-9 {
        fill: #a4def9;
      }
    </style>
  </defs>
  <g id="line">
    <g>
      <g>
        <g>
          <path class="cls-5" d="M121.49,159.99c-7.84,0-15.67-1.19-23.26-3.54-19.96-6.19-36.32-19.78-46.06-38.27-9.74-18.49-11.7-39.67-5.51-59.63,6.19-19.96,19.78-36.32,38.27-46.06,11.24-5.92,23.82-9.05,36.38-9.05,7.84,0,15.67,1.19,23.25,3.54,19.96,6.19,36.32,19.78,46.06,38.27,9.74,18.49,11.7,39.67,5.51,59.63-6.19,19.96-19.78,36.32-38.27,46.06-.59.31-1.18.61-1.77.91-10.91,5.41-22.55,8.15-34.6,8.15Z"/>
          <path class="cls-8" d="M121.31,6.85c7.44,0,14.93,1.12,22.24,3.39,19.09,5.92,34.73,18.91,44.05,36.6,9.32,17.68,11.19,37.93,5.27,57.02-5.92,19.09-18.91,34.73-36.6,44.05-.56.3-1.13.59-1.7.87-10.44,5.17-21.72,7.79-33.08,7.79-7.45,0-14.93-1.12-22.24-3.39-19.09-5.92-34.73-18.91-44.05-36.6-9.32-17.68-11.19-37.93-5.27-57.03,5.92-19.09,18.91-34.73,36.6-44.05,10.91-5.75,22.8-8.66,34.79-8.66M121.31,0v6.85V0h0c-13.11,0-26.24,3.27-37.98,9.45-19.3,10.17-33.49,27.24-39.94,48.08-6.46,20.84-4.41,42.94,5.75,62.24,10.17,19.3,27.24,33.49,48.08,39.94,7.92,2.45,16.08,3.7,24.27,3.7,12.58,0,24.73-2.86,36.12-8.51.62-.31,1.24-.62,1.85-.94,19.3-10.17,33.49-27.24,39.94-48.08,6.46-20.84,4.41-42.94-5.75-62.24-10.17-19.3-27.24-33.49-48.08-39.94-7.91-2.45-16.08-3.7-24.26-3.7h0Z"/>
        </g>
        <g>
          <path class="cls-5" d="M230.28,227.83c-3.28,0-6.35-1.45-8.43-3.99l-67.63-82.37c-3.82-4.65-3.14-11.53,1.51-15.35l3.37-2.76c1.95-1.6,4.4-2.48,6.92-2.48,3.28,0,6.35,1.45,8.43,3.99l67.63,82.37c3.81,4.65,3.14,11.53-1.51,15.35l-3.37,2.76c-1.95,1.6-4.4,2.48-6.92,2.48Z"/>
          <path class="cls-8" d="M166.01,124.31c2.16,0,4.31.93,5.79,2.73l67.63,82.37c2.62,3.19,2.16,7.91-1.03,10.53l-3.37,2.76c-1.39,1.14-3.07,1.7-4.74,1.7-2.16,0-4.31-.93-5.79-2.73l-67.63-82.37c-2.62-3.19-2.16-7.91,1.03-10.53l3.37-2.76c1.39-1.14,3.07-1.7,4.74-1.7M166.01,117.46h0c-3.3,0-6.53,1.16-9.09,3.25l-3.37,2.76c-6.11,5.01-6.99,14.06-1.98,20.17l67.63,82.37c2.73,3.33,6.77,5.24,11.08,5.24,3.3,0,6.53-1.16,9.09-3.25l3.37-2.76c6.11-5.01,6.99-14.06,1.98-20.17l-67.63-82.37c-2.73-3.33-6.77-5.24-11.08-5.24h0Z"/>
        </g>
        <g>
          <rect class="cls-2" x="188.48" y="113.59" width="19.32" height="121.54" rx="7.48" ry="7.48" transform="translate(-65.64 165.33) rotate(-39.39)"/>
          <g class="cls-7">
            <path class="cls-8" d="M168.54,129.71l67.63,82.37c2.62,3.19,2.16,7.91-1.03,10.53l-.51.42c-.72.59-1.52,1.03-2.36,1.31,1.51-2.61,1.33-6-.7-8.47l-35.29-36.97c-1.46-1.78-1.65-1.82-3.78-.95-1.97.8-2.63-1.57-4.65-1l-30.97-37.65c-2.03-2.47-2.61-5.53-1.11-8.14.1-.19.22-.37.34-.55,0-.01.02-.02.03-.03.05-.07.1-.14.15-.21.12-.17.26-.33.4-.48.06-.06.11-.13.18-.19.04-.05.09-.1.14-.14.08-.08.17-.16.25-.24.09-.08.17-.15.26-.23l.51-.42c3.19-2.62,7.91-2.16,10.53,1.03Z"/>
          </g>
          <path class="cls-9" d="M189.57,45.79c9.07,17.23,10.98,36.32,6.76,53.87-1.35,5.65-3.35,11.14-5.94,16.35-6.94,14-18.2,26.02-33.08,33.86-5.37,2.83-10.92,4.96-16.54,6.42-19.71,5.14-40.38,2.13-57.57-7.67-10.27-5.85-19.3-14.12-26.13-24.52-1.36-2.08-2.64-4.24-3.83-6.49-6.86-13.02-9.62-27.1-8.74-40.77h0c1.66-25.89,16.36-50.33,40.99-63.3,10.52-5.54,21.74-8.41,32.88-8.84,27.37-1.06,54.26,12.59,69.09,37.36.34.56.67,1.14,1,1.72h0c.29.51.57,1.01.84,1.52.09.16.18.33.27.5Z"/>
          <path class="cls-6" d="M193.52,62.24c-16.92-29.33-63.89-31.75-56.64,3.06l-2.53-6.31c-27.8-15.43-3.97-45.14,36.42-36.47,0,0,18.44,10.48,22.75,39.71Z"/>
          <path class="cls-6" d="M148.16,127.8c16.17-13.64,10.36-39.33,10.36-39.33,0,0,4.71-10.75,3.25-22.09,0,0,17.74,14.55,18.59,35.96-7.9,12.56-18.58,21.12-32.2,25.47Z"/>
          <path class="cls-6" d="M190.39,116.01c-6.94,14-18.2,26.02-33.08,33.86-5.37,2.83-10.92,4.96-16.54,6.42-.22-.03-.41-.07-.58-.09-.47.22-.96.42-1.45.6-11.2,2.37-23.19,2.02-35.74-.27.58.03,23.26.86,41.5-14.44l10.87-3.34,30.28-21.99,4.73-.74Z"/>
          <path class="cls-6" d="M97.11,120.53c10.03,2.34,19.89-.08,29.44-11.18l10.97-1.74s-4.88,16.32-22.07,21.88c0,0-9.5-3.67-18.34-8.96Z"/>
          <path class="cls-6" d="M89.84,56.03s-2.75,11.09,5.65,25.64c0,0,1.71,11.87,9.3,18.33-10.48,1.6-19.68-1.56-24.82-19.87,0,0,1.04-15.57,9.86-24.11Z"/>
          <path class="cls-6" d="M103.59,138.12c-15.09,2.07-35.9-2.15-46.53-14.02-1.36-2.08-2.64-4.24-3.83-6.49-6.86-13.02-9.62-27.1-8.74-40.77h0s6.05,26.5,33.02,41.51c0,0,12.44,17.96,26.08,19.76Z"/>
          <path class="cls-6" d="M189.57,45.79c9.07,17.23,10.98,36.32,6.76,53.87-1.51,3.28-3.24,6.46-5.19,9.52-6.51,10.25-15.51,19.07-26.26,25.07-5.32,3.01-10.98,5.29-16.86,6.96-2.95.78-5.93,1.48-8.97,1.9l-1.13.17-1.15.13c-.76.08-1.52.17-2.29.24-1.53.09-3.06.22-4.6.22-1.54.06-3.07-.02-4.62-.06-.77-.04-1.53-.11-2.3-.16l-1.15-.09-1.15-.14c-3.07-.34-6.11-.95-9.11-1.74-6-1.58-11.79-4.08-17.08-7.39-2.65-1.64-5.14-3.55-7.51-5.57-2.36-2.06-4.54-4.3-6.56-6.66-.5-.59-.98-1.22-1.46-1.82l-.73-.92-.67-.95-1.35-1.9-1.24-1.96-.62-.98-.57-1.01-1.13-2.02-1.05-2.12c-.35-.7-.64-1.44-.96-2.16-1.22-2.9-2.21-5.91-2.94-8.98-.72-3.08-1.16-6.22-1.35-9.37-.18-3.15-.1-6.31.24-9.45.35-3.14.99-6.24,1.85-9.27,3.45-12.13,11.21-23.02,21.61-30.2l.97-.68.99-.64c.67-.41,1.33-.86,2.02-1.23.69-.38,1.37-.77,2.07-1.15.73-.35,1.45-.73,2.18-1.07,2.95-1.35,6.05-2.38,9.22-3.08,6.34-1.39,12.98-1.42,19.33-.06,6.34,1.35,12.39,4.06,17.63,7.9,5.24,3.84,9.63,8.84,12.79,14.49l.59,1.07.56,1.12c.39.74.69,1.52,1.03,2.29.61,1.56,1.17,3.15,1.58,4.78.86,3.25,1.23,6.63,1.21,9.98-.1,6.73-2.01,13.39-5.48,19.14-3.47,5.75-8.53,10.56-14.43,13.73-3.05,1.61-6.41,2.81-9.86,3.39-3.46.62-7.01.56-10.45-.02-3.45-.58-6.79-1.74-9.88-3.39-3.08-1.66-5.86-3.88-8.22-6.46-.58-.65-1.19-1.29-1.69-2.01l-.78-1.05c-.25-.36-.53-.7-.74-1.08l-1.34-2.26c-.42-.79-.79-1.64-1.17-2.47-1.41-3.4-2.09-7.11-1.97-10.79.22-7.35,3.51-14.52,9.01-19.54,1.38-1.25,2.88-2.36,4.49-3.29.21-.12.39-.24.61-.35l.67-.33,1.34-.63c.46-.18.93-.35,1.4-.51l.71-.24c.24-.07.48-.12.72-.19.48-.12.97-.23,1.46-.33.49-.09.98-.14,1.48-.2.49-.06.99-.11,1.48-.11.49-.01.99-.02,1.49-.02.49.02.99.07,1.48.12l.74.07c.24.03.48.09.73.13l1.45.3c.47.12.94.27,1.41.42l.7.23.68.27c.45.19.9.38,1.34.58l1.28.7.63.36.6.41c.4.27.8.54,1.19.82.37.31.74.62,1.1.94.18.16.36.31.54.48l.5.51c.34.35.66.69.98,1.04.3.37.59.75.88,1.12l.43.57.37.6.74,1.2c.22.41.42.84.62,1.26.41.8.74,1.77,1.03,2.69.12.47.24.94.34,1.41.1.48.15.96.21,1.43.22,1.91.09,3.83-.33,5.64-.44,1.81-1.18,3.49-2.16,4.98-1.92,3.01-4.92,5.11-8.02,5.93-.87.23-1.77-.29-2-1.16-.15-.59.03-1.19.44-1.59l.07-.07c3.69-3.6,4.25-8.49,2.7-11.73-.11-.2-.19-.41-.3-.6-.13-.19-.23-.38-.35-.57-.27-.36-.47-.69-.82-1.06-.16-.18-.31-.37-.46-.54l-.51-.49-.25-.25-.28-.21c-.18-.14-.36-.28-.53-.43-.76-.5-1.51-.98-2.33-1.28l-.3-.13-.31-.1c-.21-.06-.41-.13-.61-.19-.22-.04-.42-.08-.63-.14l-.31-.07-.32-.04c-.21-.02-.42-.06-.62-.1-.21,0-.42-.02-.62-.04-.21-.03-.41-.02-.62-.01-.21,0-.41,0-.62,0-.4.07-.81.03-1.21.14l-.6.09c-.19.06-.38.11-.58.15-.1.02-.2.04-.29.07l-.28.1c-.19.07-.39.13-.58.18-.18.09-.37.17-.56.25l-.29.12c-.09.04-.2.11-.3.16-.83.44-1.63.92-2.37,1.51-1.47,1.16-2.72,2.64-3.55,4.36-.85,1.71-1.3,3.62-1.36,5.53-.06,1.91.28,3.82,1.02,5.58.22.43.4.87.62,1.31.27.45.54.9.8,1.35.12.24.3.43.45.64l.46.63c.28.44.66.8,1,1.19,1.41,1.53,3.05,2.86,4.88,3.85,1.85.98,3.85,1.66,5.91,2.01,2.05.34,4.17.4,6.22.02,2.06-.36,4.01-1.05,5.91-2.03,3.94-2.12,7.26-5.28,9.57-9.1,2.3-3.82,3.57-8.26,3.64-12.72.01-2.22-.22-4.45-.8-6.6-.26-1.08-.65-2.13-1.05-3.17-.23-.51-.42-1.04-.69-1.53l-.37-.76-.43-.77c-2.3-4.09-5.44-7.68-9.22-10.45-3.78-2.77-8.15-4.72-12.73-5.7-4.59-.98-9.37-.95-13.93.04-2.28.5-4.51,1.25-6.65,2.23-.53.24-1.05.52-1.58.77l-1.6.88c-.54.29-1.04.64-1.56.95l-.77.49-.75.52c-8,5.53-13.97,13.9-16.64,23.27-.67,2.34-1.17,4.73-1.43,7.15-.27,2.42-.33,4.86-.18,7.28.14,2.43.47,4.84,1.03,7.21.56,2.36,1.32,4.68,2.27,6.92.25.56.46,1.13.74,1.67l.81,1.64.92,1.63.46.82.5.79,1,1.58,1.08,1.52.54.76.58.72c.39.48.76.98,1.16,1.45,1.61,1.88,3.34,3.64,5.19,5.27,1.88,1.59,3.83,3.1,5.93,4.4,8.35,5.26,18.36,7.83,28.41,7.64,10.04-.17,20.13-3.02,28.99-7.99,8.78-4.9,16.25-12.17,21.71-20.77,5.49-8.6,8.97-18.51,10.24-28.69,1.27-10.18.35-20.63-2.75-30.43-.12-.39-.25-.78-.38-1.16.73,1.22,1.44,2.47,2.11,3.74Z"/>
          <path class="cls-6" d="M86.3,15.07c-15.32,15.83-20.36,34.06-17.89,54.05,0,0,5.37-21.75,27.67-33.89,0,0,7.21-27.74,43.91-28.83-18.87-3.08-37.25-3.16-53.69,8.67Z"/>
          <g class="cls-3">
            <path class="cls-2" d="M60.39,118.55c11.53,21.89,32.11,35.94,54.72,39.96-25.36-2.1-49.15-16.71-61.88-40.89-19.83-37.65-5.39-84.24,32.26-104.08,15.78-8.31,33.11-10.6,49.4-7.7-14.14-1.18-28.76,1.53-42.24,8.63-37.65,19.83-52.09,66.43-32.26,104.08Z"/>
          </g>
          <path class="cls-8" d="M156.55,152.76c-18.3,9.07-39.03,10.73-58.62,4.66-20.22-6.27-36.8-20.04-46.67-38.77-9.87-18.73-11.85-40.19-5.58-60.41,6.27-20.22,20.04-36.8,38.77-46.67C103.18,1.71,124.64-.28,144.87,5.99c20.22,6.27,36.8,20.04,46.67,38.77,9.87,18.73,11.85,40.19,5.58,60.41-6.27,20.22-20.04,36.8-38.77,46.67-.6.31-1.2.62-1.8.92ZM88.22,14.64c-.57.28-1.13.57-1.7.87-17.68,9.32-30.68,24.96-36.6,44.05-5.92,19.09-4.04,39.34,5.27,57.02,9.32,17.68,24.96,30.68,44.05,36.6,19.09,5.92,39.35,4.04,57.02-5.27,17.68-9.32,30.68-24.96,36.6-44.05,5.92-19.09,4.04-39.34-5.27-57.02h0c-9.32-17.68-24.96-30.68-44.05-36.6-18.48-5.73-38.05-4.16-55.33,4.4Z"/>
          <g class="cls-3">
            <path class="cls-2" d="M129.27,70.06l.37.35c-.06-.01-.12-.03-.18-.05l-.31-.07-.32-.04c-.21-.02-.42-.06-.62-.1-.21,0-.42-.02-.62-.04-.21-.03-.41-.02-.62-.01-.21,0-.41,0-.62,0-.4.07-.81.03-1.21.14l-.6.09c-.19.06-.38.11-.58.15-.1.02-.2.04-.29.07l-.28.1c-.19.07-.39.13-.58.18-.18.09-.37.17-.56.25l-.29.12c-.09.04-.2.11-.3.16-.83.44-1.63.92-2.37,1.51-1.47,1.16-2.72,2.64-3.55,4.36-.85,1.71-1.3,3.62-1.36,5.53-.06,1.91.28,3.82,1.02,5.58.22.43.4.87.62,1.31.27.45.54.9.8,1.35.12.24.3.43.45.64l.46.63c.28.44.66.8,1,1.19.65.71,1.35,1.37,2.1,1.98-.91-.31-1.79-.7-2.64-1.15-1.84-1-3.48-2.32-4.88-3.85-.35-.39-.72-.75-1-1.19l-.46-.63c-.15-.21-.33-.4-.45-.64-.26-.46-.53-.9-.8-1.35-.23-.44-.4-.88-.62-1.31-.74-1.77-1.08-3.68-1.02-5.58.06-1.91.51-3.82,1.36-5.53.84-1.71,2.09-3.2,3.55-4.36.73-.59,1.54-1.07,2.37-1.51.1-.05.2-.13.3-.16l.29-.12c.19-.08.38-.16.56-.25.19-.06.39-.11.58-.18l.28-.1c.1-.03.2-.05.29-.07.2-.04.39-.1.58-.15l.6-.09c.4-.11.8-.07,1.21-.14.21,0,.41,0,.62,0,.2,0,.41-.02.62.01.2.02.42.03.62.04.21.03.41.07.62.1l.32.04.31.07c.21.06.41.1.63.14.2.07.41.13.61.19l.31.1.3.13c.82.3,1.57.78,2.33,1.28.17.15.34.29.53.43l.28.21.25.25Z"/>
          </g>
          <g class="cls-3">
            <path class="cls-2" d="M84.83,106.16l-.92-1.63-.81-1.64c-.28-.54-.49-1.11-.74-1.67-.95-2.24-1.71-4.56-2.27-6.92-.56-2.37-.89-4.78-1.03-7.21-.14-2.43-.08-4.86.18-7.28.27-2.42.76-4.81,1.43-7.15,2.67-9.37,8.64-17.74,16.64-23.27l.75-.52.77-.49c.52-.31,1.02-.66,1.56-.95l1.6-.88c.53-.26,1.05-.53,1.58-.77,2.13-.98,4.36-1.72,6.65-2.23,4.56-1,9.35-1.02,13.93-.04,4.27.92,8.36,2.68,11.95,5.15-2.1-.92-4.29-1.64-6.53-2.12-4.59-.98-9.37-.95-13.93.04-2.28.5-4.51,1.25-6.65,2.23-.53.24-1.05.52-1.58.77l-1.6.88c-.54.29-1.04.64-1.56.95l-.77.49-.75.52c-8,5.53-13.97,13.9-16.64,23.27-.67,2.34-1.17,4.73-1.43,7.15-.27,2.42-.33,4.86-.18,7.28.14,2.43.47,4.84,1.03,7.21.56,2.36,1.32,4.68,2.27,6.92.25.56.46,1.13.74,1.67l.81,1.64.92,1.63.46.82.5.79,1,1.58,1.08,1.52.54.76.58.72c.39.48.76.98,1.16,1.45,1.61,1.88,3.34,3.64,5.19,5.27,1.71,1.45,3.49,2.83,5.37,4.04-1.67-.8-3.3-1.69-4.86-2.67-2.1-1.3-4.05-2.8-5.93-4.4-1.85-1.63-3.58-3.39-5.19-5.27-.4-.47-.77-.97-1.16-1.45l-.58-.72-.54-.76-1.08-1.52-1-1.58-.5-.79-.46-.82Z"/>
          </g>
          <g class="cls-3">
            <path class="cls-2" d="M158.39,55.6l-.56-1.12-.59-1.07c-3.16-5.65-7.55-10.65-12.79-14.49-.67-.5-1.36-.97-2.07-1.43,2.63,1.25,5.14,2.74,7.49,4.46,5.24,3.84,9.63,8.84,12.79,14.49l.59,1.07.56,1.12c.39.74.69,1.52,1.03,2.29.61,1.56,1.17,3.15,1.58,4.78.86,3.25,1.23,6.63,1.21,9.98-.1,6.73-2.01,13.39-5.48,19.14-3.47,5.75-8.53,10.56-14.43,13.73-3.05,1.61-6.41,2.81-9.86,3.39-3.46.62-7.01.56-10.45-.02-3.45-.58-6.79-1.74-9.88-3.39-1.03-.56-2.03-1.17-2.98-1.85,2.38,1.03,4.88,1.77,7.44,2.21,3.44.58,7,.64,10.45.02,3.45-.59,6.81-1.78,9.86-3.39,5.9-3.17,10.97-7.98,14.43-13.73,3.47-5.76,5.38-12.42,5.48-19.14.02-3.35-.35-6.73-1.21-9.98-.41-1.63-.97-3.22-1.58-4.78-.34-.77-.65-1.55-1.03-2.29Z"/>
          </g>
          <g class="cls-3">
            <path class="cls-2" d="M131.71,73.31c-.11-.2-.19-.41-.3-.6-.13-.19-.23-.38-.35-.57-.27-.36-.47-.69-.82-1.06-.16-.18-.31-.37-.46-.54l-.51-.49-.25-.25-.28-.21c-.18-.14-.36-.28-.53-.43-.49-.32-.97-.63-1.48-.89.16.02.33.02.5.03.21.03.41.07.62.1l.32.04.31.07c.21.06.41.1.63.14.2.07.41.13.61.19l.31.1.3.13c.82.3,1.57.78,2.33,1.28.17.15.34.29.53.43l.28.21.25.25.51.49c.16.17.3.36.46.54.35.37.56.7.82,1.06.11.19.22.38.35.57.11.19.19.4.3.6,1.55,3.24.99,8.13-2.7,11.73l-.07.07c-.18.17-.31.37-.39.6-.81.41-1.66.73-2.5.96-.87.23-1.77-.29-2-1.16-.15-.59.03-1.19.44-1.59l.07-.07c3.69-3.6,4.25-8.49,2.7-11.73Z"/>
          </g>
          <g class="cls-3">
            <path class="cls-2" d="M102.62,91.37c.38.83.76,1.68,1.17,2.47l1.34,2.26c.21.38.49.73.74,1.08l.78,1.05c.5.72,1.1,1.36,1.69,2.01,2.37,2.58,5.14,4.8,8.22,6.46,1.53.82,3.11,1.51,4.74,2.07-3.21-.61-6.31-1.72-9.19-3.26-3.08-1.66-5.86-3.88-8.22-6.46-.58-.65-1.19-1.29-1.69-2.01l-.78-1.05c-.25-.36-.53-.7-.74-1.08l-1.34-2.26c-.42-.79-.79-1.64-1.17-2.47-1.41-3.4-2.09-7.11-1.97-10.79.22-7.35,3.51-14.52,9.01-19.54,1.38-1.25,2.88-2.36,4.49-3.29.21-.12.39-.24.61-.35l.67-.33,1.34-.63c.46-.18.93-.35,1.4-.51l.71-.24c.24-.07.48-.12.72-.19.48-.12.97-.23,1.46-.33.49-.09.98-.14,1.48-.2.49-.06.99-.11,1.48-.11.49-.01.99-.02,1.49-.02.49.02.99.07,1.48.12l.74.07c.24.03.48.09.73.13l1.45.3c.47.12.94.27,1.41.42l.7.23.37.15c-.07-.02-.13-.03-.2-.04l-.74-.07c-.49-.04-.98-.09-1.48-.12-.49,0-.99,0-1.49.02-.5,0-.99.05-1.48.11-.49.06-.99.11-1.48.2-.49.1-.97.21-1.46.33-.24.06-.48.11-.72.19l-.71.24c-.47.16-.94.33-1.4.51l-1.34.63-.67.33c-.22.11-.4.23-.61.35-1.61.93-3.11,2.04-4.49,3.29-5.5,5.02-8.8,12.19-9.01,19.54-.12,3.68.56,7.39,1.97,10.79Z"/>
          </g>
          <g class="cls-3">
            <path class="cls-2" d="M98.91,135.46c4.6,2.89,9.58,5.15,14.74,6.73-.71-.16-1.41-.34-2.11-.52-6-1.58-11.79-4.08-17.08-7.39-2.65-1.64-5.14-3.55-7.51-5.57-2.36-2.06-4.54-4.3-6.56-6.66-.5-.59-.98-1.22-1.46-1.82l-.73-.92-.67-.95-1.35-1.9-1.24-1.96-.62-.98-.57-1.01-1.13-2.02-1.05-2.12c-.35-.7-.64-1.44-.96-2.16-1.22-2.9-2.21-5.91-2.94-8.98-.72-3.08-1.16-6.22-1.35-9.37-.18-3.15-.1-6.31.24-9.45.35-3.14.99-6.24,1.85-9.27,3.45-12.13,11.21-23.02,21.61-30.2l.97-.68.99-.64c.67-.41,1.33-.86,2.02-1.23.69-.38,1.37-.77,2.07-1.15.73-.35,1.45-.73,2.18-1.07,2.95-1.35,6.05-2.38,9.22-3.08,6.34-1.39,12.98-1.42,19.33-.06,1.5.32,2.99.71,4.45,1.19-6.35-1.36-12.99-1.33-19.33.06-3.18.7-6.27,1.73-9.22,3.08-.73.34-1.45.71-2.18,1.07-.7.38-1.38.77-2.07,1.15-.69.37-1.34.82-2.02,1.23l-.99.64-.97.68c-10.4,7.18-18.15,18.07-21.61,30.2-.87,3.03-1.5,6.13-1.85,9.27-.34,3.13-.43,6.3-.24,9.45.19,3.15.62,6.29,1.35,9.37.73,3.07,1.72,6.08,2.94,8.98.32.72.61,1.46.96,2.16l1.05,2.12,1.13,2.02.57,1.01.62.98,1.24,1.96,1.35,1.9.67.95.73.92c.48.6.96,1.23,1.46,1.82,2.02,2.36,4.21,4.6,6.56,6.66,2.38,2.02,4.86,3.93,7.51,5.57Z"/>
          </g>
          <g class="cls-3">
            <path class="cls-2" d="M141.33,50.4c3.78,2.77,6.93,6.35,9.22,10.45l.43.77.37.76c.26.49.45,1.02.69,1.53.4,1.04.78,2.09,1.05,3.17.58,2.15.81,4.38.8,6.6-.06,4.46-1.34,8.9-3.64,12.72-2.31,3.82-5.63,6.98-9.57,9.1-1.89.99-3.85,1.67-5.91,2.03-2.05.39-4.17.33-6.22-.02-1.35-.23-2.68-.6-3.95-1.11,1.89.28,3.84.3,5.73-.06,2.06-.36,4.01-1.05,5.91-2.03,3.94-2.12,7.26-5.28,9.57-9.1,2.3-3.82,3.57-8.26,3.64-12.72.01-2.22-.22-4.45-.8-6.6-.26-1.08-.65-2.13-1.05-3.17-.23-.51-.42-1.04-.69-1.53l-.37-.76-.43-.77c-2.3-4.09-5.44-7.68-9.22-10.45-2.72-2-5.76-3.56-8.95-4.66.22.05.45.09.67.14,4.59.99,8.96,2.94,12.73,5.7Z"/>
          </g>
          <path class="cls-8" d="M162.15,137.46c-4.26,2.11-8.85,3.87-13.71,5.25-2.49.66-5.77,1.47-9.18,1.94l-1.11.17s-.04,0-.06,0l-1.15.13c-.28.03-.55.06-.82.09-.5.06-1,.11-1.5.15-.39.02-.74.05-1.08.07-1.18.08-2.4.16-3.63.16-1.32.05-2.64,0-3.92-.04l-.77-.02c-.54-.03-1.06-.07-1.57-.11-.26-.02-.53-.04-.79-.06l-1.17-.09s-.04,0-.07,0l-1.15-.14c-2.95-.32-6-.91-9.32-1.78-6.2-1.64-12.09-4.19-17.51-7.58-2.43-1.51-4.95-3.37-7.7-5.71-2.35-2.05-4.61-4.35-6.74-6.84-.36-.43-.7-.86-1.04-1.29-.15-.19-.3-.38-.45-.57l-.73-.92s-.03-.04-.05-.07l-2.03-2.85s-.03-.05-.05-.07l-1.86-2.95s-.03-.04-.04-.07l-1.7-3.04s-.03-.05-.04-.07l-1.05-2.12c-.25-.5-.47-1.01-.68-1.51-.1-.24-.2-.47-.3-.7-1.28-3.03-2.29-6.14-3.04-9.26-.72-3.07-1.19-6.31-1.39-9.64-.19-3.23-.1-6.49.25-9.71.35-3.15.99-6.35,1.91-9.53,3.54-12.43,11.64-23.75,22.22-31.05l.97-.67s.03-.02.05-.03l.99-.64c.26-.16.48-.3.7-.44.45-.29.92-.58,1.42-.85.24-.13.49-.28.75-.42.44-.25.88-.49,1.32-.73.02,0,.04-.02.05-.03.26-.13.52-.25.77-.38.48-.24.95-.47,1.44-.7,3.06-1.4,6.27-2.47,9.54-3.19,6.55-1.44,13.46-1.46,19.99-.06,6.54,1.4,12.85,4.22,18.23,8.16,5.37,3.93,9.94,9.12,13.23,14.99l.59,1.07s.02.04.03.06l.56,1.12c.29.56.54,1.14.78,1.7.09.22.19.44.28.66,0,.02.02.04.03.06.76,1.95,1.27,3.48,1.64,4.97.86,3.24,1.28,6.73,1.26,10.37-.1,7.03-2.08,13.92-5.7,19.94-3.63,6.03-8.83,10.97-15.03,14.3-3.33,1.76-6.81,2.96-10.34,3.56-3.48.62-7.18.62-10.97-.02-3.62-.61-7.1-1.81-10.36-3.55-3.18-1.72-6.08-4-8.64-6.79l-.25-.28c-.53-.59-1.08-1.19-1.57-1.89l-.76-1.02c-.08-.11-.14-.2-.21-.29-.2-.27-.43-.59-.63-.95l-1.32-2.23s-.03-.04-.04-.07c-.34-.65-.65-1.32-.94-1.97l-.26-.57s-.02-.04-.03-.06c-1.49-3.59-2.21-7.55-2.09-11.44.23-7.81,3.7-15.34,9.52-20.65,1.48-1.35,3.08-2.52,4.76-3.49.09-.05.15-.09.22-.13.15-.09.31-.18.48-.27l.68-.33,1.36-.64s.07-.03.1-.04c.48-.19.97-.36,1.46-.53l.71-.24c.23-.07.42-.12.62-.17l.21-.05c.51-.13,1.01-.24,1.52-.35.02,0,.03,0,.05,0,.47-.08.93-.14,1.38-.19l.19-.02c.44-.06,1.03-.12,1.65-.12.51-.01,1.02-.02,1.52-.02.02,0,.03,0,.05,0,.38.02.76.05,1.14.08l1.16.11s.04,0,.06,0c.18.02.35.06.53.09.08.02.17.03.25.05.02,0,.04,0,.05.01l1.45.3s.05.01.08.02c.51.13,1.02.29,1.49.44l.71.23s.06.02.1.04l.68.27c.49.21.95.4,1.41.61.03.02.07.03.1.05l1.94,1.07s.07.04.1.06l.91.61c.31.21.62.42.92.64.03.02.06.04.08.06.39.32.76.64,1.14.97l.05.05c.18.15.35.3.53.47.02.01.03.03.05.05l.5.51c.35.36.69.72,1.02,1.08.02.02.04.05.06.07.31.38.61.77.91,1.16l.43.57s.05.07.08.11l1.12,1.81s.04.06.05.09c.24.45.46.91.65,1.32.44.87.79,1.9,1.11,2.87,0,.03.02.05.02.08.11.41.25.94.36,1.49.09.39.13.77.18,1.13.02.14.03.27.05.41.24,2.08.12,4.15-.35,6.21-.48,1.97-1.27,3.81-2.37,5.49-2.06,3.22-5.32,5.63-8.93,6.59-1.71.45-3.46-.57-3.91-2.27-.29-1.12.04-2.31.86-3.11l.05-.05c3.35-3.27,3.6-7.42,2.42-9.92-.06-.11-.11-.23-.17-.34-.02-.05-.04-.1-.07-.14-.11-.16-.2-.32-.3-.49l-.03-.04c-.06-.08-.11-.15-.16-.23-.17-.24-.3-.42-.48-.61-.13-.14-.23-.26-.33-.38-.04-.05-.09-.11-.13-.16l-.65-.63-.19-.14c-.19-.14-.37-.29-.55-.44-.71-.46-1.31-.83-1.92-1.06-.03-.01-.06-.02-.09-.04l-.22-.1-.24-.08c-.16-.05-.34-.1-.53-.17-.21-.04-.41-.09-.62-.14l-.2-.05-.23-.03c-.16-.02-.33-.05-.51-.08h-.08c-.2-.02-.4-.03-.6-.05-.02,0-.04,0-.06,0-.08,0-.21,0-.34,0,0,0-.04,0-.05,0-.11,0-.22,0-.33,0-.06,0-.12,0-.18,0-.21.03-.41.04-.57.05-.15,0-.3.02-.37.04-.06.02-.12.03-.18.04l-.5.08c-.2.06-.39.11-.6.15l-.08.02s-.05,0-.07.01l-.21.08c-.18.07-.37.13-.57.18-.15.07-.3.13-.46.2-.01,0-.05.02-.07.03l-.23.09h-.02c-.06.05-.12.09-.18.12-.88.46-1.55.89-2.12,1.34-1.34,1.05-2.42,2.37-3.13,3.82-.73,1.48-1.15,3.16-1.2,4.89-.05,1.67.25,3.36.88,4.88.11.21.21.43.31.65.08.18.17.37.26.56.27.44.53.88.79,1.33.02.03.03.05.04.08.02.03.09.12.14.19.06.08.12.16.18.24l.46.62s.03.05.05.07c.14.22.36.45.58.7.09.1.19.2.28.3,1.33,1.45,2.84,2.64,4.46,3.52,1.69.9,3.52,1.52,5.42,1.85,2.03.34,3.94.35,5.67.02,1.89-.33,3.67-.95,5.47-1.89,3.68-1.98,6.78-4.93,8.96-8.52,2.17-3.6,3.35-7.73,3.41-11.93.01-2.21-.24-4.29-.75-6.17-.24-.97-.56-1.88-.98-2.97-.08-.18-.16-.37-.24-.55-.13-.3-.25-.59-.38-.84,0-.02-.02-.03-.02-.05l-.36-.72-.41-.74c-2.19-3.9-5.23-7.34-8.78-9.95-3.57-2.62-7.77-4.5-12.14-5.44-4.33-.92-8.92-.91-13.27.04-2.17.48-4.3,1.19-6.33,2.12-.3.14-.6.29-.9.44-.2.1-.4.2-.61.3l-1.56.86c-.33.17-.62.36-.94.57-.19.12-.37.24-.56.35l-.72.45-.72.5c-7.74,5.35-13.43,13.31-16.03,22.42-.67,2.32-1.13,4.64-1.38,6.9-.25,2.3-.31,4.66-.18,7.02.14,2.41.48,4.75.99,6.94.54,2.26,1.27,4.51,2.19,6.67.08.18.17.39.26.61.14.34.28.66.43.95l.8,1.63,1.33,2.38,1.45,2.3,1.56,2.2.55.69c.15.19.3.38.45.57.22.28.44.57.68.85,1.6,1.87,3.3,3.59,5.03,5.11,2.09,1.77,3.92,3.13,5.72,4.24,7.88,4.97,17.66,7.59,27.55,7.4,9.71-.17,19.47-2.86,28.26-7.79,8.41-4.69,15.73-11.69,21.16-20.24,5.3-8.31,8.76-18,10-28.04,1.25-9.97.32-20.27-2.69-29.77-.12-.37-.24-.75-.37-1.11-.27-.76.09-1.59.8-1.94.73-.34,1.59-.08,2.01.61.76,1.27,1.48,2.55,2.15,3.81h0c8.9,16.9,11.35,36.42,6.9,54.96-.02.1-.06.2-.1.29-1.54,3.34-3.32,6.61-5.29,9.7-6.84,10.77-16.11,19.62-26.82,25.59-1.13.64-2.3,1.26-3.49,1.85ZM137.71,141.73l1.1-.17c3.27-.45,6.42-1.23,8.8-1.87,5.94-1.69,11.5-3.98,16.49-6.81,10.27-5.72,19.15-14.21,25.72-24.55,1.87-2.94,3.56-6.03,5.02-9.2,3.49-14.66,2.49-29.94-2.76-43.93.8,6.16.83,12.45.06,18.62-1.3,10.5-4.92,20.64-10.47,29.33-5.71,8.99-13.41,16.35-22.27,21.29-9.23,5.18-19.51,8.02-29.73,8.19-10.49.2-20.88-2.59-29.27-7.88-1.93-1.19-3.87-2.63-6.11-4.53-1.86-1.64-3.66-3.46-5.36-5.44-.27-.31-.52-.63-.77-.95-.14-.18-.28-.36-.42-.53l-.58-.73s-.04-.05-.05-.07l-1.62-2.28s-.03-.05-.05-.07l-1.5-2.37s-.03-.05-.04-.07l-1.37-2.44s-.03-.05-.04-.08l-.81-1.64c-.19-.37-.36-.76-.52-1.14-.08-.19-.16-.38-.25-.57-1-2.36-1.79-4.77-2.36-7.2-.56-2.37-.92-4.88-1.07-7.48-.15-2.53-.08-5.07.19-7.54.27-2.44.77-4.93,1.49-7.41,2.8-9.8,8.92-18.37,17.25-24.12l.74-.52s.04-.03.06-.04l.77-.49c.19-.12.36-.22.53-.33.36-.23.73-.46,1.14-.68l1.57-.87s.05-.03.08-.04c.2-.1.41-.2.61-.3.33-.16.66-.33,1-.49,2.23-1.02,4.57-1.81,6.97-2.33,4.79-1.05,9.83-1.06,14.6-.05,4.79,1.03,9.4,3.09,13.33,5.97,3.91,2.87,7.25,6.65,9.66,10.94l.43.77s.02.04.04.07l.36.73c.2.37.35.73.5,1.08.07.17.14.34.22.51.01.03.03.06.04.09.41,1.05.82,2.19,1.11,3.36.57,2.11.86,4.48.85,6.98-.07,4.77-1.4,9.44-3.86,13.52-2.46,4.07-5.98,7.41-10.17,9.67-2.11,1.1-4.19,1.81-6.38,2.2-2.07.39-4.35.39-6.75-.02-2.24-.38-4.38-1.11-6.38-2.17-1.94-1.05-3.72-2.46-5.3-4.18-.1-.11-.18-.19-.26-.28-.28-.31-.6-.65-.88-1.08l-.44-.6c-.04-.06-.08-.11-.12-.15-.13-.16-.3-.38-.44-.66-.25-.44-.51-.86-.77-1.3-.02-.03-.04-.06-.05-.09-.12-.24-.24-.48-.35-.72-.09-.2-.18-.39-.28-.58-.02-.04-.04-.07-.05-.11-.81-1.94-1.2-4.1-1.14-6.23.07-2.17.59-4.31,1.52-6.17.91-1.86,2.29-3.55,3.99-4.89.72-.57,1.55-1.1,2.6-1.66l.04-.03c.09-.05.23-.14.4-.21l.28-.11c.16-.07.33-.14.49-.22.07-.03.15-.06.23-.08.15-.04.31-.09.46-.14l.3-.11s.07-.02.1-.03c.11-.03.22-.06.33-.08h.06c.14-.04.26-.08.38-.11l.11-.03c.06-.02.13-.03.19-.04l.52-.08c.34-.08.65-.1.91-.12.11,0,.23-.01.34-.03.07-.01.14-.02.21-.02.15,0,.29,0,.43,0,.07,0,.14,0,.22,0,.23,0,.5-.02.81.02.17.01.35.02.52.03.06,0,.13,0,.19.02l.2.03c.11.02.23.04.35.05l.34.04c.05,0,.11.02.16.03l.31.07s.04,0,.05.01c.16.04.33.08.5.11.07.01.14.03.21.05.18.06.37.12.56.18l.35.11c.05.02.1.04.15.06l.26.11c1,.38,1.89.95,2.6,1.42.06.04.13.09.18.14.13.12.28.23.42.35l.27.2c.06.05.12.1.17.15l.73.71s.05.05.08.08c.09.1.17.2.26.3.06.07.12.15.19.22.32.34.55.66.75.94.06.08.12.16.18.25.03.04.06.09.09.14l.07.12c.07.12.14.24.22.36.02.03.04.06.06.09.09.14.16.3.23.45.03.06.05.12.09.18.02.03.03.06.04.08,1.67,3.47,1.43,9.19-3.02,13.52l-.05.05s-.05.06-.04.1c0,.03.05.06.09.04,2.86-.76,5.45-2.68,7.11-5.26.91-1.4,1.57-2.91,1.96-4.51.38-1.69.48-3.41.29-5.09-.02-.11-.04-.26-.05-.41-.04-.31-.08-.6-.13-.87-.1-.47-.22-.94-.32-1.31-.26-.8-.57-1.71-.93-2.42-.2-.42-.38-.81-.58-1.19l-1.04-1.68-.39-.51c-.26-.34-.53-.69-.82-1.04-.3-.33-.61-.65-.92-.97l-.47-.49c-.13-.12-.26-.23-.39-.35l-.07-.06c-.35-.3-.69-.6-1.04-.88-.27-.19-.55-.38-.82-.57l-.84-.57-.58-.33-1.2-.65c-.41-.19-.83-.36-1.25-.54l-.61-.24-.65-.21c-.41-.13-.85-.27-1.28-.38l-1.38-.28c-.1-.02-.19-.04-.29-.05-.11-.02-.22-.04-.33-.06l-1.11-.1c-.32-.03-.65-.06-.97-.07-.46,0-.94,0-1.4.02-.02,0-.03,0-.05,0-.44,0-.91.05-1.27.1l-.21.03c-.41.05-.8.1-1.17.16-.46.1-.92.2-1.38.31l-.24.06c-.13.03-.27.06-.4.1l-.66.22c-.43.14-.86.3-1.28.46l-1.93.92c-.08.04-.16.09-.25.14-.1.06-.19.11-.29.17-1.46.84-2.88,1.88-4.2,3.08-5.2,4.74-8.29,11.46-8.5,18.43-.11,3.44.53,6.94,1.84,10.12l.26.56c.29.63.56,1.22.85,1.78l1.32,2.22s.02.03.03.05c.1.18.25.39.42.61.08.1.15.21.23.31l.76,1.03c.4.57.86,1.08,1.35,1.62l.25.27c2.31,2.52,4.94,4.58,7.8,6.13,2.95,1.58,6.11,2.67,9.39,3.22,3.44.58,6.78.58,9.92.02,3.17-.54,6.42-1.66,9.41-3.24,5.62-3.02,10.53-7.69,13.83-13.15,3.34-5.55,5.16-11.9,5.25-18.36.02-3.35-.37-6.57-1.16-9.56-.34-1.37-.81-2.78-1.51-4.58-.1-.22-.19-.44-.29-.66-.23-.53-.44-1.04-.69-1.51l-.56-1.11-.57-1.04c-3.07-5.48-7.34-10.32-12.35-13.99-5.03-3.69-10.92-6.33-17.04-7.63-6.1-1.3-12.55-1.28-18.67.06-3.05.67-6.05,1.67-8.91,2.98-.45.21-.9.43-1.35.66-.26.13-.51.26-.77.38-.42.23-.83.46-1.24.69-.26.15-.52.29-.79.44-.42.23-.82.48-1.24.75-.24.15-.48.3-.72.45l-.94.6-.95.66c-10,6.9-17.65,17.6-21,29.35-.86,3.01-1.47,6.04-1.8,9.01-.33,3.04-.41,6.13-.23,9.18.19,3.15.63,6.21,1.31,9.1.7,2.95,1.66,5.89,2.86,8.73.1.22.2.47.31.72.2.47.39.92.61,1.35l1.03,2.09,1.66,2.96,1.81,2.87,1.97,2.78.7.88c.15.19.31.39.46.58.32.4.64.81.97,1.2,2.02,2.37,4.18,4.55,6.4,6.49,2.61,2.22,5,4,7.31,5.42,5.16,3.23,10.76,5.66,16.66,7.21,3.17.83,6.07,1.39,8.88,1.7l1.14.14,1.12.09c.26.02.53.04.8.06.48.04.97.08,1.45.1l.75.02c1.29.04,2.51.08,3.73.04.02,0,.04,0,.06,0,1.14,0,2.27-.07,3.46-.15.35-.02.7-.05,1.05-.07.44-.04.91-.09,1.39-.14.28-.03.55-.06.83-.09l1.1-.12ZM117.12,69.64s0,0,0,0h0Z"/>
          <g class="cls-7">
            <path class="cls-8" d="M183.58,46.35c3.5,6.64,5.93,13.55,7.35,20.55-.5,10.74-3.07,20.31-7.23,28.61-6.07,12.14-15.54,21.56-26.87,28.01-7.47,4.25-15.75,7.2-24.4,8.77,62.01-15.57,59.6-123.89-18.31-125.36l3.25-1.71c25.61.68,50.17,14.13,64.1,37.38.34.56.67,1.14,1,1.72h0c.29.51.57,1.01.84,1.52.09.16.18.33.27.5Z"/>
          </g>
          <g class="cls-7">
            <path class="cls-8" d="M191.41,69.46c1.74,10.33,1.32,20.79-1.08,30.75-1.35,5.65-3.35,11.14-5.94,16.35-6.94,14-18.2,26.02-33.08,33.86-5.37,2.83-10.92,4.96-16.54,6.42-3.06.8-6.14,1.4-9.22,1.81-14.83.8-29.56-2.74-42.37-10.03.42-1.23.66-1.92.66-1.92,0,0,21.42,13.43,54.06-3.42,0,0,14.86-5.93,7.36-12.91,3.95-2.06,7.83-4.34,11.57-6.85,10.91-7.33,20.53-16.61,26.87-28.01,4.28-7.7,7.06-16.36,7.71-26.04Z"/>
          </g>
        </g>
      </g>
      <g>
        <path class="cls-5" d="M409.2,309.86c-10.52,0-21.16-6.4-21.16-18.62v-76h-3.63c-11.99,0-18.26-9.92-18.26-19.71s6.27-19.89,18.26-19.89h49.75c11.99,0,18.26,10,18.26,19.89s-6.27,19.71-18.26,19.71h-3.63v76c0,12.22-10.73,18.62-21.32,18.62Z"/>
        <path class="cls-8" d="M434.16,179.06c9.96,0,14.84,8.32,14.84,16.46s-4.88,16.29-14.84,16.29h-4.7c-2.17,0-2.36,1.27-2.36,2.72v76.71c0,10.14-9.05,15.2-17.9,15.2s-17.74-5.06-17.74-15.2v-76.71c0-1.45-.18-2.72-2.36-2.72h-4.7c-9.94,0-14.83-8.14-14.83-16.29s4.89-16.46,14.83-16.46h49.75M434.16,172.22h-49.75c-6.66,0-12.52,2.76-16.5,7.76-3.34,4.2-5.18,9.72-5.18,15.55,0,11.49,7.45,23.13,21.68,23.13h.21v72.58c0,6.82,2.93,12.8,8.24,16.85,4.4,3.35,10.2,5.2,16.34,5.2s11.95-1.84,16.38-5.17c5.39-4.05,8.36-10.05,8.36-16.87v-72.58h.21c6.65,0,12.51-2.71,16.48-7.63,3.35-4.16,5.2-9.66,5.2-15.5s-1.84-11.35-5.17-15.54c-3.98-5.01-9.84-7.76-16.51-7.76h0Z"/>
      </g>
      <path class="cls-1" d="M391.4,188.77c1.79,4.43-6.53,6.42-11.79,8.12-5.26,1.7-8.11-2.69-4.12-5.48,3.99-2.79,14.33-6.55,15.91-2.64Z"/>
      <path class="cls-4" d="M434.16,179.06h-33.25c1.11,4.25,4.89,10.05,13.46,13.75,9.23,3.98,12.15,13.56,19.29,19h.49c9.96,0,14.84-8.14,14.84-16.29s-4.88-16.46-14.84-16.46Z"/>
      <path class="cls-4" d="M427.1,241.93c-4.46-1.37-9.62-3.52-13.21-6.77-7.65-6.93-14.01-23.11-23.24-28.21-6.36-3.51-14.15-2.56-18.37-1.62,2.41,3.81,6.44,6.48,12.13,6.48h4.7c2.18,0,2.36,1.27,2.36,2.72v34.67c4.28,2.97,9.18,6.98,12.44,11.56,4.28,6.02,15.36,10.34,23.2,12.75v-31.59Z"/>
      <path class="cls-6" d="M425.78,297.37c-22.98-3.79-31.45-22.38-34.32-31.91v25.78c0,10.14,8.87,15.2,17.74,15.2,6.83,0,13.77-3.03,16.58-9.07Z"/>
      <g>
        <path class="cls-5" d="M312.77,309.86c-14.17,0-21.98-9.03-21.98-25.43v-83.31c0-16.4,7.81-25.43,21.98-25.43h35.28c11.2,0,18.16,7.59,18.16,19.8,0,9.65-6.24,19.43-18.16,19.43h-10.72c-2.56,0-3.86,1.48-3.86,4.4s1.3,4.4,3.86,4.4h10c9.88,0,16.52,7.66,16.52,19.06,0,9.47-5.67,19.06-16.52,19.06h-10c-2.56,0-3.86,1.48-3.86,4.4s1.3,4.4,3.86,4.4h10.72c11.2,0,18.16,7.59,18.16,19.8,0,9.65-6.24,19.43-18.16,19.43h-35.28Z"/>
        <path class="cls-8" d="M348.05,179.1c9.29,0,14.74,6.18,14.74,16.37,0,7.46-4.55,16-14.74,16h-10.72c-4.37,0-7.29,2.91-7.29,7.83s2.92,7.82,7.29,7.82h10c8.74,0,13.09,7.09,13.09,15.64,0,7.82-4.35,15.64-13.09,15.64h-10c-4.37,0-7.29,2.92-7.29,7.83s2.92,7.82,7.29,7.82h10.72c9.29,0,14.74,6.18,14.74,16.37,0,7.46-4.55,16-14.74,16h-35.28c-13.64,0-18.56-9.28-18.56-22.01v-83.31c0-12.73,4.92-22.01,18.56-22.01h35.28M348.05,172.26h-35.28c-7.64,0-25.4,2.81-25.4,28.85v83.31c0,26.04,17.77,28.85,25.4,28.85h35.28c6.73,0,12.61-2.78,16.57-7.82,3.23-4.11,5.01-9.45,5.01-15.03,0-14.11-8.47-23.22-21.58-23.22h-10.72c-.14,0-.25-.01-.33-.02-.05-.17-.11-.48-.11-.95s.06-.79.11-.96c.08-.01.18-.02.33-.02h10c11.55,0,19.94-9.46,19.94-22.49s-8.2-22.49-19.94-22.49h-10c-.14,0-.25-.01-.33-.02-.05-.17-.11-.48-.11-.95s.06-.79.11-.96c.08-.01.18-.02.33-.02h10.72c6.73,0,12.61-2.78,16.57-7.82,3.23-4.11,5.01-9.45,5.01-15.03,0-14.11-8.47-23.22-21.58-23.22h0Z"/>
      </g>
      <path class="cls-6" d="M312.77,306.43h35.28c10.19,0,14.74-8.55,14.74-16,0-10.19-5.45-16.37-14.74-16.37h-10.72c-4.37,0-7.29-2.91-7.29-7.82s2.92-7.83,7.29-7.83h10c8.74,0,13.09-7.82,13.09-15.64,0-.33-.02-.65-.03-.97-8.11,3.5-23.55,3.63-36.89,6.78-16.52,3.89-16.03,30.82-13.93,39.62,1.46,6.12-.14,13.76-1.24,17.85,1.37.25,2.85.39,4.45.39Z"/>
      <path class="cls-4" d="M294.21,276.38v8.04c0,12.73,4.92,22.01,18.56,22.01h12.71c-6.51-15.97-24.52-26.55-31.27-30.05Z"/>
      <path class="cls-4" d="M348.05,179.1h-2.41c-10.59,5.18-19.63,15.64-29.87,22.53-9.94,6.68-17.79,8.23-21.55,8.56v19.37c6.82-.02,15.99-.73,24.77-3.56,4.92-1.59,8.43-3.47,11.13-5.5-.04-.38-.07-.78-.07-1.19,0-4.92,2.92-7.83,7.29-7.83h.91c1.65-2.31,3.31-4.57,5.66-6.62,4.54-3.96,12.77-6,18.73-7,.1-.8.16-1.6.16-2.38,0-10.19-5.45-16.37-14.74-16.37Z"/>
      <path class="cls-1" d="M345.03,278.83c2.71,3.29-7.1,13.78-12.73,9.26-5.63-4.52,9.52-13.15,12.73-9.26Z"/>
      <path class="cls-1" d="M302.72,218.05c4.99-.19,2.45-9.74,9.29-15.59,6.85-5.87,14.99-9.52,13.8-13.36-1.19-3.85-17.49,1.36-20.91,7.13-4.09,6.9-8.95,22.09-2.19,21.82Z"/>
      <g>
        <path class="cls-5" d="M235.56,309.86c-14.17,0-21.98-9.03-21.98-25.43v-83.31c0-16.4,7.81-25.43,21.98-25.43h35.28c11.2,0,18.16,7.59,18.16,19.8,0,9.65-6.24,19.43-18.16,19.43h-10.72c-2.56,0-3.86,1.48-3.86,4.4s1.3,4.4,3.86,4.4h10c9.88,0,16.52,7.66,16.52,19.06,0,9.47-5.67,19.06-16.52,19.06h-10c-2.56,0-3.86,1.48-3.86,4.4s1.3,4.4,3.86,4.4h10.72c11.2,0,18.16,7.59,18.16,19.8,0,9.65-6.24,19.43-18.16,19.43h-35.28Z"/>
        <path class="cls-8" d="M270.84,179.1c9.29,0,14.74,6.18,14.74,16.37,0,7.46-4.55,16-14.74,16h-10.72c-4.37,0-7.29,2.91-7.29,7.83s2.92,7.82,7.29,7.82h10c8.74,0,13.09,7.09,13.09,15.64,0,7.82-4.35,15.64-13.09,15.64h-10c-4.37,0-7.29,2.92-7.29,7.83s2.92,7.82,7.29,7.82h10.72c9.29,0,14.74,6.18,14.74,16.37,0,7.46-4.55,16-14.74,16h-35.28c-13.64,0-18.56-9.28-18.56-22.01v-83.31c0-12.73,4.92-22.01,18.56-22.01h35.28M270.84,172.26h-35.28c-7.64,0-25.4,2.81-25.4,28.85v83.31c0,26.04,17.77,28.85,25.4,28.85h35.28c6.73,0,12.61-2.78,16.57-7.82,3.23-4.11,5.01-9.45,5.01-15.03,0-14.11-8.47-23.22-21.58-23.22h-10.72c-.14,0-.25-.01-.33-.02-.05-.17-.11-.48-.11-.95s.06-.79.11-.96c.08-.01.18-.02.33-.02h10c11.55,0,19.94-9.46,19.94-22.49s-8.2-22.49-19.94-22.49h-10c-.14,0-.25-.01-.33-.02-.05-.17-.11-.48-.11-.95s.06-.79.11-.96c.08-.01.18-.02.33-.02h10.72c6.73,0,12.61-2.78,16.57-7.82,3.23-4.11,5.01-9.45,5.01-15.03,0-14.11-8.47-23.22-21.58-23.22h0Z"/>
      </g>
      <path class="cls-4" d="M277.16,180.73c.05-.13.09-.26.14-.39-1.87-.81-4.03-1.24-6.46-1.24h-35.28c-13.64,0-18.56,9.28-18.56,22.01v12.71c2.67,1.12,6.43,1.92,8.61-1.03,3.65-4.94-1.93-22.62,13.21-24.52,15.14-1.9,35.65-1.06,38.34-7.55Z"/>
      <path class="cls-1" d="M245.82,187.13c2.41,3.28-6.22,6.71-10.42,9.99-4.2,3.28-5.05,14.51-10.06,14.54s.43-13.04,3.97-18.04c2.88-4.07,12.94-11.36,16.51-6.5Z"/>
      <path class="cls-6" d="M242.53,290.62c-16.24-.69-22.85-8.38-25.52-14.09v7.89c0,12.73,4.92,22.01,18.56,22.01h35.28c1.26,0,2.44-.13,3.53-.38-4.37-5.67-14.06-14.69-31.85-15.44Z"/>
      <path class="cls-4" d="M285.58,290.43c0-10.19-5.45-16.37-14.74-16.37h-2.74c-2.86,2.98-7.08,6.77-13.18,10.97-8.8,6.05-9.28,15.2-8.33,21.41h24.25c10.19,0,14.74-8.55,14.74-16Z"/>
      <path class="cls-1" d="M266.94,279.43c.44,2.36-4.23,7.11-9.14,7.46-4.91.35-7.38-1.97-5.22-3.7,2.16-1.72,13.27-9.65,14.36-3.77Z"/>
      <path class="cls-4" d="M244.78,243.99c17.06-15.61,38.13,6.07,38.31-3.4-.69-7.54-5-13.46-12.98-13.46h-10c-4.37,0-7.29-2.91-7.29-7.82s2.92-7.83,7.29-7.83h10.72c-8.41-.29-11.62-1.76-23.16-1-13.49.89-24.27,15-30.68,25.99v47.95c0,.35.02.68.03,1.02,7.78-7.54,13.5-28.42,27.76-41.46Z"/>
      <g>
        <path class="cls-5" d="M174.52,309.88c-4.88,0-17.82,0-20.71-16.05l-6.71-26.05-6.47,26.04c-2.88,16.07-15.83,16.07-20.71,16.07-11.31,0-18.05-5.44-20.04-16.16l-19.4-97.51c-1.25-6.49-.38-11.59,2.58-15.18,3.17-3.84,8.38-5.71,15.92-5.71,11.43,0,17.34,4.95,19.19,16.05l5.51,33.56,6.21-18.09c2.83-8.47,8.29-12.43,17.16-12.43s14.39,4.09,17.03,12.52l5.47,17.35,5.52-32.92c1.77-10.79,7.83-16.04,18.51-16.04,7.67,0,13.59,2.26,17.12,6.53,2.11,2.55,4.32,7.11,2.92,14.34l-19.06,97.56c-2,10.69-8.75,16.12-20.05,16.12Z"/>
        <path class="cls-8" d="M193.59,178.77c10.99,0,18.89,5.23,16.65,16.77l-19.06,97.56c-1.72,9.19-7.05,13.34-16.66,13.34-7.72,0-15.28-1.62-17.34-13.34l-10.14-39.38-9.79,39.38c-2.06,11.72-9.6,13.34-17.34,13.34-9.62,0-14.95-4.15-16.65-13.34l-19.41-97.56c-2.4-12.44,4.12-16.77,15.11-16.77,8.75,0,14.08,2.89,15.78,13.16l7.73,47.06,10.65-31.03c2.29-6.84,6.35-10.1,13.9-10.1,6.36,0,11.27,2.2,13.74,10.1l9.79,31.03,7.9-47.06c1.54-9.37,6.35-13.16,15.11-13.16M193.59,171.88c-12.31,0-19.88,6.55-21.92,18.94l-3.15,18.75-1.16-3.67c-3.1-9.9-9.94-14.92-20.32-14.92s-17.14,4.97-20.43,14.78l-1.76,5.12-3.29-20.05c-2.12-12.75-9.5-18.94-22.59-18.94-8.51,0-14.76,2.34-18.57,6.96-3.65,4.42-4.76,10.48-3.31,18.01l19.4,97.55c1.62,8.65,7,18.93,23.42,18.93,5.12,0,20.65,0,24.08-18.79l3.16-12.7,3.28,12.73c3.44,18.76,18.96,18.76,24.08,18.76,13,0,21.11-6.55,23.44-18.94l19.05-97.53c1.66-8.56-1.07-14.08-3.64-17.2-4.2-5.09-11.04-7.78-19.78-7.78h0Z"/>
      </g>
      <path class="cls-1" d="M101.53,187.05c3.19,1.09,2.04,2.22,0,10.72-2.04,8.5-1.04,11.98,0,16.85,1.04,4.87-4.96,7.11-8.37-.62-3.41-7.73-1.05-14.71.65-19.98,1.7-5.27,4.87-7.95,7.72-6.97Z"/>
      <path class="cls-6" d="M117.57,295.18c-9.44.74-16.63-13.8-17.66-18.96h0s3.36,16.87,3.36,16.87c1.71,9.19,7.03,13.34,16.65,13.34,7.73,0,15.28-1.62,17.34-13.34l9.79-39.38c-4.23,4.54-14.8,40.32-29.47,41.47Z"/>
      <path class="cls-6" d="M193.59,178.77c-2.92,0-5.4.43-7.46,1.34,9.1-3.62,12.57,23.14,11.44,43.6-1.14,20.52-15.84,60.67-28.39,59.54-10.87-.97-6.32,9.72-7.06,5.59l-4.93,4.25c2.06,11.72,9.62,13.34,17.34,13.34,9.62,0,14.95-4.15,16.66-13.34l19.06-97.56c2.24-11.54-5.66-16.77-16.65-16.77Z"/>
      <g>
        <path class="cls-5" d="M41.8,309.88c-18.85,0-38.36-11.25-38.36-30.07,0-11.42,7.02-19.1,17.48-19.1,6.22,0,10.3,3.37,13.27,5.84,1.62,1.34,3.16,2.61,4.19,2.61,3.75,0,3.75-2.07,3.75-2.84,0-1.5-2.06-4.14-4.68-6.01l-16.3-12.67c-10.44-7.98-16.45-20.13-16.45-33.31,0-22.07,17.57-38.71,40.88-38.71,21.65,0,34.58,9.83,34.58,26.29,0,8.59-6.42,15.33-14.61,15.33-3.62,0-6.48-1.22-9-2.29-1.88-.8-3.5-1.49-5.03-1.49-.61,0-2.49,0-2.49,2.84,0,.81.86,2.68,1.99,3.51l20.53,15.12c9.6,7.07,14.89,18.02,14.89,30.84s-4.52,23.92-12.74,31.91c-8.09,7.87-19.42,12.2-31.9,12.2Z"/>
        <path class="cls-8" d="M45.58,179.06c15.1,0,31.13,5.4,31.13,22.84,0,6.3-4.51,11.88-11.16,11.88-5.58,0-9.36-3.78-14.03-3.78-3.96,0-5.93,2.88-5.93,6.29,0,1.98,1.44,4.86,3.41,6.3l20.51,15.11c9.54,7.02,13.49,17.45,13.49,28.07,0,24.29-17.45,40.66-41.19,40.66-16.01,0-34.91-9.17-34.91-26.62,0-8.82,4.86-15.65,14.03-15.65s12.23,8.45,17.46,8.45c3.96,0,7.19-1.98,7.19-6.29,0-3.42-3.6-7.02-6.12-8.82l-16.19-12.59c-9.89-7.56-15.12-18.89-15.12-30.59,0-20.87,17.1-35.26,37.43-35.26M45.58,172.17c-11.76,0-22.77,4.12-30.98,11.6-8.6,7.84-13.34,18.69-13.34,30.55,0,14.25,6.49,27.39,17.8,36.05l14.55,11.32c-3.04-2.22-7.13-4.43-12.69-4.43-12.32,0-20.93,9.27-20.93,22.55,0,20.98,21.25,33.52,41.8,33.52,13.39,0,25.57-4.68,34.31-13.17,8.89-8.64,13.78-20.85,13.78-34.38s-5.79-25.89-16.3-33.62l-19.9-14.66c.48.19.99.4,1.51.63,2.69,1.14,6.03,2.57,10.35,2.57,10.13,0,18.06-8.25,18.06-18.78,0-18.34-14.57-29.74-38.02-29.74h0ZM36.82,264.24c-.15-.12-.29-.24-.42-.35-.31-.25-.63-.52-.96-.79h.01c.5.36.96.75,1.38,1.14h0Z"/>
      </g>
      <path class="cls-1" d="M35.22,188.2c2.28,3.48-6.2,7.54-9.17,12.1-3.35,5.13-6.63,10.43-8.83,7.43s2.42-11.84,7.37-15.9c4.95-4.06,8.74-6.49,10.63-3.63Z"/>
      <path class="cls-6" d="M60.04,203.83c-1.98,2.64-2.67,5.35-2.76,7.68,2.51,1.06,5.1,2.28,8.28,2.28,6.65,0,11.16-5.58,11.16-11.88,0-1.22-.09-2.38-.24-3.49-4.71,4.13-11.76-.82-16.44,5.41Z"/>
      <path class="cls-6" d="M23.27,244.91l15.64,12.16c-.02-1.2-.38-2.78-1.33-4.9-3.65-8.11-1.22-10.79-9.17-16.24-4.24-2.91-8.56-.35-11.66,2.67,1.88,2.3,4.05,4.42,6.52,6.31Z"/>
      <path class="cls-4" d="M83,265.78c0-10.19-3.66-20.21-12.39-27.2-2.51,5.1.96,11.98.09,27.56-.95,16.96-20.47,30.98-39.94,27.25-19.31-3.7-19.15-26.3-15.25-28.27-5.65,2.16-8.62,7.82-8.62,14.69,0,17.45,18.9,26.62,34.91,26.62,23.75,0,41.19-16.37,41.19-40.66Z"/>
      <path class="cls-4" d="M174.39,263.27c-3.79,7.14-13.89,11.98-21.03,14.97l3.82,14.85c2.06,11.72,9.62,13.34,17.34,13.34,9.62,0,14.95-4.15,16.66-13.34l8.6-44.05c-10.33.27-20.51,5.02-25.4,14.22Z"/>
      <path class="cls-4" d="M107.39,236.1c-3.4,4.91-8.74,10.34-12.65,14.06l1.53,7.69,3,15.08c3.28-1.62,7.73-3.1,13.25-3.28,12.77-.42,22.18-14.34,25.34-28.96,2.85-13.17,12.23-25.33,24.74-27.02l-1.8-5.71c-2.48-7.9-7.38-10.1-13.74-10.1-7.55,0-11.61,3.26-13.9,10.1l-10.65,31.03-2.34-14.24s-6.87,2.81-12.77,11.34Z"/>
      <path class="cls-1" d="M149.51,205.62c2.54,2.44-6.16,6.97-8.46,13.84s-2.9,10.58-5.6,8.59c-2.7-1.99-2.13-10.18,2.41-16.1s8.94-8.93,11.65-6.33Z"/>
    </g>
  </g>
</svg>